<svg width="752" height="667" viewBox="0 0 752 667" fill="none" xmlns="http://www.w3.org/2000/svg">
<path d="M148.73 402.117C150.114 402.764 151.365 403.666 152.416 404.775C157.274 410.041 153.561 417.271 148.072 418.425C143.955 419.291 138.876 417.081 136.894 413.369C135.219 410.226 135.488 407.128 137.636 404.338C139.732 401.603 142.67 400.778 146.002 401.338C146.926 401.543 147.837 401.803 148.73 402.117Z" fill="white" fill-opacity="0.12"/>
<path d="M124.351 475.744L110.689 469.729L131.906 421.539L145.503 427.526C145.374 428.59 125.125 474.699 124.351 475.744Z" fill="white" fill-opacity="0.12"/>
<path d="M393.03 569.957L356.534 553.888C356.42 554.469 356.307 554.886 356.262 555.311C355.851 559.24 357.031 562.703 359.755 565.475C364.339 570.142 369.984 572.194 376.522 571.516C377.734 571.393 378.918 570.995 380.284 570.685L384.117 581.817C383.185 582.176 382.325 582.552 381.427 582.836C377.045 584.251 372.603 584.278 368.156 583.236C361.689 581.718 355.801 578.98 350.843 574.492C345.128 569.305 341.829 562.925 341.767 555.089C341.723 549.903 343.243 545.129 345.845 540.671C348.419 536.18 352.285 532.567 356.94 530.303C362.546 527.541 368.427 526.97 374.489 528.279C380.659 529.606 386.105 532.359 390.52 536.94C396.906 543.574 398.853 551.462 397.007 560.389C396.38 563.392 395.17 566.181 393.736 568.878C393.571 569.194 393.342 569.485 393.03 569.957ZM359.979 545.647C361.295 546.529 382.826 555.942 383.779 556.077C383.853 555.989 383.913 555.889 383.958 555.782C384.913 551.694 384.207 547.953 381.544 544.651C379.612 542.251 377.014 540.871 374.133 540.025C371.484 539.233 368.645 539.357 366.075 540.375C363.504 541.394 361.352 543.249 359.964 545.64L359.979 545.647Z" fill="white" fill-opacity="0.12"/>
<path d="M236.173 524.971L236.862 523.406C240.193 515.84 243.525 508.273 246.856 500.707C247.7 498.792 248.494 496.859 248.864 494.765C249.546 490.874 248.405 486.796 243.837 484.359C242.188 483.425 240.381 482.802 238.507 482.524C233.698 481.931 229.995 483.868 227.306 487.761C226.319 489.228 225.468 490.782 224.765 492.403C221.552 499.581 218.415 506.774 215.249 513.965L214.588 515.467L200.951 509.462C201.066 508.504 229.194 444.401 230.074 443.063C231.018 443.202 242.6 448.257 243.808 449.11L233.628 472.232C233.98 472.186 234.33 472.122 234.676 472.04C239.923 470.39 245.074 470.876 250.139 472.796C253.551 474.089 256.697 475.863 259.281 478.487C264.143 483.43 265.911 489.349 264.533 496.136C264.136 498.193 263.529 500.204 262.721 502.137C258.686 511.504 254.546 520.829 250.436 530.164C250.308 530.455 250.133 530.725 249.942 531.067L236.173 524.971Z" fill="white" fill-opacity="0.12"/>
<path d="M82.0949 457.137L93.3928 431.477L64.7262 418.855C64.4662 419.361 64.1821 419.845 63.9575 420.355C60.6426 427.884 57.3276 435.413 54.0127 442.941L53.3375 444.475L39.1059 438.209C39.0891 438.178 39.0757 438.146 39.066 438.113C39.0501 438.074 39.0428 438.033 39.0447 437.991C39.0589 437.87 39.0865 437.75 39.1268 437.635C48.1284 417.191 57.13 396.747 66.1315 376.303C66.2172 376.116 66.3152 375.936 66.425 375.763C66.5195 375.663 66.6244 375.572 66.7379 375.494C71.3866 377.451 76.0476 379.567 80.8658 381.673C80.6309 382.317 80.479 382.84 80.2558 383.347C77.0896 390.538 73.9235 397.729 70.7573 404.92L70.1387 406.325C70.9803 407.069 97.4535 418.759 98.8785 419.035C100.083 416.394 101.237 413.678 102.424 410.984C103.635 408.232 104.845 405.484 106.054 402.738L109.611 394.659C110.622 394.73 122.516 399.84 123.926 400.778C123.804 401.718 97.123 462.409 96.368 463.436L82.0949 457.137Z" fill="white" fill-opacity="0.12"/>
<path d="M208.676 455.425L208.081 456.777C202.444 469.58 196.808 482.379 191.174 495.176C189.576 498.806 187.716 502.275 185.146 505.32C179.452 512.075 172.149 514.542 163.521 513.257C159.176 512.614 155.106 511.158 151.12 509.291C146.791 507.279 142.739 504.719 139.063 501.674C136.509 499.592 134.297 497.123 132.508 494.357C132.223 493.91 131.974 493.441 131.626 492.848C134.885 490.367 138.107 487.912 141.396 485.404C141.568 485.598 141.727 485.803 141.873 486.017C144.444 490.429 148.156 493.681 152.435 496.335C155.422 498.247 158.759 499.547 162.253 500.161C167.371 501.01 171.403 499.258 174.253 494.966C175.249 493.469 175.988 491.799 176.823 490.198C176.934 489.908 177.015 489.607 177.066 489.3C176.787 489.342 176.511 489.401 176.24 489.478C171.882 491.172 167.465 491.099 163.045 489.81C158.019 488.344 153.551 485.85 149.984 481.979C143.637 475.097 141.499 467.099 144.095 458.02C145.65 452.597 148.458 447.908 152.987 444.418C158.439 440.214 164.644 438.672 171.437 439.466C176.615 440.065 181.533 442.058 185.669 445.232C188.768 447.525 191.078 450.725 192.28 454.389C192.351 454.758 192.478 455.115 192.655 455.447C193.959 453.63 194.503 451.554 195.606 449.686L208.676 455.425ZM177.547 454.421C177.134 454.239 176.727 454.042 176.295 453.87C171.203 451.859 163.338 452.506 159.683 460.128C157.628 464.405 157.619 468.634 160.243 472.703C162.639 476.392 166.198 478.407 170.388 479.359C176.107 480.651 183.26 478.642 185.828 469.746C186.823 466.283 186.271 462.981 184.321 459.933C182.708 457.425 180.338 455.497 177.555 454.428L177.547 454.421Z" fill="white" fill-opacity="0.12"/>
<path d="M263.891 537.265L291.504 474.549C291.996 474.721 292.491 474.853 292.964 475.061C300.605 478.425 308.247 481.79 315.888 485.155C317.994 486.082 320.103 487.01 322.18 488.003C328.07 490.85 333.237 494.642 337.23 499.886C343.588 508.237 345.589 517.505 342.919 527.694C341.434 533.391 338.885 538.552 335.029 543.015C330.076 548.743 323.814 552.172 316.357 553.428C310.574 554.389 304.645 553.973 299.053 552.212C296.811 551.536 294.608 550.736 292.453 549.818C283.286 545.838 274.151 541.782 265.003 537.758L263.891 537.265ZM283.692 531.764C283.957 531.907 284.237 532.079 284.531 532.208C288.703 534.046 292.882 535.885 297.066 537.728C299.792 538.928 302.602 539.825 305.587 540.064C312.489 540.611 318.313 538.464 322.773 533.061C325.055 530.233 326.706 526.951 327.617 523.433C329.573 516.311 327.997 510.013 323.052 504.563C320.519 501.771 317.325 499.905 313.931 498.373C309.956 496.582 305.952 494.86 301.962 493.103C301.599 492.943 301.215 492.83 300.879 492.712C300.103 493.753 283.86 530.695 283.692 531.764Z" fill="white" fill-opacity="0.12"/>
<path d="M461.949 567.335C461.613 567.606 461.257 567.856 460.942 568.154C447.757 580.592 434.576 593.032 421.397 605.473C421.128 605.728 420.845 605.947 420.551 606.198L406.175 599.869C406.494 580.942 406.817 561.987 407.142 543.005C408.159 543.132 419.278 547.915 421.461 549.15L420.398 587.609L420.643 587.747C425.393 583.349 430.055 578.86 434.765 574.426C439.474 569.992 444.135 565.566 448.849 561.104L450.157 561.68C453.733 563.254 457.309 564.829 460.887 566.404C461.3 566.586 461.728 566.726 462.151 566.886L461.949 567.335Z" fill="white" fill-opacity="0.12"/>
<path d="M443.58 238.722L469.745 205.148L455.881 194.343L463.003 185.203L501.862 215.487L494.739 224.627L480.875 213.821L454.709 247.395L443.58 238.722Z" fill="white" fill-opacity="0.12"/>
<path d="M486.719 273.024L528.411 238.465L537.415 249.328L521.394 262.608L535.429 279.54L551.45 266.259L560.455 277.122L518.763 311.681L509.758 300.818L526.569 286.884L512.534 269.952L495.723 283.887L486.719 273.024Z" fill="white" fill-opacity="0.12"/>
<path d="M530.095 330.019L578.241 305.23L598.7 344.967L588.888 350.018L574.889 322.827L565.848 327.481L578.08 351.239L568.479 356.182L556.247 332.424L546.365 337.512L560.618 365.194L550.806 370.246L530.095 330.019Z" fill="white" fill-opacity="0.12"/>
<path d="M574.682 460.73L628.787 458.449L630.182 491.526C630.299 494.309 629.854 496.852 628.847 499.157C627.839 501.461 626.366 503.311 624.426 504.708C622.488 506.157 620.181 506.938 617.503 507.051C615.14 507.151 613.101 506.816 611.386 506.047C609.672 505.33 608.262 504.311 607.154 502.99C606.049 501.722 605.198 500.259 604.602 498.601L604.287 498.614C603.949 500.574 603.262 502.365 602.226 503.987C601.242 505.606 599.851 506.901 598.051 507.871C596.253 508.894 594.041 509.46 591.416 509.571C588.318 509.702 585.636 509.078 583.369 507.701C581.154 506.322 579.419 504.449 578.162 502.082C576.905 499.716 576.213 497.036 576.087 494.044L574.682 460.73ZM586.145 474.369L586.793 489.727C586.863 491.407 587.419 492.724 588.458 493.68C589.5 494.688 591.045 495.149 593.092 495.062C594.195 495.016 595.156 494.739 595.976 494.231C596.851 493.773 597.506 493.088 597.941 492.176C598.378 491.316 598.57 490.256 598.517 488.996L597.88 473.875L586.145 474.369ZM607.881 473.453L608.476 487.55C608.525 488.705 608.802 489.666 609.307 490.434C609.815 491.254 610.498 491.857 611.356 492.241C612.216 492.678 613.224 492.872 614.379 492.824C616.059 492.753 617.35 492.199 618.253 491.161C619.156 490.124 619.576 488.844 619.511 487.321L618.907 472.988L607.881 473.453Z" fill="white" fill-opacity="0.12"/>
<path d="M574.77 533.122L628.1 542.525L620.339 586.54L609.472 584.624L614.782 554.505L604.768 552.739L600.128 579.055L589.493 577.179L594.133 550.864L583.188 548.934L577.781 579.597L566.913 577.681L574.77 533.122Z" fill="white" fill-opacity="0.12"/>
<path d="M550.211 622.211C551.513 619.053 553.027 616.21 554.752 613.681C556.428 611.133 558.339 609.05 560.483 607.433C562.608 605.865 564.941 604.895 567.482 604.522C570.072 604.169 572.873 604.614 575.885 605.856C576.079 605.936 576.298 606.026 576.541 606.126C576.784 606.227 576.968 606.331 577.094 606.44L571.894 619.046C571.749 618.986 571.564 618.882 571.341 618.733C571.147 618.653 570.977 618.583 570.831 618.523C569.277 617.881 567.853 617.749 566.561 618.126C565.298 618.571 564.147 619.432 563.108 620.709C562.119 622.006 561.223 623.626 560.421 625.57C559.981 626.638 559.619 627.654 559.335 628.617C559.051 629.58 558.881 630.476 558.823 631.305C558.766 632.134 558.797 632.886 558.916 633.561C559.064 634.304 559.331 634.897 559.717 635.34C560.131 635.852 560.678 636.248 561.358 636.529C562.476 636.99 563.579 636.933 564.668 636.359C565.738 635.834 566.816 634.943 567.903 633.686C568.97 632.477 570.092 631.065 571.271 629.447C572.45 627.83 573.682 626.15 574.97 624.407C576.257 622.665 577.636 621.045 579.106 619.548C580.576 618.051 582.17 616.804 583.888 615.808C585.587 614.86 587.442 614.289 589.455 614.096C591.496 613.971 593.706 614.4 596.087 615.382C598.71 616.464 600.739 617.954 602.172 619.853C603.655 621.772 604.602 623.953 605.015 626.397C605.408 628.89 605.341 631.534 604.814 634.329C604.335 637.144 603.494 640.009 602.292 642.924C601.11 645.79 599.716 648.342 598.111 650.579C596.487 652.865 594.642 654.719 592.577 656.141C590.561 657.583 588.386 658.448 586.05 658.735C583.743 659.091 581.268 658.753 578.625 657.719L577.75 657.359L582.92 644.825L583.43 645.035C584.547 645.496 585.649 645.581 586.735 645.29C587.85 645.068 588.901 644.45 589.888 643.436C590.923 642.441 591.811 641.046 592.553 639.248C593.294 637.451 593.755 635.85 593.936 634.447C594.097 633.092 594.002 631.945 593.651 631.004C593.28 630.112 592.657 629.486 591.783 629.125C590.714 628.684 589.669 628.736 588.648 629.282C587.608 629.876 586.544 630.801 585.457 632.058C584.37 633.315 583.237 634.752 582.059 636.369C580.929 638.007 579.73 639.672 578.463 641.367C577.224 643.13 575.87 644.759 574.4 646.256C572.978 647.773 571.408 649.03 569.69 650.027C568.02 651.043 566.213 651.634 564.269 651.799C562.306 652.012 560.182 651.648 557.899 650.706C553.915 649.063 551.1 646.793 549.452 643.897C547.784 641.049 547.073 637.743 547.318 633.978C547.543 630.263 548.507 626.34 550.211 622.211Z" fill="white" fill-opacity="0.12"/>
<path d="M521.835 677.571L556.777 701.88L566.815 687.451L576.327 694.068L548.191 734.509L538.68 727.892L548.718 713.463L513.777 689.153L521.835 677.571Z" fill="white" fill-opacity="0.12"/>
<path d="M8.24294 283.345C4.34451 287.825 0.225084 290.997 -4.11531 292.862C-8.46084 294.653 -12.9411 295.039 -17.5561 294.018C-22.1711 292.997 -26.8371 290.433 -31.5543 286.328C-36.2714 282.223 -39.4341 277.972 -41.0425 273.577C-42.6906 269.147 -42.9076 264.673 -41.6936 260.157C-40.4847 255.566 -37.931 251.031 -34.0326 246.552C-30.1342 242.072 -26.0122 238.937 -21.6666 237.146C-17.3262 235.281 -12.8486 234.859 -8.23356 235.879C-3.6582 236.866 0.988025 239.412 5.70513 243.517C10.4222 247.623 13.6048 251.89 15.2529 256.32C16.9009 260.75 17.1205 265.261 15.9116 269.851C14.6976 274.368 12.1414 278.866 8.24294 283.345ZM-0.0813572 276.1C1.40212 274.396 2.45544 272.665 3.07861 270.909C3.70177 269.152 3.89736 267.407 3.66536 265.672C3.46785 263.898 2.84534 262.172 1.79781 260.494C0.750283 258.816 -0.665376 257.201 -2.44915 255.648L-5.06536 253.371C-6.88878 251.784 -8.70374 250.588 -10.5103 249.782C-12.3168 248.976 -14.1123 248.597 -15.8967 248.647C-17.6467 248.656 -19.3486 249.091 -21.0024 249.95C-22.6562 250.81 -24.2248 252.092 -25.7083 253.797C-27.2263 255.541 -28.2969 257.291 -28.92 259.048C-29.5432 260.804 -29.7388 262.55 -29.5068 264.284C-29.2748 266.019 -28.635 267.725 -27.5875 269.403C-26.5399 271.081 -25.1045 272.714 -23.2811 274.301L-20.6648 276.578C-18.8811 278.13 -17.0859 279.309 -15.2794 280.115C-13.4729 280.921 -11.6946 281.319 -9.94466 281.31C-8.19469 281.3 -6.49281 280.866 -4.83901 280.006C-3.18522 279.146 -1.59933 277.845 -0.0813572 276.1Z" fill="white" fill-opacity="0.12"/>
<path d="M40.2023 249.728L7.95135 206.227L31.8868 188.481C34.8418 186.291 37.8073 185.041 40.7834 184.731C43.7704 184.349 46.6108 184.827 49.3045 186.166C52.0091 187.432 54.4254 189.5 56.5536 192.37C58.7443 195.325 60.0468 198.317 60.4609 201.347C60.9172 204.345 60.5227 207.254 59.2774 210.074C58.043 212.821 55.9483 215.29 52.9933 217.48L40.6457 226.635L51.5368 241.325L40.2023 249.728ZM34.1673 217.896L43.8555 210.714C45.6285 209.399 46.6194 207.912 46.8283 206.253C47.0059 204.551 46.4375 202.814 45.123 201.041C44.1841 199.775 43.2063 198.897 42.1895 198.408C41.215 197.887 40.1702 197.713 39.0551 197.886C37.9088 198.016 36.7235 198.535 35.4993 199.443L25.8112 206.625L34.1673 217.896Z" fill="white" fill-opacity="0.12"/>
<path d="M92.8943 212.691L70.749 163.273L89.5234 154.86L105.358 174.196C105.941 174.856 106.702 175.782 107.639 176.974C108.555 178.119 109.503 179.335 110.484 180.623C111.464 181.911 112.332 183.077 113.087 184.121L113.663 183.863C113.446 182.866 113.203 181.679 112.932 180.303C112.639 178.88 112.349 177.397 112.062 175.856C111.753 174.267 111.473 172.809 111.224 171.481L107.435 146.834L125.705 138.646L147.851 188.064L135.335 193.673L125.89 172.596C124.966 170.534 124.031 168.448 123.085 166.338C122.188 164.207 121.376 162.267 120.65 160.519C119.925 158.771 119.39 157.514 119.046 156.746L118.471 157.004C118.649 157.788 118.882 158.95 119.17 160.492C119.484 161.963 119.782 163.528 120.064 165.187C120.373 166.776 120.62 168.163 120.806 169.346L125.12 198.25L114.762 202.892L95.9888 180.468C95.3192 179.616 94.5157 178.594 93.5783 177.402C92.6409 176.209 91.6928 174.993 90.7339 173.753C89.8229 172.491 89.0327 171.434 88.3631 170.583L87.7876 170.84C88.3943 172.066 89.13 173.579 89.9945 175.38C90.8376 177.133 91.7237 178.981 92.6527 180.926C93.5603 182.823 94.4009 184.634 95.1745 186.361L104.619 207.437L92.8943 212.691Z" fill="white" fill-opacity="0.12"/>
<path d="M163.985 184.083L152.981 131.061L196.742 121.978L198.985 132.784L169.039 138.999L171.105 148.955L197.269 143.525L199.464 154.099L173.299 159.529L175.558 170.411L206.044 164.084L208.287 174.889L163.985 184.083Z" fill="white" fill-opacity="0.12"/>
<path d="M232.256 172.684L232.907 118.535L245.44 118.686L264.842 144.066C265.205 144.491 265.67 145.101 266.239 145.896C266.86 146.692 267.455 147.514 268.022 148.361C268.591 149.157 269.004 149.792 269.261 150.268L269.656 150.194C269.67 149.038 269.683 147.935 269.696 146.884C269.709 145.78 269.72 144.861 269.729 144.125L270.031 118.982L283.115 119.139L282.464 173.288L270.01 173.138L249.442 146.404C248.769 145.555 248.123 144.68 247.503 143.779C246.935 142.879 246.471 142.137 246.111 141.555L245.716 141.629C245.705 142.47 245.695 143.337 245.684 144.23C245.674 145.071 245.666 145.78 245.659 146.358L245.34 172.841L232.256 172.684Z" fill="white" fill-opacity="0.12"/>
<path d="M317.764 179.784L327.414 138.327L310.293 134.342L312.92 123.057L360.903 134.225L358.276 145.511L341.156 141.526L331.506 182.983L317.764 179.784Z" fill="white" fill-opacity="0.12"/>
</svg>
