<svg width="180" height="120" viewBox="0 0 180 120" fill="none" xmlns="http://www.w3.org/2000/svg">
<rect width="180" height="120" rx="20" fill="white"/>
<path fill-rule="evenodd" clip-rule="evenodd" d="M42.9078 48.8902C42.9078 49.3026 42.8464 49.7 42.7328 50.0729L48.1264 54.1916C48.5968 53.9668 49.1198 53.8415 49.6709 53.8415C51.7252 53.8415 53.3906 55.5832 53.3906 57.7317C53.3906 59.7468 51.9257 61.404 50.0489 61.6021L48.4606 66.7239C49.5872 67.3925 50.3472 68.6583 50.3472 70.1098C50.3472 72.2583 48.6818 74 46.6275 74C44.9869 74 43.5944 72.8892 43.1 71.3476H36.2906C35.7962 72.8892 34.4037 74 32.7631 74C30.7088 74 29.0434 72.2583 29.0434 70.1098C29.0434 68.6837 29.7771 67.4368 30.8712 66.7596L29.4069 61.6084C27.499 61.4423 26 59.7701 26 57.7317C26 55.5832 27.6654 53.8415 29.7197 53.8415C30.3006 53.8415 30.8504 53.9807 31.3402 54.2291L35.8928 50.6965C35.6217 50.1568 35.4684 49.5422 35.4684 48.8902C35.4684 46.7417 37.1337 45 39.1881 45C41.2424 45 42.9078 46.7417 42.9078 48.8902ZM39.1881 52.7805C38.5001 52.7805 37.8557 52.5851 37.3029 52.2446L32.879 55.6773C33.2342 56.2735 33.4394 56.9775 33.4394 57.7317C33.4394 59.2448 32.6135 60.5561 31.4074 61.1994L32.8346 66.2202C34.5665 66.2544 36.0087 67.5264 36.3863 69.2256H43.0043C43.3766 67.5502 44.7838 66.2902 46.4832 66.2224L48.0328 61.2254C46.7998 60.5919 45.9512 59.2654 45.9512 57.7317C45.9512 56.9511 46.171 56.2241 46.5495 55.6149L41.61 51.8429C40.9593 52.4273 40.1131 52.7805 39.1881 52.7805ZM38.1852 66.5732V62.2812H40.6224C41.7924 62.2812 42.6901 61.995 43.3154 61.4228C43.9454 60.8455 44.2604 60.0247 44.2604 58.9605C44.2604 57.9515 43.9383 57.1408 43.2941 56.5284C42.6546 55.916 41.7688 55.6098 40.6366 55.6098H36.821V66.5732H38.1852ZM40.6366 61.099H38.1852V56.7995H40.7148C41.3922 56.8145 41.9251 57.0178 42.3135 57.4094C42.7019 57.8009 42.8962 58.323 42.8962 58.9756C42.8962 59.6633 42.7019 60.1904 42.3135 60.5569C41.9251 60.9183 41.3661 61.099 40.6366 61.099Z" fill="#7CD6DC"/>
<path d="M57.4258 67.1697H59.7585V61.485H62.9292C66.5151 61.485 68.2892 59.2191 68.2892 56.2346C68.2892 53.2581 66.5302 51 62.9367 51H57.4258V67.1697ZM59.7585 59.4165V53.0923H62.6876C64.9977 53.0923 65.9413 54.4029 65.9413 56.2346C65.9413 58.0663 64.9977 59.4165 62.7178 59.4165H59.7585Z" fill="black"/>
<path d="M74.2069 67.4145C76.7359 67.4145 78.5251 66.1117 79.0384 64.1379L76.902 63.7352C76.4943 64.88 75.5129 65.4643 74.2295 65.4643C72.2969 65.4643 70.9984 64.1537 70.938 61.8166H79.1818V60.9797C79.1818 56.5978 76.6755 54.8845 74.0483 54.8845C70.8173 54.8845 68.6884 57.4584 68.6884 61.185C68.6884 64.9511 70.7871 67.4145 74.2069 67.4145ZM70.9456 60.0481C71.0362 58.3269 72.229 56.8347 74.0634 56.8347C75.8149 56.8347 76.9624 58.1927 76.9699 60.0481H70.9456Z" fill="black"/>
<path d="M82.4554 59.9691C82.4554 58.0348 83.5878 56.9294 85.1581 56.9294C86.6906 56.9294 87.6191 57.9795 87.6191 59.7402V67.1697H89.8764V59.4559C89.8764 56.4557 88.2986 54.8845 85.9281 54.8845C84.1842 54.8845 83.0443 55.7293 82.5083 57.0163H82.3648V55.0424H80.1982V67.1697H82.4554V59.9691Z" fill="black"/>
<path d="M96.8283 55.0424H94.4503V52.1369H92.1931V55.0424H90.4945V56.9373H92.1931V64.0984C92.1855 66.3012 93.7935 67.3671 95.5751 67.3276C96.2923 67.3197 96.7755 67.1776 97.0397 67.075L96.632 65.1248C96.481 65.1564 96.2017 65.2274 95.8394 65.2274C95.1071 65.2274 94.4503 64.9748 94.4503 63.6089V56.9373H96.8283V55.0424Z" fill="black"/>
<path d="M101.212 67.4381C103.129 67.4381 104.209 66.4196 104.639 65.5117H104.73V67.1697H106.934V59.1164C106.934 55.5872 104.277 54.8845 102.435 54.8845C100.336 54.8845 98.4033 55.7688 97.6484 57.9795L99.7697 58.4848C100.102 57.6242 100.947 56.7952 102.465 56.7952C103.922 56.7952 104.669 57.5926 104.669 58.9664V59.0217C104.669 59.8823 103.824 59.8665 101.74 60.1191C99.5432 60.3876 97.2936 60.9876 97.2936 63.7431C97.2936 66.1275 99.0073 67.4381 101.212 67.4381ZM101.702 65.5433C100.427 65.5433 99.5055 64.9432 99.5055 63.7747C99.5055 62.5114 100.577 62.0614 101.884 61.8798C102.616 61.7772 104.352 61.5719 104.677 61.2324V62.7957C104.677 64.2326 103.582 65.5433 101.702 65.5433Z" fill="black"/>
<path d="M112.772 67.1697H115.104V61.485H118.275C121.861 61.485 123.635 59.2191 123.635 56.2346C123.635 53.2581 121.876 51 118.282 51H112.772V67.1697ZM115.104 59.4165V53.0923H118.033C120.343 53.0923 121.287 54.4029 121.287 56.2346C121.287 58.0663 120.343 59.4165 118.064 59.4165H115.104Z" fill="black"/>
<path d="M126.958 51H124.7V67.1697H126.958V51Z" fill="black"/>
<path d="M131.881 67.4381C133.798 67.4381 134.878 66.4196 135.308 65.5117H135.399V67.1697H137.603V59.1164C137.603 55.5872 134.946 54.8845 133.104 54.8845C131.005 54.8845 129.072 55.7688 128.317 57.9795L130.439 58.4848C130.771 57.6242 131.616 56.7952 133.134 56.7952C134.591 56.7952 135.338 57.5926 135.338 58.9664V59.0217C135.338 59.8823 134.493 59.8665 132.409 60.1191C130.212 60.3876 127.963 60.9876 127.963 63.7431C127.963 66.1275 129.676 67.4381 131.881 67.4381ZM132.371 65.5433C131.096 65.5433 130.175 64.9432 130.175 63.7747C130.175 62.5114 131.247 62.0614 132.553 61.8798C133.285 61.7772 135.021 61.5719 135.346 61.2324V62.7957C135.346 64.2326 134.251 65.5433 132.371 65.5433Z" fill="black"/>
<path d="M141.379 59.9691C141.379 58.0348 142.511 56.9294 144.081 56.9294C145.614 56.9294 146.542 57.9795 146.542 59.7402V67.1697H148.8V59.4559C148.8 56.4557 147.222 54.8845 144.851 54.8845C143.107 54.8845 141.967 55.7293 141.431 57.0163H141.288V55.0424H139.121V67.1697H141.379V59.9691Z" fill="black"/>
<path d="M155.751 55.0424H153.373V52.1369H151.116V55.0424H149.418V56.9373H151.116V64.0984C151.109 66.3012 152.717 67.3671 154.498 67.3276C155.215 67.3197 155.699 67.1776 155.963 67.075L155.555 65.1248C155.404 65.1564 155.125 65.2274 154.763 65.2274C154.03 65.2274 153.373 64.9748 153.373 63.6089V56.9373H155.751V55.0424Z" fill="black"/>
</svg>
