<svg width="50" height="50" viewBox="0 0 50 50" fill="none" xmlns="http://www.w3.org/2000/svg">
<rect x="37.1694" y="12" width="3.76316" height="3.76316" transform="rotate(51.7124 37.1694 12)" fill="black"/>
<rect x="23.2495" y="30.0112" width="3.47374" height="3.47374" fill="black"/>
<rect x="12.0303" y="12.0605" width="3.51497" height="3.51497" transform="rotate(40.7094 12.0303 12.0605)" fill="black"/>
<rect x="47.4697" y="25.4026" width="3.51504" height="3.51504" transform="rotate(51.7124 47.4697 25.4026)" fill="black"/>
<rect x="2.31934" y="25.3892" width="3.55632" height="3.55632" transform="rotate(40.7094 2.31934 25.3892)" fill="black"/>
<path fill-rule="evenodd" clip-rule="evenodd" d="M24.7514 31.8905L24.6118 31.6984L24.7903 31.73L18.0244 22.6348L12.2148 14.6413L36.5509 14.6004L36.3267 14.945L24.7514 31.8905ZM36.8695 14.6033V14.5999L36.5509 14.6004L36.5729 14.5665L12.191 14.6086L12.2148 14.6413L12.2124 14.6413V14.6826L12.171 14.6413L2.36608 27.88L2.32471 27.9627L24.8719 31.9343L24.9133 31.9757L24.9546 31.9343L47.2122 28.0868H47.295L47.0217 27.7316L47.0744 27.7225L36.8971 14.5665L36.8695 14.6033ZM36.8695 14.6033V14.6826L36.9109 14.5999L36.9522 14.6413L47.0217 27.7316L25.0236 31.5286L36.6489 14.8975L36.8695 14.6033ZM18.0244 22.6348L12.1722 14.7679L2.53274 27.7997L24.6118 31.6984L18.0244 22.6348Z" fill="black"/>
<line x1="12.3972" y1="14.6963" x2="25.3972" y2="31.6963" stroke="black"/>
<line x1="2.08567" y1="27.5074" x2="25.0857" y2="31.5074" stroke="black"/>
<line x1="47.0676" y1="28.4954" x2="25.0676" y2="31.4954" stroke="black"/>
<line x1="47.6068" y1="28.3089" x2="36.6068" y2="14.3089" stroke="black"/>
<line x1="12" y1="14.5" x2="37" y2="14.5" stroke="black"/>
<line x1="12.3817" y1="15.323" x2="1.38169" y2="28.323" stroke="black"/>
<line x1="36.4" y1="15.3" x2="24.4" y2="31.3" stroke="black"/>
</svg>
