<svg width="50" height="50" viewBox="0 0 50 50" fill="none" xmlns="http://www.w3.org/2000/svg">
<path fill-rule="evenodd" clip-rule="evenodd" d="M13.8802 28.7584C13.8802 29.7014 13.0943 30.4087 12.2299 30.4087C11.3654 30.4087 10.6582 29.6228 10.5796 28.7584C10.5796 27.8154 11.2869 27.1081 12.2299 27.1081C13.1729 27.1081 13.8802 27.8939 13.8802 28.7584ZM13.0951 28.759C13.0951 28.2874 12.7022 27.8945 12.2307 27.8945C11.7591 27.8945 11.4448 28.2874 11.3662 28.759C11.3662 29.2305 11.7591 29.6234 12.2307 29.6234C12.7022 29.6234 13.0951 29.2305 13.0951 28.759Z" fill="#505D95"/>
<path fill-rule="evenodd" clip-rule="evenodd" d="M17.9678 28.7584C17.9678 27.8154 18.7536 27.1081 19.6181 27.1081C20.4825 27.1081 21.2684 27.8939 21.2684 28.7584C21.2684 29.7014 20.5611 30.4087 19.6181 30.4087C18.675 30.4087 17.9678 29.6228 17.9678 28.7584ZM18.7543 28.759C18.7543 29.2305 19.1472 29.6234 19.6187 29.6234C20.0902 29.6234 20.4831 29.2305 20.4831 28.759C20.4831 28.2874 20.0902 27.8945 19.6187 27.8945C19.1472 27.8945 18.7543 28.2874 18.7543 28.759Z" fill="#505D95"/>
<rect x="14.7451" y="27.5024" width="0.785855" height="2.51473" fill="#505D95"/>
<rect x="16.4727" y="27.5024" width="0.785855" height="2.51473" fill="#505D95"/>
<rect x="16.0024" y="31.6639" width="0.785855" height="2.51473" fill="#505D95"/>
<rect x="22.0522" y="27.5024" width="0.785855" height="2.51473" fill="#505D95"/>
<rect x="8.92969" y="27.5024" width="0.785855" height="2.51473" fill="#505D95"/>
<rect x="10.4233" y="31.6639" width="0.785855" height="2.51473" fill="#505D95"/>
<path fill-rule="evenodd" clip-rule="evenodd" d="M11.8369 32.9251C11.8369 31.982 12.6228 31.2748 13.4872 31.2748C14.4302 31.2748 15.1375 31.982 15.1375 32.9251C15.1375 33.8681 14.4302 34.5754 13.4872 34.5754C12.5442 34.5754 11.8369 33.7895 11.8369 32.9251ZM12.6235 32.9256C12.6235 33.3971 13.0164 33.7901 13.4879 33.7901C13.9594 33.7901 14.3524 33.3971 14.3524 32.9256C14.3524 32.4541 13.9594 32.0612 13.4879 32.0612C13.0164 32.0612 12.6235 32.4541 12.6235 32.9256Z" fill="#505D95"/>
<path fill-rule="evenodd" clip-rule="evenodd" d="M17.4175 32.9251C17.4175 31.982 18.2033 31.2748 19.0678 31.2748C20.0108 31.2748 20.7181 31.982 20.7181 32.9251C20.7181 33.8681 20.0108 34.5754 19.0678 34.5754C18.1247 34.5754 17.4175 33.7895 17.4175 32.9251ZM18.2039 32.9256C18.2039 33.3971 18.5969 33.7901 19.0684 33.7901C19.5399 33.7901 19.9328 33.3971 19.9328 32.9256C19.9328 32.4541 19.5399 32.0612 19.0684 32.0612C18.5969 32.0612 18.2039 32.4541 18.2039 32.9256Z" fill="#505D95"/>
<path fill-rule="evenodd" clip-rule="evenodd" d="M22.9944 11.7829C22.9944 12.7259 22.2086 13.4332 21.3441 13.4332C20.4011 13.4332 19.6938 12.7259 19.6938 11.7829C19.6938 10.8399 20.4011 10.1326 21.3441 10.1326C22.2872 10.1326 22.9944 10.9185 22.9944 11.7829ZM22.2092 11.8618C22.2092 11.3903 21.8163 10.9974 21.3447 10.9974C20.8732 10.9974 20.4803 11.3903 20.4803 11.8618C20.4803 12.3333 20.8732 12.7263 21.3447 12.7263C21.8163 12.7263 22.2092 12.3333 22.2092 11.8618Z" fill="#505D95"/>
<path fill-rule="evenodd" clip-rule="evenodd" d="M27.0044 11.8612C27.0044 10.9182 27.7902 10.2109 28.6547 10.2109C29.5977 10.2109 30.305 10.9182 30.305 11.8612C30.305 12.8043 29.5977 13.5115 28.6547 13.5115C27.7117 13.5115 27.0044 12.7257 27.0044 11.8612ZM27.791 11.7837C27.791 12.2552 28.1839 12.6481 28.6554 12.6481C29.1269 12.6481 29.5199 12.3338 29.5199 11.7837C29.5199 11.3122 29.1269 10.9193 28.6554 10.9193C28.1839 10.9193 27.791 11.3122 27.791 11.7837Z" fill="#505D95"/>
<rect x="23.7827" y="10.6066" width="0.785855" height="2.51473" fill="#505D95"/>
<rect x="25.5884" y="10.6066" width="0.785855" height="2.51473" fill="#505D95"/>
<rect x="25.0391" y="14.7681" width="0.785855" height="2.51473" fill="#505D95"/>
<rect x="31.0898" y="10.6066" width="0.785855" height="2.51473" fill="#505D95"/>
<rect x="17.9663" y="10.6066" width="0.785855" height="2.51473" fill="#505D95"/>
<rect x="19.5376" y="14.7681" width="0.785855" height="2.51473" fill="#505D95"/>
<path fill-rule="evenodd" clip-rule="evenodd" d="M20.9551 16.0279C20.9551 15.0849 21.7409 14.3776 22.6054 14.3776C23.4698 14.3776 24.2557 15.0849 24.2557 16.0279C24.2557 16.9709 23.5484 17.6782 22.6054 17.6782C21.6623 17.6782 20.9551 16.8924 20.9551 16.0279ZM21.7415 15.9504C21.7415 16.4219 22.1345 16.8148 22.606 16.8148C23.0775 16.8148 23.4704 16.4219 23.4704 15.9504C23.4704 15.4789 23.0775 15.0859 22.606 15.0859C22.1345 15.0859 21.7415 15.4789 21.7415 15.9504Z" fill="#505D95"/>
<path fill-rule="evenodd" clip-rule="evenodd" d="M26.5317 16.0279C26.5317 15.0849 27.3176 14.3776 28.182 14.3776C29.0465 14.3776 29.7537 15.0849 29.8323 16.0279C29.8323 16.9709 29.1251 17.6782 28.182 17.6782C27.239 17.6782 26.5317 16.8924 26.5317 16.0279ZM27.3183 15.9504C27.3183 16.4219 27.7112 16.8148 28.1827 16.8148C28.6542 16.8148 28.9686 16.4219 29.0472 15.9504C29.0472 15.4789 28.6542 15.0859 28.1827 15.0859C27.7112 15.0859 27.3183 15.4789 27.3183 15.9504Z" fill="#505D95"/>
<path fill-rule="evenodd" clip-rule="evenodd" d="M33.055 28.7584C33.055 29.7014 32.2691 30.4087 31.4047 30.4087C30.5402 30.4087 29.7544 29.6228 29.7544 28.7584C29.7544 27.8154 30.4617 27.1081 31.4047 27.1081C32.3477 27.1081 33.055 27.8939 33.055 28.7584ZM32.2698 28.759C32.2698 28.2874 31.8769 27.8945 31.4054 27.8945C30.9339 27.8945 30.5409 28.2874 30.5409 28.759C30.5409 29.2305 30.9339 29.6234 31.4054 29.6234C31.8769 29.6234 32.2698 29.2305 32.2698 28.759Z" fill="#505D95"/>
<path fill-rule="evenodd" clip-rule="evenodd" d="M40.4427 28.7584C40.4427 29.7014 39.6568 30.4087 38.7924 30.4087C37.8494 30.4087 37.1421 29.6228 37.1421 28.7584C37.1421 27.8154 37.8494 27.1081 38.7924 27.1081C39.7354 27.1081 40.4427 27.8939 40.4427 28.7584ZM39.6576 28.759C39.6576 28.2874 39.2646 27.8945 38.7931 27.8945C38.3216 27.8945 37.9287 28.2874 37.9287 28.759C37.9287 29.2305 38.3216 29.6234 38.7931 29.6234C39.2646 29.6234 39.6576 29.2305 39.6576 28.759Z" fill="#505D95"/>
<rect x="33.8398" y="27.5024" width="0.785855" height="2.51473" fill="#505D95"/>
<rect x="35.6484" y="27.5024" width="0.785855" height="2.51473" fill="#505D95"/>
<rect x="35.0991" y="31.6639" width="0.785855" height="2.51473" fill="#505D95"/>
<rect x="41.228" y="27.5024" width="0.785855" height="2.51473" fill="#505D95"/>
<rect x="28.104" y="27.5024" width="0.785855" height="2.51473" fill="#505D95"/>
<rect x="29.5977" y="31.6639" width="0.785855" height="2.51473" fill="#505D95"/>
<path fill-rule="evenodd" clip-rule="evenodd" d="M32.6615 34.5754C31.7185 34.5754 31.0112 33.7895 31.0112 32.9251C31.0112 31.982 31.7185 31.2748 32.6615 31.2748C33.6046 31.2748 34.3118 32.0606 34.3118 32.9251C34.3118 33.8681 33.6046 34.5754 32.6615 34.5754ZM32.6621 33.7901C33.1336 33.7901 33.5266 33.3971 33.5266 32.9256C33.5266 32.4541 33.1336 32.0612 32.6621 32.0612C32.1906 32.0612 31.7977 32.4541 31.7977 32.9256C31.7977 33.3971 32.1906 33.7901 32.6621 33.7901Z" fill="#505D95"/>
<path fill-rule="evenodd" clip-rule="evenodd" d="M39.8899 32.9251C39.8899 33.8681 39.1041 34.5754 38.2397 34.5754C37.3752 34.5754 36.5894 33.7895 36.5894 32.9251C36.5894 31.982 37.2966 31.2748 38.2397 31.2748C39.1827 31.2748 39.8899 32.0606 39.8899 32.9251ZM39.1048 32.9256C39.1048 32.4541 38.7118 32.0612 38.2403 32.0612C37.7688 32.0612 37.3759 32.4541 37.3759 32.9256C37.3759 33.3971 37.7688 33.7901 38.2403 33.7901C38.7118 33.7901 39.1048 33.3971 39.1048 32.9256Z" fill="#505D95"/>
<path fill-rule="evenodd" clip-rule="evenodd" d="M45 13.7485V13.9057L44.9214 36.1454C44.9214 36.3811 44.7642 36.6955 44.5285 36.8526L25.3536 47.9332C25.275 48.0118 25.1179 48.0118 24.9607 48.0118C24.8821 48.0118 24.7249 48.0118 24.5678 47.9332L5.39293 36.8526C5.15717 36.6955 5 36.4597 5 36.1454V13.9057C5 13.6699 5.15717 13.3556 5.39293 13.1984L24.5678 2.11788C24.8821 1.96071 25.1965 1.96071 25.4322 2.11788L44.6071 13.1984C44.6464 13.1984 44.666 13.2181 44.6857 13.2377C44.7053 13.2574 44.7249 13.277 44.7642 13.277L44.8428 13.3556C44.8428 13.3949 44.8625 13.4145 44.8821 13.4342C44.9018 13.4538 44.9214 13.4735 44.9214 13.5128V13.5914C45 13.6699 45 13.6699 45 13.7485ZM6.64977 35.5961L24.1743 45.7336V24.8299C24.0957 24.8299 24.0957 24.7513 24.0957 24.7513L6.64977 15.6354V35.5961ZM24.8818 23.2596L7.27864 14.0651L24.9604 3.84896L42.4063 13.9079L24.8818 23.2596ZM25.8256 45.6569L43.2716 35.5979V15.3229L25.8256 24.596V45.6569Z" fill="#505D95"/>
</svg>
