<svg width="50" height="50" viewBox="0 0 50 50" fill="none" xmlns="http://www.w3.org/2000/svg">
<path fill-rule="evenodd" clip-rule="evenodd" d="M45.9298 5H3.6365C2.71597 5 2 5.71597 2 6.6365V36.8606C2 37.7811 2.71597 38.4971 3.6365 38.4971H20.4618L19.081 44.0203H16.6774C16.3705 44.0203 16.1148 44.276 16.1148 44.5828C16.1148 44.8897 16.3705 45.1454 16.6774 45.1454H32.8889C33.1958 45.1454 33.4515 44.8897 33.4515 44.5828C33.4515 44.276 33.1958 44.0203 32.8889 44.0203H30.4342L29.0534 38.4971H45.9298C46.8503 38.4971 47.5663 37.7811 47.5663 36.8606V6.6365C47.5663 5.71597 46.7992 5 45.9298 5ZM27.9278 38.4964L29.3085 44.0196H20.1544L21.5352 38.4964H27.9278ZM45.9291 37.4296C46.2359 37.4296 46.4916 37.1739 46.4916 36.867H46.4405V6.6429C46.4405 6.33606 46.1848 6.08036 45.878 6.08036H3.63581C3.32897 6.08036 3.07326 6.33606 3.07326 6.6429V36.867C3.07326 37.1739 3.32897 37.4296 3.63581 37.4296H45.9291Z" fill="black"/>
<path fill-rule="evenodd" clip-rule="evenodd" d="M6.14409 8.32129H43.221C43.5279 8.32129 43.7836 8.57699 43.7836 8.88384V31.3857C43.7836 31.6926 43.5279 31.9483 43.221 31.9483H6.14409C5.83725 31.9483 5.58154 31.6926 5.58154 31.3857V8.88384C5.58154 8.57699 5.83725 8.32129 6.14409 8.32129ZM6.70647 30.8296H42.7095V9.40165H6.70647V30.8296Z" fill="black"/>
<path fill-rule="evenodd" clip-rule="evenodd" d="M9.62109 18.2995C9.62109 19.4246 10.5416 20.3963 11.7179 20.3963C12.8941 20.3963 13.8146 19.4758 13.8146 18.2995C13.8146 17.1744 12.8941 16.2028 11.7179 16.2028C10.5416 16.2028 9.62109 17.1233 9.62109 18.2995ZM10.1323 18.2996C10.1323 17.4302 10.8483 16.7142 11.7177 16.7142C12.5871 16.7142 13.303 17.4302 13.303 18.2996C13.303 19.1689 12.5871 19.8849 11.7177 19.8849C10.8483 19.8849 10.1323 19.1689 10.1323 18.2996Z" fill="#505D95"/>
<path d="M11.7176 15.0186C11.5642 15.0186 11.4619 14.9163 11.4619 14.7629V12.9218C11.4619 12.7684 11.5642 12.6661 11.7176 12.6661C11.871 12.6661 11.9733 12.7684 11.9733 12.9218V14.7629C11.9733 14.9163 11.871 15.0186 11.7176 15.0186Z" fill="#505D95"/>
<path d="M11.7176 27.0389C11.5642 27.0389 11.4619 26.9366 11.4619 26.7832V20.2372C11.4619 20.0838 11.5642 19.9815 11.7176 19.9815C11.871 19.9815 11.9733 20.0838 11.9733 20.2372V26.7832C11.9733 26.9366 11.871 27.0389 11.7176 27.0389Z" fill="#505D95"/>
<path fill-rule="evenodd" clip-rule="evenodd" d="M18.4692 17.6894C18.4692 18.8144 19.3898 19.7861 20.566 19.7861C21.7422 19.7861 22.6628 18.8144 22.6628 17.6894C22.6628 16.5643 21.7422 15.5926 20.566 15.5926C19.3898 15.5926 18.4692 16.5131 18.4692 17.6894ZM18.9806 17.6377C18.9806 16.7683 19.6965 16.0523 20.5659 16.0523C21.4353 16.0523 22.1513 16.7683 22.1513 17.6377C22.1513 18.5071 21.4353 19.223 20.5659 19.223C19.6965 19.223 18.9806 18.5071 18.9806 17.6377Z" fill="#505D95"/>
<path d="M20.5643 16.042C20.4109 16.042 20.3086 15.9909 20.3086 15.9398V12.8202C20.3086 12.769 20.4109 12.7179 20.5643 12.7179C20.7177 12.7179 20.82 12.769 20.82 12.8202V15.9398C20.82 15.9909 20.7177 16.042 20.5643 16.042Z" fill="#505D95"/>
<path d="M20.5643 27.0366C20.4109 27.0366 20.3086 26.6786 20.3086 26.2694V20.0303C20.3086 19.6212 20.4109 19.2632 20.5643 19.2632C20.7177 19.2632 20.82 19.6212 20.82 20.0303V26.2694C20.82 26.6786 20.7177 27.0366 20.5643 27.0366Z" fill="#505D95"/>
<path fill-rule="evenodd" clip-rule="evenodd" d="M27.3135 22.0697C27.3135 23.1948 28.234 24.1665 29.4102 24.1665C30.5353 24.1665 31.507 23.1948 31.507 22.0697C31.507 20.9446 30.5865 19.973 29.4102 19.973C28.234 19.973 27.3135 20.9446 27.3135 22.0697ZM27.8248 22.0181C27.8248 21.1487 28.5408 20.4327 29.4101 20.4327C30.2795 20.4327 30.9955 21.1487 30.9955 22.0181C30.9955 22.8874 30.2795 23.6034 29.4101 23.6034C28.5408 23.6034 27.8248 22.8874 27.8248 22.0181Z" fill="#505D95"/>
<path d="M29.4129 18.3427C29.2595 18.3427 29.1572 18.2405 29.1572 18.087V12.9218C29.1572 12.7684 29.2595 12.6661 29.4129 12.6661C29.5664 12.6661 29.6686 12.7684 29.6686 12.9218V18.087C29.6686 18.2405 29.5664 18.3427 29.4129 18.3427Z" fill="#505D95"/>
<path d="M29.4129 27.0374C29.2595 27.0374 29.1572 26.9351 29.1572 26.7817V24.1735C29.1572 24.0201 29.2595 23.9178 29.4129 23.9178C29.5664 23.9178 29.6686 24.0201 29.6686 24.1735V26.7817C29.6686 26.9351 29.5664 27.0374 29.4129 27.0374Z" fill="#505D95"/>
<path fill-rule="evenodd" clip-rule="evenodd" d="M35.6011 17.2116C35.6011 18.3367 36.5216 19.3084 37.6978 19.3084C38.8741 19.3084 39.7946 18.3367 39.7946 17.2116C39.7946 16.0865 38.8741 15.1149 37.6978 15.1149C36.5216 15.1149 35.6011 16.0354 35.6011 17.2116ZM36.1124 17.1599C36.1124 16.2905 36.8284 15.5746 37.6978 15.5746C38.5672 15.5746 39.2831 16.2905 39.2831 17.1599C39.2831 18.0293 38.5672 18.7453 37.6978 18.7453C36.8284 18.7453 36.1124 18.0293 36.1124 17.1599Z" fill="#505D95"/>
<path d="M37.6961 15.0186C37.5427 15.0186 37.4404 14.9163 37.4404 14.7629V12.9218C37.4404 12.7684 37.5427 12.6661 37.6961 12.6661C37.8496 12.6661 37.9518 12.7684 37.9518 12.9218V14.7629C37.9518 14.9163 37.8496 15.0186 37.6961 15.0186Z" fill="#505D95"/>
<path d="M37.6961 27.0395C37.5427 27.0395 37.4404 26.9373 37.4404 26.7838V20.8004C37.4404 20.647 37.5427 20.5447 37.6961 20.5447C37.8496 20.5447 37.9518 20.647 37.9518 20.8004V26.7838C37.9518 26.9373 37.8496 27.0395 37.6961 27.0395Z" fill="#505D95"/>
</svg>
