<svg width="50" height="50" viewBox="0 0 50 50" fill="none" xmlns="http://www.w3.org/2000/svg">
<path d="M39.3184 31.2121C43.7756 31.2121 47.3891 34.8256 47.3891 39.2828V43.3182H43.3537" stroke="#505D95" stroke-width="2" stroke-linecap="round" stroke-linejoin="round"/>
<path d="M33.2651 22.887C36.746 21.9909 39.3182 18.8311 39.3182 15.0705C39.3182 11.3098 36.746 8.14996 33.2651 7.25403" stroke="#505D95" stroke-width="2" stroke-linecap="round" stroke-linejoin="round"/>
<path d="M19.141 23.1414C23.5983 23.1414 27.2117 19.528 27.2117 15.0707C27.2117 10.6134 23.5983 7 19.141 7C14.6837 7 11.0703 10.6134 11.0703 15.0707C11.0703 19.528 14.6837 23.1414 19.141 23.1414Z" stroke="black" stroke-width="2" stroke-linecap="round" stroke-linejoin="round"/>
<path d="M27.2121 31.2121H11.0707C6.61338 31.2121 3 34.8256 3 39.2828V43.3182H35.2828V39.2828C35.2828 34.8256 31.6694 31.2121 27.2121 31.2121Z" stroke="black" stroke-width="2" stroke-linecap="round" stroke-linejoin="round"/>
</svg>
