<svg width="44" height="50" viewBox="0 0 44 50" fill="none" xmlns="http://www.w3.org/2000/svg">
<path fill-rule="evenodd" clip-rule="evenodd" d="M42.3687 13.8568V14.0154L42.2894 36.3808C42.2894 36.6187 42.1307 36.9359 41.8928 37.0946L22.5412 48.2772C22.4619 48.3566 22.3033 48.3566 22.1447 48.3566C22.0654 48.3566 21.9067 48.3566 21.7481 48.2772L2.39655 37.0946C2.15862 36.9359 2 36.698 2 36.3808V14.0154C2 13.7775 2.15862 13.4603 2.39655 13.3016L21.7481 2.11896C22.0654 1.96035 22.3826 1.96035 22.6205 2.11896L41.9721 13.3016C42.0118 13.3016 42.0316 13.3215 42.0514 13.3413C42.0713 13.3611 42.0911 13.3809 42.1307 13.3809L42.21 13.4603C42.21 13.4999 42.2299 13.5197 42.2497 13.5396C42.2695 13.5594 42.2894 13.5792 42.2894 13.6189V13.6982C42.3687 13.7775 42.3687 13.7775 42.3687 13.8568ZM39.7536 14.0164L22.1468 3.8648L4.30215 14.1751L22.0675 23.375L39.7536 14.0164ZM3.66531 15.7649L21.2721 24.9649C21.2721 24.9649 21.2721 25.0442 21.3514 25.0442V46.1406L3.66531 35.9096V15.7649ZM23.0967 24.8063V46.0613L40.7035 35.9096V15.4477L23.0967 24.8063Z" fill="#505D95"/>
<path d="M25.7139 27.7419V30.2799" stroke="#505D95"/>
<circle cx="28.6484" cy="29.0109" r="1.26896" stroke="#505D95"/>
<circle cx="36.1025" cy="29.0109" r="1.26896" stroke="#505D95"/>
<path d="M31.5029 27.7419V30.2799" stroke="#505D95"/>
<path d="M33.3271 27.7419V30.2799" stroke="#505D95"/>
<path d="M32.8511 31.9426V34.4805" stroke="#505D95"/>
<path d="M38.96 27.7419V30.2799" stroke="#505D95"/>
<path d="M25.7139 27.7419V30.2799" stroke="#505D95"/>
<path d="M27.2207 31.9426V34.4805" stroke="#505D95"/>
<circle cx="29.915" cy="33.2115" r="1.26896" stroke="#505D95"/>
<circle cx="35.5502" cy="33.2115" r="1.26896" stroke="#505D95"/>
</svg>
