<svg width="50" height="50" viewBox="0 0 50 50" fill="none" xmlns="http://www.w3.org/2000/svg">
<g clip-path="url(#clip0_1679_48862)">
<rect x="37.4971" y="27.3259" width="3.7963" height="3.7963" transform="rotate(51.7124 37.4971 27.3259)" fill="black"/>
<rect x="23.4546" y="45.4957" width="3.50433" height="3.50433" fill="black"/>
<rect x="12.1367" y="27.3869" width="3.54592" height="3.54592" transform="rotate(40.7094 12.1367 27.3869)" fill="black"/>
<rect x="47.8877" y="40.8465" width="3.546" height="3.546" transform="rotate(51.7124 47.8877 40.8465)" fill="black"/>
<rect x="2.33984" y="40.8329" width="3.58764" height="3.58764" transform="rotate(40.7094 2.33984 40.8329)" fill="black"/>
<path fill-rule="evenodd" clip-rule="evenodd" d="M37.2355 29.9487L37.2772 29.9904L47.711 43.5544H47.6275L25.1739 47.4358L25.1322 47.4775L25.0905 47.4358L2.34473 43.4292L2.38646 43.3457L12.2777 29.9904L12.3195 30.0321V29.9904L37.1937 29.9487V30.0321L37.2355 29.9487ZM12.2791 30.1181L2.55479 43.2647L25.0084 47.2296L12.2791 30.1181ZM25.1306 47.225L12.3596 30.0718L37.1504 30.03L36.9 30.4056L25.1306 47.225ZM36.9861 30.452L25.2584 47.2296L47.5034 43.39L37.2365 30.1181L36.9861 30.452Z" fill="black"/>
<path fill-rule="evenodd" clip-rule="evenodd" d="M19.1565 14.207C19.1565 14.7076 18.7393 15.083 18.2804 15.083C17.8215 15.083 17.446 14.6659 17.4043 14.207C17.4043 13.7063 17.7798 13.3309 18.2804 13.3309C18.781 13.3309 19.1565 13.7481 19.1565 14.207ZM18.7391 14.2101C18.7391 13.9597 18.5304 13.751 18.28 13.751C18.0296 13.751 17.8626 13.9597 17.8209 14.2101C17.8209 14.4605 18.0296 14.6692 18.28 14.6692C18.5304 14.6692 18.7391 14.4605 18.7391 14.2101Z" fill="#505D95"/>
<path fill-rule="evenodd" clip-rule="evenodd" d="M21.3267 14.207C21.3267 13.7063 21.7438 13.3309 22.2027 13.3309C22.6616 13.3309 23.0788 13.7481 23.0788 14.207C23.0788 14.7076 22.7034 15.083 22.2027 15.083C21.7021 15.083 21.3267 14.6659 21.3267 14.207ZM21.7433 14.2101C21.7433 14.4605 21.9519 14.6692 22.2024 14.6692C22.4528 14.6692 22.6614 14.4605 22.6614 14.2101C22.6614 13.9597 22.4528 13.751 22.2024 13.751C21.9519 13.751 21.7433 13.9597 21.7433 14.2101Z" fill="#505D95"/>
<rect x="19.6167" y="13.541" width="0.417182" height="1.33498" fill="#505D95"/>
<rect x="20.5337" y="13.541" width="0.417182" height="1.33498" fill="#505D95"/>
<rect x="20.2842" y="15.7435" width="0.417182" height="1.33498" fill="#505D95"/>
<rect x="23.4966" y="13.541" width="0.417182" height="1.33498" fill="#505D95"/>
<rect x="16.5298" y="13.541" width="0.417182" height="1.33498" fill="#505D95"/>
<rect x="17.3228" y="15.7435" width="0.417182" height="1.33498" fill="#505D95"/>
<path fill-rule="evenodd" clip-rule="evenodd" d="M18.0698 16.4163C18.0698 15.9157 18.487 15.5402 18.9459 15.5402C19.4465 15.5402 19.822 15.9157 19.822 16.4163C19.822 16.9169 19.4465 17.2924 18.9459 17.2924C18.4453 17.2924 18.0698 16.8752 18.0698 16.4163ZM18.4865 16.4195C18.4865 16.6699 18.6952 16.8786 18.9456 16.8786C19.196 16.8786 19.4047 16.6699 19.4047 16.4195C19.4047 16.1691 19.196 15.9604 18.9456 15.9604C18.6952 15.9604 18.4865 16.1691 18.4865 16.4195Z" fill="#505D95"/>
<path fill-rule="evenodd" clip-rule="evenodd" d="M21.0366 16.4163C21.0366 15.9157 21.4538 15.5402 21.9127 15.5402C22.4133 15.5402 22.7888 15.9157 22.7888 16.4163C22.7888 16.9169 22.4133 17.2924 21.9127 17.2924C21.4121 17.2924 21.0366 16.8752 21.0366 16.4163ZM21.4533 16.4195C21.4533 16.6699 21.662 16.8786 21.9124 16.8786C22.1628 16.8786 22.3715 16.6699 22.3715 16.4195C22.3715 16.1691 22.1628 15.9604 21.9124 15.9604C21.662 15.9604 21.4533 16.1691 21.4533 16.4195Z" fill="#505D95"/>
<path fill-rule="evenodd" clip-rule="evenodd" d="M23.9948 5.18645C23.9948 5.68706 23.5777 6.06253 23.1188 6.06253C22.6181 6.06253 22.2427 5.68706 22.2427 5.18645C22.2427 4.68583 22.6181 4.31036 23.1188 4.31036C23.6194 4.31036 23.9948 4.72755 23.9948 5.18645ZM23.5778 5.23025C23.5778 4.97984 23.3691 4.77116 23.1187 4.77116C22.8683 4.77116 22.6596 4.97984 22.6596 5.23025C22.6596 5.48066 22.8683 5.68934 23.1187 5.68934C23.3691 5.68934 23.5778 5.48066 23.5778 5.23025Z" fill="#505D95"/>
<path fill-rule="evenodd" clip-rule="evenodd" d="M26.1245 5.24064C26.1245 4.74003 26.5417 4.36456 27.0006 4.36456C27.5012 4.36456 27.8767 4.74003 27.8767 5.24064C27.8767 5.74126 27.5012 6.11673 27.0006 6.11673C26.5 6.11673 26.1245 5.69955 26.1245 5.24064ZM26.5413 5.19639C26.5413 5.44681 26.75 5.65548 27.0004 5.65548C27.2508 5.65548 27.4595 5.48854 27.4595 5.19639C27.4595 4.94598 27.2508 4.7373 27.0004 4.7373C26.75 4.7373 26.5413 4.94598 26.5413 5.19639Z" fill="#505D95"/>
<rect x="24.4136" y="4.5611" width="0.417182" height="1.33498" fill="#505D95"/>
<rect x="25.374" y="4.5611" width="0.417182" height="1.33498" fill="#505D95"/>
<rect x="25.083" y="6.77728" width="0.417182" height="1.33498" fill="#505D95"/>
<rect x="28.293" y="4.5611" width="0.417182" height="1.33498" fill="#505D95"/>
<rect x="21.3301" y="4.5611" width="0.417182" height="1.33498" fill="#505D95"/>
<rect x="22.1602" y="6.77728" width="0.417182" height="1.33498" fill="#505D95"/>
<path fill-rule="evenodd" clip-rule="evenodd" d="M22.9121 7.45C22.9121 6.94938 23.3293 6.57391 23.7882 6.57391C24.2471 6.57391 24.6643 6.94938 24.6643 7.45C24.6643 7.95061 24.2888 8.32608 23.7882 8.32608C23.2876 8.32608 22.9121 7.9089 22.9121 7.45ZM23.3291 7.40576C23.3291 7.65617 23.5377 7.86485 23.7882 7.86485C24.0386 7.86485 24.2472 7.65617 24.2472 7.40576C24.2472 7.15535 24.0386 6.94667 23.7882 6.94667C23.5377 6.94667 23.3291 7.15535 23.3291 7.40576Z" fill="#505D95"/>
<path fill-rule="evenodd" clip-rule="evenodd" d="M25.874 7.45C25.874 6.94938 26.2912 6.57391 26.7501 6.57391C27.209 6.57391 27.5845 6.94938 27.6262 7.45C27.6262 7.95061 27.2507 8.32608 26.7501 8.32608C26.2495 8.32608 25.874 7.9089 25.874 7.45ZM26.2906 7.40576C26.2906 7.65617 26.4993 7.86485 26.7497 7.86485C27.0001 7.86485 27.167 7.65617 27.2088 7.40576C27.2088 7.15535 27.0001 6.94667 26.7497 6.94667C26.4993 6.94667 26.2906 7.15535 26.2906 7.40576Z" fill="#505D95"/>
<path fill-rule="evenodd" clip-rule="evenodd" d="M29.3371 14.207C29.3371 14.7076 28.9199 15.083 28.461 15.083C28.0021 15.083 27.585 14.6659 27.585 14.207C27.585 13.7063 27.9604 13.3309 28.461 13.3309C28.9617 13.3309 29.3371 13.7481 29.3371 14.207ZM28.92 14.2101C28.92 13.9597 28.7113 13.751 28.4609 13.751C28.2105 13.751 28.0018 13.9597 28.0018 14.2101C28.0018 14.4605 28.2105 14.6692 28.4609 14.6692C28.7113 14.6692 28.92 14.4605 28.92 14.2101Z" fill="#505D95"/>
<path fill-rule="evenodd" clip-rule="evenodd" d="M33.2595 14.207C33.2595 14.7076 32.8423 15.083 32.3834 15.083C31.8828 15.083 31.5073 14.6659 31.5073 14.207C31.5073 13.7063 31.8828 13.3309 32.3834 13.3309C32.884 13.3309 33.2595 13.7481 33.2595 14.207ZM32.8423 14.2101C32.8423 13.9597 32.6337 13.751 32.3833 13.751C32.1328 13.751 31.9242 13.9597 31.9242 14.2101C31.9242 14.4605 32.1328 14.6692 32.3833 14.6692C32.6337 14.6692 32.8423 14.4605 32.8423 14.2101Z" fill="#505D95"/>
<rect x="29.7534" y="13.541" width="0.417182" height="1.33498" fill="#505D95"/>
<rect x="30.7144" y="13.541" width="0.417182" height="1.33498" fill="#505D95"/>
<rect x="30.4214" y="15.7435" width="0.417182" height="1.33498" fill="#505D95"/>
<rect x="33.6748" y="13.541" width="0.417182" height="1.33498" fill="#505D95"/>
<rect x="26.7095" y="13.541" width="0.417182" height="1.33498" fill="#505D95"/>
<rect x="27.5024" y="15.7435" width="0.417182" height="1.33498" fill="#505D95"/>
<path fill-rule="evenodd" clip-rule="evenodd" d="M29.1251 17.2924C28.6245 17.2924 28.249 16.8752 28.249 16.4163C28.249 15.9157 28.6245 15.5402 29.1251 15.5402C29.6257 15.5402 30.0012 15.9574 30.0012 16.4163C30.0012 16.9169 29.6257 17.2924 29.1251 17.2924ZM29.125 16.8786C29.3755 16.8786 29.5841 16.6699 29.5841 16.4195C29.5841 16.1691 29.3755 15.9604 29.125 15.9604C28.8746 15.9604 28.666 16.1691 28.666 16.4195C28.666 16.6699 28.8746 16.8786 29.125 16.8786Z" fill="#505D95"/>
<path fill-rule="evenodd" clip-rule="evenodd" d="M32.9665 16.4163C32.9665 16.9169 32.5493 17.2924 32.0904 17.2924C31.6315 17.2924 31.2144 16.8752 31.2144 16.4163C31.2144 15.9157 31.5898 15.5402 32.0904 15.5402C32.5911 15.5402 32.9665 15.9574 32.9665 16.4163ZM32.5495 16.4195C32.5495 16.1691 32.3408 15.9604 32.0904 15.9604C31.84 15.9604 31.6313 16.1691 31.6313 16.4195C31.6313 16.6699 31.84 16.8786 32.0904 16.8786C32.3408 16.8786 32.5495 16.6699 32.5495 16.4195Z" fill="#505D95"/>
<path fill-rule="evenodd" clip-rule="evenodd" d="M35.6784 6.23687V6.32031L35.6367 18.1266C35.6367 18.2517 35.5533 18.4186 35.4281 18.502L25.2489 24.3843C25.2071 24.426 25.1237 24.426 25.0403 24.426C24.9985 24.426 24.9151 24.426 24.8317 24.3843L14.6524 18.502C14.5273 18.4186 14.4438 18.2934 14.4438 18.1266V6.32031C14.4438 6.19515 14.5273 6.02828 14.6524 5.94484L24.8317 0.0625773C24.9985 -0.0208591 25.1654 -0.0208591 25.2906 0.0625773L35.4698 5.94484C35.4907 5.94484 35.5011 5.95527 35.5115 5.9657C35.522 5.97613 35.5324 5.98656 35.5532 5.98656L35.595 6.02828C35.595 6.04914 35.6054 6.05957 35.6158 6.07C35.6263 6.08043 35.6367 6.09086 35.6367 6.11171V6.15343C35.6607 6.17742 35.6709 6.18762 35.6752 6.19988C35.6784 6.20895 35.6784 6.21914 35.6784 6.23687ZM15.3202 17.8345L24.6233 23.2162V12.1191C24.5816 12.1191 24.5816 12.0774 24.5816 12.0774L15.3202 7.23809V17.8345ZM24.9986 11.2871L15.6537 6.40606L25.0403 0.982692L34.3017 6.32262L24.9986 11.2871ZM25.4996 23.1719L34.7611 17.832V7.06869L25.4996 11.9914V23.1719Z" fill="#505D95"/>
</g>
<defs>
<clipPath id="clip0_1679_48862">
<rect width="50" height="50" fill="white"/>
</clipPath>
</defs>
</svg>
