<svg width="14" height="15" viewBox="0 0 14 15" fill="none" xmlns="http://www.w3.org/2000/svg">
<path d="M2.81556 6.45867C3.93556 8.65978 5.74 10.4642 7.94111 11.5842L9.65222 9.87311C9.87 9.65534 10.1733 9.59311 10.4456 9.67867C11.3167 9.96645 12.25 10.122 13.2222 10.122C13.4285 10.122 13.6263 10.2039 13.7722 10.3498C13.9181 10.4957 14 10.6935 14 10.8998V13.622C14 13.8283 13.9181 14.0261 13.7722 14.172C13.6263 14.3178 13.4285 14.3998 13.2222 14.3998C9.71547 14.3998 6.35235 13.0067 3.8727 10.5271C1.39305 8.04743 0 4.68431 0 1.17756C0 0.971279 0.0819442 0.773448 0.227806 0.627586C0.373667 0.481724 0.571498 0.39978 0.777778 0.39978H3.5C3.70628 0.39978 3.90411 0.481724 4.04997 0.627586C4.19583 0.773448 4.27778 0.971279 4.27778 1.17756C4.27778 2.14978 4.43333 3.08311 4.72111 3.95422C4.80667 4.22645 4.74444 4.52978 4.52667 4.74756L2.81556 6.45867Z" fill="black"/>
</svg>
