<svg width="40" height="40" viewBox="0 0 40 40" fill="none" xmlns="http://www.w3.org/2000/svg">
<path d="M40 21.356C40 33.2907 31.9347 40 20 40C8.06533 40 0 33.2907 0 21.356C0 9.42133 7.62133 0 20 0C32.3787 0 40 8.96933 40 21.356Z" fill="#FED132"/>
<path d="M12.816 27.7415C13.8067 25.3961 16.744 23.8455 20.0067 23.8348C22.8627 23.8241 26.2013 25.0908 27.1853 27.7415C27.412 28.3508 26.756 28.9135 26.188 28.6028C24.3307 27.5841 22.0787 27.1921 19.9933 27.1575C17.264 27.1121 15.4667 27.6855 13.8533 28.5815C13.1493 28.9721 12.5787 28.3081 12.8187 27.7401L12.816 27.7415Z" fill="#802D21"/>
<path d="M14.568 8.16133C13.252 7.73466 11.9334 7.63866 10.6654 8.21866C9.26404 8.86 8.26137 9.94133 7.25071 11.1013C7.03737 11.3453 6.72404 11.3413 6.52271 11.1667C6.35871 11.0227 6.30937 10.796 6.38271 10.604C7.04671 8.88 8.18804 7.37733 9.80404 6.49733C11.9507 5.32933 14.1307 5.80133 15.3187 7.06133C15.5774 7.33466 15.564 7.76666 15.2907 8.024C15.1107 8.19466 14.868 8.26 14.5654 8.16133H14.568Z" fill="#D97818"/>
<path d="M25.4321 8.16133C26.7481 7.73466 28.0667 7.63866 29.3347 8.21866C30.7361 8.86 31.7387 9.94133 32.7494 11.1013C32.9627 11.3453 33.2761 11.3413 33.4774 11.1667C33.6414 11.0227 33.6907 10.796 33.6174 10.604C32.9534 8.88 31.8121 7.37733 30.1947 6.49733C28.0481 5.32933 25.8681 5.80133 24.6801 7.06133C24.4214 7.33466 24.4347 7.76666 24.7081 8.024C24.8881 8.19466 25.1307 8.26 25.4334 8.16133H25.4321Z" fill="#D97818"/>
<path d="M17.4987 17.8599C16.9801 16.3892 15.9041 15.0879 14.6481 14.1092C15.1761 13.2439 15.7414 12.2706 16.1454 11.3692C16.4187 10.7612 15.8574 10.1759 15.2694 10.3639C13.9694 10.7812 12.8374 11.6252 11.9161 12.6106C10.6854 12.1799 9.33741 11.9866 8.04941 12.2506C7.46008 12.3719 7.23474 13.1372 7.76141 13.5519C8.48808 14.1252 9.35474 14.6799 10.1561 15.1746C9.43741 16.6519 9.00941 18.3772 9.22941 20.0026C9.31208 20.6092 10.0774 20.8706 10.5121 20.3639C11.3001 19.4452 12.0707 18.2586 12.9387 16.8839C14.0347 17.5439 15.3494 18.3239 16.5321 18.7786C17.1414 19.0132 17.7014 18.4386 17.4974 17.8586L17.4987 17.8599Z" fill="#802D21"/>
<path d="M22.5015 17.8599C23.0201 16.3892 24.0961 15.0879 25.3521 14.1106C24.8241 13.2452 24.2588 12.2706 23.8548 11.3692C23.5815 10.7612 24.1428 10.1759 24.7308 10.3639C26.0308 10.7812 27.1628 11.6252 28.0841 12.6106C29.3148 12.1799 30.6628 11.9866 31.9508 12.2506C32.5401 12.3719 32.7655 13.1372 32.2388 13.5519C31.5121 14.1252 30.6455 14.6799 29.8441 15.1746C30.5628 16.6519 30.9895 18.3772 30.7695 20.0026C30.6868 20.6092 29.9215 20.8706 29.4855 20.3639C28.6975 19.4452 27.9268 18.2586 27.0588 16.8826C25.9628 17.5426 24.6481 18.3226 23.4641 18.7772C22.8548 19.0119 22.2948 18.4372 22.4988 17.8572L22.5015 17.8599Z" fill="#802D21"/>
</svg>
