<svg width="40" height="40" viewBox="0 0 40 40" fill="none" xmlns="http://www.w3.org/2000/svg">
<path d="M40 21.356C40 33.2907 31.9347 40 20 40C8.06533 40 0 33.2907 0 21.356C0 9.42133 7.62133 0 20 0C32.3787 0 40 8.96933 40 21.356Z" fill="#FED132"/>
<path d="M12.2267 24.8546C13.7907 26.1773 15.712 27.7373 19.9654 27.6266C23.9173 27.5239 25.6107 26.7466 27.776 24.8546C28.0893 24.5813 28.5174 24.6359 28.7587 24.9106C28.9254 25.1013 28.968 25.3586 28.8934 25.5826C27.6387 29.3333 23.9733 30.9039 20.036 30.9519C15.548 31.0066 12.2907 28.7546 11.1107 25.5826C10.9787 25.2293 11.1587 24.8359 11.512 24.7053C11.7413 24.6199 11.988 24.6519 12.2267 24.8546Z" fill="#802D21"/>
<path d="M37.8827 9.43996C35.5974 8.90663 33.8681 8.73596 32.0227 8.73596C23.6174 8.73596 21.3414 11.4466 19.9561 11.4466C18.5707 11.4466 16.2947 8.73596 7.88939 8.73596C6.04406 8.73596 4.31472 8.90663 2.02939 9.43996C1.18139 9.6373 0.956055 9.96263 0.956055 10.624V12.3213C0.956055 14.1533 1.59472 13.0013 2.22939 15.2426C3.11472 18.3666 3.62005 19.5546 4.53072 20.2706C6.48272 21.8053 12.1694 21.5666 14.5361 20.8093C15.9387 20.3653 16.6387 19.5733 18.1414 16.348C18.8614 14.8013 21.0534 14.8013 21.7734 16.348C23.2747 19.5733 23.9761 20.364 25.3787 20.8093C27.7454 21.5653 33.4321 21.8053 35.3827 20.2706C36.2934 19.5546 36.7987 18.3666 37.6841 15.2426C38.3187 13.0026 38.9574 14.1533 38.9574 12.3213V10.624C38.9574 9.96263 38.7321 9.63863 37.8841 9.43996H37.8827Z" fill="#170F02"/>
<path d="M16.5134 14.824C15.5547 17.724 15.0694 18.9906 13.2574 19.3933C11.5521 19.7733 8.53206 19.8466 6.65606 19.3773C4.54006 18.848 3.64673 14.4106 3.64673 13.5293C3.64673 11.32 5.4934 10.728 9.89873 10.8253C13.6081 10.9066 17.6041 11.524 16.5134 14.824ZM30.0147 10.8253C26.3054 10.9066 22.3094 11.524 23.4001 14.824C24.3587 17.724 24.8441 18.9906 26.6561 19.3933C28.3614 19.7733 31.3814 19.8466 33.2574 19.3773C35.3734 18.848 36.2667 14.4106 36.2667 13.5293C36.2667 11.32 34.4201 10.728 30.0147 10.8253Z" fill="#526470"/>
</svg>
