<svg width="40" height="40" viewBox="0 0 40 40" fill="none" xmlns="http://www.w3.org/2000/svg">
<path d="M40 21.356C40 33.2907 31.9347 40 20 40C8.06533 40 0 33.2907 0 21.356C0 9.42133 7.62133 0 20 0C32.3787 0 40 8.96933 40 21.356Z" fill="#FED132"/>
<path d="M14.7586 6.43614C13.9026 7.52148 12.8586 8.33481 11.4813 8.55614C9.95865 8.80148 8.52531 8.45881 7.03998 8.05614C6.72798 7.97081 6.46931 8.14948 6.39865 8.40681C6.34131 8.61748 6.42665 8.83348 6.59598 8.95214C8.10531 10.0161 9.89065 10.6321 11.7226 10.4655C14.1573 10.2441 15.7066 8.64014 15.9946 6.93214C16.0573 6.56148 15.808 6.20948 15.436 6.14681C15.192 6.10548 14.9533 6.18548 14.7573 6.43481L14.7586 6.43614Z" fill="#D97818"/>
<path d="M26.1561 8.32271C27.4721 7.89604 28.7907 7.80004 30.0587 8.38004C31.4601 9.02137 32.4627 10.1027 33.4734 11.2627C33.6867 11.5067 34.0001 11.5027 34.2014 11.328C34.3654 11.184 34.4147 10.9574 34.3414 10.7654C33.6774 9.04137 32.5361 7.53871 30.9187 6.65871C28.7721 5.49071 26.5921 5.96271 25.4041 7.22271C25.1454 7.49604 25.1587 7.92804 25.4321 8.18537C25.6121 8.35604 25.8547 8.42138 26.1574 8.32271H26.1561Z" fill="#D97818"/>
<path d="M32.8066 21.06C33.0359 22.2 32.7879 23.3347 32.2866 24.3427C31.3532 26.22 28.7066 28.6414 24.2826 29.672C20.6519 30.5187 15.9906 30.2827 12.2639 28.8347C11.9172 28.7 11.7466 28.3107 11.8812 27.964C11.9919 27.6787 12.2772 27.5107 12.5692 27.5374C16.1372 27.8614 20.0826 27.6787 23.5079 26.6867C27.4546 25.544 28.8239 23.5107 29.6252 22.6187C30.1746 22.0067 30.7239 21.364 31.5332 20.6654L31.5692 20.6347C32.0092 20.2547 32.6932 20.4947 32.8079 21.06H32.8066Z" fill="#802D21"/>
<path d="M28.5052 12.1961C27.2559 11.9721 24.7012 12.1041 22.8612 13.1841C22.4292 13.4375 22.5572 14.1588 23.1959 14.1268C24.3692 14.0668 25.4146 13.9988 26.6079 14.0495H26.6159C26.4426 14.4988 26.3532 15.0321 26.4159 15.6735C26.6972 18.5588 31.0892 18.5588 31.3706 15.6735C31.5506 13.8281 30.5826 12.5695 28.5066 12.1961H28.5052Z" fill="#802D21"/>
<path d="M15.172 12.1961C13.9227 11.9721 11.368 12.1041 9.52799 13.1841C9.09599 13.4375 9.224 14.1588 9.86266 14.1268C11.036 14.0668 12.0813 13.9988 13.2747 14.0495H13.2827C13.1093 14.4988 13.02 15.0321 13.0827 15.6735C13.364 18.5588 17.756 18.5588 18.0373 15.6735C18.2173 13.8281 17.2493 12.5695 15.1733 12.1961H15.172Z" fill="#802D21"/>
</svg>
