<svg width="40" height="40" viewBox="0 0 40 40" fill="none" xmlns="http://www.w3.org/2000/svg">
<path d="M40 21.356C40 33.2907 31.9347 40 20 40C8.06533 40 0 33.2907 0 21.356C0 9.42133 7.62133 0 20 0C32.3787 0 40 8.96933 40 21.356Z" fill="#FED132"/>
<path d="M13.384 27.6172C15.5933 27.5639 17.796 27.5759 20 27.5759C22.204 27.5759 24.4066 27.5626 26.616 27.6172C27.3533 27.6359 27.9373 28.2479 27.9186 28.9852C27.9026 29.6666 27.3773 30.2159 26.716 30.2826C24.4826 30.5052 22.24 30.5759 19.9986 30.5759C17.7573 30.5759 15.5146 30.5052 13.2813 30.2826C12.5466 30.2092 12.0106 29.5546 12.084 28.8212C12.152 28.1426 12.7173 27.6346 13.3813 27.6186L13.384 27.6172Z" fill="#802D21"/>
<path d="M9.69601 18.4319C6.87601 18.4319 4.53601 19.5159 4.53601 21.9639C4.53601 24.4119 6.73601 25.7652 9.20001 25.7652C11.664 25.7652 13.8693 24.4706 13.8693 21.6652C13.8693 19.8786 12.0333 18.4319 9.69601 18.4319Z" fill="#FD9E21"/>
<path d="M30.3039 18.4319C33.1239 18.4319 35.464 19.5159 35.464 21.9639C35.464 24.4119 33.2639 25.7652 30.7999 25.7652C28.3359 25.7652 26.1306 24.4706 26.1306 21.6652C26.1306 19.8786 27.9666 18.4319 30.3039 18.4319Z" fill="#FD9E21"/>
<path d="M13.0293 6.95325C11.656 6.79058 10.3426 6.95325 9.21329 7.77191C7.96396 8.67458 7.19196 9.93058 6.42663 11.2652C6.2653 11.5466 5.95596 11.6026 5.72529 11.4706C5.53596 11.3626 5.44396 11.1492 5.47863 10.9452C5.79329 9.12524 6.61996 7.42791 8.03329 6.25058C9.91063 4.68658 12.1413 4.72391 13.552 5.72791C13.8586 5.94525 13.9306 6.37058 13.7133 6.67725C13.5693 6.87991 13.3453 6.99058 13.0293 6.95325Z" fill="#D97818"/>
<path d="M26.9706 6.95325C28.344 6.79058 29.6573 6.95325 30.7866 7.77191C32.036 8.67458 32.808 9.93058 33.5733 11.2652C33.7346 11.5466 34.044 11.6026 34.2746 11.4706C34.464 11.3626 34.556 11.1492 34.5213 10.9452C34.2066 9.12524 33.38 7.42791 31.9666 6.25058C30.0893 4.68658 27.8586 4.72391 26.448 5.72791C26.1413 5.94525 26.0693 6.37058 26.2866 6.67725C26.4306 6.87991 26.6546 6.99058 26.9706 6.95325Z" fill="#D97818"/>
<path d="M17.6449 17.458C18.6312 15.0769 17.5005 12.347 15.1194 11.3607C12.7382 10.3744 10.0084 11.5052 9.02206 13.8863C8.03576 16.2675 9.1665 18.9973 11.5476 19.9836C13.9288 20.9699 16.6586 19.8392 17.6449 17.458Z" fill="white"/>
<path d="M14.9791 15.9395C15.1265 15.0309 14.5096 14.1748 13.601 14.0273C12.6924 13.8798 11.8363 14.4968 11.6888 15.4054C11.5413 16.314 12.1583 17.1701 13.0669 17.3176C13.9755 17.4651 14.8316 16.8481 14.9791 15.9395Z" fill="#170F02"/>
<path d="M30.9781 17.4583C31.9644 15.0771 30.8336 12.3473 28.4525 11.361C26.0713 10.3747 23.3415 11.5054 22.3552 13.8866C21.3689 16.2677 22.4996 18.9976 24.8808 19.9839C27.2619 20.9702 29.9918 19.8394 30.9781 17.4583Z" fill="white"/>
<path d="M28.3127 15.9397C28.4602 15.0312 27.8432 14.175 26.9346 14.0276C26.026 13.8801 25.1699 14.4971 25.0224 15.4056C24.8749 16.3142 25.4919 17.1703 26.4005 17.3178C27.3091 17.4653 28.1652 16.8483 28.3127 15.9397Z" fill="#170F02"/>
</svg>
