<svg width="40" height="40" viewBox="0 0 40 40" fill="none" xmlns="http://www.w3.org/2000/svg">
<path d="M40 21.356C40 33.2907 31.9347 40 20 40C8.06533 40 0 33.2907 0 21.356C0 9.42133 7.62133 0 20 0C32.3787 0 40 8.96933 40 21.356Z" fill="#FED132"/>
<path d="M10.6226 12.8068C10.6226 13.5574 10.6972 14.2921 10.8412 15.0014C11.3746 17.6401 15.2039 17.6401 15.7372 15.0014C15.8812 14.2908 15.9559 13.5574 15.9559 12.8068C15.9559 11.7668 15.8119 10.7588 15.5412 9.80144C14.8986 7.5281 11.6799 7.5281 11.0372 9.80144C10.7666 10.7588 10.6226 11.7668 10.6226 12.8068Z" fill="#802D21"/>
<path d="M29.2891 12.8068C29.2891 13.5574 29.2145 14.2921 29.0705 15.0014C28.5371 17.6401 24.7078 17.6401 24.1745 15.0014C24.0305 14.2908 23.9558 13.5574 23.9558 12.8068C23.9558 11.7668 24.0998 10.7588 24.3705 9.80144C25.0131 7.5281 28.2318 7.5281 28.8745 9.80144C29.1451 10.7588 29.2891 11.7668 29.2891 12.8068Z" fill="#802D21"/>
<path d="M22.5786 20.3802C25.7773 21.5548 25.3053 25.1055 24.22 27.4495C23.2573 29.5308 21.8013 30.9628 20.516 31.3028C17.3413 32.1428 14.104 26.0522 15.168 22.9508C16.1773 20.0082 19.7373 19.3375 22.5773 20.3802H22.5786Z" fill="#802D21"/>
<path d="M22.5 27.5947C22.5 28.6961 21.3813 29.2561 20 29.2561C18.6187 29.2561 17.5 28.6961 17.5 27.5947C17.5 26.4934 19.3627 25.8361 20 26.5987C20.664 25.8054 22.5 26.4947 22.5 27.5947Z" fill="#F55151"/>
</svg>
