<svg width="40" height="40" viewBox="0 0 40 40" fill="none" xmlns="http://www.w3.org/2000/svg">
<path d="M40 20.6671C40 32.2168 31.9347 38.7097 20 38.7097C8.06533 38.7097 0 32.2168 0 20.6671C0 9.11742 7.62133 0 20 0C32.3787 0 40 8.68 40 20.6671Z" fill="#FED132"/>
<path d="M31.3284 13.9523C31.4448 11.4607 29.4521 9.34942 26.8774 9.23671C24.3027 9.124 22.121 11.0525 22.0046 13.5441C21.8881 16.0358 23.8809 18.147 26.4556 18.2597C29.0303 18.3725 31.2119 16.4439 31.3284 13.9523Z" fill="white"/>
<path d="M26.6667 15.3601C27.5871 15.3601 28.3333 14.638 28.3333 13.7472C28.3333 12.8564 27.5871 12.1343 26.6667 12.1343C25.7462 12.1343 25 12.8564 25 13.7472C25 14.638 25.7462 15.3601 26.6667 15.3601Z" fill="#170F02"/>
<path d="M7.61861 13.8748C8.71195 12.3265 10.4759 11.2736 12.4199 11.1484C14.2813 11.0284 16.2319 12.0219 17.2973 13.9523C17.4639 14.2542 17.3453 14.6297 17.0333 14.791C16.8573 14.8826 16.6559 14.8852 16.4853 14.8168C14.7759 14.129 14.0293 13.6581 12.5786 13.7213C11.0546 13.7871 9.98261 14.311 8.60261 14.7445L8.35061 14.8232C8.01061 14.9303 7.64661 14.7497 7.53595 14.4219C7.47195 14.231 7.50928 14.0284 7.61861 13.8748Z" fill="#802D21"/>
<path d="M9.67059 20.7654C14.1493 22.0221 16.5106 22.7215 19.9999 22.7318C23.4733 22.7408 25.9559 21.9757 30.3293 20.7667C31.4679 20.4518 32.5093 21.3679 32.3386 22.4634C31.5306 27.5008 26.2906 31.7525 20.0013 31.7628C13.7173 31.7731 8.45859 27.5112 7.66392 22.4634C7.48925 21.3525 8.57059 20.457 9.67325 20.7667L9.67059 20.7654Z" fill="#802D21"/>
<path d="M23.2106 26.1601C22.8666 25.6479 22.0652 25.2634 21.4332 25.2918C20.4399 25.3369 19.5319 25.3356 18.5626 25.2918C17.8519 25.2595 17.1746 25.5821 16.7866 26.1589C15.5626 27.9847 14.0439 31.0311 13.9986 34.9782C13.9692 37.4866 16.2652 39.715 19.3599 39.9731C22.9599 40.2724 25.9986 38.004 25.9986 35.1627C25.9986 31.1266 24.4532 28.0143 23.2092 26.1601H23.2106Z" fill="#F55151"/>
<path d="M20.4999 25.3252H19.4999C19.4932 25.4271 18.9919 32.8362 18.9999 32.9381C19.0385 33.4723 19.5185 33.8749 20.0705 33.8375C20.6225 33.8 21.0372 33.3355 20.9999 32.8013C20.8692 30.9329 20.4999 25.3265 20.4999 25.3265V25.3252Z" fill="#DC372F"/>
</svg>
