<svg width="40" height="40" viewBox="0 0 40 40" fill="none" xmlns="http://www.w3.org/2000/svg">
<path d="M0.921387 15.5149L2.88272 19.2508L18.4467 20.2222L32.2494 19.4095L37.1947 17.9073L39.0787 15.5149L35.8654 17.5987L30.8534 16.8063L17.2587 18.3174L8.65472 16.2362L5.61605 17.5568L3.20539 15.8425L0.921387 15.5149Z" fill="#D97818"/>
<path d="M0.921333 15.5149C0.318667 17.5962 0 19.8514 0 22.2438C0 33.6101 8.06533 40 20 40C31.9347 40 40 33.6101 40 22.2438C40 19.8514 39.6813 17.5962 39.0787 15.5162L37.1947 17.9085L32.248 19.4108L27.944 17.6228L18.4467 20.2235L10.1667 17.5162L2.88267 19.252L0.921333 15.5162V15.5149Z" fill="#FED132"/>
<path d="M12.816 30.9917C13.8067 28.758 16.744 27.2812 20.0067 27.2711C22.8627 27.2609 26.2013 28.4673 27.1853 30.9917C27.412 31.572 26.756 32.1079 26.188 31.812C24.3307 30.8419 22.0787 30.4685 19.9933 30.4355C17.264 30.3923 15.4667 30.9384 13.8533 31.7917C13.1493 32.1638 12.5787 31.5314 12.8187 30.9904L12.816 30.9917Z" fill="#802D21"/>
<path d="M14.808 24.7848C14.0306 26.5766 11.3026 26.5766 10.5253 24.7848C10.2266 24.0953 10.1133 23.3486 10.1893 22.6083C10.4733 19.8604 14.8586 19.8604 15.1426 22.6083C15.2186 23.3474 15.1066 24.094 14.8066 24.7848H14.808Z" fill="#802D21"/>
<path d="M25.1919 24.7848C25.9693 26.5766 28.6973 26.5766 29.4746 24.7848C29.7733 24.0953 29.8866 23.3486 29.8106 22.6083C29.5266 19.8604 25.1413 19.8604 24.8573 22.6083C24.7813 23.3474 24.8933 24.094 25.1933 24.7848H25.1919Z" fill="#802D21"/>
<path d="M36.3333 6.34921C36.3333 8.10159 34.84 9.52381 33 9.52381C32.64 9.52381 32.2933 9.45397 31.9666 9.35238C31.42 10.3937 30.3066 11.1111 29 11.1111C27.9266 11.1111 26.98 10.6159 26.3733 9.86667C25.8466 10.9714 24.6866 11.746 23.3333 11.746C21.98 11.746 20.8666 11.0032 20.3333 9.93016C19.8 11.0032 18.66 11.746 17.3333 11.746C15.7133 11.746 14.3666 10.6413 14.0666 9.18095C13.5533 10.3175 12.3733 11.1111 11 11.1111C9.62663 11.1111 8.57996 10.3937 8.03329 9.35238C7.70663 9.45397 7.35996 9.52381 6.99996 9.52381C5.15996 9.52381 3.66663 8.10159 3.66663 6.34921C3.66663 4.59683 5.13329 3.20635 6.94663 3.18095C7.45996 2.05714 8.63329 1.26984 9.99996 1.26984C10.6866 1.26984 11.32 1.46667 11.8533 1.80317C12.44 0.914286 13.48 0.31746 14.6666 0.31746C15.6866 0.31746 16.5933 0.768254 17.2066 1.45397C17.8 0.584127 18.8266 0 20 0C21 0 21.8933 0.431746 22.5 1.09841C23.0866 0.615873 23.8333 0.31746 24.6666 0.31746C25.8533 0.31746 26.8933 0.914286 27.48 1.80317C28.0133 1.46667 28.6466 1.26984 29.3333 1.26984C30.72 1.26984 31.9133 2.08254 32.4133 3.23175C32.6066 3.2 32.8 3.1746 33 3.1746C34.84 3.1746 36.3333 4.59683 36.3333 6.34921Z" fill="#9BAFBA"/>
<path d="M22.9506 9.06784C22.736 9.12499 22.5106 9.158 22.2773 9.158C21.1946 9.158 20.272 8.5053 19.8986 7.58594C19.3933 8.19038 18.3293 8.62213 17.0693 8.678C16.9986 10.4278 16.604 14.9904 14.4626 18.9193L18.4466 20.2221L25.2466 18.3593C23.4933 14.8342 23.0573 10.9383 22.9506 9.06657V9.06784Z" fill="#DC372F"/>
<path d="M24.6666 12.2551C23.4266 11.8285 21.7493 11.4221 19.8546 11.4221C17.9599 11.4221 16.2839 11.8272 15.0439 12.2539C13.9639 12.6247 13.4599 13.7802 13.8639 14.7834C14.0999 15.1339 14.4506 15.417 14.8959 15.5694C15.1679 15.6634 15.4639 15.7535 15.7733 15.8424C15.9733 15.2405 16.1533 14.6437 16.2959 14.0634C18.6653 12.9396 21.1306 12.8926 23.7053 14.0634C23.8426 14.6183 24.0106 15.1897 24.1999 15.765C24.4133 15.7002 24.6213 15.6355 24.8146 15.5682C25.2586 15.4158 25.6079 15.1326 25.8439 14.7847C26.2493 13.7815 25.7466 12.6259 24.6666 12.2539V12.2551Z" fill="#9BAFBA"/>
<path d="M34.1227 11.5162L35.7227 15.6863L32.7733 16.0724C32.7733 16.0724 31.908 13.4019 34.1227 11.5149V11.5162Z" fill="#FED132"/>
<path d="M34.1226 11.5162L33.244 11.3931C32.164 12.2654 31.6306 13.0527 32.1373 15.4896L32.7746 16.0724C32.7746 16.0724 31.9093 13.402 34.124 11.515L34.1226 11.5162Z" fill="#D97818"/>
<path d="M5.26266 15.6102L3.66666 10.9766C3.66666 10.9766 2.33466 12.4432 2.37466 13.3334L3.81866 15.2889L5.26266 15.6115V15.6102Z" fill="#FED132"/>
<path d="M4.59329 11.2648L3.66663 10.9766L5.26263 15.6102L6.17196 14.6616L4.59329 11.2648Z" fill="#D97818"/>
<path d="M9.24537 11.2954L11.256 13.7411L9.12003 14.8776L8.7147 14.3494L7.88403 14.6554L8.43337 12.0091L9.24537 11.2954Z" fill="#D97818"/>
<path d="M9.24536 11.2953L8.79069 11.1277L7.47602 11.6051L7.40002 14.3226L7.88402 14.6553L8.43336 12.009L9.24536 11.2953Z" fill="#FED132"/>
<path d="M8.71463 14.3494L8.32263 14.4929L9.11997 14.8776L8.71463 14.3494Z" fill="#FED132"/>
<path d="M23.6747 9.66093L27.332 13.299L28.2267 12.847L26.8774 8.50537L23.6747 9.66093Z" fill="#FED132"/>
<path d="M27.74 8.86981L26.8773 8.50537L28.2267 12.847L28.612 12.1079L27.74 8.86981Z" fill="#D97818"/>
<path d="M36.3334 6.34912L34.3854 7.30277L36.6094 11.1275H37.4227L36.3334 6.34912Z" fill="#FED132"/>
<path d="M35.904 6.05591L35.172 6.334L34.3854 7.30289L36.3334 6.34924L35.904 6.05591Z" fill="#D97818"/>
<path d="M8.55334 7.87433L10.348 3.2356L12.1773 5.10099L10.208 7.87433H8.55334Z" fill="#FED132"/>
<path d="M11.46 3.44385L10.348 3.2356L12.1773 5.10099L10.208 7.87433L11.272 7.43115L13.0293 5.27242L11.46 3.44385Z" fill="#D97818"/>
<path d="M12.6666 16.31L15.864 17.2852L18.8386 16.197L15.156 13.5481L12.6666 16.31Z" fill="#FED132"/>
<path d="M18.5507 14.969L16.296 13.2205L15.156 13.5481L18.8387 16.197L18.5507 14.969Z" fill="#D97818"/>
</svg>
