<svg width="40" height="40" viewBox="0 0 40 40" fill="none" xmlns="http://www.w3.org/2000/svg">
<path d="M39.9601 21.1167C39.9601 32.9176 31.9108 39.5517 20 39.5517C8.08915 39.5517 0.039917 32.9176 0.039917 21.1167C0.039917 9.31575 7.64604 0 20 0C32.354 0 39.9601 7.08108 39.9601 21.1167Z" fill="#FED132"/>
<path d="M34.294 16.5458C37.4025 15.8958 39.0232 12.4245 37.6087 9.56229C34.463 3.20105 28.3047 0 20 0C11.6952 0 6.1277 3.65063 2.86755 9.49242C1.28539 12.3283 2.95671 15.9499 6.12238 16.5893C13.493 18.0765 27.0445 18.0606 34.2927 16.5445L34.294 16.5458Z" fill="#28BEEF"/>
<path d="M12.6866 21.4252C15.9944 21.4252 18.676 18.4744 18.676 14.8345C18.676 11.1946 15.9944 8.2439 12.6866 8.2439C9.37879 8.2439 6.69727 11.1946 6.69727 14.8345C6.69727 18.4744 9.37879 21.4252 12.6866 21.4252Z" fill="white"/>
<path d="M14.3495 14.8363C14.3506 13.9261 13.6068 13.1874 12.6882 13.1863C11.7695 13.1851 11.0239 13.9221 11.0228 14.8322C11.0217 15.7424 11.7655 16.4811 12.6841 16.4822C13.6027 16.4833 14.3483 15.7464 14.3495 14.8363Z" fill="#170F02"/>
<path d="M27.3293 21.4252C30.6372 21.4252 33.3187 18.4744 33.3187 14.8345C33.3187 11.1946 30.6372 8.2439 27.3293 8.2439C24.0215 8.2439 21.34 11.1946 21.34 14.8345C21.34 18.4744 24.0215 21.4252 27.3293 21.4252Z" fill="white"/>
<path d="M28.9901 14.8348C28.9912 13.9246 28.2474 13.1859 27.3288 13.1848C26.4101 13.1837 25.6645 13.9206 25.6634 14.8308C25.6623 15.7409 26.4061 16.4797 27.3247 16.4808C28.2434 16.4819 28.989 15.745 28.9901 14.8348Z" fill="#170F02"/>
<path d="M28.0931 39.0454C24.0079 36.5299 25.7351 32.7198 27.7085 28.6051C28.3712 27.2313 29.4903 23.7574 30.9101 23.9142C31.5142 23.9762 31.7032 24.3309 31.6074 24.9782C33.3718 21.8668 34.628 22.6644 34.769 23.6202C34.7996 23.8417 34.7238 24.2056 34.5694 24.646L34.8835 24.1964C35.3479 23.5451 36.2408 22.5695 37.1057 23.0111C37.7072 23.3196 37.8203 23.8061 37.4064 24.8134C38.0345 24.17 38.5561 24.0619 39.0711 24.3678C40.2607 25.0639 38.9513 27.2933 36.8436 30.4891L36.9673 30.5102C37.8243 29.1575 39.8762 30.1726 38.5069 32.3374C34.0412 39.3763 30.5894 40.584 28.0931 39.0467V39.0454Z" fill="white"/>
<path d="M38.0652 29.4265C38.8542 28.2228 40.4684 25.8352 39.8709 24.5379C39.6021 23.9512 38.8476 23.5676 38.133 23.793C38.0918 22.617 36.5455 21.7706 35.167 23.2393C34.9181 22.53 34.2608 22.1688 33.6087 22.3441C32.8157 22.5683 32.3033 23.1879 31.8549 23.8761C31.5143 23.4516 30.8875 23.3276 30.3925 23.4911C29.1723 23.8946 28.4484 25.6717 27.9108 26.9137C26.6334 30.0449 24.0904 34.0752 25.6646 37.122C26.3938 38.5788 28.3725 40.1108 30.2594 39.9921C32.0758 39.9077 33.7152 38.7001 34.998 37.4239C36.5189 35.9038 38.7678 32.7897 39.1071 32.1938C39.9214 30.7067 39.1723 29.47 38.0652 29.4265ZM37.6766 32.886C36.4803 34.9044 34.5029 37.3408 32.5309 38.5182C30.9647 39.4569 29.4517 39.5742 28.0133 38.5261C24.4817 36.0528 26.4657 32.5366 28.294 28.4971C28.7478 27.4964 30.0332 24.029 31.0246 24.4259C31.127 24.4667 31.1018 24.4522 31.1417 24.5419C31.3014 25.1378 30.4005 27.1826 29.6739 29.2169C29.5342 29.6111 30.1117 29.8445 30.29 29.4674C30.9394 28.0963 32.0638 25.8339 32.1064 24.8122C32.4577 24.3151 33.1989 23.3237 33.8043 23.2274C34.0785 23.1879 34.2395 23.3817 34.286 23.648C34.4763 24.3006 31.8456 29.3817 31.5302 30.0224C31.3479 30.3903 31.8749 30.6922 32.1051 30.3547C33.1164 28.8741 34.6866 26.1279 35.1363 24.4773C35.6141 23.8774 36.4018 23.0152 37.0046 23.4911C37.1363 23.5913 37.2308 23.6836 37.1536 24.0501C36.8862 25.2538 35.0046 27.9895 33.4943 30.7265C33.296 31.0864 33.811 31.4107 34.0558 31.0798C35.0432 29.7416 37.3053 26.4892 37.9095 24.8807C38.1397 24.7568 38.4284 24.6091 38.6866 24.7238C38.9394 24.8253 39.0938 24.9651 39.0206 25.4305C38.7252 27.064 36.463 30.1675 34.5695 33.3211C34.3513 33.6863 34.8849 34.0238 35.1284 33.6797C35.8203 32.6961 36.5163 31.7166 37.1989 30.7212C37.2122 30.712 37.2268 30.708 37.2388 30.6975L37.2548 30.683C37.8004 30.1793 38.3406 30.3244 38.4644 30.828C38.6134 31.4608 38.0093 32.3178 37.6779 32.8847L37.6766 32.886Z" fill="#9BAFBA"/>
<path d="M11.9068 39.0454C15.992 36.5299 14.2648 32.7198 12.2914 28.6051C11.6287 27.2313 10.5096 23.7574 9.0898 23.9142C8.48567 23.9762 8.29672 24.3309 8.39253 24.9782C6.62806 21.8668 5.3719 22.6644 5.23085 23.6202C5.20025 23.8417 5.27609 24.2056 5.43045 24.646L5.11641 24.1964C4.65201 23.5451 3.75913 22.5695 2.89419 23.0111C2.29273 23.3196 2.17962 23.8061 2.59346 24.8134C1.96538 24.17 1.44376 24.0619 0.928789 24.3678C-0.260832 25.0639 1.04855 27.2933 3.15633 30.4891L3.03258 30.5102C2.17563 29.1575 0.123732 30.1726 1.49299 32.3374C5.95873 39.3763 9.41049 40.584 11.9068 39.0467V39.0454Z" fill="white"/>
<path d="M0.894193 32.1938C1.23351 32.7897 3.48235 35.9051 5.00331 37.4239C6.28475 38.7001 7.92546 39.9091 9.74183 39.9921C11.6274 40.1108 13.6074 38.5788 14.3366 37.122C15.9122 34.0739 13.3692 30.0449 12.0905 26.9137C11.5529 25.6731 10.829 23.8946 9.60876 23.4911C9.11375 23.3276 8.48701 23.4516 8.14636 23.8761C7.69925 23.1866 7.18561 22.5683 6.39253 22.3441C5.7405 22.1688 5.08315 22.53 4.83431 23.2393C3.45574 21.7706 1.90817 22.6157 1.86825 23.793C1.15367 23.5676 0.399183 23.9512 0.130388 24.5379C-0.468415 25.8352 1.14702 28.2242 1.93611 29.4265C0.828991 29.47 0.0798222 30.7067 0.894193 32.1938ZM1.53957 30.8293C1.66332 30.3257 2.20491 30.1806 2.74915 30.6843L2.76512 30.6988C2.77709 30.7093 2.79173 30.7146 2.80504 30.7225C3.48767 31.7179 4.18361 32.6975 4.87556 33.681C5.11775 34.0251 5.65268 33.6876 5.43445 33.3224C3.5409 30.1688 1.27876 27.064 0.983348 25.4318C0.910161 24.9664 1.06452 24.8267 1.31735 24.7251C1.57683 24.6104 1.86558 24.7581 2.09446 24.882C2.69725 26.4905 4.96073 29.7429 5.94809 31.0811C6.19293 31.412 6.70923 31.0877 6.50963 30.7278C4.99932 27.9895 3.11642 25.2538 2.85028 24.0514C2.77177 23.6849 2.86758 23.5926 2.99932 23.4924C3.60211 23.0165 4.38987 23.8787 4.86758 24.4786C5.31735 26.1279 6.88754 28.8741 7.89885 30.356C8.13039 30.6948 8.656 30.3929 8.4737 30.0238C8.157 29.383 5.52759 24.3019 5.71788 23.6493C5.76312 23.383 5.92546 23.1892 6.19958 23.2288C6.80504 23.325 7.54622 24.3164 7.89752 24.8135C7.9401 25.8352 9.06452 28.0976 9.71389 29.4687C9.8922 29.8445 10.4684 29.6124 10.33 29.2182C9.60344 27.1839 8.70258 25.1391 8.86226 24.5432C8.90085 24.4536 8.87689 24.4681 8.97936 24.4272C9.97071 24.029 11.2561 27.4964 11.7099 28.4984C13.5382 32.5366 15.5223 36.0541 11.9907 38.5274C10.5522 39.5755 9.03924 39.4582 7.47304 38.5195C5.50098 37.3422 3.5236 34.9071 2.32733 32.8873C1.99732 32.3204 1.39186 31.4621 1.5409 30.8306L1.53957 30.8293Z" fill="#9BAFBA"/>
<path d="M20.008 21.3816C17.2202 21.3816 15.1005 23.8602 15.5595 26.5826L16.1344 29.9946C16.8596 34.3045 23.1577 34.3097 23.8842 29.9946L24.4591 26.5826C24.9168 23.8602 22.7971 21.3816 20.0106 21.3816H20.008Z" fill="#802D21"/>
<path d="M22.6707 30.2637C22.6707 31.3553 21.662 31.9117 20.008 31.9117C18.354 31.9117 17.3453 31.3553 17.3453 30.2637C17.3453 29.1721 19.2429 28.5181 20.008 29.2749C20.8024 28.4878 22.6707 29.1721 22.6707 30.2637Z" fill="#F55151"/>
</svg>
