<svg width="40" height="40" viewBox="0 0 40 40" fill="none" xmlns="http://www.w3.org/2000/svg">
<g clip-path="url(#clip0_1795_26608)">
<path d="M40 21.356C40 33.2907 31.9347 40 20 40C8.06533 40 0 33.2907 0 21.356C0 9.42133 7.62133 0 20 0C32.3787 0 40 8.96933 40 21.356Z" fill="#FED132"/>
<path d="M29.0707 15.6694C28.5373 18.3081 24.708 18.3081 24.1747 15.6694C23.8293 13.9587 23.892 12.1641 24.3707 10.4694C25.0133 8.19607 28.232 8.19607 28.8747 10.4694C29.352 12.1614 29.4173 13.9561 29.0707 15.6694Z" fill="#802D21"/>
<path d="M14.8747 15.6694C14.3414 18.3081 10.5121 18.3081 9.97875 15.6694C9.63341 13.9587 9.69608 12.1641 10.1747 10.4694C10.8174 8.19607 14.0361 8.19607 14.6787 10.4694C15.1561 12.1614 15.2214 13.9561 14.8747 15.6694Z" fill="#802D21"/>
<path d="M8.62936 21.7013C14.9427 19.3586 25.3414 19.4853 31.368 21.7013C32.1174 21.976 32.5027 22.8053 32.232 23.5546L31.9627 24.3013C30.088 29.488 25.32 32.884 19.9987 32.904C16.4 32.9173 12.88 31.3613 10.3867 28.3973C8.46803 26.116 7.74269 23.4853 7.76669 23.552C7.49869 22.8026 7.88403 21.9773 8.62936 21.7013Z" fill="#802D21"/>
<path d="M30.152 22.7027C27.404 21.828 23.7507 21.3267 19.9547 21.3267C16.1587 21.3267 12.512 21.8253 9.76001 22.7267C9.91734 23.8493 11.188 24.66 19.9547 24.66C28.7213 24.66 30.0107 23.8387 30.152 22.7027Z" fill="white"/>
<path d="M26.6934 32.412C27.1547 33.1267 27.4547 33.912 27.6747 34.724C28.2307 36.7827 30.3507 38.0013 32.4094 37.4453C34.468 36.8893 35.6867 34.7693 35.1307 32.7107C34.8147 31.5413 33.9947 30.644 32.9694 30.188C30.3374 29.0187 27.4547 28.1427 24.712 29.268C24.1414 29.5027 24.1134 30.2973 24.6574 30.576C25.476 30.9947 26.148 31.5667 26.6947 32.4133L26.6934 32.412Z" fill="#28BEEF"/>
</g>
<defs>
<clipPath id="clip0_1795_26608">
<rect width="40" height="40" fill="white"/>
</clipPath>
</defs>
</svg>
