<svg width="40" height="40" viewBox="0 0 40 40" fill="none" xmlns="http://www.w3.org/2000/svg">
<path d="M40 21.356C40 33.2907 31.9347 40 20 40C8.06533 40 0 33.2907 0 21.356C0 9.42133 7.62133 0 20 0C32.3787 0 40 8.96933 40 21.356Z" fill="#FED132"/>
<path d="M31.368 21.7014C27.9053 20.4294 23.64 20.0054 19.9987 19.9987C16.3333 19.9881 12.0467 20.4334 8.62932 21.7014C7.17065 22.2427 7.79599 23.6347 8.03465 24.3014C9.82532 29.3041 14.4093 32.9107 19.9987 32.9041C25.2187 32.8721 29.96 29.8467 32.232 23.5547C32.5027 22.8054 32.1173 21.9761 31.368 21.7014Z" fill="#802D21"/>
<path d="M30.152 22.7027C27.404 21.828 23.7507 21.3267 19.9547 21.3267C16.1587 21.3267 12.512 21.8253 9.76001 22.7267C9.91734 23.8493 11.188 24.66 19.9547 24.66C28.7213 24.66 30.0107 23.8387 30.152 22.7027Z" fill="white"/>
<path d="M25.2227 30.2574C24.452 28.7507 21.3133 27.8187 19.9733 29.3254C18.632 27.8187 15.4947 28.7507 14.724 30.2574C17.956 32.004 21.9787 32.012 25.224 30.2574H25.2227Z" fill="#F55151"/>
<path d="M17.2693 14.7067C15.5426 12.0374 13.0506 10.1934 10.968 9.50673C10.2906 9.28539 9.7533 10.1281 10.288 10.6534C10.9546 11.3081 11.9213 12.1947 13.0266 13.4881C10.7613 13.4681 8.58264 14.2521 6.84397 15.6001C6.25464 16.0587 6.73597 17.0107 7.47464 16.7747C10.1573 15.9161 12.7853 15.5041 15.6626 16.6641C16.8666 17.1401 17.9773 15.8014 17.2693 14.7054V14.7067Z" fill="#802D21"/>
<path d="M22.644 14.7067C24.3707 12.0374 26.8626 10.1934 28.9453 9.50673C29.6226 9.28539 30.16 10.1281 29.6253 10.6534C28.9586 11.3081 27.992 12.1947 26.8866 13.4881C29.152 13.4681 31.3307 14.2521 33.0693 15.6001C33.6587 16.0587 33.1773 17.0107 32.4386 16.7747C29.756 15.9161 27.128 15.5041 24.2507 16.6641C23.0467 17.1401 21.936 15.8014 22.644 14.7054V14.7067Z" fill="#802D21"/>
</svg>
