<svg width="40" height="40" viewBox="0 0 40 40" fill="none" xmlns="http://www.w3.org/2000/svg">
<path d="M40 21.356C40 33.2907 31.9347 40 20 40C8.06533 40 0 33.2907 0 21.356C0 9.42133 7.62133 0 20 0C32.3787 0 40 8.96933 40 21.356Z" fill="#FED132"/>
<path d="M31.368 21.7014C27.9053 20.4294 23.64 20.0054 19.9987 19.9987C16.3333 19.9881 12.0467 20.4334 8.62932 21.7014C7.17065 22.2427 7.79599 23.6347 8.03465 24.3014C9.82532 29.3041 14.4093 32.9107 19.9987 32.9041C25.22 32.8721 29.96 29.8467 32.232 23.5547C32.5027 22.8054 32.1173 21.9761 31.368 21.7014Z" fill="#802D21"/>
<path d="M30.1534 22.7027C27.4054 21.828 23.752 21.3267 19.956 21.3267C16.16 21.3267 12.5134 21.8253 9.76135 22.7267C9.91869 23.8493 11.1894 24.66 19.956 24.66C28.7227 24.66 30.012 23.8387 30.1534 22.7027Z" fill="white"/>
<path d="M25.224 30.2574C24.4533 28.7507 21.3147 27.8187 19.9747 29.3254C18.6333 27.8187 15.496 28.7507 14.7253 30.2574C17.9573 32.004 21.98 32.012 25.2253 30.2574H25.224Z" fill="#F55151"/>
<path d="M10.6227 12.14C10.6227 12.8907 10.6973 13.6254 10.8413 14.3347C11.3747 16.9734 15.204 16.9734 15.7373 14.3347C15.8813 13.624 15.956 12.8907 15.956 12.14C15.956 11.1 15.812 10.092 15.5413 9.13469C14.8987 6.86135 11.68 6.86135 11.0373 9.13469C10.7667 10.092 10.6227 11.1 10.6227 12.14Z" fill="#802D21"/>
<path d="M29.2894 12.14C29.2894 12.8907 29.2147 13.6254 29.0707 14.3347C28.5374 16.9734 24.7081 16.9734 24.1747 14.3347C24.0307 13.624 23.9561 12.8907 23.9561 12.14C23.9561 11.1 24.1001 10.092 24.3707 9.13469C25.0134 6.86135 28.2321 6.86135 28.8747 9.13469C29.1454 10.092 29.2894 11.1 29.2894 12.14Z" fill="#802D21"/>
</svg>
