<svg width="40" height="40" viewBox="0 0 40 40" fill="none" xmlns="http://www.w3.org/2000/svg">
<path d="M40 21.356C40 33.2907 31.9347 40 20 40C8.06533 40 0 33.2907 0 21.356C0 9.42133 7.62133 0 20 0C32.3787 0 40 8.96933 40 21.356Z" fill="#FED132"/>
<path d="M31.4118 21.4348C27.9491 20.1628 23.6838 19.7388 20.0425 19.7321C16.3771 19.7215 12.0905 20.1668 8.67314 21.4348C7.21448 21.9761 7.83981 23.3681 8.07848 24.0348C9.86914 29.0375 14.4531 32.6441 20.0425 32.6375C25.2638 32.6055 30.0038 29.5801 32.2758 23.2881C32.5465 22.5388 32.1611 21.7095 31.4118 21.4348Z" fill="#802D21"/>
<path d="M30.1957 22.4361C27.4477 21.5614 23.7944 21.0601 19.9984 21.0601C16.2024 21.0601 12.5557 21.5587 9.80371 22.4601C9.96104 23.5827 11.2317 24.3934 19.9984 24.3934C28.765 24.3934 30.0544 23.5721 30.1957 22.4361Z" fill="white"/>
<path d="M25.2665 29.9908C24.4958 28.4841 21.3572 27.5521 20.0172 29.0588C18.6758 27.5521 15.5385 28.4841 14.7678 29.9908C17.9998 31.7374 22.0225 31.7454 25.2678 29.9908H25.2665Z" fill="#F55151"/>
<path d="M30.5531 2.03592C30.8545 1.59459 31.3905 1.37592 31.9145 1.47992C32.4385 1.58392 32.8491 1.99059 32.9598 2.51459L33.9585 7.27592L38.6278 8.64525C39.1398 8.79592 39.5145 9.23726 39.5771 9.76792C39.6398 10.2986 39.3798 10.8159 38.9171 11.0813L34.6971 13.5026L34.8371 18.3666C34.8531 18.9013 34.5478 19.3919 34.0625 19.6159C33.5771 19.8399 33.0051 19.7519 32.6091 19.3933L29.0025 16.1279L24.4211 17.7639C23.9185 17.9439 23.3558 17.8053 22.9931 17.4133C22.6305 17.0213 22.5371 16.4506 22.7558 15.9626L24.7465 11.5226L21.7745 7.67059C21.4478 7.24792 21.4051 6.67059 21.6665 6.20392C21.9278 5.73725 22.4411 5.47192 22.9731 5.52925L27.8105 6.05059L30.5558 2.03325L30.5531 2.03592Z" fill="#FFFF86"/>
<path d="M6.04124 7.27737L1.3719 8.6467C0.858571 8.79737 0.485238 9.2387 0.422571 9.76937C0.359904 10.3 0.619905 10.8174 1.08257 11.0827L5.30257 13.504L5.16257 18.368C5.14657 18.9027 5.4519 19.3934 5.93724 19.6174C6.42257 19.8414 6.99457 19.7534 7.39057 19.3947L10.9972 16.1294L15.5786 17.7654C16.0812 17.9454 16.6439 17.8067 17.0066 17.4147C17.3692 17.0227 17.4626 16.452 17.2439 15.964L15.2532 11.524L18.2252 7.67203C18.5519 7.24937 18.5946 6.67203 18.3332 6.20537C18.0719 5.7387 17.5586 5.47337 17.0266 5.5307L12.1892 6.05203L9.4439 2.0347C9.14257 1.59337 8.60657 1.3747 8.08257 1.4787C7.55857 1.5827 7.1479 1.98937 7.03724 2.51337L6.03857 7.2747L6.04124 7.27737Z" fill="#FFFF86"/>
</svg>
