<svg width="40" height="40" viewBox="0 0 40 40" fill="none" xmlns="http://www.w3.org/2000/svg">
<path d="M40 20.9784C40 32.702 31.9347 39.2927 20 39.2927C8.06533 39.2927 0 32.702 0 20.9784C0 9.25475 7.62133 0 20 0C32.3787 0 40 8.81074 40 20.9784Z" fill="#FED132"/>
<path d="M13.384 23.8324C15.5933 23.8848 17.796 23.873 20 23.873C22.204 23.873 24.4066 23.8861 26.616 23.8324C27.3533 23.814 27.9373 23.2142 27.9186 22.4886C27.9026 21.8193 27.3773 21.2797 26.716 21.2142C24.4826 20.9954 22.24 20.926 19.9986 20.926C17.7573 20.926 15.5146 20.9954 13.2813 21.2142C12.5466 21.2862 12.0106 21.928 12.084 22.6497C12.152 23.3163 12.7173 23.8153 13.3813 23.8311L13.384 23.8324Z" fill="#802D21"/>
<path d="M10.852 16.6705C10.724 16.512 10.6106 16.3339 10.5253 16.1296C10.2933 15.5795 10.1666 14.9783 10.1666 14.3483C10.1666 14.1925 10.1746 14.0379 10.1893 13.886C10.4733 11.053 14.8586 11.053 15.1426 13.886C15.1573 14.0379 15.1653 14.1925 15.1653 14.3483C15.1653 14.8067 15.096 15.2494 14.9693 15.6699C13.7266 14.5107 11.3853 15.0281 10.8506 16.6705H10.852ZM29.8093 13.886C29.5253 11.053 25.14 11.053 24.856 13.886C24.8413 14.0379 24.8333 14.1925 24.8333 14.3483C24.8333 14.8067 24.9026 15.2494 25.0293 15.6699C26.272 14.5107 28.6133 15.0281 29.148 16.6705C29.276 16.512 29.3893 16.3339 29.4746 16.1296C29.7066 15.5795 29.8333 14.9783 29.8333 14.3483C29.8333 14.1925 29.8253 14.0379 29.8106 13.886H29.8093Z" fill="#802D21"/>
<path d="M15.5733 29.7734C16.0719 26.2292 18.5359 15.497 21.7439 17.1394C23.1706 17.8598 21.6346 22.5985 20.7533 27.0622C23.2106 26.1453 24.1599 25.8284 25.1253 28.2475C26.5519 28.0956 27.4159 28.0471 28.0373 30.2121C28.6986 30.3104 29.8013 30.4859 30.2146 31.273C30.6973 32.313 30.2226 34.1873 28.5146 34.7583C28.1213 41.0281 13.7493 43.0242 15.5719 29.7734H15.5733Z" fill="white"/>
<path d="M20.6813 26.8813C20.9293 24.8197 21.2879 22.7647 21.5799 20.732C21.6533 20.2251 21.7199 19.7195 21.7506 19.2245C21.7813 18.7372 21.7786 18.2303 21.6506 17.8741C21.5866 17.6947 21.4986 17.6004 21.3786 17.5244C21.2626 17.451 21.0479 17.4091 20.8586 17.3973C20.6653 17.3685 20.2599 17.6829 19.9773 18.043C19.3866 18.7935 18.9279 19.7182 18.5199 20.6442C18.1093 21.5755 17.7573 22.5394 17.4426 23.5165C16.8146 25.4707 16.3359 27.4772 16.0133 29.5034C15.8519 30.5198 15.7133 31.5283 15.7359 32.5316C15.7586 33.5336 15.9213 34.5303 16.2853 35.4445C16.6479 36.3561 17.2306 37.1668 17.9893 37.7693C18.7479 38.3718 19.6746 38.7529 20.6426 38.9219C22.5773 39.2585 24.6933 38.825 26.2919 37.7169C27.0879 37.1655 27.7453 36.4216 28.0706 35.544C28.3946 34.6691 28.3746 33.6789 28.0453 32.7542C27.9853 32.5853 28.0759 32.4006 28.2479 32.3417C28.4119 32.2854 28.5919 32.3666 28.6599 32.5211C29.0973 33.5178 29.2453 34.715 28.8853 35.8138C28.5266 36.9075 27.7666 37.8283 26.8559 38.4792C25.0239 39.7876 22.6693 40.2788 20.4626 39.8518C19.3599 39.6396 18.2946 39.159 17.4293 38.432C16.5639 37.7051 15.9306 36.7438 15.5466 35.7222C14.7706 33.6554 14.9279 31.4366 15.2279 29.3895C15.5306 27.3174 15.9919 25.2729 16.5973 23.2637C16.8999 22.2592 17.2346 21.2611 17.6466 20.2854C18.0599 19.3083 18.5106 18.3377 19.2199 17.451C19.3986 17.2271 19.5999 17.011 19.8559 16.8158C20.1053 16.6272 20.4479 16.4229 20.8906 16.4386C21.2226 16.4517 21.5439 16.5106 21.8826 16.7084C22.2159 16.9036 22.4586 17.248 22.5586 17.5598C22.7626 18.1963 22.7266 18.749 22.6906 19.2886C22.6546 19.8269 22.5759 20.3495 22.4919 20.8656C22.1546 22.9298 21.7106 24.9442 21.3319 26.9808C21.2986 27.1563 21.1279 27.2729 20.9493 27.2402C20.7773 27.2087 20.6613 27.0503 20.6813 26.8826V26.8813Z" fill="#9BAFBA"/>
<path d="M26.0692 30.5539C26.6279 29.8911 27.6039 29.6449 28.4359 29.7628C28.8572 29.8217 29.2599 29.9488 29.6279 30.1308C29.8092 30.2199 29.9892 30.3116 30.1959 30.4805C30.3892 30.639 30.5479 30.8381 30.6559 31.0529C31.0906 31.9265 30.9079 32.8158 30.5839 33.548C30.4199 33.92 30.2039 34.2723 29.9079 34.5722C29.6159 34.8682 29.2479 35.142 28.7826 35.231C28.5999 35.2664 28.4226 35.1485 28.3866 34.9691C28.3546 34.808 28.4479 34.6508 28.5999 34.5958L28.6172 34.5892C29.1372 34.3993 29.5426 33.8112 29.7599 33.2232C29.9786 32.6311 30.0346 31.9357 29.7892 31.4943C29.6612 31.2651 29.5172 31.1695 29.1866 31.0097C28.8946 30.8695 28.5906 30.7647 28.2826 30.7032C27.6652 30.5788 27.0492 30.6678 26.5359 31.0319C26.3839 31.1393 26.1652 31.1105 26.0559 30.9612C25.9639 30.8355 25.9732 30.6678 26.0692 30.5539Z" fill="#9BAFBA"/>
<path d="M22.7226 28.9285C23.1706 28.5735 23.6653 28.2906 24.1973 28.0745C24.7279 27.8584 25.2973 27.7052 25.9119 27.6764C26.1946 27.6633 26.5986 27.6986 26.9173 27.8388C27.2399 27.9815 27.5039 28.1859 27.7159 28.4124C28.1426 28.8682 28.3906 29.4052 28.5333 29.954C28.5813 30.1387 28.4693 30.326 28.2813 30.3731C28.1319 30.4111 27.9799 30.3483 27.8999 30.2278L27.8933 30.2173C27.6146 29.7955 27.3253 29.3948 27.0053 29.0843C26.8466 28.9311 26.6786 28.8041 26.5093 28.7268C26.3346 28.6469 26.1906 28.6246 25.9373 28.6299C25.0039 28.6495 23.9959 29.0058 23.1173 29.4878L23.1106 29.4917C22.9426 29.5834 22.7306 29.5244 22.6373 29.3607C22.5533 29.2127 22.5933 29.0306 22.7226 28.9285Z" fill="#9BAFBA"/>
<path d="M19.884 27.1996C20.3093 26.8316 20.7973 26.55 21.3146 26.3247C21.832 26.0981 22.3946 25.9409 22.996 25.9069C23.1506 25.8977 23.2906 25.8938 23.464 25.9121C23.6413 25.9304 23.8186 25.9737 23.98 26.0378C24.3053 26.1675 24.576 26.3653 24.7866 26.5879C25.2133 27.0346 25.4693 27.5519 25.6266 28.0863C25.6773 28.2553 25.5773 28.4334 25.4053 28.4819C25.2653 28.5211 25.12 28.4648 25.044 28.3522L25.0386 28.343C24.76 27.9318 24.468 27.5362 24.1333 27.252C23.9666 27.1105 23.792 27.0097 23.624 26.9455C23.5386 26.9128 23.4546 26.897 23.3693 26.8905C23.28 26.8826 23.1533 26.8787 23.044 26.8839C22.1213 26.9298 21.1426 27.2756 20.2546 27.7209L20.2466 27.7248C20.0866 27.8047 19.892 27.7432 19.8106 27.586C19.7413 27.4537 19.776 27.2965 19.8853 27.2022L19.884 27.1996Z" fill="#9BAFBA"/>
</svg>
