<svg width="40" height="40" viewBox="0 0 40 40" fill="none" xmlns="http://www.w3.org/2000/svg">
<path d="M40 21.356C40 33.2907 31.9347 40 20 40C8.06533 40 0 33.2907 0 21.356C0 9.42133 7.62133 0 20 0C32.3787 0 40 8.96933 40 21.356Z" fill="#FED132"/>
<path d="M13.3839 24.6174C15.5932 24.564 17.7959 24.576 19.9999 24.576C22.2039 24.576 24.4065 24.5627 26.6159 24.6174C27.3532 24.636 27.9372 25.248 27.9185 25.9854C27.9025 26.6667 27.3772 27.216 26.7159 27.2827C24.4825 27.5054 22.2399 27.576 19.9985 27.576C17.7572 27.576 15.5145 27.5054 13.2812 27.2827C12.5465 27.2094 12.0105 26.5547 12.0839 25.8214C12.1519 25.1427 12.7172 24.6347 13.3812 24.6187L13.3839 24.6174Z" fill="#802D21"/>
<path d="M7.56661 14.7467C9.59194 14.3614 12.3333 14.3454 14.4346 14.7467C15.1626 14.8854 15.6399 15.5894 15.5013 16.3174C15.3826 16.94 14.8506 17.3787 14.2453 17.4067C12.9159 17.4667 9.09594 17.4654 7.76928 17.4067C7.00128 17.372 6.44661 16.7334 6.47861 16.0067C6.50661 15.3734 6.97061 14.8614 7.56794 14.748L7.56661 14.7467Z" fill="#802D21"/>
<path d="M25.5666 14.7467C27.5919 14.3614 30.3332 14.3454 32.4346 14.7467C33.1626 14.8854 33.6399 15.5894 33.5012 16.3174C33.3826 16.94 32.8506 17.3787 32.2452 17.4067C30.2759 17.4947 26.4266 17.436 25.7599 17.4067C25.0199 17.3734 24.4466 16.7467 24.4786 16.0067C24.5066 15.3734 24.9706 14.8614 25.5679 14.748L25.5666 14.7467Z" fill="#802D21"/>
</svg>
