<svg width="40" height="40" viewBox="0 0 40 40" fill="none" xmlns="http://www.w3.org/2000/svg">
<path d="M40 21.356C40 33.2907 32.2049 40 20.6701 40C9.13531 40 1.34021 33.2907 1.34021 21.356C1.34021 9.42133 8.70619 0 20.6701 0C32.634 0 40 8.96933 40 21.356Z" fill="#FED132"/>
<path d="M7.33244 21.6492C8.53605 20.1639 10.335 19.2546 12.2177 19.3159C14.0206 19.3746 15.7989 20.5866 16.634 22.6772C16.7641 23.0039 16.6147 23.3799 16.2976 23.5146C16.1185 23.5906 15.9252 23.5746 15.768 23.4866C14.1907 22.6119 13.518 22.0546 12.1172 21.9772C10.6456 21.8959 9.56182 22.3292 8.19197 22.6399L7.94197 22.6972C7.60434 22.7732 7.27187 22.5532 7.19842 22.2039C7.15589 22.0012 7.2113 21.7959 7.33115 21.6492H7.33244Z" fill="#802D21"/>
<path d="M34.0051 21.6492C32.8015 20.1639 31.0025 19.2546 29.1198 19.3159C27.317 19.3746 25.5386 20.5866 24.7036 22.6772C24.5734 23.0039 24.7229 23.3799 25.0399 23.5146C25.219 23.5906 25.4123 23.5746 25.5696 23.4866C27.1469 22.6119 27.8196 22.0546 29.2203 21.9772C30.692 21.8959 31.7757 22.3292 33.1456 22.6399L33.3956 22.6972C33.7332 22.7732 34.0657 22.5532 34.1391 22.2039C34.1817 22.0012 34.1263 21.7959 34.0064 21.6492H34.0051Z" fill="#802D21"/>
<path d="M10.0838 4.27065C9.13145 6.86265 8.8982 9.51599 8.82217 12.184C8.75 14.704 6.71779 16.6867 4.28093 16.612C0.347943 16.492 -1.44974 11.504 1.37758 8.73465C3.61469 6.54265 6.1147 4.39732 8.9433 3.09465C9.61985 2.78399 10.3866 3.44665 10.0838 4.27065Z" fill="#28BEEF"/>
<path d="M13.7255 30.9414C14.683 28.5961 17.5219 27.0454 20.6752 27.0347C23.4368 27.0241 26.6623 28.2907 27.6134 30.9414C27.8324 31.5507 27.1984 32.1134 26.6495 31.8027C24.8544 30.7841 22.6778 30.3921 20.6611 30.3574C18.0219 30.3121 16.2861 30.8854 14.7255 31.7814C14.0451 32.1721 13.4935 31.5081 13.7255 30.9401V30.9414Z" fill="#802D21"/>
</svg>
