<svg width="40" height="40" viewBox="0 0 40 40" fill="none" xmlns="http://www.w3.org/2000/svg">
<path d="M40 21.356C40 33.2907 31.9347 40 20 40C8.06533 40 0 33.2907 0 21.356C0 9.42133 7.62133 0 20 0C32.3787 0 40 8.96933 40 21.356Z" fill="#FED132"/>
<path d="M9.36264 16.6987C6.54264 16.6987 4.20264 17.7827 4.20264 20.2307C4.20264 22.6787 6.40264 24.0321 8.86664 24.0321C11.3306 24.0321 13.536 22.7374 13.536 19.9321C13.536 18.1454 11.7 16.6987 9.36264 16.6987Z" fill="#FD9E21"/>
<path d="M30.6372 16.6987C33.4572 16.6987 35.7972 17.7827 35.7972 20.2307C35.7972 22.6787 33.5972 24.0321 31.1332 24.0321C28.6692 24.0321 26.4639 22.7374 26.4639 19.9321C26.4639 18.1454 28.2999 16.6987 30.6372 16.6987Z" fill="#FD9E21"/>
<path d="M6.20271 14.1827C7.44804 12.6974 9.30937 11.788 11.2574 11.8494C13.1227 11.908 14.9627 13.12 15.8267 15.2107C15.9614 15.5374 15.8067 15.9134 15.4787 16.048C15.2934 16.124 15.0934 16.108 14.9307 16.02C13.2987 15.1454 12.604 14.588 11.1547 14.5107C9.63204 14.4294 8.51071 14.8627 7.09471 15.1734L6.83604 15.2307C6.48671 15.3067 6.14271 15.0867 6.06671 14.7374C6.02271 14.5347 6.08004 14.3294 6.20404 14.1827H6.20271Z" fill="#802D21"/>
<path d="M33.7973 14.1827C32.552 12.6974 30.6907 11.788 28.7427 11.8494C26.8773 11.908 25.0373 13.12 24.1733 15.2107C24.0387 15.5374 24.1933 15.9134 24.5213 16.048C24.7067 16.124 24.9067 16.108 25.0693 16.02C26.7013 15.1454 27.396 14.588 28.8453 14.5107C30.368 14.4294 31.4893 14.8627 32.9053 15.1734L33.164 15.2307C33.5133 15.3067 33.8573 15.0867 33.9333 14.7374C33.9773 14.5347 33.92 14.3294 33.796 14.1827H33.7973Z" fill="#802D21"/>
<path d="M13.8719 8.43877C12.5773 8.74543 11.1239 9.07743 10.2186 9.43743C9.03993 9.90677 7.91727 10.5534 6.82393 11.3494C6.57193 11.5334 6.26127 11.4614 6.10393 11.2454C5.97993 11.0748 5.97727 10.8521 6.08127 10.6814C6.86393 9.39743 8.0546 8.35877 9.43327 7.68143C10.8506 6.98543 12.4666 6.60943 13.9546 7.1081C14.3159 7.22943 14.5106 7.6201 14.3893 7.98143C14.3159 8.2001 14.1426 8.37477 13.8719 8.43877Z" fill="#D97818"/>
<path d="M26.1279 8.43877C27.4225 8.74543 28.8759 9.07743 29.7812 9.43743C30.9599 9.90677 32.0825 10.5534 33.1759 11.3494C33.4279 11.5334 33.7385 11.4614 33.8959 11.2454C34.0199 11.0748 34.0225 10.8521 33.9185 10.6814C33.1359 9.39743 31.9452 8.35877 30.5665 7.68143C29.1492 6.98543 27.5332 6.60943 26.0452 7.1081C25.6839 7.22943 25.4892 7.6201 25.6105 7.98143C25.6839 8.2001 25.8572 8.37477 26.1279 8.43877Z" fill="#D97818"/>
<path d="M12.816 25.1975C13.8067 27.5428 16.744 29.0935 20.0067 29.1041C22.8627 29.1148 26.2013 27.8481 27.1853 25.1975C27.412 24.5881 26.756 24.0255 26.188 24.3361C24.3307 25.3548 22.0787 25.7468 19.9933 25.7815C17.264 25.8268 15.4667 25.2535 13.8533 24.3575C13.1493 23.9668 12.5787 24.6308 12.8187 25.1988L12.816 25.1975Z" fill="#802D21"/>
</svg>
