<svg width="40" height="41" viewBox="0 0 40 41" fill="none" xmlns="http://www.w3.org/2000/svg">
<path d="M40 21.356C40 33.2907 31.9347 40 20 40C8.06533 40 0 33.2907 0 21.356C0 9.42133 7.62133 0 20 0C32.3787 0 40 8.96933 40 21.356Z" fill="#FED132"/>
<path d="M14.8081 15.1535C14.0308 17.0335 11.3028 17.0335 10.5254 15.1535C10.2268 14.4295 10.1134 13.6469 10.1894 12.8695C10.4734 9.98554 14.8588 9.98554 15.1428 12.8695C15.2188 13.6455 15.1068 14.4282 14.8068 15.1535H14.8081Z" fill="#802D21"/>
<path d="M25.1921 15.1535C25.9694 17.0335 28.6974 17.0335 29.4747 15.1535C29.7734 14.4295 29.8867 13.6469 29.8107 12.8695C29.5267 9.98554 25.1414 9.98554 24.8574 12.8695C24.7814 13.6455 24.8934 14.4282 25.1934 15.1535H25.1921Z" fill="#802D21"/>
<path d="M14.4001 21.3493C15.2561 21.3093 16.0641 21.1787 16.8774 20.916C17.6934 20.652 18.5147 20.2573 19.5174 19.8453C20.0147 19.6413 20.5881 19.4453 21.2134 19.3333C21.8481 19.22 22.5467 19.1893 23.2094 19.3227C24.5454 19.5933 25.5974 20.244 26.4641 20.9453C27.0361 21.4093 27.1241 22.248 26.6601 22.82C26.2361 23.344 25.4961 23.4613 24.9361 23.1227L24.8694 23.0827C24.1227 22.632 23.3934 22.2933 22.7561 22.2093C22.4334 22.1667 22.1227 22.192 21.7801 22.248C21.6014 22.2933 21.4227 22.34 21.2321 22.4C21.0294 22.48 20.8481 22.532 20.6281 22.6307C19.7801 22.956 18.7961 23.4267 17.6961 23.72C16.5947 24.0133 15.4041 24.1267 14.2667 24.0107C13.5334 23.936 13.0001 23.2813 13.0747 22.548C13.1427 21.8813 13.6894 21.38 14.3387 21.3507L14.4001 21.348V21.3493Z" fill="#802D21"/>
<path d="M15.2547 5.29744C14.0454 5.85077 12.684 6.45877 11.8667 6.98944C10.8027 7.68011 9.82802 8.53211 8.90935 9.52544C8.69735 9.75478 8.37868 9.74544 8.18268 9.56278C8.02668 9.41878 7.98135 9.20144 8.04935 9.01477C8.56668 7.60277 9.53068 6.35344 10.752 5.42011C12.0053 4.46144 13.5187 3.77744 15.0747 3.97611C15.4533 4.02411 15.72 4.36944 15.672 4.74811C15.6427 4.97744 15.5067 5.18144 15.2547 5.29744Z" fill="#D97818"/>
<path d="M23.2907 8.14547C24.62 8.19347 26.1107 8.2348 27.068 8.41214C28.3147 8.6428 29.5427 9.05747 30.7707 9.62414C31.0547 9.7548 31.344 9.62414 31.4574 9.38147C31.5467 9.18947 31.504 8.9708 31.3707 8.82414C30.3534 7.71747 28.9827 6.93214 27.4987 6.53747C25.9734 6.13214 24.3147 6.07747 22.952 6.85747C22.6214 7.0468 22.5067 7.46814 22.696 7.7988C22.8107 7.9988 23.0147 8.13614 23.292 8.1468L23.2907 8.14547Z" fill="#D97818"/>
<path d="M20.6454 26.5709C13.4494 29.6469 12.5721 29.8163 11.4401 29.6776C8.99742 29.3736 9.88809 26.6109 9.85876 25.0643C9.82276 22.9789 8.00942 22.7523 7.14809 23.6949C6.28809 24.6389 5.25476 32.0723 5.21476 33.3416C5.05209 38.5456 9.63876 41.4056 17.4161 39.3323C19.6734 38.7283 19.6108 36.3603 18.7054 36.2296C19.9254 35.1949 19.5188 33.6523 18.4694 33.5363C19.7708 32.6416 19.6601 31.2389 18.7548 30.7443C21.1388 29.5843 22.4441 28.8843 22.8748 28.2816C23.5161 27.3736 22.8108 25.6496 20.6468 26.5709H20.6454Z" fill="white"/>
<path d="M22.8974 26.1562C21.4027 25.0948 19.948 26.5908 13.8814 28.8682C12.1854 29.4708 10.4614 29.8228 10.1974 28.0255C10.0267 26.8042 10.5467 25.4482 10.236 24.2375C9.7667 22.3655 7.4987 22.1228 6.48404 23.7482C5.91737 24.7802 5.3907 28.6695 4.9907 31.2602C4.69737 33.0668 4.6827 34.7202 5.4027 36.3948C6.55204 38.9695 9.0107 40.1228 11.78 40.3188C13.592 40.4442 15.6867 40.1282 17.4787 39.7642C19.5147 39.3015 20.2027 37.4495 19.5414 36.3788C19.3694 36.0868 19.3507 36.3775 19.6427 35.8948C20.1347 35.0588 20.0067 34.1442 19.432 33.5535C19.268 33.4108 19.2747 33.5175 19.436 33.3268C20.068 32.5548 20.068 31.5268 19.4867 30.8695C20.5614 30.3722 21.84 29.7708 22.6734 29.1522C23.14 28.7842 23.5 28.4268 23.588 27.7722C23.6667 27.1802 23.424 26.5188 22.8987 26.1562H22.8974ZM16.4067 31.5028C16.0334 31.7082 16.308 32.2708 16.696 32.1042C17.3907 31.8055 18.0827 31.5068 18.772 31.1975C19.0867 31.6842 18.9974 32.2722 18.648 32.7095C18.176 33.3162 17.46 33.6228 16.836 33.9655C16.5494 34.1215 16.692 34.5055 16.9734 34.4815C17.6734 34.4215 18.2467 34.2215 18.6694 33.9722C18.968 34.2295 19.1107 34.8082 18.7747 35.3948C18.4214 36.0522 17.6427 36.4175 17.0307 36.7575C16.7347 36.9215 16.8867 37.3042 17.168 37.2735C17.7747 37.2068 18.2467 37.0762 18.7654 36.7615C18.8907 37.1682 18.7467 37.7135 18.508 38.0695C18.2294 38.4922 17.7334 38.7655 17.252 38.9215C15.5 39.4415 13.924 39.7975 11.8267 39.6375C7.80403 39.3188 5.72404 36.9988 5.6387 33.7962C5.59204 32.5708 5.80537 31.6695 6.28804 28.9455C6.5387 27.5722 6.97737 24.8415 7.32404 24.2575C7.64404 23.7135 8.34404 23.5162 8.80537 23.7935C10.1987 24.6388 8.36804 28.0068 10.0427 29.4828C10.6667 30.0455 11.988 30.1468 12.8214 29.9748C14.756 29.6068 18.664 27.9228 20.8987 27.0002C22.1054 26.5175 22.6587 27.0255 22.5987 27.6535C22.5987 28.4908 20.0094 29.5415 16.4054 31.5042L16.4067 31.5028Z" fill="#9BAFBA"/>
</svg>
