<svg width="30" height="30" viewBox="0 0 30 30" fill="none" xmlns="http://www.w3.org/2000/svg">
<circle cx="15" cy="15" r="15" fill="white"/>
<path d="M15 18C16.6569 18 18 16.6569 18 15C18 13.3431 16.6569 12 15 12C13.3431 12 12 13.3431 12 15C12 16.6569 13.3431 18 15 18Z" stroke="black" stroke-width="1.5" stroke-linecap="round" stroke-linejoin="round"/>
<path d="M18.3001 8.09961H11.7001C9.71187 8.09961 8.1001 9.71138 8.1001 11.6996V18.2996C8.1001 20.2878 9.71187 21.8996 11.7001 21.8996H18.3001C20.2883 21.8996 21.9001 20.2878 21.9001 18.2996V11.6996C21.9001 9.71138 20.2883 8.09961 18.3001 8.09961Z" stroke="black" stroke-width="1.5" stroke-linecap="round" stroke-linejoin="round"/>
<path d="M18.8999 11.8496C19.3141 11.8496 19.6499 11.5138 19.6499 11.0996C19.6499 10.6854 19.3141 10.3496 18.8999 10.3496C18.4857 10.3496 18.1499 10.6854 18.1499 11.0996C18.1499 11.5138 18.4857 11.8496 18.8999 11.8496Z" fill="#2C405B"/>
</svg>
