<svg width="136" height="32" viewBox="0 0 136 32" fill="none" xmlns="http://www.w3.org/2000/svg">
<path d="M31.5634 0C31.5634 0.1351 31.5574 0.27095 31.5574 0.406051C31.5574 10.8078 31.5574 21.21 31.5574 31.6127V32H30.0292C30.0168 31.9435 30.0075 31.8864 30.0014 31.8289C29.9961 31.7388 30.0014 31.6487 30.0014 31.5587V0.37903C30.0014 0.252937 29.9969 0.126094 29.9946 0H31.5634Z" fill="white"/>
<path d="M135.497 10.8332C135.454 10.9172 135.404 10.9991 135.368 11.0869C133.819 14.7521 132.271 18.4173 130.723 22.0825C130.692 22.1576 130.654 22.2266 130.618 22.3032H127.169C125.559 18.4723 123.947 14.6358 122.333 10.7934C122.548 10.7289 125.206 10.7063 125.754 10.7611L128.942 18.5819L129.004 18.5879C129.569 17.2842 130.109 15.97 130.663 14.6625C131.217 13.3551 131.762 12.0536 132.314 10.7401H132.628C133.486 10.7401 134.343 10.7401 135.202 10.7401C135.301 10.7401 135.399 10.7304 135.498 10.7251L135.497 10.8332Z" fill="white"/>
<path d="M93.043 22.315V7.27236C93.1571 7.26336 93.2682 7.24609 93.3815 7.24609C95.2145 7.24609 97.0475 7.24609 98.8806 7.24609C99.3857 7.24609 99.8916 7.24609 100.397 7.26185C101.832 7.31289 103.206 7.61762 104.472 8.31789C106.488 9.43322 107.71 11.1182 108.075 13.4014C108.281 14.6774 108.225 15.9398 107.845 17.1775C107.357 18.7664 106.402 20.0093 105.015 20.9212C103.938 21.626 102.71 22.0667 101.43 22.2077C100.92 22.2701 100.407 22.3044 99.8924 22.3105C97.6983 22.3218 95.5043 22.315 93.3102 22.3158L93.043 22.315ZM96.5349 19.4584C96.6009 19.4637 96.6722 19.4734 96.7428 19.4734C97.7436 19.4734 98.746 19.4734 99.7498 19.4734C100.404 19.4734 101.048 19.4051 101.668 19.189C103.104 18.6883 104.084 17.7419 104.502 16.2618C104.71 15.4918 104.752 14.6863 104.624 13.899C104.386 12.2951 103.513 11.1693 102.037 10.5118C101.281 10.1748 100.474 10.0824 99.6567 10.0749C98.6997 10.0667 97.7426 10.0749 96.7856 10.0749C96.6985 10.0749 96.6114 10.0862 96.5334 10.0922C96.4696 10.3699 96.4741 19.2287 96.5349 19.4584Z" fill="white"/>
<path d="M74.7107 10.7632V11.0874C74.7107 14.1582 74.7107 17.2282 74.7107 20.2975C74.7107 21.1681 74.6439 22.0298 74.397 22.8689C73.8505 24.7295 72.6015 25.8711 70.7542 26.3763C69.8242 26.6315 68.8777 26.699 67.9116 26.6765C66.8639 26.6552 65.8233 26.4993 64.8153 26.2126C64.118 26.0204 63.4551 25.72 62.8509 25.3225C62.7541 25.2579 62.6625 25.1859 62.5402 25.0973C62.9755 24.3107 63.4056 23.5324 63.8447 22.7376C63.8964 22.7614 63.9465 22.7885 63.9949 22.8186C64.9016 23.4776 65.9352 23.8026 67.0296 23.9572C67.799 24.077 68.5846 24.0431 69.3408 23.8574C70.4442 23.5752 71.0995 22.8667 71.2924 21.7521C71.36 21.3633 71.3607 20.9625 71.387 20.5669C71.3836 20.4988 71.3733 20.4311 71.3562 20.3651C71.3039 20.3981 71.2538 20.4344 71.2061 20.4739C70.4802 21.1997 69.5862 21.5757 68.5842 21.7078C67.4447 21.8579 66.3263 21.7521 65.2672 21.2897C63.3831 20.4686 62.2459 19.0508 61.9644 16.9973C61.797 15.7701 61.9464 14.5798 62.5477 13.4779C63.2713 12.151 64.3814 11.2923 65.8166 10.851C66.91 10.5133 68.0746 10.4786 69.1862 10.7504C70.0118 10.9371 70.7591 11.3756 71.3247 12.0053C71.3717 12.0733 71.4286 12.1337 71.4936 12.1847C71.5949 11.7044 71.5206 11.239 71.5769 10.7662L74.7107 10.7632ZM68.3672 13.3151C68.2681 13.3151 68.1691 13.3113 68.067 13.3151C66.866 13.3616 65.343 14.1872 65.2829 16.0418C65.2484 17.0829 65.6207 17.9332 66.5079 18.5187C67.3156 19.0478 68.2088 19.1379 69.1351 18.9585C70.3984 18.7123 71.658 17.6758 71.387 15.6613C71.2804 14.8777 70.8773 14.263 70.216 13.8232C69.6701 13.462 69.0233 13.2843 68.3695 13.3158L68.3672 13.3151Z" fill="white"/>
<path d="M49.425 22.2977V16.1431H42.5485C42.541 16.2677 42.5268 16.39 42.5268 16.5124C42.5268 18.3182 42.5268 20.1241 42.5268 21.9299V22.2977H39.1129C39.1069 22.293 39.1013 22.2878 39.0964 22.2819C39.0898 22.2756 39.0847 22.2679 39.0814 22.2594C39.0735 22.2338 39.0685 22.2073 39.0664 22.1806C39.0664 17.277 39.0664 12.3733 39.0664 7.46967C39.0671 7.42469 39.0709 7.3798 39.0777 7.33532C39.0877 7.30675 39.1008 7.27933 39.1167 7.25351C40.2239 7.2355 41.3475 7.24826 42.502 7.24526C42.5118 7.39537 42.5275 7.51396 42.5275 7.63555C42.5275 9.36033 42.5275 11.0851 42.5275 12.8099V13.1469C42.7625 13.2219 49.1157 13.2287 49.4265 13.1581C49.4347 12.5209 49.4265 11.8732 49.4265 11.227C49.4265 10.567 49.4265 9.90773 49.4265 9.24924V7.31131C49.6359 7.23625 52.4778 7.21073 52.8441 7.27453C52.9026 7.47418 52.9109 22.0275 52.8501 22.3007L49.425 22.2977Z" fill="white"/>
<path d="M86.3831 22.3047V21.9294C86.3831 20.1145 86.3831 18.2997 86.3831 16.4849C86.3831 16.0255 86.3719 15.5669 86.2608 15.1136C86.0536 14.2715 85.4636 13.5532 84.3302 13.4676C83.9163 13.4257 83.4981 13.4605 83.0969 13.5704C82.0783 13.8767 81.5056 14.5934 81.3097 15.6135C81.2411 15.9954 81.2077 16.3828 81.2098 16.7708C81.1993 18.4971 81.2053 20.2196 81.2053 21.9444V22.3047H77.9341C77.8726 22.102 77.8531 6.73512 77.9116 6.38836C78.1135 6.33282 80.8878 6.32381 81.2061 6.38836V11.9342C81.2729 11.8939 81.3376 11.8501 81.3997 11.8029C82.308 11.0073 83.3859 10.6493 84.5734 10.587C85.3735 10.5449 86.1624 10.623 86.9138 10.9217C88.328 11.4846 89.207 12.5174 89.5305 14.0028C89.6327 14.4512 89.6885 14.9089 89.6971 15.3688C89.7151 17.6077 89.7084 19.8473 89.7084 22.0863C89.7084 22.1561 89.6971 22.2259 89.6889 22.3114L86.3831 22.3047Z" fill="white"/>
<path d="M121.878 17.4631H113.124C113.152 17.59 113.167 17.6838 113.195 17.7731C113.46 18.5987 114.004 19.1902 114.796 19.5061C116.13 20.0383 117.446 19.9512 118.7 19.2367C118.932 19.1046 119.135 18.92 119.382 18.7368L121.137 20.6342C120.981 20.7888 120.842 20.9405 120.686 21.0771C119.931 21.7488 119.041 22.1474 118.055 22.3312C116.622 22.5984 115.196 22.5692 113.803 22.1061C112.196 21.5694 110.969 20.5794 110.263 19.0108C109.796 17.9728 109.679 16.8792 109.807 15.7534C109.927 14.6233 110.384 13.5555 111.119 12.6888C112.001 11.6381 113.132 11.0031 114.466 10.7299C115.823 10.4507 117.161 10.522 118.453 11.0519C120.323 11.8197 121.412 13.2322 121.831 15.1889C121.971 15.8479 121.974 16.5152 121.925 17.1839C121.92 17.262 121.899 17.3408 121.878 17.4631ZM113.087 15.5027C113.429 15.5635 118.588 15.55 118.792 15.4929C118.799 15.4685 118.802 15.4432 118.802 15.4179C118.632 14.5119 118.159 13.8229 117.332 13.3951C116.731 13.0836 116.087 13.0363 115.434 13.1211C114.831 13.1965 114.272 13.4724 113.845 13.9044C113.419 14.3365 113.151 14.8995 113.083 15.5027H113.087Z" fill="white"/>
<path d="M59.5692 22.2993H56.292V10.7407H59.5534C59.6217 10.9659 59.6323 22.0208 59.5692 22.2993Z" fill="white"/>
<path d="M57.952 5.35498C58.2874 5.36266 58.6184 5.43318 58.9278 5.56289C60.3697 6.1911 60.2631 7.97217 59.2626 8.68971C58.5119 9.22786 57.2959 9.23311 56.5693 8.66269C55.9546 8.17933 55.7346 7.5331 55.9193 6.78254C56.0987 6.04774 56.6159 5.62218 57.335 5.43979C57.5387 5.39922 57.7448 5.37089 57.952 5.35498Z" fill="white"/>
<path d="M0.613258 26.8329C0.951952 26.8329 1.22652 26.5583 1.22652 26.2196C1.22652 25.881 0.951952 25.6064 0.613258 25.6064C0.274565 25.6064 0 25.881 0 26.2196C0 26.5583 0.274565 26.8329 0.613258 26.8329Z" fill="white"/>
<path d="M0.610745 24.7023C0.920005 24.7023 1.17071 24.4517 1.17071 24.1424C1.17071 23.8332 0.920005 23.5825 0.610745 23.5825C0.301486 23.5825 0.0507812 23.8332 0.0507812 24.1424C0.0507812 24.4517 0.301486 24.7023 0.610745 24.7023Z" fill="white"/>
<path d="M0.61165 22.5723C0.891477 22.5723 1.11832 22.3455 1.11832 22.0657C1.11832 21.7859 0.891477 21.5591 0.61165 21.5591C0.331824 21.5591 0.10498 21.7859 0.10498 22.0657C0.10498 22.3455 0.331824 22.5723 0.61165 22.5723Z" fill="white"/>
<path d="M0.613044 20.4345C0.863436 20.4345 1.06642 20.2315 1.06642 19.9812C1.06642 19.7308 0.863436 19.5278 0.613044 19.5278C0.362651 19.5278 0.159668 19.7308 0.159668 19.9812C0.159668 20.2315 0.362651 20.4345 0.613044 20.4345Z" fill="white"/>
<path d="M0.610793 18.3055C0.832167 18.3055 1.01163 18.1261 1.01163 17.9047C1.01163 17.6834 0.832167 17.5039 0.610793 17.5039C0.38942 17.5039 0.209961 17.6834 0.209961 17.9047C0.209961 18.1261 0.38942 18.3055 0.610793 18.3055Z" fill="white"/>
<path d="M0.60828 16.1755C0.80022 16.1755 0.955818 16.0199 0.955818 15.828C0.955818 15.6361 0.80022 15.4805 0.60828 15.4805C0.41634 15.4805 0.260742 15.6361 0.260742 15.828C0.260742 16.0199 0.41634 16.1755 0.60828 16.1755Z" fill="white"/>
<path d="M0.609674 14.0455C0.77218 14.0455 0.903917 13.9137 0.903917 13.7512C0.903917 13.5888 0.77218 13.457 0.609674 13.457C0.447167 13.457 0.31543 13.5888 0.31543 13.7512C0.31543 13.9137 0.447167 14.0455 0.609674 14.0455Z" fill="white"/>
<path d="M0.610579 11.9072C0.743652 11.9072 0.851528 11.7993 0.851528 11.6662C0.851528 11.5332 0.743652 11.4253 0.610579 11.4253C0.477506 11.4253 0.369629 11.5332 0.369629 11.6662C0.369629 11.7993 0.477506 11.9072 0.610579 11.9072Z" fill="white"/>
<path d="M0.608066 9.77713C0.711705 9.77713 0.795721 9.69313 0.795721 9.58949C0.795721 9.48586 0.711705 9.40186 0.608066 9.40186C0.504426 9.40186 0.42041 9.48586 0.42041 9.58949C0.42041 9.69313 0.504426 9.77713 0.608066 9.77713Z" fill="white"/>
<path d="M0.605815 7.64862C0.680435 7.64862 0.740927 7.58813 0.740927 7.51352C0.740927 7.4389 0.680435 7.37842 0.605815 7.37842C0.531195 7.37842 0.470703 7.4389 0.470703 7.51352C0.470703 7.58813 0.531195 7.64862 0.605815 7.64862Z" fill="white"/>
<path d="M0.607511 5.51922C0.652865 5.51922 0.689631 5.48245 0.689631 5.4371C0.689631 5.39175 0.652865 5.35498 0.607511 5.35498C0.562157 5.35498 0.525391 5.39175 0.525391 5.4371C0.525391 5.48245 0.562157 5.51922 0.607511 5.51922Z" fill="white"/>
<path d="M1.65159 25.7728C1.97909 25.7728 2.24458 25.5073 2.24458 25.1799C2.24458 24.8524 1.97909 24.5869 1.65159 24.5869C1.32409 24.5869 1.05859 24.8524 1.05859 25.1799C1.05859 25.5073 1.32409 25.7728 1.65159 25.7728Z" fill="white"/>
<path d="M1.65073 23.6378C1.94755 23.6378 2.18817 23.3972 2.18817 23.1004C2.18817 22.8036 1.94755 22.563 1.65073 22.563C1.3539 22.563 1.11328 22.8036 1.11328 23.1004C1.11328 23.3972 1.3539 23.6378 1.65073 23.6378Z" fill="white"/>
<path d="M1.65013 21.5048C1.91669 21.5048 2.13278 21.2887 2.13278 21.0222C2.13278 20.7556 1.91669 20.5396 1.65013 20.5396C1.38357 20.5396 1.16748 20.7556 1.16748 21.0222C1.16748 21.2887 1.38357 21.5048 1.65013 21.5048Z" fill="white"/>
<path d="M1.65318 19.3702C1.88906 19.3702 2.08028 19.179 2.08028 18.9432C2.08028 18.7073 1.88906 18.5161 1.65318 18.5161C1.4173 18.5161 1.22607 18.7073 1.22607 18.9432C1.22607 19.179 1.4173 19.3702 1.65318 19.3702Z" fill="white"/>
<path d="M1.65258 17.2367C1.8582 17.2367 2.02489 17.0701 2.02489 16.8645C2.02489 16.6589 1.8582 16.4922 1.65258 16.4922C1.44696 16.4922 1.28027 16.6589 1.28027 16.8645C1.28027 17.0701 1.44696 17.2367 1.65258 17.2367Z" fill="white"/>
<path d="M1.65247 15.1037C1.82783 15.1037 1.96999 14.9616 1.96999 14.7862C1.96999 14.6109 1.82783 14.4688 1.65247 14.4688C1.47712 14.4688 1.33496 14.6109 1.33496 14.7862C1.33496 14.9616 1.47712 15.1037 1.65247 15.1037Z" fill="white"/>
<path d="M1.65113 12.9692C1.79581 12.9692 1.91309 12.8519 1.91309 12.7073C1.91309 12.5626 1.79581 12.4453 1.65113 12.4453C1.50645 12.4453 1.38916 12.5626 1.38916 12.7073C1.38916 12.8519 1.50645 12.9692 1.65113 12.9692Z" fill="white"/>
<path d="M1.65102 10.8357C1.76544 10.8357 1.85819 10.7429 1.85819 10.6285C1.85819 10.5141 1.76544 10.4214 1.65102 10.4214C1.5366 10.4214 1.44385 10.5141 1.44385 10.6285C1.44385 10.7429 1.5366 10.8357 1.65102 10.8357Z" fill="white"/>
<path d="M1.65016 8.70117C1.7339 8.70117 1.80179 8.6333 1.80179 8.54956C1.80179 8.46583 1.7339 8.39795 1.65016 8.39795C1.56642 8.39795 1.49854 8.46583 1.49854 8.54956C1.49854 8.6333 1.56642 8.70117 1.65016 8.70117Z" fill="white"/>
<path d="M1.64992 6.56889C1.7036 6.56889 1.74711 6.52538 1.74711 6.4717C1.74711 6.41802 1.7036 6.37451 1.64992 6.37451C1.59625 6.37451 1.55273 6.41802 1.55273 6.4717C1.55273 6.52538 1.59625 6.56889 1.64992 6.56889Z" fill="white"/>
<path d="M2.68357 26.8329C3.02226 26.8329 3.29683 26.5583 3.29683 26.2196C3.29683 25.881 3.02226 25.6064 2.68357 25.6064C2.34488 25.6064 2.07031 25.881 2.07031 26.2196C2.07031 26.5583 2.34488 26.8329 2.68357 26.8329Z" fill="white"/>
<path d="M2.68106 24.7023C2.99032 24.7023 3.24102 24.4517 3.24102 24.1424C3.24102 23.8332 2.99032 23.5825 2.68106 23.5825C2.3718 23.5825 2.12109 23.8332 2.12109 24.1424C2.12109 24.4517 2.3718 24.7023 2.68106 24.7023Z" fill="white"/>
<path d="M2.68636 22.5723C2.96618 22.5723 3.19303 22.3455 3.19303 22.0657C3.19303 21.7859 2.96618 21.5591 2.68636 21.5591C2.40653 21.5591 2.17969 21.7859 2.17969 22.0657C2.17969 22.3455 2.40653 22.5723 2.68636 22.5723Z" fill="white"/>
<path d="M2.68336 20.4345C2.93375 20.4345 3.13673 20.2315 3.13673 19.9812C3.13673 19.7308 2.93375 19.5278 2.68336 19.5278C2.43296 19.5278 2.22998 19.7308 2.22998 19.9812C2.22998 20.2315 2.43296 20.4345 2.68336 20.4345Z" fill="white"/>
<path d="M2.68159 18.3055C2.90297 18.3055 3.08243 18.1261 3.08243 17.9047C3.08243 17.6834 2.90297 17.5039 2.68159 17.5039C2.46022 17.5039 2.28076 17.6834 2.28076 17.9047C2.28076 18.1261 2.46022 18.3055 2.68159 18.3055Z" fill="white"/>
<path d="M2.67859 16.1755C2.87053 16.1755 3.02613 16.0199 3.02613 15.828C3.02613 15.6361 2.87053 15.4805 2.67859 15.4805C2.48665 15.4805 2.33105 15.6361 2.33105 15.828C2.33105 16.0199 2.48665 16.1755 2.67859 16.1755Z" fill="white"/>
<path d="M2.67999 14.0455C2.84249 14.0455 2.97423 13.9137 2.97423 13.7512C2.97423 13.5888 2.84249 13.457 2.67999 13.457C2.51748 13.457 2.38574 13.5888 2.38574 13.7512C2.38574 13.9137 2.51748 14.0455 2.67999 14.0455Z" fill="white"/>
<path d="M2.68138 11.9072C2.81445 11.9072 2.92233 11.7993 2.92233 11.6662C2.92233 11.5332 2.81445 11.4253 2.68138 11.4253C2.54831 11.4253 2.44043 11.5332 2.44043 11.6662C2.44043 11.7993 2.54831 11.9072 2.68138 11.9072Z" fill="white"/>
<path d="M2.67838 9.77713C2.78202 9.77713 2.86603 9.69313 2.86603 9.58949C2.86603 9.48586 2.78202 9.40186 2.67838 9.40186C2.57474 9.40186 2.49072 9.48586 2.49072 9.58949C2.49072 9.69313 2.57474 9.77713 2.67838 9.77713Z" fill="white"/>
<path d="M2.67662 7.64862C2.75124 7.64862 2.81173 7.58813 2.81173 7.51352C2.81173 7.4389 2.75124 7.37842 2.67662 7.37842C2.602 7.37842 2.5415 7.4389 2.5415 7.51352C2.5415 7.58813 2.602 7.64862 2.67662 7.64862Z" fill="white"/>
<path d="M2.67782 5.51922C2.72318 5.51922 2.75994 5.48245 2.75994 5.4371C2.75994 5.39175 2.72318 5.35498 2.67782 5.35498C2.63247 5.35498 2.5957 5.39175 2.5957 5.4371C2.5957 5.48245 2.63247 5.51922 2.67782 5.51922Z" fill="white"/>
<path d="M3.7219 25.7728C4.0494 25.7728 4.31489 25.5073 4.31489 25.1799C4.31489 24.8524 4.0494 24.5869 3.7219 24.5869C3.3944 24.5869 3.12891 24.8524 3.12891 25.1799C3.12891 25.5073 3.3944 25.7728 3.7219 25.7728Z" fill="white"/>
<path d="M3.72104 23.6378C4.01786 23.6378 4.25848 23.3972 4.25848 23.1004C4.25848 22.8036 4.01786 22.563 3.72104 22.563C3.42422 22.563 3.18359 22.8036 3.18359 23.1004C3.18359 23.3972 3.42422 23.6378 3.72104 23.6378Z" fill="white"/>
<path d="M3.72044 21.5048C3.987 21.5048 4.20309 21.2887 4.20309 21.0222C4.20309 20.7556 3.987 20.5396 3.72044 20.5396C3.45388 20.5396 3.23779 20.7556 3.23779 21.0222C3.23779 21.2887 3.45388 21.5048 3.72044 21.5048Z" fill="white"/>
<path d="M3.72349 19.3702C3.95937 19.3702 4.15059 19.179 4.15059 18.9432C4.15059 18.7073 3.95937 18.5161 3.72349 18.5161C3.48761 18.5161 3.29639 18.7073 3.29639 18.9432C3.29639 19.179 3.48761 19.3702 3.72349 19.3702Z" fill="white"/>
<path d="M3.72338 17.2367C3.929 17.2367 4.09569 17.0701 4.09569 16.8645C4.09569 16.6589 3.929 16.4922 3.72338 16.4922C3.51776 16.4922 3.35107 16.6589 3.35107 16.8645C3.35107 17.0701 3.51776 17.2367 3.72338 17.2367Z" fill="white"/>
<path d="M3.72279 15.1037C3.89814 15.1037 4.0403 14.9616 4.0403 14.7862C4.0403 14.6109 3.89814 14.4688 3.72279 14.4688C3.54743 14.4688 3.40527 14.6109 3.40527 14.7862C3.40527 14.9616 3.54743 15.1037 3.72279 15.1037Z" fill="white"/>
<path d="M3.72193 12.9692C3.86661 12.9692 3.9839 12.8519 3.9839 12.7073C3.9839 12.5626 3.86661 12.4453 3.72193 12.4453C3.57725 12.4453 3.45996 12.5626 3.45996 12.7073C3.45996 12.8519 3.57725 12.9692 3.72193 12.9692Z" fill="white"/>
<path d="M3.72133 10.8357C3.83575 10.8357 3.9285 10.7429 3.9285 10.6285C3.9285 10.5141 3.83575 10.4214 3.72133 10.4214C3.60691 10.4214 3.51416 10.5141 3.51416 10.6285C3.51416 10.7429 3.60691 10.8357 3.72133 10.8357Z" fill="white"/>
<path d="M3.72047 8.70117C3.80421 8.70117 3.8721 8.6333 3.8721 8.54956C3.8721 8.46583 3.80421 8.39795 3.72047 8.39795C3.63673 8.39795 3.56885 8.46583 3.56885 8.54956C3.56885 8.6333 3.63673 8.70117 3.72047 8.70117Z" fill="white"/>
<path d="M3.72072 6.56889C3.7744 6.56889 3.81791 6.52538 3.81791 6.4717C3.81791 6.41802 3.7744 6.37451 3.72072 6.37451C3.66705 6.37451 3.62354 6.41802 3.62354 6.4717C3.62354 6.52538 3.66705 6.56889 3.72072 6.56889Z" fill="white"/>
<path d="M4.75437 26.8329C5.09307 26.8329 5.36763 26.5583 5.36763 26.2196C5.36763 25.881 5.09307 25.6064 4.75437 25.6064C4.41568 25.6064 4.14111 25.881 4.14111 26.2196C4.14111 26.5583 4.41568 26.8329 4.75437 26.8329Z" fill="white"/>
<path d="M4.75528 24.7023C5.06454 24.7023 5.31524 24.4517 5.31524 24.1424C5.31524 23.8332 5.06454 23.5825 4.75528 23.5825C4.44602 23.5825 4.19531 23.8332 4.19531 24.1424C4.19531 24.4517 4.44602 24.7023 4.75528 24.7023Z" fill="white"/>
<path d="M4.75276 22.5723C5.03259 22.5723 5.25943 22.3455 5.25943 22.0657C5.25943 21.7859 5.03259 21.5591 4.75276 21.5591C4.47294 21.5591 4.24609 21.7859 4.24609 22.0657C4.24609 22.3455 4.47294 22.5723 4.75276 22.5723Z" fill="white"/>
<path d="M4.75367 20.4345C5.00406 20.4345 5.20704 20.2315 5.20704 19.9812C5.20704 19.7308 5.00406 19.5278 4.75367 19.5278C4.50328 19.5278 4.30029 19.7308 4.30029 19.9812C4.30029 20.2315 4.50328 20.4345 4.75367 20.4345Z" fill="white"/>
<path d="M4.75191 18.3055C4.97328 18.3055 5.15274 18.1261 5.15274 17.9047C5.15274 17.6834 4.97328 17.5039 4.75191 17.5039C4.53053 17.5039 4.35107 17.6834 4.35107 17.9047C4.35107 18.1261 4.53053 18.3055 4.75191 18.3055Z" fill="white"/>
<path d="M4.7533 16.1755C4.94524 16.1755 5.10084 16.0199 5.10084 15.828C5.10084 15.6361 4.94524 15.4805 4.7533 15.4805C4.56136 15.4805 4.40576 15.6361 4.40576 15.828C4.40576 16.0199 4.56136 16.1755 4.7533 16.1755Z" fill="white"/>
<path d="M4.7503 14.0455C4.9128 14.0455 5.04454 13.9137 5.04454 13.7512C5.04454 13.5888 4.9128 13.457 4.7503 13.457C4.58779 13.457 4.45605 13.5888 4.45605 13.7512C4.45605 13.9137 4.58779 14.0455 4.7503 14.0455Z" fill="white"/>
<path d="M4.74779 11.9072C4.88086 11.9072 4.98874 11.7993 4.98874 11.6662C4.98874 11.5332 4.88086 11.4253 4.74779 11.4253C4.61471 11.4253 4.50684 11.5332 4.50684 11.6662C4.50684 11.7993 4.61471 11.9072 4.74779 11.9072Z" fill="white"/>
<path d="M4.74869 9.77713C4.85233 9.77713 4.93635 9.69313 4.93635 9.58949C4.93635 9.48586 4.85233 9.40186 4.74869 9.40186C4.64505 9.40186 4.56104 9.48586 4.56104 9.58949C4.56104 9.69313 4.64505 9.77713 4.74869 9.77713Z" fill="white"/>
<path d="M4.74693 7.64862C4.82155 7.64862 4.88204 7.58813 4.88204 7.51352C4.88204 7.4389 4.82155 7.37842 4.74693 7.37842C4.67231 7.37842 4.61182 7.4389 4.61182 7.51352C4.61182 7.58813 4.67231 7.64862 4.74693 7.64862Z" fill="white"/>
<path d="M4.74862 5.51922C4.79398 5.51922 4.83074 5.48245 4.83074 5.4371C4.83074 5.39175 4.79398 5.35498 4.74862 5.35498C4.70327 5.35498 4.6665 5.39175 4.6665 5.4371C4.6665 5.48245 4.70327 5.51922 4.74862 5.51922Z" fill="white"/>
<path d="M5.7927 25.7728C6.1202 25.7728 6.38569 25.5073 6.38569 25.1799C6.38569 24.8524 6.1202 24.5869 5.7927 24.5869C5.4652 24.5869 5.19971 24.8524 5.19971 25.1799C5.19971 25.5073 5.4652 25.7728 5.7927 25.7728Z" fill="white"/>
<path d="M5.79135 23.6378C6.08817 23.6378 6.3288 23.3972 6.3288 23.1004C6.3288 22.8036 6.08817 22.563 5.79135 22.563C5.49453 22.563 5.25391 22.8036 5.25391 23.1004C5.25391 23.3972 5.49453 23.6378 5.79135 23.6378Z" fill="white"/>
<path d="M5.79124 21.5048C6.0578 21.5048 6.27389 21.2887 6.27389 21.0222C6.27389 20.7556 6.0578 20.5396 5.79124 20.5396C5.52468 20.5396 5.30859 20.7556 5.30859 21.0222C5.30859 21.2887 5.52468 21.5048 5.79124 21.5048Z" fill="white"/>
<path d="M5.7899 19.3702C6.02578 19.3702 6.217 19.179 6.217 18.9432C6.217 18.7073 6.02578 18.5161 5.7899 18.5161C5.55401 18.5161 5.36279 18.7073 5.36279 18.9432C5.36279 19.179 5.55401 19.3702 5.7899 19.3702Z" fill="white"/>
<path d="M5.7937 17.2367C5.99932 17.2367 6.166 17.0701 6.166 16.8645C6.166 16.6589 5.99932 16.4922 5.7937 16.4922C5.58807 16.4922 5.42139 16.6589 5.42139 16.8645C5.42139 17.0701 5.58807 17.2367 5.7937 17.2367Z" fill="white"/>
<path d="M5.79359 15.1037C5.96894 15.1037 6.1111 14.9616 6.1111 14.7862C6.1111 14.6109 5.96894 14.4688 5.79359 14.4688C5.61823 14.4688 5.47607 14.6109 5.47607 14.7862C5.47607 14.9616 5.61823 15.1037 5.79359 15.1037Z" fill="white"/>
<path d="M5.79224 12.9692C5.93692 12.9692 6.05421 12.8519 6.05421 12.7073C6.05421 12.5626 5.93692 12.4453 5.79224 12.4453C5.64756 12.4453 5.53027 12.5626 5.53027 12.7073C5.53027 12.8519 5.64756 12.9692 5.79224 12.9692Z" fill="white"/>
<path d="M5.79213 10.8357C5.90655 10.8357 5.9993 10.7429 5.9993 10.6285C5.9993 10.5141 5.90655 10.4214 5.79213 10.4214C5.67771 10.4214 5.58496 10.5141 5.58496 10.6285C5.58496 10.7429 5.67771 10.8357 5.79213 10.8357Z" fill="white"/>
<path d="M5.79079 8.70117C5.87453 8.70117 5.94241 8.6333 5.94241 8.54956C5.94241 8.46583 5.87453 8.39795 5.79079 8.39795C5.70705 8.39795 5.63916 8.46583 5.63916 8.54956C5.63916 8.6333 5.70705 8.70117 5.79079 8.70117Z" fill="white"/>
<path d="M5.79104 6.56889C5.84471 6.56889 5.88822 6.52538 5.88822 6.4717C5.88822 6.41802 5.84471 6.37451 5.79104 6.37451C5.73736 6.37451 5.69385 6.41802 5.69385 6.4717C5.69385 6.52538 5.73736 6.56889 5.79104 6.56889Z" fill="white"/>
<path d="M6.82859 26.8329C7.16728 26.8329 7.44185 26.5583 7.44185 26.2196C7.44185 25.881 7.16728 25.6064 6.82859 25.6064C6.4899 25.6064 6.21533 25.881 6.21533 26.2196C6.21533 26.5583 6.4899 26.8329 6.82859 26.8329Z" fill="white"/>
<path d="M6.82608 24.7023C7.13534 24.7023 7.38604 24.4517 7.38604 24.1424C7.38604 23.8332 7.13534 23.5825 6.82608 23.5825C6.51682 23.5825 6.26611 23.8332 6.26611 24.1424C6.26611 24.4517 6.51682 24.7023 6.82608 24.7023Z" fill="white"/>
<path d="M6.82308 22.5723C7.1029 22.5723 7.32975 22.3455 7.32975 22.0657C7.32975 21.7859 7.1029 21.5591 6.82308 21.5591C6.54325 21.5591 6.31641 21.7859 6.31641 22.0657C6.31641 22.3455 6.54325 22.5723 6.82308 22.5723Z" fill="white"/>
<path d="M6.82447 20.4345C7.07486 20.4345 7.27785 20.2315 7.27785 19.9812C7.27785 19.7308 7.07486 19.5278 6.82447 19.5278C6.57408 19.5278 6.37109 19.7308 6.37109 19.9812C6.37109 20.2315 6.57408 20.4345 6.82447 20.4345Z" fill="white"/>
<path d="M6.82222 18.3055C7.04359 18.3055 7.22305 18.1261 7.22305 17.9047C7.22305 17.6834 7.04359 17.5039 6.82222 17.5039C6.60085 17.5039 6.42139 17.6834 6.42139 17.9047C6.42139 18.1261 6.60085 18.3055 6.82222 18.3055Z" fill="white"/>
<path d="M6.82361 16.1755C7.01555 16.1755 7.17115 16.0199 7.17115 15.828C7.17115 15.6361 7.01555 15.4805 6.82361 15.4805C6.63167 15.4805 6.47607 15.6361 6.47607 15.828C6.47607 16.0199 6.63167 16.1755 6.82361 16.1755Z" fill="white"/>
<path d="M6.8211 14.0455C6.98361 14.0455 7.11534 13.9137 7.11534 13.7512C7.11534 13.5888 6.98361 13.457 6.8211 13.457C6.65859 13.457 6.52686 13.5888 6.52686 13.7512C6.52686 13.9137 6.65859 14.0455 6.8211 14.0455Z" fill="white"/>
<path d="M6.8181 11.9072C6.95117 11.9072 7.05905 11.7993 7.05905 11.6662C7.05905 11.5332 6.95117 11.4253 6.8181 11.4253C6.68503 11.4253 6.57715 11.5332 6.57715 11.6662C6.57715 11.7993 6.68503 11.9072 6.8181 11.9072Z" fill="white"/>
<path d="M6.81949 9.77713C6.92313 9.77713 7.00715 9.69313 7.00715 9.58949C7.00715 9.48586 6.92313 9.40186 6.81949 9.40186C6.71585 9.40186 6.63184 9.48586 6.63184 9.58949C6.63184 9.69313 6.71585 9.77713 6.81949 9.77713Z" fill="white"/>
<path d="M6.81724 7.64862C6.89186 7.64862 6.95235 7.58813 6.95235 7.51352C6.95235 7.4389 6.89186 7.37842 6.81724 7.37842C6.74262 7.37842 6.68213 7.4389 6.68213 7.51352C6.68213 7.58813 6.74262 7.64862 6.81724 7.64862Z" fill="white"/>
<path d="M6.81894 5.51922C6.86429 5.51922 6.90106 5.48245 6.90106 5.4371C6.90106 5.39175 6.86429 5.35498 6.81894 5.35498C6.77358 5.35498 6.73682 5.39175 6.73682 5.4371C6.73682 5.48245 6.77358 5.51922 6.81894 5.51922Z" fill="white"/>
<path d="M7.86692 25.7728C8.19442 25.7728 8.45991 25.5073 8.45991 25.1799C8.45991 24.8524 8.19442 24.5869 7.86692 24.5869C7.53942 24.5869 7.27393 24.8524 7.27393 25.1799C7.27393 25.5073 7.53942 25.7728 7.86692 25.7728Z" fill="white"/>
<path d="M7.86606 23.6378C8.16288 23.6378 8.4035 23.3972 8.4035 23.1004C8.4035 22.8036 8.16288 22.563 7.86606 22.563C7.56924 22.563 7.32861 22.8036 7.32861 23.1004C7.32861 23.3972 7.56924 23.6378 7.86606 23.6378Z" fill="white"/>
<path d="M7.86546 21.5048C8.13202 21.5048 8.34811 21.2887 8.34811 21.0222C8.34811 20.7556 8.13202 20.5396 7.86546 20.5396C7.5989 20.5396 7.38281 20.7556 7.38281 21.0222C7.38281 21.2887 7.5989 21.5048 7.86546 21.5048Z" fill="white"/>
<path d="M7.8646 19.3702C8.10049 19.3702 8.29171 19.179 8.29171 18.9432C8.29171 18.7073 8.10049 18.5161 7.8646 18.5161C7.62872 18.5161 7.4375 18.7073 7.4375 18.9432C7.4375 19.179 7.62872 19.3702 7.8646 19.3702Z" fill="white"/>
<path d="M7.86401 17.2367C8.06963 17.2367 8.23632 17.0701 8.23632 16.8645C8.23632 16.6589 8.06963 16.4922 7.86401 16.4922C7.65839 16.4922 7.4917 16.6589 7.4917 16.8645C7.4917 17.0701 7.65839 17.2367 7.86401 17.2367Z" fill="white"/>
<path d="M7.8639 15.1037C8.03926 15.1037 8.18141 14.9616 8.18141 14.7862C8.18141 14.6109 8.03926 14.4688 7.8639 14.4688C7.68854 14.4688 7.54639 14.6109 7.54639 14.7862C7.54639 14.9616 7.68854 15.1037 7.8639 15.1037Z" fill="white"/>
<path d="M7.86646 12.9692C8.01114 12.9692 8.12843 12.8519 8.12843 12.7073C8.12843 12.5626 8.01114 12.4453 7.86646 12.4453C7.72178 12.4453 7.60449 12.5626 7.60449 12.7073C7.60449 12.8519 7.72178 12.9692 7.86646 12.9692Z" fill="white"/>
<path d="M7.86635 10.8357C7.98077 10.8357 8.07352 10.7429 8.07352 10.6285C8.07352 10.5141 7.98077 10.4214 7.86635 10.4214C7.75193 10.4214 7.65918 10.5141 7.65918 10.6285C7.65918 10.7429 7.75193 10.8357 7.86635 10.8357Z" fill="white"/>
<path d="M7.86549 8.70117C7.94923 8.70117 8.01712 8.6333 8.01712 8.54956C8.01712 8.46583 7.94923 8.39795 7.86549 8.39795C7.78175 8.39795 7.71387 8.46583 7.71387 8.54956C7.71387 8.6333 7.78175 8.70117 7.86549 8.70117Z" fill="white"/>
<path d="M7.86525 6.56889C7.91893 6.56889 7.96244 6.52538 7.96244 6.4717C7.96244 6.41802 7.91893 6.37451 7.86525 6.37451C7.81158 6.37451 7.76807 6.41802 7.76807 6.4717C7.76807 6.52538 7.81158 6.56889 7.86525 6.56889Z" fill="white"/>
<path d="M8.895 26.8329C9.23369 26.8329 9.50826 26.5583 9.50826 26.2196C9.50826 25.881 9.23369 25.6064 8.895 25.6064C8.5563 25.6064 8.28174 25.881 8.28174 26.2196C8.28174 26.5583 8.5563 26.8329 8.895 26.8329Z" fill="white"/>
<path d="M8.89639 24.7023C9.20565 24.7023 9.45635 24.4517 9.45635 24.1424C9.45635 23.8332 9.20565 23.5825 8.89639 23.5825C8.58713 23.5825 8.33643 23.8332 8.33643 24.1424C8.33643 24.4517 8.58713 24.7023 8.89639 24.7023Z" fill="white"/>
<path d="M8.89388 22.5723C9.1737 22.5723 9.40055 22.3455 9.40055 22.0657C9.40055 21.7859 9.1737 21.5591 8.89388 21.5591C8.61405 21.5591 8.38721 21.7859 8.38721 22.0657C8.38721 22.3455 8.61405 22.5723 8.89388 22.5723Z" fill="white"/>
<path d="M8.89478 20.4345C9.14517 20.4345 9.34816 20.2315 9.34816 19.9812C9.34816 19.7308 9.14517 19.5278 8.89478 19.5278C8.64439 19.5278 8.44141 19.7308 8.44141 19.9812C8.44141 20.2315 8.64439 20.4345 8.89478 20.4345Z" fill="white"/>
<path d="M8.89302 18.3055C9.11439 18.3055 9.29385 18.1261 9.29385 17.9047C9.29385 17.6834 9.11439 17.5039 8.89302 17.5039C8.67165 17.5039 8.49219 17.6834 8.49219 17.9047C8.49219 18.1261 8.67165 18.3055 8.89302 18.3055Z" fill="white"/>
<path d="M8.89393 16.1755C9.08587 16.1755 9.24146 16.0199 9.24146 15.828C9.24146 15.6361 9.08587 15.4805 8.89393 15.4805C8.70199 15.4805 8.54639 15.6361 8.54639 15.828C8.54639 16.0199 8.70199 16.1755 8.89393 16.1755Z" fill="white"/>
<path d="M8.89141 14.0455C9.05392 14.0455 9.18566 13.9137 9.18566 13.7512C9.18566 13.5888 9.05392 13.457 8.89141 13.457C8.72891 13.457 8.59717 13.5888 8.59717 13.7512C8.59717 13.9137 8.72891 14.0455 8.89141 14.0455Z" fill="white"/>
<path d="M8.89281 11.9072C9.02588 11.9072 9.13376 11.7993 9.13376 11.6662C9.13376 11.5332 9.02588 11.4253 8.89281 11.4253C8.75973 11.4253 8.65186 11.5332 8.65186 11.6662C8.65186 11.7993 8.75973 11.9072 8.89281 11.9072Z" fill="white"/>
<path d="M8.8898 9.77713C8.99344 9.77713 9.07746 9.69313 9.07746 9.58949C9.07746 9.48586 8.99344 9.40186 8.8898 9.40186C8.78616 9.40186 8.70215 9.48586 8.70215 9.58949C8.70215 9.69313 8.78616 9.77713 8.8898 9.77713Z" fill="white"/>
<path d="M8.89195 7.64862C8.96657 7.64862 9.02706 7.58813 9.02706 7.51352C9.02706 7.4389 8.96657 7.37842 8.89195 7.37842C8.81733 7.37842 8.75684 7.4389 8.75684 7.51352C8.75684 7.58813 8.81733 7.64862 8.89195 7.64862Z" fill="white"/>
<path d="M8.88925 5.51922C8.9346 5.51922 8.97137 5.48245 8.97137 5.4371C8.97137 5.39175 8.9346 5.35498 8.88925 5.35498C8.8439 5.35498 8.80713 5.39175 8.80713 5.4371C8.80713 5.48245 8.8439 5.51922 8.88925 5.51922Z" fill="white"/>
<path d="M9.93332 25.7728C10.2608 25.7728 10.5263 25.5073 10.5263 25.1799C10.5263 24.8524 10.2608 24.5869 9.93332 24.5869C9.60582 24.5869 9.34033 24.8524 9.34033 25.1799C9.34033 25.5073 9.60582 25.7728 9.93332 25.7728Z" fill="white"/>
<path d="M9.93637 23.6378C10.2332 23.6378 10.4738 23.3972 10.4738 23.1004C10.4738 22.8036 10.2332 22.563 9.93637 22.563C9.63955 22.563 9.39893 22.8036 9.39893 23.1004C9.39893 23.3972 9.63955 23.6378 9.93637 23.6378Z" fill="white"/>
<path d="M9.93578 21.5048C10.2023 21.5048 10.4184 21.2887 10.4184 21.0222C10.4184 20.7556 10.2023 20.5396 9.93578 20.5396C9.66922 20.5396 9.45312 20.7556 9.45312 21.0222C9.45312 21.2887 9.66922 21.5048 9.93578 21.5048Z" fill="white"/>
<path d="M9.93492 19.3702C10.1708 19.3702 10.362 19.179 10.362 18.9432C10.362 18.7073 10.1708 18.5161 9.93492 18.5161C9.69903 18.5161 9.50781 18.7073 9.50781 18.9432C9.50781 19.179 9.69903 19.3702 9.93492 19.3702Z" fill="white"/>
<path d="M9.93481 17.2367C10.1404 17.2367 10.3071 17.0701 10.3071 16.8645C10.3071 16.6589 10.1404 16.4922 9.93481 16.4922C9.72919 16.4922 9.5625 16.6589 9.5625 16.8645C9.5625 17.0701 9.72919 17.2367 9.93481 17.2367Z" fill="white"/>
<path d="M9.93421 15.1037C10.1096 15.1037 10.2517 14.9616 10.2517 14.7862C10.2517 14.6109 10.1096 14.4688 9.93421 14.4688C9.75886 14.4688 9.6167 14.6109 9.6167 14.7862C9.6167 14.9616 9.75886 15.1037 9.93421 15.1037Z" fill="white"/>
<path d="M9.93335 12.9692C10.078 12.9692 10.1953 12.8519 10.1953 12.7073C10.1953 12.5626 10.078 12.4453 9.93335 12.4453C9.78867 12.4453 9.67139 12.5626 9.67139 12.7073C9.67139 12.8519 9.78867 12.9692 9.93335 12.9692Z" fill="white"/>
<path d="M9.93666 10.8357C10.0511 10.8357 10.1438 10.7429 10.1438 10.6285C10.1438 10.5141 10.0511 10.4214 9.93666 10.4214C9.82225 10.4214 9.72949 10.5141 9.72949 10.6285C9.72949 10.7429 9.82225 10.8357 9.93666 10.8357Z" fill="white"/>
<path d="M9.93581 8.70117C10.0195 8.70117 10.0874 8.6333 10.0874 8.54956C10.0874 8.46583 10.0195 8.39795 9.93581 8.39795C9.85207 8.39795 9.78418 8.46583 9.78418 8.54956C9.78418 8.6333 9.85207 8.70117 9.93581 8.70117Z" fill="white"/>
<path d="M9.93606 6.56889C9.98973 6.56889 10.0332 6.52538 10.0332 6.4717C10.0332 6.41802 9.98973 6.37451 9.93606 6.37451C9.88238 6.37451 9.83887 6.41802 9.83887 6.4717C9.83887 6.52538 9.88238 6.56889 9.93606 6.56889Z" fill="white"/>
<path d="M10.9658 26.8329C11.3045 26.8329 11.5791 26.5583 11.5791 26.2196C11.5791 25.881 11.3045 25.6064 10.9658 25.6064C10.6271 25.6064 10.3525 25.881 10.3525 26.2196C10.3525 26.5583 10.6271 26.8329 10.9658 26.8329Z" fill="white"/>
<path d="M10.9667 24.7023C11.276 24.7023 11.5267 24.4517 11.5267 24.1424C11.5267 23.8332 11.276 23.5825 10.9667 23.5825C10.6574 23.5825 10.4067 23.8332 10.4067 24.1424C10.4067 24.4517 10.6574 24.7023 10.9667 24.7023Z" fill="white"/>
<path d="M10.9642 22.5723C11.244 22.5723 11.4709 22.3455 11.4709 22.0657C11.4709 21.7859 11.244 21.5591 10.9642 21.5591C10.6844 21.5591 10.4575 21.7859 10.4575 22.0657C10.4575 22.3455 10.6844 22.5723 10.9642 22.5723Z" fill="white"/>
<path d="M10.9651 20.4345C11.2155 20.4345 11.4185 20.2315 11.4185 19.9812C11.4185 19.7308 11.2155 19.5278 10.9651 19.5278C10.7147 19.5278 10.5117 19.7308 10.5117 19.9812C10.5117 20.2315 10.7147 20.4345 10.9651 20.4345Z" fill="white"/>
<path d="M10.9633 18.3055C11.1847 18.3055 11.3642 18.1261 11.3642 17.9047C11.3642 17.6834 11.1847 17.5039 10.9633 17.5039C10.742 17.5039 10.5625 17.6834 10.5625 17.9047C10.5625 18.1261 10.742 18.3055 10.9633 18.3055Z" fill="white"/>
<path d="M10.9647 16.1755C11.1567 16.1755 11.3123 16.0199 11.3123 15.828C11.3123 15.6361 11.1567 15.4805 10.9647 15.4805C10.7728 15.4805 10.6172 15.6361 10.6172 15.828C10.6172 16.0199 10.7728 16.1755 10.9647 16.1755Z" fill="white"/>
<path d="M10.9617 14.0455C11.1242 14.0455 11.256 13.9137 11.256 13.7512C11.256 13.5888 11.1242 13.457 10.9617 13.457C10.7992 13.457 10.6675 13.5888 10.6675 13.7512C10.6675 13.9137 10.7992 14.0455 10.9617 14.0455Z" fill="white"/>
<path d="M10.9631 11.9072C11.0962 11.9072 11.2041 11.7993 11.2041 11.6662C11.2041 11.5332 11.0962 11.4253 10.9631 11.4253C10.83 11.4253 10.7222 11.5332 10.7222 11.6662C10.7222 11.7993 10.83 11.9072 10.9631 11.9072Z" fill="white"/>
<path d="M10.9601 9.77713C11.0638 9.77713 11.1478 9.69313 11.1478 9.58949C11.1478 9.48586 11.0638 9.40186 10.9601 9.40186C10.8565 9.40186 10.7725 9.48586 10.7725 9.58949C10.7725 9.69313 10.8565 9.77713 10.9601 9.77713Z" fill="white"/>
<path d="M10.9584 7.64862C11.033 7.64862 11.0935 7.58813 11.0935 7.51352C11.0935 7.4389 11.033 7.37842 10.9584 7.37842C10.8837 7.37842 10.8232 7.4389 10.8232 7.51352C10.8232 7.58813 10.8837 7.64862 10.9584 7.64862Z" fill="white"/>
<path d="M10.96 5.51922C11.0054 5.51922 11.0422 5.48245 11.0422 5.4371C11.0422 5.39175 11.0054 5.35498 10.96 5.35498C10.9147 5.35498 10.8779 5.39175 10.8779 5.4371C10.8779 5.48245 10.9147 5.51922 10.96 5.51922Z" fill="white"/>
<path d="M12.0041 25.7728C12.3316 25.7728 12.5971 25.5073 12.5971 25.1799C12.5971 24.8524 12.3316 24.5869 12.0041 24.5869C11.6766 24.5869 11.4111 24.8524 11.4111 25.1799C11.4111 25.5073 11.6766 25.7728 12.0041 25.7728Z" fill="white"/>
<path d="M12.0067 23.6378C12.3035 23.6378 12.5441 23.3972 12.5441 23.1004C12.5441 22.8036 12.3035 22.563 12.0067 22.563C11.7099 22.563 11.4692 22.8036 11.4692 23.1004C11.4692 23.3972 11.7099 23.6378 12.0067 23.6378Z" fill="white"/>
<path d="M12.0066 21.5048C12.2731 21.5048 12.4892 21.2887 12.4892 21.0222C12.4892 20.7556 12.2731 20.5396 12.0066 20.5396C11.74 20.5396 11.5239 20.7556 11.5239 21.0222C11.5239 21.2887 11.74 21.5048 12.0066 21.5048Z" fill="white"/>
<path d="M12.0052 19.3702C12.2411 19.3702 12.4323 19.179 12.4323 18.9432C12.4323 18.7073 12.2411 18.5161 12.0052 18.5161C11.7693 18.5161 11.5781 18.7073 11.5781 18.9432C11.5781 19.179 11.7693 19.3702 12.0052 19.3702Z" fill="white"/>
<path d="M12.0051 17.2367C12.2107 17.2367 12.3774 17.0701 12.3774 16.8645C12.3774 16.6589 12.2107 16.4922 12.0051 16.4922C11.7995 16.4922 11.6328 16.6589 11.6328 16.8645C11.6328 17.0701 11.7995 17.2367 12.0051 17.2367Z" fill="white"/>
<path d="M12.005 15.1037C12.1804 15.1037 12.3225 14.9616 12.3225 14.7862C12.3225 14.6109 12.1804 14.4688 12.005 14.4688C11.8297 14.4688 11.6875 14.6109 11.6875 14.7862C11.6875 14.9616 11.8297 15.1037 12.005 15.1037Z" fill="white"/>
<path d="M12.0076 12.9692C12.1523 12.9692 12.2695 12.8519 12.2695 12.7073C12.2695 12.5626 12.1523 12.4453 12.0076 12.4453C11.8629 12.4453 11.7456 12.5626 11.7456 12.7073C11.7456 12.8519 11.8629 12.9692 12.0076 12.9692Z" fill="white"/>
<path d="M12.0075 10.8357C12.1219 10.8357 12.2146 10.7429 12.2146 10.6285C12.2146 10.5141 12.1219 10.4214 12.0075 10.4214C11.893 10.4214 11.8003 10.5141 11.8003 10.6285C11.8003 10.7429 11.893 10.8357 12.0075 10.8357Z" fill="white"/>
<path d="M12.0061 8.70117C12.0899 8.70117 12.1577 8.6333 12.1577 8.54956C12.1577 8.46583 12.0899 8.39795 12.0061 8.39795C11.9224 8.39795 11.8545 8.46583 11.8545 8.54956C11.8545 8.6333 11.9224 8.70117 12.0061 8.70117Z" fill="white"/>
<path d="M12.0064 6.56889C12.06 6.56889 12.1036 6.52538 12.1036 6.4717C12.1036 6.41802 12.06 6.37451 12.0064 6.37451C11.9527 6.37451 11.9092 6.41802 11.9092 6.4717C11.9092 6.52538 11.9527 6.56889 12.0064 6.56889Z" fill="white"/>
<path d="M13.04 26.8329C13.3787 26.8329 13.6533 26.5583 13.6533 26.2196C13.6533 25.881 13.3787 25.6064 13.04 25.6064C12.7013 25.6064 12.4268 25.881 12.4268 26.2196C12.4268 26.5583 12.7013 26.8329 13.04 26.8329Z" fill="white"/>
<path d="M13.0375 24.7023C13.3468 24.7023 13.5975 24.4517 13.5975 24.1424C13.5975 23.8332 13.3468 23.5825 13.0375 23.5825C12.7282 23.5825 12.4775 23.8332 12.4775 24.1424C12.4775 24.4517 12.7282 24.7023 13.0375 24.7023Z" fill="white"/>
<path d="M13.0384 22.5723C13.3182 22.5723 13.5451 22.3455 13.5451 22.0657C13.5451 21.7859 13.3182 21.5591 13.0384 21.5591C12.7586 21.5591 12.5317 21.7859 12.5317 22.0657C12.5317 22.3455 12.7586 22.5723 13.0384 22.5723Z" fill="white"/>
<path d="M13.0359 20.4345C13.2863 20.4345 13.4893 20.2315 13.4893 19.9812C13.4893 19.7308 13.2863 19.5278 13.0359 19.5278C12.7855 19.5278 12.5825 19.7308 12.5825 19.9812C12.5825 20.2315 12.7855 20.4345 13.0359 20.4345Z" fill="white"/>
<path d="M13.0336 18.3055C13.255 18.3055 13.4345 18.1261 13.4345 17.9047C13.4345 17.6834 13.255 17.5039 13.0336 17.5039C12.8123 17.5039 12.6328 17.6834 12.6328 17.9047C12.6328 18.1261 12.8123 18.3055 13.0336 18.3055Z" fill="white"/>
<path d="M13.035 16.1755C13.227 16.1755 13.3826 16.0199 13.3826 15.828C13.3826 15.6361 13.227 15.4805 13.035 15.4805C12.8431 15.4805 12.6875 15.6361 12.6875 15.828C12.6875 16.0199 12.8431 16.1755 13.035 16.1755Z" fill="white"/>
<path d="M13.0364 14.0455C13.1989 14.0455 13.3307 13.9137 13.3307 13.7512C13.3307 13.5888 13.1989 13.457 13.0364 13.457C12.8739 13.457 12.7422 13.5888 12.7422 13.7512C12.7422 13.9137 12.8739 14.0455 13.0364 14.0455Z" fill="white"/>
<path d="M13.0334 11.9072C13.1665 11.9072 13.2744 11.7993 13.2744 11.6662C13.2744 11.5332 13.1665 11.4253 13.0334 11.4253C12.9004 11.4253 12.7925 11.5332 12.7925 11.6662C12.7925 11.7993 12.9004 11.9072 13.0334 11.9072Z" fill="white"/>
<path d="M13.0309 9.77713C13.1346 9.77713 13.2186 9.69313 13.2186 9.58949C13.2186 9.48586 13.1346 9.40186 13.0309 9.40186C12.9273 9.40186 12.8433 9.48586 12.8433 9.58949C12.8433 9.69313 12.9273 9.77713 13.0309 9.77713Z" fill="white"/>
<path d="M13.0326 7.64862C13.1072 7.64862 13.1677 7.58813 13.1677 7.51352C13.1677 7.4389 13.1072 7.37842 13.0326 7.37842C12.958 7.37842 12.8975 7.4389 12.8975 7.51352C12.8975 7.58813 12.958 7.64862 13.0326 7.64862Z" fill="white"/>
<path d="M13.0304 5.51922C13.0757 5.51922 13.1125 5.48245 13.1125 5.4371C13.1125 5.39175 13.0757 5.35498 13.0304 5.35498C12.985 5.35498 12.9482 5.39175 12.9482 5.4371C12.9482 5.48245 12.985 5.51922 13.0304 5.51922Z" fill="white"/>
<path d="M14.0744 25.7728C14.4019 25.7728 14.6674 25.5073 14.6674 25.1799C14.6674 24.8524 14.4019 24.5869 14.0744 24.5869C13.7469 24.5869 13.4814 24.8524 13.4814 25.1799C13.4814 25.5073 13.7469 25.7728 14.0744 25.7728Z" fill="white"/>
<path d="M14.0775 23.6378C14.3743 23.6378 14.6149 23.3972 14.6149 23.1004C14.6149 22.8036 14.3743 22.563 14.0775 22.563C13.7807 22.563 13.54 22.8036 13.54 23.1004C13.54 23.3972 13.7807 23.6378 14.0775 23.6378Z" fill="white"/>
<path d="M14.0769 21.5048C14.3434 21.5048 14.5595 21.2887 14.5595 21.0222C14.5595 20.7556 14.3434 20.5396 14.0769 20.5396C13.8103 20.5396 13.5942 20.7556 13.5942 21.0222C13.5942 21.2887 13.8103 21.5048 14.0769 21.5048Z" fill="white"/>
<path d="M14.076 19.3702C14.3119 19.3702 14.5031 19.179 14.5031 18.9432C14.5031 18.7073 14.3119 18.5161 14.076 18.5161C13.8401 18.5161 13.6489 18.7073 13.6489 18.9432C13.6489 19.179 13.8401 19.3702 14.076 19.3702Z" fill="white"/>
<path d="M14.0754 17.2367C14.2811 17.2367 14.4477 17.0701 14.4477 16.8645C14.4477 16.6589 14.2811 16.4922 14.0754 16.4922C13.8698 16.4922 13.7031 16.6589 13.7031 16.8645C13.7031 17.0701 13.8698 17.2367 14.0754 17.2367Z" fill="white"/>
<path d="M14.0753 15.1037C14.2507 15.1037 14.3928 14.9616 14.3928 14.7862C14.3928 14.6109 14.2507 14.4688 14.0753 14.4688C13.9 14.4688 13.7578 14.6109 13.7578 14.7862C13.7578 14.9616 13.9 15.1037 14.0753 15.1037Z" fill="white"/>
<path d="M14.0779 12.9692C14.2226 12.9692 14.3399 12.8519 14.3399 12.7073C14.3399 12.5626 14.2226 12.4453 14.0779 12.4453C13.9332 12.4453 13.8159 12.5626 13.8159 12.7073C13.8159 12.8519 13.9332 12.9692 14.0779 12.9692Z" fill="white"/>
<path d="M14.0778 10.8357C14.1922 10.8357 14.2849 10.7429 14.2849 10.6285C14.2849 10.5141 14.1922 10.4214 14.0778 10.4214C13.9634 10.4214 13.8706 10.5141 13.8706 10.6285C13.8706 10.7429 13.9634 10.8357 14.0778 10.8357Z" fill="white"/>
<path d="M14.0769 8.70117C14.1607 8.70117 14.2285 8.6333 14.2285 8.54956C14.2285 8.46583 14.1607 8.39795 14.0769 8.39795C13.9932 8.39795 13.9253 8.46583 13.9253 8.54956C13.9253 8.6333 13.9932 8.70117 14.0769 8.70117Z" fill="white"/>
<path d="M14.0767 6.56889C14.1304 6.56889 14.1739 6.52538 14.1739 6.4717C14.1739 6.41802 14.1304 6.37451 14.0767 6.37451C14.023 6.37451 13.9795 6.41802 13.9795 6.4717C13.9795 6.52538 14.023 6.56889 14.0767 6.56889Z" fill="white"/>
<path d="M15.1064 26.8329C15.4451 26.8329 15.7197 26.5583 15.7197 26.2196C15.7197 25.881 15.4451 25.6064 15.1064 25.6064C14.7677 25.6064 14.4932 25.881 14.4932 26.2196C14.4932 26.5583 14.7677 26.8329 15.1064 26.8329Z" fill="white"/>
<path d="M15.1078 24.7023C15.4171 24.7023 15.6678 24.4517 15.6678 24.1424C15.6678 23.8332 15.4171 23.5825 15.1078 23.5825C14.7986 23.5825 14.5479 23.8332 14.5479 24.1424C14.5479 24.4517 14.7986 24.7023 15.1078 24.7023Z" fill="white"/>
<path d="M15.1087 22.5723C15.3885 22.5723 15.6154 22.3455 15.6154 22.0657C15.6154 21.7859 15.3885 21.5591 15.1087 21.5591C14.8289 21.5591 14.6021 21.7859 14.6021 22.0657C14.6021 22.3455 14.8289 22.5723 15.1087 22.5723Z" fill="white"/>
<path d="M15.1062 20.4345C15.3566 20.4345 15.5596 20.2315 15.5596 19.9812C15.5596 19.7308 15.3566 19.5278 15.1062 19.5278C14.8558 19.5278 14.6528 19.7308 14.6528 19.9812C14.6528 20.2315 14.8558 20.4345 15.1062 20.4345Z" fill="white"/>
<path d="M15.1044 18.3055C15.3258 18.3055 15.5053 18.1261 15.5053 17.9047C15.5053 17.6834 15.3258 17.5039 15.1044 17.5039C14.8831 17.5039 14.7036 17.6834 14.7036 17.9047C14.7036 18.1261 14.8831 18.3055 15.1044 18.3055Z" fill="white"/>
<path d="M15.1054 16.1755C15.2973 16.1755 15.4529 16.0199 15.4529 15.828C15.4529 15.6361 15.2973 15.4805 15.1054 15.4805C14.9134 15.4805 14.7578 15.6361 14.7578 15.828C14.7578 16.0199 14.9134 16.1755 15.1054 16.1755Z" fill="white"/>
<path d="M15.1067 14.0455C15.2693 14.0455 15.401 13.9137 15.401 13.7512C15.401 13.5888 15.2693 13.457 15.1067 13.457C14.9442 13.457 14.8125 13.5888 14.8125 13.7512C14.8125 13.9137 14.9442 14.0455 15.1067 14.0455Z" fill="white"/>
<path d="M15.1042 11.9072C15.2373 11.9072 15.3452 11.7993 15.3452 11.6662C15.3452 11.5332 15.2373 11.4253 15.1042 11.4253C14.9712 11.4253 14.8633 11.5332 14.8633 11.6662C14.8633 11.7993 14.9712 11.9072 15.1042 11.9072Z" fill="white"/>
<path d="M15.1012 9.77713C15.2049 9.77713 15.2889 9.69313 15.2889 9.58949C15.2889 9.48586 15.2049 9.40186 15.1012 9.40186C14.9976 9.40186 14.9136 9.48586 14.9136 9.58949C14.9136 9.69313 14.9976 9.77713 15.1012 9.77713Z" fill="white"/>
<path d="M15.1034 7.64862C15.178 7.64862 15.2385 7.58813 15.2385 7.51352C15.2385 7.4389 15.178 7.37842 15.1034 7.37842C15.0288 7.37842 14.9683 7.4389 14.9683 7.51352C14.9683 7.58813 15.0288 7.64862 15.1034 7.64862Z" fill="white"/>
<path d="M15.1046 5.51922C15.1499 5.51922 15.1867 5.48245 15.1867 5.4371C15.1867 5.39175 15.1499 5.35498 15.1046 5.35498C15.0592 5.35498 15.0225 5.39175 15.0225 5.4371C15.0225 5.48245 15.0592 5.51922 15.1046 5.51922Z" fill="white"/>
<path d="M16.1447 25.7728C16.4722 25.7728 16.7377 25.5073 16.7377 25.1799C16.7377 24.8524 16.4722 24.5869 16.1447 24.5869C15.8172 24.5869 15.5518 24.8524 15.5518 25.1799C15.5518 25.5073 15.8172 25.7728 16.1447 25.7728Z" fill="white"/>
<path d="M16.1439 23.6378C16.4407 23.6378 16.6813 23.3972 16.6813 23.1004C16.6813 22.8036 16.4407 22.563 16.1439 22.563C15.8471 22.563 15.6064 22.8036 15.6064 23.1004C15.6064 23.3972 15.8471 23.6378 16.1439 23.6378Z" fill="white"/>
<path d="M16.1472 21.5048C16.4138 21.5048 16.6299 21.2887 16.6299 21.0222C16.6299 20.7556 16.4138 20.5396 16.1472 20.5396C15.8806 20.5396 15.6646 20.7556 15.6646 21.0222C15.6646 21.2887 15.8806 21.5048 16.1472 21.5048Z" fill="white"/>
<path d="M16.1463 19.3702C16.3822 19.3702 16.5734 19.179 16.5734 18.9432C16.5734 18.7073 16.3822 18.5161 16.1463 18.5161C15.9105 18.5161 15.7192 18.7073 15.7192 18.9432C15.7192 19.179 15.9105 19.3702 16.1463 19.3702Z" fill="white"/>
<path d="M16.1462 17.2367C16.3519 17.2367 16.5185 17.0701 16.5185 16.8645C16.5185 16.6589 16.3519 16.4922 16.1462 16.4922C15.9406 16.4922 15.7739 16.6589 15.7739 16.8645C15.7739 17.0701 15.9406 17.2367 16.1462 17.2367Z" fill="white"/>
<path d="M16.1456 15.1037C16.321 15.1037 16.4632 14.9616 16.4632 14.7862C16.4632 14.6109 16.321 14.4688 16.1456 14.4688C15.9703 14.4688 15.8281 14.6109 15.8281 14.7862C15.8281 14.9616 15.9703 15.1037 16.1456 15.1037Z" fill="white"/>
<path d="M16.1448 12.9692C16.2895 12.9692 16.4067 12.8519 16.4067 12.7073C16.4067 12.5626 16.2895 12.4453 16.1448 12.4453C16.0001 12.4453 15.8828 12.5626 15.8828 12.7073C15.8828 12.8519 16.0001 12.9692 16.1448 12.9692Z" fill="white"/>
<path d="M16.1442 10.8357C16.2586 10.8357 16.3514 10.7429 16.3514 10.6285C16.3514 10.5141 16.2586 10.4214 16.1442 10.4214C16.0298 10.4214 15.937 10.5141 15.937 10.6285C15.937 10.7429 16.0298 10.8357 16.1442 10.8357Z" fill="white"/>
<path d="M16.1472 8.70117C16.231 8.70117 16.2989 8.6333 16.2989 8.54956C16.2989 8.46583 16.231 8.39795 16.1472 8.39795C16.0635 8.39795 15.9956 8.46583 15.9956 8.54956C15.9956 8.6333 16.0635 8.70117 16.1472 8.70117Z" fill="white"/>
<path d="M16.1475 6.56889C16.2012 6.56889 16.2447 6.52538 16.2447 6.4717C16.2447 6.41802 16.2012 6.37451 16.1475 6.37451C16.0938 6.37451 16.0503 6.41802 16.0503 6.4717C16.0503 6.52538 16.0938 6.56889 16.1475 6.56889Z" fill="white"/>
<path d="M17.1811 26.8329C17.5198 26.8329 17.7944 26.5583 17.7944 26.2196C17.7944 25.881 17.5198 25.6064 17.1811 25.6064C16.8424 25.6064 16.5679 25.881 16.5679 26.2196C16.5679 26.5583 16.8424 26.8329 17.1811 26.8329Z" fill="white"/>
<path d="M17.1781 24.7023C17.4874 24.7023 17.7381 24.4517 17.7381 24.1424C17.7381 23.8332 17.4874 23.5825 17.1781 23.5825C16.8689 23.5825 16.6182 23.8332 16.6182 24.1424C16.6182 24.4517 16.8689 24.7023 17.1781 24.7023Z" fill="white"/>
<path d="M17.1795 22.5723C17.4593 22.5723 17.6862 22.3455 17.6862 22.0657C17.6862 21.7859 17.4593 21.5591 17.1795 21.5591C16.8997 21.5591 16.6729 21.7859 16.6729 22.0657C16.6729 22.3455 16.8997 22.5723 17.1795 22.5723Z" fill="white"/>
<path d="M17.1765 20.4345C17.4269 20.4345 17.6299 20.2315 17.6299 19.9812C17.6299 19.7308 17.4269 19.5278 17.1765 19.5278C16.9261 19.5278 16.7231 19.7308 16.7231 19.9812C16.7231 20.2315 16.9261 20.4345 17.1765 20.4345Z" fill="white"/>
<path d="M17.1787 18.3055C17.4 18.3055 17.5795 18.1261 17.5795 17.9047C17.5795 17.6834 17.4 17.5039 17.1787 17.5039C16.9573 17.5039 16.7778 17.6834 16.7778 17.9047C16.7778 18.1261 16.9573 18.3055 17.1787 18.3055Z" fill="white"/>
<path d="M17.1801 16.1755C17.372 16.1755 17.5276 16.0199 17.5276 15.828C17.5276 15.6361 17.372 15.4805 17.1801 15.4805C16.9881 15.4805 16.8325 15.6361 16.8325 15.828C16.8325 16.0199 16.9881 16.1755 17.1801 16.1755Z" fill="white"/>
<path d="M17.1732 14.0455C17.3357 14.0455 17.4674 13.9137 17.4674 13.7512C17.4674 13.5888 17.3357 13.457 17.1732 13.457C17.0106 13.457 16.8789 13.5888 16.8789 13.7512C16.8789 13.9137 17.0106 14.0455 17.1732 14.0455Z" fill="white"/>
<path d="M17.1745 11.9072C17.3076 11.9072 17.4155 11.7993 17.4155 11.6662C17.4155 11.5332 17.3076 11.4253 17.1745 11.4253C17.0415 11.4253 16.9336 11.5332 16.9336 11.6662C16.9336 11.7993 17.0415 11.9072 17.1745 11.9072Z" fill="white"/>
<path d="M17.1754 9.77713C17.2791 9.77713 17.3631 9.69313 17.3631 9.58949C17.3631 9.48586 17.2791 9.40186 17.1754 9.40186C17.0718 9.40186 16.9878 9.48586 16.9878 9.58949C16.9878 9.69313 17.0718 9.77713 17.1754 9.77713Z" fill="white"/>
<path d="M17.1737 7.64862C17.2483 7.64862 17.3088 7.58813 17.3088 7.51352C17.3088 7.4389 17.2483 7.37842 17.1737 7.37842C17.0991 7.37842 17.0386 7.4389 17.0386 7.51352C17.0386 7.58813 17.0991 7.64862 17.1737 7.64862Z" fill="white"/>
<path d="M17.1715 5.51922C17.2168 5.51922 17.2536 5.48245 17.2536 5.4371C17.2536 5.39175 17.2168 5.35498 17.1715 5.35498C17.1261 5.35498 17.0894 5.39175 17.0894 5.4371C17.0894 5.48245 17.1261 5.51922 17.1715 5.51922Z" fill="white"/>
<path d="M18.2195 25.7728C18.547 25.7728 18.8124 25.5073 18.8124 25.1799C18.8124 24.8524 18.547 24.5869 18.2195 24.5869C17.892 24.5869 17.6265 24.8524 17.6265 25.1799C17.6265 25.5073 17.892 25.7728 18.2195 25.7728Z" fill="white"/>
<path d="M18.2181 23.6378C18.5149 23.6378 18.7556 23.3972 18.7556 23.1004C18.7556 22.8036 18.5149 22.563 18.2181 22.563C17.9213 22.563 17.6807 22.8036 17.6807 23.1004C17.6807 23.3972 17.9213 23.6378 18.2181 23.6378Z" fill="white"/>
<path d="M18.218 21.5048C18.4846 21.5048 18.7007 21.2887 18.7007 21.0222C18.7007 20.7556 18.4846 20.5396 18.218 20.5396C17.9514 20.5396 17.7354 20.7556 17.7354 21.0222C17.7354 21.2887 17.9514 21.5048 18.218 21.5048Z" fill="white"/>
<path d="M18.2167 19.3702C18.4525 19.3702 18.6438 19.179 18.6438 18.9432C18.6438 18.7073 18.4525 18.5161 18.2167 18.5161C17.9808 18.5161 17.7896 18.7073 17.7896 18.9432C17.7896 19.179 17.9808 19.3702 18.2167 19.3702Z" fill="white"/>
<path d="M18.2205 17.2367C18.4261 17.2367 18.5928 17.0701 18.5928 16.8645C18.5928 16.6589 18.4261 16.4922 18.2205 16.4922C18.0148 16.4922 17.8481 16.6589 17.8481 16.8645C17.8481 17.0701 18.0148 17.2367 18.2205 17.2367Z" fill="white"/>
<path d="M18.2203 15.1037C18.3957 15.1037 18.5379 14.9616 18.5379 14.7862C18.5379 14.6109 18.3957 14.4688 18.2203 14.4688C18.045 14.4688 17.9028 14.6109 17.9028 14.7862C17.9028 14.9616 18.045 15.1037 18.2203 15.1037Z" fill="white"/>
<path d="M18.219 12.9692C18.3637 12.9692 18.481 12.8519 18.481 12.7073C18.481 12.5626 18.3637 12.4453 18.219 12.4453C18.0743 12.4453 17.957 12.5626 17.957 12.7073C17.957 12.8519 18.0743 12.9692 18.219 12.9692Z" fill="white"/>
<path d="M18.2189 10.8357C18.3333 10.8357 18.4261 10.7429 18.4261 10.6285C18.4261 10.5141 18.3333 10.4214 18.2189 10.4214C18.1045 10.4214 18.0117 10.5141 18.0117 10.6285C18.0117 10.7429 18.1045 10.8357 18.2189 10.8357Z" fill="white"/>
<path d="M18.2175 8.70117C18.3013 8.70117 18.3692 8.6333 18.3692 8.54956C18.3692 8.46583 18.3013 8.39795 18.2175 8.39795C18.1338 8.39795 18.0659 8.46583 18.0659 8.54956C18.0659 8.6333 18.1338 8.70117 18.2175 8.70117Z" fill="white"/>
<path d="M18.2178 6.56889C18.2715 6.56889 18.315 6.52538 18.315 6.4717C18.315 6.41802 18.2715 6.37451 18.2178 6.37451C18.1641 6.37451 18.1206 6.41802 18.1206 6.4717C18.1206 6.52538 18.1641 6.56889 18.2178 6.56889Z" fill="white"/>
<path d="M19.2514 26.8329C19.5901 26.8329 19.8647 26.5583 19.8647 26.2196C19.8647 25.881 19.5901 25.6064 19.2514 25.6064C18.9127 25.6064 18.6382 25.881 18.6382 26.2196C18.6382 26.5583 18.9127 26.8329 19.2514 26.8329Z" fill="white"/>
<path d="M19.2489 24.7023C19.5582 24.7023 19.8089 24.4517 19.8089 24.1424C19.8089 23.8332 19.5582 23.5825 19.2489 23.5825C18.9397 23.5825 18.689 23.8332 18.689 24.1424C18.689 24.4517 18.9397 24.7023 19.2489 24.7023Z" fill="white"/>
<path d="M19.2498 22.5723C19.5297 22.5723 19.7565 22.3455 19.7565 22.0657C19.7565 21.7859 19.5297 21.5591 19.2498 21.5591C18.97 21.5591 18.7432 21.7859 18.7432 22.0657C18.7432 22.3455 18.97 22.5723 19.2498 22.5723Z" fill="white"/>
<path d="M19.2473 20.4345C19.4977 20.4345 19.7007 20.2315 19.7007 19.9812C19.7007 19.7308 19.4977 19.5278 19.2473 19.5278C18.9969 19.5278 18.7939 19.7308 18.7939 19.9812C18.7939 20.2315 18.9969 20.4345 19.2473 20.4345Z" fill="white"/>
<path d="M19.249 18.3055C19.4704 18.3055 19.6498 18.1261 19.6498 17.9047C19.6498 17.6834 19.4704 17.5039 19.249 17.5039C19.0276 17.5039 18.8481 17.6834 18.8481 17.9047C18.8481 18.1261 19.0276 18.3055 19.249 18.3055Z" fill="white"/>
<path d="M19.2465 16.1755C19.4384 16.1755 19.594 16.0199 19.594 15.828C19.594 15.6361 19.4384 15.4805 19.2465 15.4805C19.0545 15.4805 18.8989 15.6361 18.8989 15.828C18.8989 16.0199 19.0545 16.1755 19.2465 16.1755Z" fill="white"/>
<path d="M19.244 14.0455C19.4065 14.0455 19.5382 13.9137 19.5382 13.7512C19.5382 13.5888 19.4065 13.457 19.244 13.457C19.0814 13.457 18.9497 13.5888 18.9497 13.7512C18.9497 13.9137 19.0814 14.0455 19.244 14.0455Z" fill="white"/>
<path d="M19.2449 11.9072C19.3779 11.9072 19.4858 11.7993 19.4858 11.6662C19.4858 11.5332 19.3779 11.4253 19.2449 11.4253C19.1118 11.4253 19.0039 11.5332 19.0039 11.6662C19.0039 11.7993 19.1118 11.9072 19.2449 11.9072Z" fill="white"/>
<path d="M19.2462 9.77713C19.3499 9.77713 19.4339 9.69313 19.4339 9.58949C19.4339 9.48586 19.3499 9.40186 19.2462 9.40186C19.1426 9.40186 19.0586 9.48586 19.0586 9.58949C19.0586 9.69313 19.1426 9.77713 19.2462 9.77713Z" fill="white"/>
<path d="M19.244 7.64862C19.3186 7.64862 19.3791 7.58813 19.3791 7.51352C19.3791 7.4389 19.3186 7.37842 19.244 7.37842C19.1694 7.37842 19.1089 7.4389 19.1089 7.51352C19.1089 7.58813 19.1694 7.64862 19.244 7.64862Z" fill="white"/>
<path d="M19.2418 5.51922C19.2871 5.51922 19.3239 5.48245 19.3239 5.4371C19.3239 5.39175 19.2871 5.35498 19.2418 5.35498C19.1964 5.35498 19.1597 5.39175 19.1597 5.4371C19.1597 5.48245 19.1964 5.51922 19.2418 5.51922Z" fill="white"/>
<path d="M20.2898 25.7728C20.6173 25.7728 20.8828 25.5073 20.8828 25.1799C20.8828 24.8524 20.6173 24.5869 20.2898 24.5869C19.9623 24.5869 19.6968 24.8524 19.6968 25.1799C19.6968 25.5073 19.9623 25.7728 20.2898 25.7728Z" fill="white"/>
<path d="M20.2889 23.6378C20.5857 23.6378 20.8264 23.3972 20.8264 23.1004C20.8264 22.8036 20.5857 22.563 20.2889 22.563C19.9921 22.563 19.7515 22.8036 19.7515 23.1004C19.7515 23.3972 19.9921 23.6378 20.2889 23.6378Z" fill="white"/>
<path d="M20.2883 21.5048C20.5549 21.5048 20.771 21.2887 20.771 21.0222C20.771 20.7556 20.5549 20.5396 20.2883 20.5396C20.0218 20.5396 19.8057 20.7556 19.8057 21.0222C19.8057 21.2887 20.0218 21.5048 20.2883 21.5048Z" fill="white"/>
<path d="M20.2875 19.3702C20.5233 19.3702 20.7146 19.179 20.7146 18.9432C20.7146 18.7073 20.5233 18.5161 20.2875 18.5161C20.0516 18.5161 19.8604 18.7073 19.8604 18.9432C19.8604 19.179 20.0516 19.3702 20.2875 19.3702Z" fill="white"/>
<path d="M20.2869 17.2367C20.4925 17.2367 20.6592 17.0701 20.6592 16.8645C20.6592 16.6589 20.4925 16.4922 20.2869 16.4922C20.0812 16.4922 19.9146 16.6589 19.9146 16.8645C19.9146 17.0701 20.0812 17.2367 20.2869 17.2367Z" fill="white"/>
<path d="M20.2907 15.1037C20.466 15.1037 20.6082 14.9616 20.6082 14.7862C20.6082 14.6109 20.466 14.4688 20.2907 14.4688C20.1153 14.4688 19.9731 14.6109 19.9731 14.7862C19.9731 14.9616 20.1153 15.1037 20.2907 15.1037Z" fill="white"/>
<path d="M20.2893 12.9692C20.434 12.9692 20.5513 12.8519 20.5513 12.7073C20.5513 12.5626 20.434 12.4453 20.2893 12.4453C20.1446 12.4453 20.0273 12.5626 20.0273 12.7073C20.0273 12.8519 20.1446 12.9692 20.2893 12.9692Z" fill="white"/>
<path d="M20.2892 10.8357C20.4036 10.8357 20.4964 10.7429 20.4964 10.6285C20.4964 10.5141 20.4036 10.4214 20.2892 10.4214C20.1748 10.4214 20.082 10.5141 20.082 10.6285C20.082 10.7429 20.1748 10.8357 20.2892 10.8357Z" fill="white"/>
<path d="M20.2883 8.70117C20.3721 8.70117 20.44 8.6333 20.44 8.54956C20.44 8.46583 20.3721 8.39795 20.2883 8.39795C20.2046 8.39795 20.1367 8.46583 20.1367 8.54956C20.1367 8.6333 20.2046 8.70117 20.2883 8.70117Z" fill="white"/>
<path d="M20.2881 6.56889C20.3418 6.56889 20.3853 6.52538 20.3853 6.4717C20.3853 6.41802 20.3418 6.37451 20.2881 6.37451C20.2344 6.37451 20.1909 6.41802 20.1909 6.4717C20.1909 6.52538 20.2344 6.56889 20.2881 6.56889Z" fill="white"/>
<path d="M21.3218 26.8329C21.6604 26.8329 21.935 26.5583 21.935 26.2196C21.935 25.881 21.6604 25.6064 21.3218 25.6064C20.9831 25.6064 20.7085 25.881 20.7085 26.2196C20.7085 26.5583 20.9831 26.8329 21.3218 26.8329Z" fill="white"/>
<path d="M21.3192 24.7023C21.6285 24.7023 21.8792 24.4517 21.8792 24.1424C21.8792 23.8332 21.6285 23.5825 21.3192 23.5825C21.01 23.5825 20.7593 23.8332 20.7593 24.1424C20.7593 24.4517 21.01 24.7023 21.3192 24.7023Z" fill="white"/>
<path d="M21.3201 22.5723C21.6 22.5723 21.8268 22.3455 21.8268 22.0657C21.8268 21.7859 21.6 21.5591 21.3201 21.5591C21.0403 21.5591 20.8135 21.7859 20.8135 22.0657C20.8135 22.3455 21.0403 22.5723 21.3201 22.5723Z" fill="white"/>
<path d="M21.3215 20.4345C21.5719 20.4345 21.7749 20.2315 21.7749 19.9812C21.7749 19.7308 21.5719 19.5278 21.3215 19.5278C21.0711 19.5278 20.8682 19.7308 20.8682 19.9812C20.8682 20.2315 21.0711 20.4345 21.3215 20.4345Z" fill="white"/>
<path d="M21.3198 18.3055C21.5412 18.3055 21.7206 18.1261 21.7206 17.9047C21.7206 17.6834 21.5412 17.5039 21.3198 17.5039C21.0984 17.5039 20.9189 17.6834 20.9189 17.9047C20.9189 18.1261 21.0984 18.3055 21.3198 18.3055Z" fill="white"/>
<path d="M21.3168 16.1755C21.5087 16.1755 21.6643 16.0199 21.6643 15.828C21.6643 15.6361 21.5087 15.4805 21.3168 15.4805C21.1248 15.4805 20.9692 15.6361 20.9692 15.828C20.9692 16.0199 21.1248 16.1755 21.3168 16.1755Z" fill="white"/>
<path d="M21.3182 14.0455C21.4807 14.0455 21.6124 13.9137 21.6124 13.7512C21.6124 13.5888 21.4807 13.457 21.3182 13.457C21.1557 13.457 21.0239 13.5888 21.0239 13.7512C21.0239 13.9137 21.1557 14.0455 21.3182 14.0455Z" fill="white"/>
<path d="M21.3191 11.9072C21.4521 11.9072 21.56 11.7993 21.56 11.6662C21.56 11.5332 21.4521 11.4253 21.3191 11.4253C21.186 11.4253 21.0781 11.5332 21.0781 11.6662C21.0781 11.7993 21.186 11.9072 21.3191 11.9072Z" fill="white"/>
<path d="M21.3166 9.77713C21.4202 9.77713 21.5042 9.69313 21.5042 9.58949C21.5042 9.48586 21.4202 9.40186 21.3166 9.40186C21.2129 9.40186 21.1289 9.48586 21.1289 9.58949C21.1289 9.69313 21.2129 9.77713 21.3166 9.77713Z" fill="white"/>
<path d="M21.3148 7.64862C21.3894 7.64862 21.4499 7.58813 21.4499 7.51352C21.4499 7.4389 21.3894 7.37842 21.3148 7.37842C21.2402 7.37842 21.1797 7.4389 21.1797 7.51352C21.1797 7.58813 21.2402 7.64862 21.3148 7.64862Z" fill="white"/>
<path d="M21.3121 5.51922C21.3575 5.51922 21.3942 5.48245 21.3942 5.4371C21.3942 5.39175 21.3575 5.35498 21.3121 5.35498C21.2667 5.35498 21.23 5.39175 21.23 5.4371C21.23 5.48245 21.2667 5.51922 21.3121 5.51922Z" fill="white"/>
</svg>
