<svg width="150" height="36" viewBox="0 0 150 36" fill="none" xmlns="http://www.w3.org/2000/svg">
<path d="M34.9399 0C34.9399 0.149572 34.9333 0.299974 34.9333 0.449546C34.9333 11.9655 34.9333 23.4819 34.9333 34.999V35.4277H33.2415C33.2278 35.3652 33.2175 35.302 33.2107 35.2383C33.2049 35.1386 33.2107 35.0389 33.2107 34.9391V0.419631C33.2107 0.280031 33.2057 0.1396 33.2032 0H34.9399Z" fill="white"/>
<path d="M149.999 11.9986C149.951 12.0916 149.896 12.1822 149.855 12.2794C148.141 16.3373 146.427 20.3951 144.714 24.4529C144.679 24.536 144.638 24.6125 144.597 24.6972H140.78C138.997 20.456 137.212 16.2085 135.426 11.9545C135.664 11.8831 138.606 11.8581 139.213 11.9188L142.742 20.5773L142.811 20.584C143.436 19.1406 144.034 17.6856 144.647 16.2381C145.26 14.7906 145.863 13.3497 146.475 11.8955H146.822C147.772 11.8955 148.722 11.8955 149.672 11.8955C149.781 11.8955 149.89 11.8847 150 11.8789L149.999 11.9986Z" fill="white"/>
<path d="M102.999 24.7085V8.05447C103.125 8.0445 103.248 8.02539 103.374 8.02539C105.403 8.02539 107.432 8.02539 109.461 8.02539C110.021 8.02539 110.581 8.02539 111.14 8.04284C112.729 8.09934 114.249 8.43671 115.651 9.21199C117.883 10.4468 119.236 12.3123 119.64 14.84C119.867 16.2527 119.806 17.6503 119.385 19.0206C118.845 20.7797 117.788 22.1558 116.252 23.1654C115.06 23.9456 113.7 24.4336 112.284 24.5896C111.719 24.6587 111.151 24.6967 110.582 24.7035C108.153 24.7159 105.724 24.7085 103.295 24.7093L102.999 24.7085ZM106.865 21.5459C106.938 21.5517 107.017 21.5625 107.095 21.5625C108.203 21.5625 109.312 21.5625 110.424 21.5625C111.147 21.5625 111.86 21.4869 112.548 21.2475C114.136 20.6933 115.222 19.6455 115.684 18.0068C115.915 17.1544 115.961 16.2626 115.819 15.391C115.556 13.6152 114.589 12.3688 112.956 11.6409C112.119 11.2678 111.226 11.1656 110.321 11.1573C109.261 11.1481 108.202 11.1573 107.142 11.1573C107.046 11.1573 106.949 11.1697 106.863 11.1764C106.792 11.4838 106.797 21.2916 106.865 21.5459Z" fill="white"/>
<path d="M82.704 11.9138V12.2728C82.704 15.6725 82.704 19.0714 82.704 22.4694C82.704 23.4333 82.6301 24.3873 82.3567 25.3163C81.7517 27.3762 80.369 28.6401 78.324 29.1993C77.2945 29.4819 76.2467 29.5566 75.1772 29.5317C74.0174 29.5081 72.8654 29.3355 71.7495 29.0182C70.9776 28.8054 70.2438 28.4728 69.5749 28.0327C69.4677 27.9612 69.3663 27.8814 69.2309 27.7834C69.7129 26.9126 70.189 26.0509 70.6751 25.1709C70.7323 25.1973 70.7878 25.2273 70.8413 25.2606C71.8451 25.9902 72.9893 26.35 74.2008 26.5212C75.0526 26.6538 75.9222 26.6162 76.7593 26.4107C77.9809 26.0982 78.7063 25.3138 78.9198 24.0798C78.9946 23.6494 78.9954 23.2057 79.0245 22.7677C79.0208 22.6923 79.0093 22.6174 78.9905 22.5442C78.9326 22.5808 78.877 22.621 78.8243 22.6647C78.0207 23.4682 77.0311 23.8846 75.9218 24.0308C74.6604 24.197 73.4222 24.0798 72.2498 23.568C70.1641 22.6589 68.9052 21.0892 68.5936 18.8157C68.4083 17.4571 68.5736 16.1392 69.2392 14.9194C70.0403 13.4503 71.2692 12.4996 72.858 12.011C74.0684 11.6372 75.3576 11.5988 76.5882 11.8997C77.5022 12.1063 78.3295 12.5918 78.9556 13.2891C79.0076 13.3642 79.0706 13.4312 79.1425 13.4877C79.2547 12.9558 79.1724 12.4406 79.2348 11.9171L82.704 11.9138ZM75.6816 14.7391C75.5719 14.7391 75.4622 14.7349 75.3492 14.7391C74.0197 14.7906 72.3337 15.7046 72.2672 17.7579C72.229 18.9105 72.6411 19.8519 73.6233 20.5001C74.5174 21.0859 75.5063 21.1856 76.5317 20.987C77.9302 20.7145 79.3245 19.5669 79.0245 17.3366C78.9065 16.4691 78.4603 15.7886 77.7282 15.3016C77.1239 14.9018 76.4079 14.705 75.6841 14.7399L75.6816 14.7391Z" fill="white"/>
<path d="M54.7161 24.6901V17.8763H47.1037C47.0954 18.0142 47.0796 18.1497 47.0796 18.2851C47.0796 20.2844 47.0796 22.2837 47.0796 24.2829V24.6901H43.3004C43.2937 24.685 43.2876 24.6791 43.2821 24.6726C43.2748 24.6657 43.2692 24.6571 43.2655 24.6477C43.2568 24.6193 43.2512 24.5901 43.2489 24.5605C43.2489 19.1316 43.2489 13.7027 43.2489 8.27376C43.2497 8.22395 43.2539 8.17426 43.2614 8.12502C43.2725 8.09338 43.287 8.06302 43.3046 8.03444C44.5302 8.0145 45.7742 8.02863 47.0522 8.0253C47.063 8.19149 47.0804 8.32278 47.0804 8.4574C47.0804 10.3669 47.0804 12.2765 47.0804 14.186V14.5591C47.3405 14.6422 54.3737 14.6497 54.7177 14.5716C54.7269 13.8661 54.7177 13.149 54.7177 12.4335C54.7177 11.7028 54.7177 10.973 54.7177 10.2439V8.09843C54.9496 8.01533 58.0956 7.98708 58.5011 8.05771C58.5659 8.27874 58.575 24.391 58.5077 24.6934L54.7161 24.6901Z" fill="white"/>
<path d="M95.6277 24.6907V24.2752C95.6277 22.266 95.6277 20.2567 95.6277 18.2475C95.6277 17.7389 95.6153 17.2312 95.4923 16.7293C95.263 15.797 94.6098 15.0018 93.3551 14.907C92.8969 14.8606 92.434 14.8992 91.9898 15.0209C90.8622 15.3599 90.2282 16.1535 90.0113 17.2827C89.9354 17.7056 89.8984 18.1345 89.9008 18.5641C89.8892 20.4752 89.8958 22.3823 89.8958 24.2918V24.6907H86.2745C86.2064 24.4663 86.1848 7.45336 86.2496 7.06946C86.4731 7.00797 89.5443 6.998 89.8967 7.06946V13.2094C89.9706 13.1647 90.0422 13.1162 90.111 13.064C91.1165 12.1832 92.3097 11.7868 93.6243 11.7178C94.5101 11.6713 95.3834 11.7577 96.2152 12.0884C97.7807 12.7116 98.7538 13.855 99.1119 15.4995C99.2251 15.996 99.2869 16.5027 99.2964 17.0118C99.3164 19.4906 99.3089 21.9701 99.3089 24.4489C99.3089 24.5262 99.2964 24.6034 99.2873 24.6982L95.6277 24.6907Z" fill="white"/>
<path d="M134.923 19.3334H125.231C125.263 19.4738 125.279 19.5777 125.31 19.6766C125.603 20.5906 126.205 21.2454 127.083 21.5953C128.559 22.1844 130.016 22.088 131.404 21.2969C131.661 21.1507 131.885 20.9463 132.159 20.7435L134.102 22.8442C133.93 23.0154 133.775 23.1832 133.603 23.3344C132.767 24.0782 131.782 24.5194 130.691 24.723C129.103 25.0188 127.525 24.9864 125.983 24.4737C124.204 23.8796 122.846 22.7835 122.064 21.0468C121.547 19.8976 121.417 18.6869 121.559 17.4405C121.692 16.1894 122.198 15.0073 123.012 14.0477C123.988 12.8844 125.24 12.1814 126.717 11.8789C128.219 11.5698 129.7 11.6487 131.131 12.2354C133.201 13.0855 134.407 14.6493 134.87 16.8156C135.025 17.5452 135.029 18.2839 134.974 19.0243C134.968 19.1107 134.946 19.198 134.923 19.3334ZM125.191 17.1629C125.569 17.2303 131.281 17.2153 131.506 17.1521C131.514 17.1252 131.517 17.0971 131.517 17.0691C131.329 16.0661 130.805 15.3033 129.89 14.8296C129.225 14.4848 128.512 14.4324 127.788 14.5263C127.121 14.6097 126.502 14.9152 126.03 15.3935C125.558 15.8718 125.261 16.4951 125.186 17.1629H125.191Z" fill="white"/>
<path d="M65.944 24.6893H62.316V11.8926H65.9265C66.0022 12.1419 66.0138 24.381 65.944 24.6893Z" fill="white"/>
<path d="M64.152 5.92773C64.5234 5.93624 64.8898 6.01431 65.2323 6.15791C66.8286 6.85342 66.7106 8.82527 65.6029 9.61967C64.7719 10.2155 63.4258 10.2213 62.6214 9.58975C61.9409 9.05462 61.6974 8.33916 61.9018 7.50821C62.1004 6.69471 62.673 6.22355 63.469 6.02163C63.6946 5.97671 63.9227 5.94535 64.152 5.92773Z" fill="white"/>
<path d="M0.67889 29.7074C1.05383 29.7074 1.35778 29.4034 1.35778 29.0285C1.35778 28.6536 1.05383 28.3496 0.67889 28.3496C0.303949 28.3496 0 28.6536 0 29.0285C0 29.4034 0.303949 29.7074 0.67889 29.7074Z" fill="#FF834F"/>
<path d="M0.677845 27.3472C1.0202 27.3472 1.29774 27.0697 1.29774 26.7273C1.29774 26.385 1.0202 26.1074 0.677845 26.1074C0.335488 26.1074 0.0579529 26.385 0.0579529 26.7273C0.0579529 27.0697 0.335488 27.3472 0.677845 27.3472Z" fill="#FF834F"/>
<path d="M0.676739 24.989C0.986512 24.989 1.23763 24.7379 1.23763 24.4281C1.23763 24.1183 0.986512 23.8672 0.676739 23.8672C0.366966 23.8672 0.115845 24.1183 0.115845 24.4281C0.115845 24.7379 0.366966 24.989 0.676739 24.989Z" fill="#FF834F"/>
<path d="M0.676915 22.6268C0.954105 22.6268 1.17881 22.4021 1.17881 22.1249C1.17881 21.8478 0.954105 21.623 0.676915 21.623C0.399725 21.623 0.175018 21.8478 0.175018 22.1249C0.175018 22.4021 0.399725 22.6268 0.676915 22.6268Z" fill="#FF834F"/>
<path d="M0.67545 20.2683C0.920515 20.2683 1.11918 20.0697 1.11918 19.8246C1.11918 19.5795 0.920515 19.3809 0.67545 19.3809C0.430385 19.3809 0.23172 19.5795 0.23172 19.8246C0.23172 20.0697 0.430385 20.2683 0.67545 20.2683Z" fill="#FF834F"/>
<path d="M0.674344 17.9081C0.886825 17.9081 1.05908 17.7359 1.05908 17.5234C1.05908 17.3109 0.886825 17.1387 0.674344 17.1387C0.461862 17.1387 0.289612 17.3109 0.289612 17.5234C0.289612 17.7359 0.461862 17.9081 0.674344 17.9081Z" fill="#FF834F"/>
<path d="M0.673299 15.546C0.853197 15.546 0.999033 15.4002 0.999033 15.2203C0.999033 15.0404 0.853197 14.8945 0.673299 14.8945C0.493401 14.8945 0.347565 15.0404 0.347565 15.2203C0.347565 15.4002 0.493401 15.546 0.673299 15.546Z" fill="#FF834F"/>
<path d="M0.673414 13.1878C0.820728 13.1878 0.94015 13.0683 0.94015 12.921C0.94015 12.7737 0.820728 12.6543 0.673414 12.6543C0.526099 12.6543 0.406677 12.7737 0.406677 12.921C0.406677 13.0683 0.526099 13.1878 0.673414 13.1878Z" fill="#FF834F"/>
<path d="M0.672369 10.8276C0.7871 10.8276 0.880107 10.7346 0.880107 10.6198C0.880107 10.5051 0.7871 10.4121 0.672369 10.4121C0.557638 10.4121 0.46463 10.5051 0.46463 10.6198C0.46463 10.7346 0.557638 10.8276 0.672369 10.8276Z" fill="#FF834F"/>
<path d="M0.672094 8.46711C0.7547 8.46711 0.821666 8.40015 0.821666 8.31754C0.821666 8.23493 0.7547 8.16797 0.672094 8.16797C0.589488 8.16797 0.522522 8.23493 0.522522 8.31754C0.522522 8.40015 0.589488 8.46711 0.672094 8.46711Z" fill="#FF834F"/>
<path d="M0.669859 6.10888C0.719881 6.10888 0.760433 6.06833 0.760433 6.01831C0.760433 5.96829 0.719881 5.92773 0.669859 5.92773C0.619836 5.92773 0.579285 5.96829 0.579285 6.01831C0.579285 6.06833 0.619836 6.10888 0.669859 6.10888Z" fill="#FF834F"/>
<path d="M1.82854 28.5317C2.19109 28.5317 2.485 28.2378 2.485 27.8752C2.485 27.5127 2.19109 27.2188 1.82854 27.2188C1.46599 27.2188 1.17209 27.5127 1.17209 27.8752C1.17209 28.2378 1.46599 28.5317 1.82854 28.5317Z" fill="#FF834F"/>
<path d="M1.82861 26.1684C2.1572 26.1684 2.42357 25.9021 2.42357 25.5735C2.42357 25.2449 2.1572 24.9785 1.82861 24.9785C1.50002 24.9785 1.23364 25.2449 1.23364 25.5735C1.23364 25.9021 1.50002 26.1684 1.82861 26.1684Z" fill="#FF834F"/>
<path d="M1.8284 23.8069C2.12349 23.8069 2.36271 23.5677 2.36271 23.2726C2.36271 22.9775 2.12349 22.7383 1.8284 22.7383C1.53331 22.7383 1.2941 22.9775 1.2941 23.2726C1.2941 23.5677 1.53331 23.8069 1.8284 23.8069Z" fill="#FF834F"/>
<path d="M1.82847 21.4437C2.08959 21.4437 2.30128 21.232 2.30128 20.9709C2.30128 20.7097 2.08959 20.498 1.82847 20.498C1.56734 20.498 1.35565 20.7097 1.35565 20.9709C1.35565 21.232 1.56734 21.4437 1.82847 21.4437Z" fill="#FF834F"/>
<path d="M1.82823 19.0821C2.05586 19.0821 2.24038 18.8976 2.24038 18.67C2.24038 18.4423 2.05586 18.2578 1.82823 18.2578C1.6006 18.2578 1.41608 18.4423 1.41608 18.67C1.41608 18.8976 1.6006 19.0821 1.82823 19.0821Z" fill="#FF834F"/>
<path d="M1.82796 16.7206C2.02209 16.7206 2.17946 16.5632 2.17946 16.3691C2.17946 16.1749 2.02209 16.0176 1.82796 16.0176C1.63384 16.0176 1.47647 16.1749 1.47647 16.3691C1.47647 16.5632 1.63384 16.7206 1.82796 16.7206Z" fill="#FF834F"/>
<path d="M1.82809 14.3573C1.98825 14.3573 2.11809 14.2275 2.11809 14.0673C2.11809 13.9072 1.98825 13.7773 1.82809 13.7773C1.66792 13.7773 1.53809 13.9072 1.53809 14.0673C1.53809 14.2275 1.66792 14.3573 1.82809 14.3573Z" fill="#FF834F"/>
<path d="M1.82782 11.9958C1.95449 11.9958 2.05717 11.8931 2.05717 11.7665C2.05717 11.6398 1.95449 11.5371 1.82782 11.5371C1.70116 11.5371 1.59848 11.6398 1.59848 11.7665C1.59848 11.8931 1.70116 11.9958 1.82782 11.9958Z" fill="#FF834F"/>
<path d="M1.82795 9.63258C1.92065 9.63258 1.9958 9.55743 1.9958 9.46473C1.9958 9.37203 1.92065 9.29688 1.82795 9.29688C1.73525 9.29688 1.6601 9.37203 1.6601 9.46473C1.6601 9.55743 1.73525 9.63258 1.82795 9.63258Z" fill="#FF834F"/>
<path d="M1.82765 7.27103C1.88685 7.27103 1.93485 7.22303 1.93485 7.16383C1.93485 7.10463 1.88685 7.05664 1.82765 7.05664C1.76845 7.05664 1.72046 7.10463 1.72046 7.16383C1.72046 7.22303 1.76845 7.27103 1.82765 7.27103Z" fill="#FF834F"/>
<path d="M2.97122 29.7074C3.34616 29.7074 3.65011 29.4034 3.65011 29.0285C3.65011 28.6536 3.34616 28.3496 2.97122 28.3496C2.59628 28.3496 2.29233 28.6536 2.29233 29.0285C2.29233 29.4034 2.59628 29.7074 2.97122 29.7074Z" fill="#FF834F"/>
<path d="M2.97017 27.3472C3.31253 27.3472 3.59006 27.0697 3.59006 26.7273C3.59006 26.385 3.31253 26.1074 2.97017 26.1074C2.62782 26.1074 2.35028 26.385 2.35028 26.7273C2.35028 27.0697 2.62782 27.3472 2.97017 27.3472Z" fill="#FF834F"/>
<path d="M2.97032 24.989C3.28009 24.989 3.53121 24.7379 3.53121 24.4281C3.53121 24.1183 3.28009 23.8672 2.97032 23.8672C2.66054 23.8672 2.40942 24.1183 2.40942 24.4281C2.40942 24.7379 2.66054 24.989 2.97032 24.989Z" fill="#FF834F"/>
<path d="M2.96924 22.6268C3.24643 22.6268 3.47114 22.4021 3.47114 22.1249C3.47114 21.8478 3.24643 21.623 2.96924 21.623C2.69205 21.623 2.46735 21.8478 2.46735 22.1249C2.46735 22.4021 2.69205 22.6268 2.96924 22.6268Z" fill="#FF834F"/>
<path d="M2.96897 20.2683C3.21403 20.2683 3.4127 20.0697 3.4127 19.8246C3.4127 19.5795 3.21403 19.3809 2.96897 19.3809C2.7239 19.3809 2.52524 19.5795 2.52524 19.8246C2.52524 20.0697 2.7239 20.2683 2.96897 20.2683Z" fill="#FF834F"/>
<path d="M2.96673 17.9081C3.17921 17.9081 3.35146 17.7359 3.35146 17.5234C3.35146 17.3109 3.17921 17.1387 2.96673 17.1387C2.75425 17.1387 2.582 17.3109 2.582 17.5234C2.582 17.7359 2.75425 17.9081 2.96673 17.9081Z" fill="#FF834F"/>
<path d="M2.96688 15.546C3.14678 15.546 3.29261 15.4002 3.29261 15.2203C3.29261 15.0404 3.14678 14.8945 2.96688 14.8945C2.78698 14.8945 2.64114 15.0404 2.64114 15.2203C2.64114 15.4002 2.78698 15.546 2.96688 15.546Z" fill="#FF834F"/>
<path d="M2.96583 13.1878C3.11315 13.1878 3.23257 13.0683 3.23257 12.921C3.23257 12.7737 3.11315 12.6543 2.96583 12.6543C2.81852 12.6543 2.6991 12.7737 2.6991 12.921C2.6991 13.0683 2.81852 13.1878 2.96583 13.1878Z" fill="#FF834F"/>
<path d="M2.9647 10.8276C3.07943 10.8276 3.17244 10.7346 3.17244 10.6198C3.17244 10.5051 3.07943 10.4121 2.9647 10.4121C2.84997 10.4121 2.75696 10.5051 2.75696 10.6198C2.75696 10.7346 2.84997 10.8276 2.9647 10.8276Z" fill="#FF834F"/>
<path d="M2.96323 8.46711C3.04584 8.46711 3.1128 8.40015 3.1128 8.31754C3.1128 8.23493 3.04584 8.16797 2.96323 8.16797C2.88063 8.16797 2.81366 8.23493 2.81366 8.31754C2.81366 8.40015 2.88063 8.46711 2.96323 8.46711Z" fill="#FF834F"/>
<path d="M2.96338 6.10888C3.0134 6.10888 3.05395 6.06833 3.05395 6.01831C3.05395 5.96829 3.0134 5.92773 2.96338 5.92773C2.91335 5.92773 2.8728 5.96829 2.8728 6.01831C2.8728 6.06833 2.91335 6.10888 2.96338 6.10888Z" fill="#FF834F"/>
<path d="M4.12087 28.5317C4.48342 28.5317 4.77733 28.2378 4.77733 27.8752C4.77733 27.5127 4.48342 27.2188 4.12087 27.2188C3.75832 27.2188 3.46442 27.5127 3.46442 27.8752C3.46442 28.2378 3.75832 28.5317 4.12087 28.5317Z" fill="#FF834F"/>
<path d="M4.12096 26.1684C4.44955 26.1684 4.71593 25.9021 4.71593 25.5735C4.71593 25.2449 4.44955 24.9785 4.12096 24.9785C3.79238 24.9785 3.526 25.2449 3.526 25.5735C3.526 25.9021 3.79238 26.1684 4.12096 26.1684Z" fill="#FF834F"/>
<path d="M4.12073 23.8069C4.41582 23.8069 4.65503 23.5677 4.65503 23.2726C4.65503 22.9775 4.41582 22.7383 4.12073 22.7383C3.82564 22.7383 3.58643 22.9775 3.58643 23.2726C3.58643 23.5677 3.82564 23.8069 4.12073 23.8069Z" fill="#FF834F"/>
<path d="M4.12085 21.4437C4.38198 21.4437 4.59367 21.232 4.59367 20.9709C4.59367 20.7097 4.38198 20.498 4.12085 20.498C3.85973 20.498 3.64804 20.7097 3.64804 20.9709C3.64804 21.232 3.85973 21.4437 4.12085 21.4437Z" fill="#FF834F"/>
<path d="M4.12059 19.0821C4.34821 19.0821 4.53274 18.8976 4.53274 18.67C4.53274 18.4423 4.34821 18.2578 4.12059 18.2578C3.89296 18.2578 3.70844 18.4423 3.70844 18.67C3.70844 18.8976 3.89296 19.0821 4.12059 19.0821Z" fill="#FF834F"/>
<path d="M4.12029 16.7206C4.31442 16.7206 4.47179 16.5632 4.47179 16.3691C4.47179 16.1749 4.31442 16.0176 4.12029 16.0176C3.92617 16.0176 3.7688 16.1749 3.7688 16.3691C3.7688 16.5632 3.92617 16.7206 4.12029 16.7206Z" fill="#FF834F"/>
<path d="M4.12042 14.3573C4.28058 14.3573 4.41042 14.2275 4.41042 14.0673C4.41042 13.9072 4.28058 13.7773 4.12042 13.7773C3.96025 13.7773 3.83041 13.9072 3.83041 14.0673C3.83041 14.2275 3.96025 14.3573 4.12042 14.3573Z" fill="#FF834F"/>
<path d="M4.12015 11.9958C4.24681 11.9958 4.34949 11.8931 4.34949 11.7665C4.34949 11.6398 4.24681 11.5371 4.12015 11.5371C3.99349 11.5371 3.89081 11.6398 3.89081 11.7665C3.89081 11.8931 3.99349 11.9958 4.12015 11.9958Z" fill="#FF834F"/>
<path d="M4.12028 9.63258C4.21298 9.63258 4.28813 9.55743 4.28813 9.46473C4.28813 9.37203 4.21298 9.29688 4.12028 9.29688C4.02757 9.29688 3.95242 9.37203 3.95242 9.46473C3.95242 9.55743 4.02757 9.63258 4.12028 9.63258Z" fill="#FF834F"/>
<path d="M4.12001 7.27103C4.17921 7.27103 4.2272 7.22303 4.2272 7.16383C4.2272 7.10463 4.17921 7.05664 4.12001 7.05664C4.06081 7.05664 4.01282 7.10463 4.01282 7.16383C4.01282 7.22303 4.06081 7.27103 4.12001 7.27103Z" fill="#FF834F"/>
<path d="M5.26358 29.7074C5.63852 29.7074 5.94247 29.4034 5.94247 29.0285C5.94247 28.6536 5.63852 28.3496 5.26358 28.3496C4.88864 28.3496 4.58469 28.6536 4.58469 29.0285C4.58469 29.4034 4.88864 29.7074 5.26358 29.7074Z" fill="#FF834F"/>
<path d="M5.2625 27.3472C5.60486 27.3472 5.88239 27.0697 5.88239 26.7273C5.88239 26.385 5.60486 26.1074 5.2625 26.1074C4.92014 26.1074 4.64261 26.385 4.64261 26.7273C4.64261 27.0697 4.92014 27.3472 5.2625 27.3472Z" fill="#FF834F"/>
<path d="M5.26139 24.989C5.57117 24.989 5.82229 24.7379 5.82229 24.4281C5.82229 24.1183 5.57117 23.8672 5.26139 23.8672C4.95162 23.8672 4.7005 24.1183 4.7005 24.4281C4.7005 24.7379 4.95162 24.989 5.26139 24.989Z" fill="#FF834F"/>
<path d="M5.2616 22.6268C5.53879 22.6268 5.7635 22.4021 5.7635 22.1249C5.7635 21.8478 5.53879 21.623 5.2616 21.623C4.98441 21.623 4.7597 21.8478 4.7597 22.1249C4.7597 22.4021 4.98441 22.6268 5.2616 22.6268Z" fill="#FF834F"/>
<path d="M5.26014 20.2683C5.5052 20.2683 5.70387 20.0697 5.70387 19.8246C5.70387 19.5795 5.5052 19.3809 5.26014 19.3809C5.01507 19.3809 4.81641 19.5795 4.81641 19.8246C4.81641 20.0697 5.01507 20.2683 5.26014 20.2683Z" fill="#FF834F"/>
<path d="M5.25909 17.9081C5.47157 17.9081 5.64382 17.7359 5.64382 17.5234C5.64382 17.3109 5.47157 17.1387 5.25909 17.1387C5.04661 17.1387 4.87436 17.3109 4.87436 17.5234C4.87436 17.7359 5.04661 17.9081 5.25909 17.9081Z" fill="#FF834F"/>
<path d="M5.25795 15.546C5.43785 15.546 5.58369 15.4002 5.58369 15.2203C5.58369 15.0404 5.43785 14.8945 5.25795 14.8945C5.07806 14.8945 4.93222 15.0404 4.93222 15.2203C4.93222 15.4002 5.07806 15.546 5.25795 15.546Z" fill="#FF834F"/>
<path d="M5.25816 13.1878C5.40548 13.1878 5.5249 13.0683 5.5249 12.921C5.5249 12.7737 5.40548 12.6543 5.25816 12.6543C5.11085 12.6543 4.99142 12.7737 4.99142 12.921C4.99142 13.0683 5.11085 13.1878 5.25816 13.1878Z" fill="#FF834F"/>
<path d="M5.2558 10.8276C5.37053 10.8276 5.46354 10.7346 5.46354 10.6198C5.46354 10.5051 5.37053 10.4121 5.2558 10.4121C5.14107 10.4121 5.04807 10.5051 5.04807 10.6198C5.04807 10.7346 5.14107 10.8276 5.2558 10.8276Z" fill="#FF834F"/>
<path d="M5.25559 8.46711C5.3382 8.46711 5.40516 8.40015 5.40516 8.31754C5.40516 8.23493 5.3382 8.16797 5.25559 8.16797C5.17298 8.16797 5.10602 8.23493 5.10602 8.31754C5.10602 8.40015 5.17298 8.46711 5.25559 8.46711Z" fill="#FF834F"/>
<path d="M5.25455 6.10888C5.30457 6.10888 5.34512 6.06833 5.34512 6.01831C5.34512 5.96829 5.30457 5.92773 5.25455 5.92773C5.20452 5.92773 5.16397 5.96829 5.16397 6.01831C5.16397 6.06833 5.20452 6.10888 5.25455 6.10888Z" fill="#FF834F"/>
<path d="M6.41323 28.5317C6.77578 28.5317 7.06968 28.2378 7.06968 27.8752C7.06968 27.5127 6.77578 27.2188 6.41323 27.2188C6.05068 27.2188 5.75677 27.5127 5.75677 27.8752C5.75677 28.2378 6.05068 28.5317 6.41323 28.5317Z" fill="#FF834F"/>
<path d="M6.4121 26.1684C6.74069 26.1684 7.00707 25.9021 7.00707 25.5735C7.00707 25.2449 6.74069 24.9785 6.4121 24.9785C6.08351 24.9785 5.81714 25.2449 5.81714 25.5735C5.81714 25.9021 6.08351 26.1684 6.4121 26.1684Z" fill="#FF834F"/>
<path d="M6.41306 23.8069C6.70815 23.8069 6.94736 23.5677 6.94736 23.2726C6.94736 22.9775 6.70815 22.7383 6.41306 22.7383C6.11797 22.7383 5.87875 22.9775 5.87875 23.2726C5.87875 23.5677 6.11797 23.8069 6.41306 23.8069Z" fill="#FF834F"/>
<path d="M6.41202 21.4437C6.67315 21.4437 6.88484 21.232 6.88484 20.9709C6.88484 20.7097 6.67315 20.498 6.41202 20.498C6.15089 20.498 5.93921 20.7097 5.93921 20.9709C5.93921 21.232 6.15089 21.4437 6.41202 21.4437Z" fill="#FF834F"/>
<path d="M6.41292 19.0821C6.64054 19.0821 6.82507 18.8976 6.82507 18.67C6.82507 18.4423 6.64054 18.2578 6.41292 18.2578C6.18529 18.2578 6.00076 18.4423 6.00076 18.67C6.00076 18.8976 6.18529 19.0821 6.41292 19.0821Z" fill="#FF834F"/>
<path d="M6.41268 16.7206C6.60681 16.7206 6.76418 16.5632 6.76418 16.3691C6.76418 16.1749 6.60681 16.0176 6.41268 16.0176C6.21856 16.0176 6.06119 16.1749 6.06119 16.3691C6.06119 16.5632 6.21856 16.7206 6.41268 16.7206Z" fill="#FF834F"/>
<path d="M6.41278 14.3573C6.57294 14.3573 6.70278 14.2275 6.70278 14.0673C6.70278 13.9072 6.57294 13.7773 6.41278 13.7773C6.25261 13.7773 6.12277 13.9072 6.12277 14.0673C6.12277 14.2275 6.25261 14.3573 6.41278 14.3573Z" fill="#FF834F"/>
<path d="M6.41254 11.9958C6.5392 11.9958 6.64188 11.8931 6.64188 11.7665C6.64188 11.6398 6.5392 11.5371 6.41254 11.5371C6.28588 11.5371 6.1832 11.6398 6.1832 11.7665C6.1832 11.8931 6.28588 11.9958 6.41254 11.9958Z" fill="#FF834F"/>
<path d="M6.4126 9.63258C6.50531 9.63258 6.58046 9.55743 6.58046 9.46473C6.58046 9.37203 6.50531 9.29688 6.4126 9.29688C6.3199 9.29688 6.24475 9.37203 6.24475 9.46473C6.24475 9.55743 6.3199 9.63258 6.4126 9.63258Z" fill="#FF834F"/>
<path d="M6.4124 7.27103C6.4716 7.27103 6.51959 7.22303 6.51959 7.16383C6.51959 7.10463 6.4716 7.05664 6.4124 7.05664C6.3532 7.05664 6.30521 7.10463 6.30521 7.16383C6.30521 7.22303 6.3532 7.27103 6.4124 7.27103Z" fill="#FF834F"/>
<path d="M7.5559 29.7074C7.93084 29.7074 8.23479 29.4034 8.23479 29.0285C8.23479 28.6536 7.93084 28.3496 7.5559 28.3496C7.18096 28.3496 6.87701 28.6536 6.87701 29.0285C6.87701 29.4034 7.18096 29.7074 7.5559 29.7074Z" fill="#FF834F"/>
<path d="M7.55486 27.3472C7.89722 27.3472 8.17475 27.0697 8.17475 26.7273C8.17475 26.385 7.89722 26.1074 7.55486 26.1074C7.2125 26.1074 6.93497 26.385 6.93497 26.7273C6.93497 27.0697 7.2125 27.3472 7.55486 27.3472Z" fill="#FF834F"/>
<path d="M7.55375 24.989C7.86353 24.989 8.11465 24.7379 8.11465 24.4281C8.11465 24.1183 7.86353 23.8672 7.55375 23.8672C7.24398 23.8672 6.99286 24.1183 6.99286 24.4281C6.99286 24.7379 7.24398 24.989 7.55375 24.989Z" fill="#FF834F"/>
<path d="M7.55393 22.6268C7.83112 22.6268 8.05583 22.4021 8.05583 22.1249C8.05583 21.8478 7.83112 21.623 7.55393 21.623C7.27674 21.623 7.05203 21.8478 7.05203 22.1249C7.05203 22.4021 7.27674 22.6268 7.55393 22.6268Z" fill="#FF834F"/>
<path d="M7.55246 20.2683C7.79753 20.2683 7.99619 20.0697 7.99619 19.8246C7.99619 19.5795 7.79753 19.3809 7.55246 19.3809C7.3074 19.3809 7.10873 19.5795 7.10873 19.8246C7.10873 20.0697 7.3074 20.2683 7.55246 20.2683Z" fill="#FF834F"/>
<path d="M7.55142 17.9081C7.7639 17.9081 7.93615 17.7359 7.93615 17.5234C7.93615 17.3109 7.7639 17.1387 7.55142 17.1387C7.33894 17.1387 7.16669 17.3109 7.16669 17.5234C7.16669 17.7359 7.33894 17.9081 7.55142 17.9081Z" fill="#FF834F"/>
<path d="M7.55153 15.546C7.73143 15.546 7.87727 15.4002 7.87727 15.2203C7.87727 15.0404 7.73143 14.8945 7.55153 14.8945C7.37164 14.8945 7.2258 15.0404 7.2258 15.2203C7.2258 15.4002 7.37164 15.546 7.55153 15.546Z" fill="#FF834F"/>
<path d="M7.55049 13.1878C7.6978 13.1878 7.81723 13.0683 7.81723 12.921C7.81723 12.7737 7.6978 12.6543 7.55049 12.6543C7.40317 12.6543 7.28375 12.7737 7.28375 12.921C7.28375 13.0683 7.40317 13.1878 7.55049 13.1878Z" fill="#FF834F"/>
<path d="M7.54938 10.8276C7.66411 10.8276 7.75712 10.7346 7.75712 10.6198C7.75712 10.5051 7.66411 10.4121 7.54938 10.4121C7.43465 10.4121 7.34164 10.5051 7.34164 10.6198C7.34164 10.7346 7.43465 10.8276 7.54938 10.8276Z" fill="#FF834F"/>
<path d="M7.54792 8.46711C7.63052 8.46711 7.69749 8.40015 7.69749 8.31754C7.69749 8.23493 7.63052 8.16797 7.54792 8.16797C7.46531 8.16797 7.39835 8.23493 7.39835 8.31754C7.39835 8.40015 7.46531 8.46711 7.54792 8.46711Z" fill="#FF834F"/>
<path d="M7.54806 6.10888C7.59809 6.10888 7.63864 6.06833 7.63864 6.01831C7.63864 5.96829 7.59809 5.92773 7.54806 5.92773C7.49804 5.92773 7.45749 5.96829 7.45749 6.01831C7.45749 6.06833 7.49804 6.10888 7.54806 6.10888Z" fill="#FF834F"/>
<path d="M8.70556 28.5317C9.06811 28.5317 9.36201 28.2378 9.36201 27.8752C9.36201 27.5127 9.06811 27.2188 8.70556 27.2188C8.34301 27.2188 8.0491 27.5127 8.0491 27.8752C8.0491 28.2378 8.34301 28.5317 8.70556 28.5317Z" fill="#FF834F"/>
<path d="M8.70568 26.1684C9.03427 26.1684 9.30064 25.9021 9.30064 25.5735C9.30064 25.2449 9.03427 24.9785 8.70568 24.9785C8.37709 24.9785 8.11072 25.2449 8.11072 25.5735C8.11072 25.9021 8.37709 26.1684 8.70568 26.1684Z" fill="#FF834F"/>
<path d="M8.70542 23.8069C9.0005 23.8069 9.23972 23.5677 9.23972 23.2726C9.23972 22.9775 9.0005 22.7383 8.70542 22.7383C8.41033 22.7383 8.17111 22.9775 8.17111 23.2726C8.17111 23.5677 8.41033 23.8069 8.70542 23.8069Z" fill="#FF834F"/>
<path d="M8.70554 21.4437C8.96667 21.4437 9.17835 21.232 9.17835 20.9709C9.17835 20.7097 8.96667 20.498 8.70554 20.498C8.44441 20.498 8.23273 20.7097 8.23273 20.9709C8.23273 21.232 8.44441 21.4437 8.70554 21.4437Z" fill="#FF834F"/>
<path d="M8.70524 19.0821C8.93287 19.0821 9.1174 18.8976 9.1174 18.67C9.1174 18.4423 8.93287 18.2578 8.70524 18.2578C8.47762 18.2578 8.29309 18.4423 8.29309 18.67C8.29309 18.8976 8.47762 19.0821 8.70524 19.0821Z" fill="#FF834F"/>
<path d="M8.70504 16.7206C8.89916 16.7206 9.05653 16.5632 9.05653 16.3691C9.05653 16.1749 8.89916 16.0176 8.70504 16.0176C8.51092 16.0176 8.35355 16.1749 8.35355 16.3691C8.35355 16.5632 8.51092 16.7206 8.70504 16.7206Z" fill="#FF834F"/>
<path d="M8.7051 14.3573C8.86527 14.3573 8.99511 14.2275 8.99511 14.0673C8.99511 13.9072 8.86527 13.7773 8.7051 13.7773C8.54494 13.7773 8.4151 13.9072 8.4151 14.0673C8.4151 14.2275 8.54494 14.3573 8.7051 14.3573Z" fill="#FF834F"/>
<path d="M8.70487 11.9958C8.83153 11.9958 8.93421 11.8931 8.93421 11.7665C8.93421 11.6398 8.83153 11.5371 8.70487 11.5371C8.57821 11.5371 8.47552 11.6398 8.47552 11.7665C8.47552 11.8931 8.57821 11.9958 8.70487 11.9958Z" fill="#FF834F"/>
<path d="M8.70496 9.63258C8.79767 9.63258 8.87282 9.55743 8.87282 9.46473C8.87282 9.37203 8.79767 9.29688 8.70496 9.29688C8.61226 9.29688 8.53711 9.37203 8.53711 9.46473C8.53711 9.55743 8.61226 9.63258 8.70496 9.63258Z" fill="#FF834F"/>
<path d="M8.70473 7.27103C8.76393 7.27103 8.81192 7.22303 8.81192 7.16383C8.81192 7.10463 8.76393 7.05664 8.70473 7.05664C8.64553 7.05664 8.59753 7.10463 8.59753 7.16383C8.59753 7.22303 8.64553 7.27103 8.70473 7.27103Z" fill="#FF834F"/>
<path d="M9.84829 29.7074C10.2232 29.7074 10.5272 29.4034 10.5272 29.0285C10.5272 28.6536 10.2232 28.3496 9.84829 28.3496C9.47335 28.3496 9.1694 28.6536 9.1694 29.0285C9.1694 29.4034 9.47335 29.7074 9.84829 29.7074Z" fill="#FF834F"/>
<path d="M9.84719 27.3472C10.1895 27.3472 10.4671 27.0697 10.4671 26.7273C10.4671 26.385 10.1895 26.1074 9.84719 26.1074C9.50483 26.1074 9.22729 26.385 9.22729 26.7273C9.22729 27.0697 9.50483 27.3472 9.84719 27.3472Z" fill="#FF834F"/>
<path d="M9.84739 24.989C10.1572 24.989 10.4083 24.7379 10.4083 24.4281C10.4083 24.1183 10.1572 23.8672 9.84739 23.8672C9.53762 23.8672 9.2865 24.1183 9.2865 24.4281C9.2865 24.7379 9.53762 24.989 9.84739 24.989Z" fill="#FF834F"/>
<path d="M9.84626 22.6268C10.1234 22.6268 10.3482 22.4021 10.3482 22.1249C10.3482 21.8478 10.1234 21.623 9.84626 21.623C9.56907 21.623 9.34436 21.8478 9.34436 22.1249C9.34436 22.4021 9.56907 22.6268 9.84626 22.6268Z" fill="#FF834F"/>
<path d="M9.84479 20.2683C10.0899 20.2683 10.2885 20.0697 10.2885 19.8246C10.2885 19.5795 10.0899 19.3809 9.84479 19.3809C9.59973 19.3809 9.40106 19.5795 9.40106 19.8246C9.40106 20.0697 9.59973 20.2683 9.84479 20.2683Z" fill="#FF834F"/>
<path d="M9.845 17.9081C10.0575 17.9081 10.2297 17.7359 10.2297 17.5234C10.2297 17.3109 10.0575 17.1387 9.845 17.1387C9.63252 17.1387 9.46027 17.3109 9.46027 17.5234C9.46027 17.7359 9.63252 17.9081 9.845 17.9081Z" fill="#FF834F"/>
<path d="M9.84389 15.546C10.0238 15.546 10.1696 15.4002 10.1696 15.2203C10.1696 15.0404 10.0238 14.8945 9.84389 14.8945C9.66399 14.8945 9.51816 15.0404 9.51816 15.2203C9.51816 15.4002 9.66399 15.546 9.84389 15.546Z" fill="#FF834F"/>
<path d="M9.84285 13.1878C9.99016 13.1878 10.1096 13.0683 10.1096 12.921C10.1096 12.7737 9.99016 12.6543 9.84285 12.6543C9.69553 12.6543 9.57611 12.7737 9.57611 12.921C9.57611 13.0683 9.69553 13.1878 9.84285 13.1878Z" fill="#FF834F"/>
<path d="M9.84171 10.8276C9.95644 10.8276 10.0494 10.7346 10.0494 10.6198C10.0494 10.5051 9.95644 10.4121 9.84171 10.4121C9.72698 10.4121 9.63397 10.5051 9.63397 10.6198C9.63397 10.7346 9.72698 10.8276 9.84171 10.8276Z" fill="#FF834F"/>
<path d="M9.8415 8.46711C9.9241 8.46711 9.99107 8.40015 9.99107 8.31754C9.99107 8.23493 9.9241 8.16797 9.8415 8.16797C9.75889 8.16797 9.69193 8.23493 9.69193 8.31754C9.69193 8.40015 9.75889 8.46711 9.8415 8.46711Z" fill="#FF834F"/>
<path d="M9.84039 6.10888C9.89041 6.10888 9.93097 6.06833 9.93097 6.01831C9.93097 5.96829 9.89041 5.92773 9.84039 5.92773C9.79037 5.92773 9.74982 5.96829 9.74982 6.01831C9.74982 6.06833 9.79037 6.10888 9.84039 6.10888Z" fill="#FF834F"/>
<path d="M10.9979 28.5317C11.3604 28.5317 11.6543 28.2378 11.6543 27.8752C11.6543 27.5127 11.3604 27.2188 10.9979 27.2188C10.6353 27.2188 10.3414 27.5127 10.3414 27.8752C10.3414 28.2378 10.6353 28.5317 10.9979 28.5317Z" fill="#FF834F"/>
<path d="M10.998 26.1684C11.3266 26.1684 11.593 25.9021 11.593 25.5735C11.593 25.2449 11.3266 24.9785 10.998 24.9785C10.6694 24.9785 10.403 25.2449 10.403 25.5735C10.403 25.9021 10.6694 26.1684 10.998 26.1684Z" fill="#FF834F"/>
<path d="M10.9977 23.8069C11.2928 23.8069 11.532 23.5677 11.532 23.2726C11.532 22.9775 11.2928 22.7383 10.9977 22.7383C10.7027 22.7383 10.4634 22.9775 10.4634 23.2726C10.4634 23.5677 10.7027 23.8069 10.9977 23.8069Z" fill="#FF834F"/>
<path d="M10.9979 21.4437C11.259 21.4437 11.4707 21.232 11.4707 20.9709C11.4707 20.7097 11.259 20.498 10.9979 20.498C10.7367 20.498 10.5251 20.7097 10.5251 20.9709C10.5251 21.232 10.7367 21.4437 10.9979 21.4437Z" fill="#FF834F"/>
<path d="M10.9976 19.0821C11.2252 19.0821 11.4098 18.8976 11.4098 18.67C11.4098 18.4423 11.2252 18.2578 10.9976 18.2578C10.77 18.2578 10.5854 18.4423 10.5854 18.67C10.5854 18.8976 10.77 19.0821 10.9976 19.0821Z" fill="#FF834F"/>
<path d="M10.9974 16.7206C11.1915 16.7206 11.3489 16.5632 11.3489 16.3691C11.3489 16.1749 11.1915 16.0176 10.9974 16.0176C10.8032 16.0176 10.6459 16.1749 10.6459 16.3691C10.6459 16.5632 10.8032 16.7206 10.9974 16.7206Z" fill="#FF834F"/>
<path d="M10.9974 14.3573C11.1576 14.3573 11.2874 14.2275 11.2874 14.0673C11.2874 13.9072 11.1576 13.7773 10.9974 13.7773C10.8373 13.7773 10.7074 13.9072 10.7074 14.0673C10.7074 14.2275 10.8373 14.3573 10.9974 14.3573Z" fill="#FF834F"/>
<path d="M10.9985 11.9958C11.1251 11.9958 11.2278 11.8931 11.2278 11.7665C11.2278 11.6398 11.1251 11.5371 10.9985 11.5371C10.8718 11.5371 10.7691 11.6398 10.7691 11.7665C10.7691 11.8931 10.8718 11.9958 10.9985 11.9958Z" fill="#FF834F"/>
<path d="M10.9973 9.63258C11.09 9.63258 11.1651 9.55743 11.1651 9.46473C11.1651 9.37203 11.09 9.29688 10.9973 9.29688C10.9046 9.29688 10.8294 9.37203 10.8294 9.46473C10.8294 9.55743 10.9046 9.63258 10.9973 9.63258Z" fill="#FF834F"/>
<path d="M10.9983 7.27103C11.0575 7.27103 11.1055 7.22303 11.1055 7.16383C11.1055 7.10463 11.0575 7.05664 10.9983 7.05664C10.9391 7.05664 10.8911 7.10463 10.8911 7.16383C10.8911 7.22303 10.9391 7.27103 10.9983 7.27103Z" fill="#FF834F"/>
<path d="M12.1406 29.7074C12.5156 29.7074 12.8195 29.4034 12.8195 29.0285C12.8195 28.6536 12.5156 28.3496 12.1406 28.3496C11.7657 28.3496 11.4617 28.6536 11.4617 29.0285C11.4617 29.4034 11.7657 29.7074 12.1406 29.7074Z" fill="#FF834F"/>
<path d="M12.1408 27.3472C12.4831 27.3472 12.7607 27.0697 12.7607 26.7273C12.7607 26.385 12.4831 26.1074 12.1408 26.1074C11.7984 26.1074 11.5209 26.385 11.5209 26.7273C11.5209 27.0697 11.7984 27.3472 12.1408 27.3472Z" fill="#FF834F"/>
<path d="M12.1397 24.989C12.4495 24.989 12.7006 24.7379 12.7006 24.4281C12.7006 24.1183 12.4495 23.8672 12.1397 23.8672C11.8299 23.8672 11.5788 24.1183 11.5788 24.4281C11.5788 24.7379 11.8299 24.989 12.1397 24.989Z" fill="#FF834F"/>
<path d="M12.1386 22.6268C12.4158 22.6268 12.6405 22.4021 12.6405 22.1249C12.6405 21.8478 12.4158 21.623 12.1386 21.623C11.8614 21.623 11.6367 21.8478 11.6367 22.1249C11.6367 22.4021 11.8614 22.6268 12.1386 22.6268Z" fill="#FF834F"/>
<path d="M12.1372 20.2683C12.3823 20.2683 12.5809 20.0697 12.5809 19.8246C12.5809 19.5795 12.3823 19.3809 12.1372 19.3809C11.8921 19.3809 11.6935 19.5795 11.6935 19.8246C11.6935 20.0697 11.8921 20.2683 12.1372 20.2683Z" fill="#FF834F"/>
<path d="M12.1373 17.9081C12.3498 17.9081 12.5221 17.7359 12.5221 17.5234C12.5221 17.3109 12.3498 17.1387 12.1373 17.1387C11.9248 17.1387 11.7526 17.3109 11.7526 17.5234C11.7526 17.7359 11.9248 17.9081 12.1373 17.9081Z" fill="#FF834F"/>
<path d="M12.1363 15.546C12.3162 15.546 12.462 15.4002 12.462 15.2203C12.462 15.0404 12.3162 14.8945 12.1363 14.8945C11.9564 14.8945 11.8105 15.0404 11.8105 15.2203C11.8105 15.4002 11.9564 15.546 12.1363 15.546Z" fill="#FF834F"/>
<path d="M12.1352 13.1878C12.2825 13.1878 12.4019 13.0683 12.4019 12.921C12.4019 12.7737 12.2825 12.6543 12.1352 12.6543C11.9879 12.6543 11.8684 12.7737 11.8684 12.921C11.8684 13.0683 11.9879 13.1878 12.1352 13.1878Z" fill="#FF834F"/>
<path d="M12.1341 10.8276C12.2489 10.8276 12.3419 10.7346 12.3419 10.6198C12.3419 10.5051 12.2489 10.4121 12.1341 10.4121C12.0194 10.4121 11.9264 10.5051 11.9264 10.6198C11.9264 10.7346 12.0194 10.8276 12.1341 10.8276Z" fill="#FF834F"/>
<path d="M12.1338 8.46711C12.2164 8.46711 12.2834 8.40015 12.2834 8.31754C12.2834 8.23493 12.2164 8.16797 12.1338 8.16797C12.0512 8.16797 11.9843 8.23493 11.9843 8.31754C11.9843 8.40015 12.0512 8.46711 12.1338 8.46711Z" fill="#FF834F"/>
<path d="M12.1328 6.10888C12.1828 6.10888 12.2234 6.06833 12.2234 6.01831C12.2234 5.96829 12.1828 5.92773 12.1328 5.92773C12.0828 5.92773 12.0422 5.96829 12.0422 6.01831C12.0422 6.06833 12.0828 6.10888 12.1328 6.10888Z" fill="#FF834F"/>
<path d="M13.2902 28.5317C13.6528 28.5317 13.9467 28.2378 13.9467 27.8752C13.9467 27.5127 13.6528 27.2188 13.2902 27.2188C12.9277 27.2188 12.6338 27.5127 12.6338 27.8752C12.6338 28.2378 12.9277 28.5317 13.2902 28.5317Z" fill="#FF834F"/>
<path d="M13.2904 26.1684C13.619 26.1684 13.8853 25.9021 13.8853 25.5735C13.8853 25.2449 13.619 24.9785 13.2904 24.9785C12.9618 24.9785 12.6954 25.2449 12.6954 25.5735C12.6954 25.9021 12.9618 26.1684 13.2904 26.1684Z" fill="#FF834F"/>
<path d="M13.2901 23.8069C13.5852 23.8069 13.8244 23.5677 13.8244 23.2726C13.8244 22.9775 13.5852 22.7383 13.2901 22.7383C12.995 22.7383 12.7558 22.9775 12.7558 23.2726C12.7558 23.5677 12.995 23.8069 13.2901 23.8069Z" fill="#FF834F"/>
<path d="M13.2902 21.4437C13.5513 21.4437 13.763 21.232 13.763 20.9709C13.763 20.7097 13.5513 20.498 13.2902 20.498C13.0291 20.498 12.8174 20.7097 12.8174 20.9709C12.8174 21.232 13.0291 21.4437 13.2902 21.4437Z" fill="#FF834F"/>
<path d="M13.2899 19.0821C13.5176 19.0821 13.7021 18.8976 13.7021 18.67C13.7021 18.4423 13.5176 18.2578 13.2899 18.2578C13.0623 18.2578 12.8778 18.4423 12.8778 18.67C12.8778 18.8976 13.0623 19.0821 13.2899 19.0821Z" fill="#FF834F"/>
<path d="M13.2909 16.7206C13.4851 16.7206 13.6424 16.5632 13.6424 16.3691C13.6424 16.1749 13.4851 16.0176 13.2909 16.0176C13.0968 16.0176 12.9395 16.1749 12.9395 16.3691C12.9395 16.5632 13.0968 16.7206 13.2909 16.7206Z" fill="#FF834F"/>
<path d="M13.2911 14.3573C13.4512 14.3573 13.5811 14.2275 13.5811 14.0673C13.5811 13.9072 13.4512 13.7773 13.2911 13.7773C13.1309 13.7773 13.0011 13.9072 13.0011 14.0673C13.0011 14.2275 13.1309 14.3573 13.2911 14.3573Z" fill="#FF834F"/>
<path d="M13.2908 11.9958C13.4175 11.9958 13.5201 11.8931 13.5201 11.7665C13.5201 11.6398 13.4175 11.5371 13.2908 11.5371C13.1641 11.5371 13.0615 11.6398 13.0615 11.7665C13.0615 11.8931 13.1641 11.9958 13.2908 11.9958Z" fill="#FF834F"/>
<path d="M13.2909 9.63258C13.3836 9.63258 13.4588 9.55743 13.4588 9.46473C13.4588 9.37203 13.3836 9.29688 13.2909 9.29688C13.1982 9.29688 13.1231 9.37203 13.1231 9.46473C13.1231 9.55743 13.1982 9.63258 13.2909 9.63258Z" fill="#FF834F"/>
<path d="M13.2907 7.27103C13.3499 7.27103 13.3979 7.22303 13.3979 7.16383C13.3979 7.10463 13.3499 7.05664 13.2907 7.05664C13.2315 7.05664 13.1835 7.10463 13.1835 7.16383C13.1835 7.22303 13.2315 7.27103 13.2907 7.27103Z" fill="#FF834F"/>
<path d="M14.4342 29.7074C14.8092 29.7074 15.1131 29.4034 15.1131 29.0285C15.1131 28.6536 14.8092 28.3496 14.4342 28.3496C14.0593 28.3496 13.7553 28.6536 13.7553 29.0285C13.7553 29.4034 14.0593 29.7074 14.4342 29.7074Z" fill="#FF834F"/>
<path d="M14.4331 27.3472C14.7755 27.3472 15.053 27.0697 15.053 26.7273C15.053 26.385 14.7755 26.1074 14.4331 26.1074C14.0907 26.1074 13.8132 26.385 13.8132 26.7273C13.8132 27.0697 14.0907 27.3472 14.4331 27.3472Z" fill="#FF834F"/>
<path d="M14.432 24.989C14.7418 24.989 14.9929 24.7379 14.9929 24.4281C14.9929 24.1183 14.7418 23.8672 14.432 23.8672C14.1223 23.8672 13.8712 24.1183 13.8712 24.4281C13.8712 24.7379 14.1223 24.989 14.432 24.989Z" fill="#FF834F"/>
<path d="M14.4309 22.6268C14.7081 22.6268 14.9328 22.4021 14.9328 22.1249C14.9328 21.8478 14.7081 21.623 14.4309 21.623C14.1538 21.623 13.929 21.8478 13.929 22.1249C13.929 22.4021 14.1538 22.6268 14.4309 22.6268Z" fill="#FF834F"/>
<path d="M14.4308 20.2683C14.6759 20.2683 14.8745 20.0697 14.8745 19.8246C14.8745 19.5795 14.6759 19.3809 14.4308 19.3809C14.1857 19.3809 13.9871 19.5795 13.9871 19.8246C13.9871 20.0697 14.1857 20.2683 14.4308 20.2683Z" fill="#FF834F"/>
<path d="M14.4297 17.9081C14.6422 17.9081 14.8144 17.7359 14.8144 17.5234C14.8144 17.3109 14.6422 17.1387 14.4297 17.1387C14.2172 17.1387 14.045 17.3109 14.045 17.5234C14.045 17.7359 14.2172 17.9081 14.4297 17.9081Z" fill="#FF834F"/>
<path d="M14.4286 15.546C14.6085 15.546 14.7543 15.4002 14.7543 15.2203C14.7543 15.0404 14.6085 14.8945 14.4286 14.8945C14.2487 14.8945 14.1029 15.0404 14.1029 15.2203C14.1029 15.4002 14.2487 15.546 14.4286 15.546Z" fill="#FF834F"/>
<path d="M14.4275 13.1878C14.5748 13.1878 14.6942 13.0683 14.6942 12.921C14.6942 12.7737 14.5748 12.6543 14.4275 12.6543C14.2802 12.6543 14.1608 12.7737 14.1608 12.921C14.1608 13.0683 14.2802 13.1878 14.4275 13.1878Z" fill="#FF834F"/>
<path d="M14.4265 10.8276C14.5412 10.8276 14.6342 10.7346 14.6342 10.6198C14.6342 10.5051 14.5412 10.4121 14.4265 10.4121C14.3117 10.4121 14.2187 10.5051 14.2187 10.6198C14.2187 10.7346 14.3117 10.8276 14.4265 10.8276Z" fill="#FF834F"/>
<path d="M14.4262 8.46711C14.5088 8.46711 14.5758 8.40015 14.5758 8.31754C14.5758 8.23493 14.5088 8.16797 14.4262 8.16797C14.3436 8.16797 14.2766 8.23493 14.2766 8.31754C14.2766 8.40015 14.3436 8.46711 14.4262 8.46711Z" fill="#FF834F"/>
<path d="M14.4251 6.10888C14.4751 6.10888 14.5157 6.06833 14.5157 6.01831C14.5157 5.96829 14.4751 5.92773 14.4251 5.92773C14.3751 5.92773 14.3345 5.96829 14.3345 6.01831C14.3345 6.06833 14.3751 6.10888 14.4251 6.10888Z" fill="#FF834F"/>
<path d="M15.5826 28.5317C15.9452 28.5317 16.2391 28.2378 16.2391 27.8752C16.2391 27.5127 15.9452 27.2188 15.5826 27.2188C15.2201 27.2188 14.9262 27.5127 14.9262 27.8752C14.9262 28.2378 15.2201 28.5317 15.5826 28.5317Z" fill="#FF834F"/>
<path d="M15.5827 26.1684C15.9113 26.1684 16.1777 25.9021 16.1777 25.5735C16.1777 25.2449 15.9113 24.9785 15.5827 24.9785C15.2541 24.9785 14.9877 25.2449 14.9877 25.5735C14.9877 25.9021 15.2541 26.1684 15.5827 26.1684Z" fill="#FF834F"/>
<path d="M15.5825 23.8069C15.8775 23.8069 16.1168 23.5677 16.1168 23.2726C16.1168 22.9775 15.8775 22.7383 15.5825 22.7383C15.2874 22.7383 15.0482 22.9775 15.0482 23.2726C15.0482 23.5677 15.2874 23.8069 15.5825 23.8069Z" fill="#FF834F"/>
<path d="M15.5838 21.4437C15.8449 21.4437 16.0566 21.232 16.0566 20.9709C16.0566 20.7097 15.8449 20.498 15.5838 20.498C15.3227 20.498 15.111 20.7097 15.111 20.9709C15.111 21.232 15.3227 21.4437 15.5838 21.4437Z" fill="#FF834F"/>
<path d="M15.5823 19.0821C15.8099 19.0821 15.9945 18.8976 15.9945 18.67C15.9945 18.4423 15.8099 18.2578 15.5823 18.2578C15.3547 18.2578 15.1702 18.4423 15.1702 18.67C15.1702 18.8976 15.3547 19.0821 15.5823 19.0821Z" fill="#FF834F"/>
<path d="M15.5821 16.7206C15.7762 16.7206 15.9335 16.5632 15.9335 16.3691C15.9335 16.1749 15.7762 16.0176 15.5821 16.0176C15.3879 16.0176 15.2306 16.1749 15.2306 16.3691C15.2306 16.5632 15.3879 16.7206 15.5821 16.7206Z" fill="#FF834F"/>
<path d="M15.5834 14.3573C15.7436 14.3573 15.8734 14.2275 15.8734 14.0673C15.8734 13.9072 15.7436 13.7773 15.5834 13.7773C15.4233 13.7773 15.2934 13.9072 15.2934 14.0673C15.2934 14.2275 15.4233 14.3573 15.5834 14.3573Z" fill="#FF834F"/>
<path d="M15.5831 11.9958C15.7098 11.9958 15.8125 11.8931 15.8125 11.7665C15.8125 11.6398 15.7098 11.5371 15.5831 11.5371C15.4565 11.5371 15.3538 11.6398 15.3538 11.7665C15.3538 11.8931 15.4565 11.9958 15.5831 11.9958Z" fill="#FF834F"/>
<path d="M15.5833 9.63258C15.676 9.63258 15.7511 9.55743 15.7511 9.46473C15.7511 9.37203 15.676 9.29688 15.5833 9.29688C15.4906 9.29688 15.4154 9.37203 15.4154 9.46473C15.4154 9.55743 15.4906 9.63258 15.5833 9.63258Z" fill="#FF834F"/>
<path d="M15.583 7.27103C15.6422 7.27103 15.6902 7.22303 15.6902 7.16383C15.6902 7.10463 15.6422 7.05664 15.583 7.05664C15.5238 7.05664 15.4758 7.10463 15.4758 7.16383C15.4758 7.22303 15.5238 7.27103 15.583 7.27103Z" fill="#FF834F"/>
<path d="M16.7266 29.7074C17.1015 29.7074 17.4054 29.4034 17.4054 29.0285C17.4054 28.6536 17.1015 28.3496 16.7266 28.3496C16.3516 28.3496 16.0477 28.6536 16.0477 29.0285C16.0477 29.4034 16.3516 29.7074 16.7266 29.7074Z" fill="#FF834F"/>
<path d="M16.7255 27.3472C17.0678 27.3472 17.3453 27.0697 17.3453 26.7273C17.3453 26.385 17.0678 26.1074 16.7255 26.1074C16.3831 26.1074 16.1056 26.385 16.1056 26.7273C16.1056 27.0697 16.3831 27.3472 16.7255 27.3472Z" fill="#FF834F"/>
<path d="M16.7244 24.989C17.0342 24.989 17.2853 24.7379 17.2853 24.4281C17.2853 24.1183 17.0342 23.8672 16.7244 23.8672C16.4146 23.8672 16.1635 24.1183 16.1635 24.4281C16.1635 24.7379 16.4146 24.989 16.7244 24.989Z" fill="#FF834F"/>
<path d="M16.7233 22.6268C17.0005 22.6268 17.2252 22.4021 17.2252 22.1249C17.2252 21.8478 17.0005 21.623 16.7233 21.623C16.4461 21.623 16.2214 21.8478 16.2214 22.1249C16.2214 22.4021 16.4461 22.6268 16.7233 22.6268Z" fill="#FF834F"/>
<path d="M16.7231 20.2683C16.9682 20.2683 17.1668 20.0697 17.1668 19.8246C17.1668 19.5795 16.9682 19.3809 16.7231 19.3809C16.4781 19.3809 16.2794 19.5795 16.2794 19.8246C16.2794 20.0697 16.4781 20.2683 16.7231 20.2683Z" fill="#FF834F"/>
<path d="M16.722 17.9081C16.9345 17.9081 17.1067 17.7359 17.1067 17.5234C17.1067 17.3109 16.9345 17.1387 16.722 17.1387C16.5095 17.1387 16.3373 17.3109 16.3373 17.5234C16.3373 17.7359 16.5095 17.9081 16.722 17.9081Z" fill="#FF834F"/>
<path d="M16.721 15.546C16.9009 15.546 17.0467 15.4002 17.0467 15.2203C17.0467 15.0404 16.9009 14.8945 16.721 14.8945C16.5411 14.8945 16.3952 15.0404 16.3952 15.2203C16.3952 15.4002 16.5411 15.546 16.721 15.546Z" fill="#FF834F"/>
<path d="M16.7198 13.1878C16.8671 13.1878 16.9866 13.0683 16.9866 12.921C16.9866 12.7737 16.8671 12.6543 16.7198 12.6543C16.5725 12.6543 16.4531 12.7737 16.4531 12.921C16.4531 13.0683 16.5725 13.1878 16.7198 13.1878Z" fill="#FF834F"/>
<path d="M16.72 10.8276C16.8348 10.8276 16.9278 10.7346 16.9278 10.6198C16.9278 10.5051 16.8348 10.4121 16.72 10.4121C16.6053 10.4121 16.5123 10.5051 16.5123 10.6198C16.5123 10.7346 16.6053 10.8276 16.72 10.8276Z" fill="#FF834F"/>
<path d="M16.7185 8.46711C16.8011 8.46711 16.8681 8.40015 16.8681 8.31754C16.8681 8.23493 16.8011 8.16797 16.7185 8.16797C16.6359 8.16797 16.5689 8.23493 16.5689 8.31754C16.5689 8.40015 16.6359 8.46711 16.7185 8.46711Z" fill="#FF834F"/>
<path d="M16.7187 6.10888C16.7687 6.10888 16.8093 6.06833 16.8093 6.01831C16.8093 5.96829 16.7687 5.92773 16.7187 5.92773C16.6687 5.92773 16.6281 5.96829 16.6281 6.01831C16.6281 6.06833 16.6687 6.10888 16.7187 6.10888Z" fill="#FF834F"/>
<path d="M17.875 28.5317C18.2375 28.5317 18.5314 28.2378 18.5314 27.8752C18.5314 27.5127 18.2375 27.2188 17.875 27.2188C17.5124 27.2188 17.2185 27.5127 17.2185 27.8752C17.2185 28.2378 17.5124 28.5317 17.875 28.5317Z" fill="#FF834F"/>
<path d="M17.875 26.1684C18.2036 26.1684 18.47 25.9021 18.47 25.5735C18.47 25.2449 18.2036 24.9785 17.875 24.9785C17.5464 24.9785 17.2801 25.2449 17.2801 25.5735C17.2801 25.9021 17.5464 26.1684 17.875 26.1684Z" fill="#FF834F"/>
<path d="M17.8748 23.8069C18.1699 23.8069 18.4091 23.5677 18.4091 23.2726C18.4091 22.9775 18.1699 22.7383 17.8748 22.7383C17.5797 22.7383 17.3405 22.9775 17.3405 23.2726C17.3405 23.5677 17.5797 23.8069 17.8748 23.8069Z" fill="#FF834F"/>
<path d="M17.8749 21.4437C18.136 21.4437 18.3477 21.232 18.3477 20.9709C18.3477 20.7097 18.136 20.498 17.8749 20.498C17.6138 20.498 17.4021 20.7097 17.4021 20.9709C17.4021 21.232 17.6138 21.4437 17.8749 21.4437Z" fill="#FF834F"/>
<path d="M17.8746 19.0821C18.1023 19.0821 18.2868 18.8976 18.2868 18.67C18.2868 18.4423 18.1023 18.2578 17.8746 18.2578C17.647 18.2578 17.4625 18.4423 17.4625 18.67C17.4625 18.8976 17.647 19.0821 17.8746 19.0821Z" fill="#FF834F"/>
<path d="M17.8756 16.7206C18.0698 16.7206 18.2271 16.5632 18.2271 16.3691C18.2271 16.1749 18.0698 16.0176 17.8756 16.0176C17.6815 16.0176 17.5241 16.1749 17.5241 16.3691C17.5241 16.5632 17.6815 16.7206 17.8756 16.7206Z" fill="#FF834F"/>
<path d="M17.8758 14.3573C18.0359 14.3573 18.1658 14.2275 18.1658 14.0673C18.1658 13.9072 18.0359 13.7773 17.8758 13.7773C17.7156 13.7773 17.5858 13.9072 17.5858 14.0673C17.5858 14.2275 17.7156 14.3573 17.8758 14.3573Z" fill="#FF834F"/>
<path d="M17.8755 11.9958C18.0021 11.9958 18.1048 11.8931 18.1048 11.7665C18.1048 11.6398 18.0021 11.5371 17.8755 11.5371C17.7488 11.5371 17.6461 11.6398 17.6461 11.7665C17.6461 11.8931 17.7488 11.9958 17.8755 11.9958Z" fill="#FF834F"/>
<path d="M17.8756 9.63258C17.9683 9.63258 18.0435 9.55743 18.0435 9.46473C18.0435 9.37203 17.9683 9.29688 17.8756 9.29688C17.7829 9.29688 17.7078 9.37203 17.7078 9.46473C17.7078 9.55743 17.7829 9.63258 17.8756 9.63258Z" fill="#FF834F"/>
<path d="M17.8753 7.27103C17.9345 7.27103 17.9825 7.22303 17.9825 7.16383C17.9825 7.10463 17.9345 7.05664 17.8753 7.05664C17.8161 7.05664 17.7681 7.10463 17.7681 7.16383C17.7681 7.22303 17.8161 7.27103 17.8753 7.27103Z" fill="#FF834F"/>
<path d="M19.0189 29.7074C19.3938 29.7074 19.6978 29.4034 19.6978 29.0285C19.6978 28.6536 19.3938 28.3496 19.0189 28.3496C18.6439 28.3496 18.34 28.6536 18.34 29.0285C18.34 29.4034 18.6439 29.7074 19.0189 29.7074Z" fill="#FF834F"/>
<path d="M19.0178 27.3472C19.3602 27.3472 19.6377 27.0697 19.6377 26.7273C19.6377 26.385 19.3602 26.1074 19.0178 26.1074C18.6755 26.1074 18.3979 26.385 18.3979 26.7273C18.3979 27.0697 18.6755 27.3472 19.0178 27.3472Z" fill="#FF834F"/>
<path d="M19.0167 24.989C19.3265 24.989 19.5776 24.7379 19.5776 24.4281C19.5776 24.1183 19.3265 23.8672 19.0167 23.8672C18.707 23.8672 18.4558 24.1183 18.4558 24.4281C18.4558 24.7379 18.707 24.989 19.0167 24.989Z" fill="#FF834F"/>
<path d="M19.0169 22.6268C19.2941 22.6268 19.5188 22.4021 19.5188 22.1249C19.5188 21.8478 19.2941 21.623 19.0169 21.623C18.7397 21.623 18.515 21.8478 18.515 22.1249C18.515 22.4021 18.7397 22.6268 19.0169 22.6268Z" fill="#FF834F"/>
<path d="M19.0154 20.2683C19.2605 20.2683 19.4592 20.0697 19.4592 19.8246C19.4592 19.5795 19.2605 19.3809 19.0154 19.3809C18.7704 19.3809 18.5717 19.5795 18.5717 19.8246C18.5717 20.0697 18.7704 20.2683 19.0154 20.2683Z" fill="#FF834F"/>
<path d="M19.0156 17.9081C19.2281 17.9081 19.4003 17.7359 19.4003 17.5234C19.4003 17.3109 19.2281 17.1387 19.0156 17.1387C18.8031 17.1387 18.6309 17.3109 18.6309 17.5234C18.6309 17.7359 18.8031 17.9081 19.0156 17.9081Z" fill="#FF834F"/>
<path d="M19.0133 15.546C19.1932 15.546 19.339 15.4002 19.339 15.2203C19.339 15.0404 19.1932 14.8945 19.0133 14.8945C18.8334 14.8945 18.6876 15.0404 18.6876 15.2203C18.6876 15.4002 18.8334 15.546 19.0133 15.546Z" fill="#FF834F"/>
<path d="M19.0122 13.1878C19.1595 13.1878 19.2789 13.0683 19.2789 12.921C19.2789 12.7737 19.1595 12.6543 19.0122 12.6543C18.8649 12.6543 18.7455 12.7737 18.7455 12.921C18.7455 13.0683 18.8649 13.1878 19.0122 13.1878Z" fill="#FF834F"/>
<path d="M19.0111 10.8276C19.1259 10.8276 19.2189 10.7346 19.2189 10.6198C19.2189 10.5051 19.1259 10.4121 19.0111 10.4121C18.8964 10.4121 18.8034 10.5051 18.8034 10.6198C18.8034 10.7346 18.8964 10.8276 19.0111 10.8276Z" fill="#FF834F"/>
<path d="M19.0109 8.46711C19.0935 8.46711 19.1605 8.40015 19.1605 8.31754C19.1605 8.23493 19.0935 8.16797 19.0109 8.16797C18.9283 8.16797 18.8613 8.23493 18.8613 8.31754C18.8613 8.40015 18.9283 8.46711 19.0109 8.46711Z" fill="#FF834F"/>
<path d="M19.0098 6.10888C19.0598 6.10888 19.1004 6.06833 19.1004 6.01831C19.1004 5.96829 19.0598 5.92773 19.0098 5.92773C18.9598 5.92773 18.9192 5.96829 18.9192 6.01831C18.9192 6.06833 18.9598 6.10888 19.0098 6.10888Z" fill="#FF834F"/>
<path d="M20.1673 28.5317C20.5298 28.5317 20.8237 28.2378 20.8237 27.8752C20.8237 27.5127 20.5298 27.2188 20.1673 27.2188C19.8047 27.2188 19.5108 27.5127 19.5108 27.8752C19.5108 28.2378 19.8047 28.5317 20.1673 28.5317Z" fill="#FF834F"/>
<path d="M20.1674 26.1684C20.496 26.1684 20.7623 25.9021 20.7623 25.5735C20.7623 25.2449 20.496 24.9785 20.1674 24.9785C19.8388 24.9785 19.5724 25.2449 19.5724 25.5735C19.5724 25.9021 19.8388 26.1684 20.1674 26.1684Z" fill="#FF834F"/>
<path d="M20.1671 23.8069C20.4622 23.8069 20.7015 23.5677 20.7015 23.2726C20.7015 22.9775 20.4622 22.7383 20.1671 22.7383C19.8721 22.7383 19.6328 22.9775 19.6328 23.2726C19.6328 23.5677 19.8721 23.8069 20.1671 23.8069Z" fill="#FF834F"/>
<path d="M20.1672 21.4437C20.4283 21.4437 20.64 21.232 20.64 20.9709C20.64 20.7097 20.4283 20.498 20.1672 20.498C19.9061 20.498 19.6944 20.7097 19.6944 20.9709C19.6944 21.232 19.9061 21.4437 20.1672 21.4437Z" fill="#FF834F"/>
<path d="M20.167 19.0821C20.3946 19.0821 20.5792 18.8976 20.5792 18.67C20.5792 18.4423 20.3946 18.2578 20.167 18.2578C19.9394 18.2578 19.7549 18.4423 19.7549 18.67C19.7549 18.8976 19.9394 19.0821 20.167 19.0821Z" fill="#FF834F"/>
<path d="M20.1667 16.7206C20.3608 16.7206 20.5182 16.5632 20.5182 16.3691C20.5182 16.1749 20.3608 16.0176 20.1667 16.0176C19.9726 16.0176 19.8152 16.1749 19.8152 16.3691C19.8152 16.5632 19.9726 16.7206 20.1667 16.7206Z" fill="#FF834F"/>
<path d="M20.1668 14.3573C20.327 14.3573 20.4568 14.2275 20.4568 14.0673C20.4568 13.9072 20.327 13.7773 20.1668 13.7773C20.0067 13.7773 19.8768 13.9072 19.8768 14.0673C19.8768 14.2275 20.0067 14.3573 20.1668 14.3573Z" fill="#FF834F"/>
<path d="M20.1666 11.9958C20.2932 11.9958 20.3959 11.8931 20.3959 11.7665C20.3959 11.6398 20.2932 11.5371 20.1666 11.5371C20.0399 11.5371 19.9372 11.6398 19.9372 11.7665C19.9372 11.8931 20.0399 11.9958 20.1666 11.9958Z" fill="#FF834F"/>
<path d="M20.1667 9.63258C20.2594 9.63258 20.3345 9.55743 20.3345 9.46473C20.3345 9.37203 20.2594 9.29688 20.1667 9.29688C20.074 9.29688 19.9988 9.37203 19.9988 9.46473C19.9988 9.55743 20.074 9.63258 20.1667 9.63258Z" fill="#FF834F"/>
<path d="M20.1664 7.27103C20.2256 7.27103 20.2736 7.22303 20.2736 7.16383C20.2736 7.10463 20.2256 7.05664 20.1664 7.05664C20.1072 7.05664 20.0592 7.10463 20.0592 7.16383C20.0592 7.22303 20.1072 7.27103 20.1664 7.27103Z" fill="#FF834F"/>
<path d="M21.31 29.7074C21.6849 29.7074 21.9889 29.4034 21.9889 29.0285C21.9889 28.6536 21.6849 28.3496 21.31 28.3496C20.9351 28.3496 20.6311 28.6536 20.6311 29.0285C20.6311 29.4034 20.9351 29.7074 21.31 29.7074Z" fill="#FF834F"/>
<path d="M21.3102 27.3472C21.6525 27.3472 21.9301 27.0697 21.9301 26.7273C21.9301 26.385 21.6525 26.1074 21.3102 26.1074C20.9678 26.1074 20.6903 26.385 20.6903 26.7273C20.6903 27.0697 20.9678 27.3472 21.3102 27.3472Z" fill="#FF834F"/>
<path d="M21.3091 24.989C21.6188 24.989 21.87 24.7379 21.87 24.4281C21.87 24.1183 21.6188 23.8672 21.3091 23.8672C20.9993 23.8672 20.7482 24.1183 20.7482 24.4281C20.7482 24.7379 20.9993 24.989 21.3091 24.989Z" fill="#FF834F"/>
<path d="M21.308 22.6268C21.5852 22.6268 21.8099 22.4021 21.8099 22.1249C21.8099 21.8478 21.5852 21.623 21.308 21.623C21.0308 21.623 20.8061 21.8478 20.8061 22.1249C20.8061 22.4021 21.0308 22.6268 21.308 22.6268Z" fill="#FF834F"/>
<path d="M21.3078 20.2683C21.5529 20.2683 21.7515 20.0697 21.7515 19.8246C21.7515 19.5795 21.5529 19.3809 21.3078 19.3809C21.0627 19.3809 20.8641 19.5795 20.8641 19.8246C20.8641 20.0697 21.0627 20.2683 21.3078 20.2683Z" fill="#FF834F"/>
<path d="M21.3067 17.9081C21.5192 17.9081 21.6915 17.7359 21.6915 17.5234C21.6915 17.3109 21.5192 17.1387 21.3067 17.1387C21.0942 17.1387 20.922 17.3109 20.922 17.5234C20.922 17.7359 21.0942 17.9081 21.3067 17.9081Z" fill="#FF834F"/>
<path d="M21.3056 15.546C21.4855 15.546 21.6314 15.4002 21.6314 15.2203C21.6314 15.0404 21.4855 14.8945 21.3056 14.8945C21.1257 14.8945 20.9799 15.0404 20.9799 15.2203C20.9799 15.4002 21.1257 15.546 21.3056 15.546Z" fill="#FF834F"/>
<path d="M21.3046 13.1878C21.4519 13.1878 21.5713 13.0683 21.5713 12.921C21.5713 12.7737 21.4519 12.6543 21.3046 12.6543C21.1573 12.6543 21.0378 12.7737 21.0378 12.921C21.0378 13.0683 21.1573 13.1878 21.3046 13.1878Z" fill="#FF834F"/>
<path d="M21.3047 10.8276C21.4195 10.8276 21.5125 10.7346 21.5125 10.6198C21.5125 10.5051 21.4195 10.4121 21.3047 10.4121C21.19 10.4121 21.097 10.5051 21.097 10.6198C21.097 10.7346 21.19 10.8276 21.3047 10.8276Z" fill="#FF834F"/>
<path d="M21.3033 8.46711C21.3859 8.46711 21.4528 8.40015 21.4528 8.31754C21.4528 8.23493 21.3859 8.16797 21.3033 8.16797C21.2207 8.16797 21.1537 8.23493 21.1537 8.31754C21.1537 8.40015 21.2207 8.46711 21.3033 8.46711Z" fill="#FF834F"/>
<path d="M21.3022 6.10888C21.3522 6.10888 21.3928 6.06833 21.3928 6.01831C21.3928 5.96829 21.3522 5.92773 21.3022 5.92773C21.2522 5.92773 21.2116 5.96829 21.2116 6.01831C21.2116 6.06833 21.2522 6.10888 21.3022 6.10888Z" fill="#FF834F"/>
<path d="M22.4596 28.5317C22.8222 28.5317 23.1161 28.2378 23.1161 27.8752C23.1161 27.5127 22.8222 27.2188 22.4596 27.2188C22.0971 27.2188 21.8032 27.5127 21.8032 27.8752C21.8032 28.2378 22.0971 28.5317 22.4596 28.5317Z" fill="#FF834F"/>
<path d="M22.4598 26.1684C22.7884 26.1684 23.0547 25.9021 23.0547 25.5735C23.0547 25.2449 22.7884 24.9785 22.4598 24.9785C22.1312 24.9785 21.8648 25.2449 21.8648 25.5735C21.8648 25.9021 22.1312 26.1684 22.4598 26.1684Z" fill="#FF834F"/>
<path d="M22.4595 23.8069C22.7546 23.8069 22.9938 23.5677 22.9938 23.2726C22.9938 22.9775 22.7546 22.7383 22.4595 22.7383C22.1644 22.7383 21.9252 22.9775 21.9252 23.2726C21.9252 23.5677 22.1644 23.8069 22.4595 23.8069Z" fill="#FF834F"/>
<path d="M22.4596 21.4437C22.7208 21.4437 22.9324 21.232 22.9324 20.9709C22.9324 20.7097 22.7208 20.498 22.4596 20.498C22.1985 20.498 21.9868 20.7097 21.9868 20.9709C21.9868 21.232 22.1985 21.4437 22.4596 21.4437Z" fill="#FF834F"/>
<path d="M22.4593 19.0821C22.687 19.0821 22.8715 18.8976 22.8715 18.67C22.8715 18.4423 22.687 18.2578 22.4593 18.2578C22.2317 18.2578 22.0472 18.4423 22.0472 18.67C22.0472 18.8976 22.2317 19.0821 22.4593 19.0821Z" fill="#FF834F"/>
<path d="M22.4603 16.7206C22.6544 16.7206 22.8118 16.5632 22.8118 16.3691C22.8118 16.1749 22.6544 16.0176 22.4603 16.0176C22.2662 16.0176 22.1088 16.1749 22.1088 16.3691C22.1088 16.5632 22.2662 16.7206 22.4603 16.7206Z" fill="#FF834F"/>
<path d="M22.4592 14.3573C22.6194 14.3573 22.7492 14.2275 22.7492 14.0673C22.7492 13.9072 22.6194 13.7773 22.4592 13.7773C22.299 13.7773 22.1692 13.9072 22.1692 14.0673C22.1692 14.2275 22.299 14.3573 22.4592 14.3573Z" fill="#FF834F"/>
<path d="M22.4602 11.9958C22.5869 11.9958 22.6896 11.8931 22.6896 11.7665C22.6896 11.6398 22.5869 11.5371 22.4602 11.5371C22.3335 11.5371 22.2309 11.6398 22.2309 11.7665C22.2309 11.8931 22.3335 11.9958 22.4602 11.9958Z" fill="#FF834F"/>
<path d="M22.4603 9.63258C22.553 9.63258 22.6281 9.55743 22.6281 9.46473C22.6281 9.37203 22.553 9.29688 22.4603 9.29688C22.3676 9.29688 22.2924 9.37203 22.2924 9.46473C22.2924 9.55743 22.3676 9.63258 22.4603 9.63258Z" fill="#FF834F"/>
<path d="M22.4601 7.27103C22.5193 7.27103 22.5673 7.22303 22.5673 7.16383C22.5673 7.10463 22.5193 7.05664 22.4601 7.05664C22.4009 7.05664 22.3529 7.10463 22.3529 7.16383C22.3529 7.22303 22.4009 7.27103 22.4601 7.27103Z" fill="#FF834F"/>
<path d="M23.6036 29.7074C23.9785 29.7074 24.2825 29.4034 24.2825 29.0285C24.2825 28.6536 23.9785 28.3496 23.6036 28.3496C23.2286 28.3496 22.9247 28.6536 22.9247 29.0285C22.9247 29.4034 23.2286 29.7074 23.6036 29.7074Z" fill="#FF834F"/>
<path d="M23.6025 27.3472C23.9449 27.3472 24.2224 27.0697 24.2224 26.7273C24.2224 26.385 23.9449 26.1074 23.6025 26.1074C23.2601 26.1074 22.9826 26.385 22.9826 26.7273C22.9826 27.0697 23.2601 27.3472 23.6025 27.3472Z" fill="#FF834F"/>
<path d="M23.6014 24.989C23.9112 24.989 24.1623 24.7379 24.1623 24.4281C24.1623 24.1183 23.9112 23.8672 23.6014 23.8672C23.2916 23.8672 23.0405 24.1183 23.0405 24.4281C23.0405 24.7379 23.2916 24.989 23.6014 24.989Z" fill="#FF834F"/>
<path d="M23.6003 22.6268C23.8775 22.6268 24.1022 22.4021 24.1022 22.1249C24.1022 21.8478 23.8775 21.623 23.6003 21.623C23.3232 21.623 23.0984 21.8478 23.0984 22.1249C23.0984 22.4021 23.3232 22.6268 23.6003 22.6268Z" fill="#FF834F"/>
<path d="M23.6001 20.2683C23.8452 20.2683 24.0439 20.0697 24.0439 19.8246C24.0439 19.5795 23.8452 19.3809 23.6001 19.3809C23.3551 19.3809 23.1564 19.5795 23.1564 19.8246C23.1564 20.0697 23.3551 20.2683 23.6001 20.2683Z" fill="#FF834F"/>
<path d="M23.5991 17.9081C23.8116 17.9081 23.9838 17.7359 23.9838 17.5234C23.9838 17.3109 23.8116 17.1387 23.5991 17.1387C23.3866 17.1387 23.2144 17.3109 23.2144 17.5234C23.2144 17.7359 23.3866 17.9081 23.5991 17.9081Z" fill="#FF834F"/>
<path d="M23.5979 15.546C23.7778 15.546 23.9237 15.4002 23.9237 15.2203C23.9237 15.0404 23.7778 14.8945 23.5979 14.8945C23.4181 14.8945 23.2722 15.0404 23.2722 15.2203C23.2722 15.4002 23.4181 15.546 23.5979 15.546Z" fill="#FF834F"/>
<path d="M23.5982 13.1878C23.7455 13.1878 23.8649 13.0683 23.8649 12.921C23.8649 12.7737 23.7455 12.6543 23.5982 12.6543C23.4508 12.6543 23.3314 12.7737 23.3314 12.921C23.3314 13.0683 23.4508 13.1878 23.5982 13.1878Z" fill="#FF834F"/>
<path d="M23.5971 10.8276C23.7118 10.8276 23.8048 10.7346 23.8048 10.6198C23.8048 10.5051 23.7118 10.4121 23.5971 10.4121C23.4823 10.4121 23.3893 10.5051 23.3893 10.6198C23.3893 10.7346 23.4823 10.8276 23.5971 10.8276Z" fill="#FF834F"/>
<path d="M23.5956 8.46711C23.6782 8.46711 23.7452 8.40015 23.7452 8.31754C23.7452 8.23493 23.6782 8.16797 23.5956 8.16797C23.513 8.16797 23.446 8.23493 23.446 8.31754C23.446 8.40015 23.513 8.46711 23.5956 8.46711Z" fill="#FF834F"/>
<path d="M23.5945 6.10888C23.6446 6.10888 23.6851 6.06833 23.6851 6.01831C23.6851 5.96829 23.6446 5.92773 23.5945 5.92773C23.5445 5.92773 23.504 5.96829 23.504 6.01831C23.504 6.06833 23.5445 6.10888 23.5945 6.10888Z" fill="#FF834F"/>
</svg>
