<svg width="150" height="36" viewBox="0 0 150 36" fill="none" xmlns="http://www.w3.org/2000/svg">
<path d="M34.9398 0C34.9398 0.149572 34.9332 0.299974 34.9332 0.449546C34.9332 11.9655 34.9332 23.4819 34.9332 34.999V35.4277H33.2413C33.2277 35.3652 33.2174 35.302 33.2106 35.2383C33.2048 35.1386 33.2106 35.0389 33.2106 34.9391V0.419631C33.2106 0.280031 33.2056 0.1396 33.2031 0H34.9398Z" fill="black"/>
<path d="M149.999 11.9981C149.951 12.0911 149.896 12.1817 149.855 12.2789C148.141 16.3368 146.427 20.3946 144.714 24.4524C144.679 24.5355 144.638 24.612 144.597 24.6967H140.78C138.997 20.4555 137.212 16.208 135.426 11.954C135.664 11.8826 138.606 11.8576 139.212 11.9183L142.742 20.5769L142.81 20.5835C143.436 19.1401 144.034 17.6851 144.647 16.2376C145.26 14.7901 145.863 13.3492 146.475 11.895H146.822C147.772 11.895 148.722 11.895 149.672 11.895C149.781 11.895 149.89 11.8842 150 11.8784L149.999 11.9981Z" fill="black"/>
<path d="M102.999 24.709V8.05496C103.125 8.04499 103.248 8.02588 103.374 8.02588C105.403 8.02588 107.432 8.02588 109.461 8.02588C110.021 8.02588 110.581 8.02588 111.14 8.04333C112.729 8.09983 114.249 8.4372 115.651 9.21248C117.883 10.4473 119.236 12.3128 119.64 14.8405C119.867 16.2532 119.806 17.6508 119.385 19.0211C118.844 20.7802 117.788 22.1563 116.252 23.1659C115.06 23.9461 113.7 24.4341 112.284 24.5901C111.719 24.6592 111.151 24.6972 110.581 24.704C108.153 24.7164 105.724 24.709 103.295 24.7098L102.999 24.709ZM106.865 21.5463C106.938 21.5522 107.017 21.563 107.095 21.563C108.203 21.563 109.312 21.563 110.424 21.563C111.147 21.563 111.86 21.4873 112.548 21.248C114.136 20.6938 115.222 19.6459 115.684 18.0073C115.915 17.1549 115.961 16.2631 115.819 15.3915C115.556 13.6157 114.589 12.3693 112.956 11.6414C112.119 11.2683 111.225 11.1661 110.321 11.1577C109.261 11.1486 108.202 11.1577 107.142 11.1577C107.046 11.1577 106.949 11.1702 106.863 11.1769C106.792 11.4843 106.797 21.2921 106.865 21.5463Z" fill="black"/>
<path d="M82.7038 11.9128V12.2718C82.7038 15.6715 82.7038 19.0704 82.7038 22.4685C82.7038 23.4324 82.6298 24.3863 82.3565 25.3153C81.7515 27.3752 80.3688 28.6391 78.3238 29.1984C77.2943 29.4809 76.2464 29.5557 75.177 29.5307C74.0172 29.5071 72.8652 29.3345 71.7493 29.0172C70.9774 28.8044 70.2436 28.4719 69.5747 28.0317C69.4675 27.9602 69.3661 27.8805 69.2307 27.7824C69.7126 26.9116 70.1888 26.0499 70.6749 25.1699C70.7321 25.1963 70.7876 25.2263 70.8411 25.2596C71.8449 25.9892 72.9891 26.349 74.2006 26.5202C75.0524 26.6528 75.922 26.6153 76.7591 26.4097C77.9806 26.0972 78.7061 25.3128 78.9196 24.0789C78.9944 23.6484 78.9952 23.2047 79.0243 22.7668C79.0205 22.6913 79.0091 22.6164 78.9903 22.5432C78.9323 22.5798 78.8768 22.6201 78.8241 22.6637C78.0205 23.4673 77.0309 23.8836 75.9215 24.0298C74.6601 24.196 73.422 24.0789 72.2496 23.567C70.1639 22.6579 68.905 21.0882 68.5934 18.8148C68.4081 17.4561 68.5734 16.1383 69.239 14.9184C70.04 13.4493 71.269 12.4987 72.8578 12.0101C74.0682 11.6363 75.3574 11.5978 76.588 11.8987C77.502 12.1054 78.3292 12.5908 78.9554 13.2881C79.0074 13.3633 79.0704 13.4302 79.1423 13.4867C79.2545 12.9549 79.1722 12.4397 79.2346 11.9162L82.7038 11.9128ZM75.6814 14.7381C75.5717 14.7381 75.462 14.7339 75.349 14.7381C74.0195 14.7896 72.3335 15.7037 72.267 17.7569C72.2288 18.9095 72.6409 19.851 73.6231 20.4991C74.5172 21.0849 75.5061 21.1846 76.5315 20.986C77.93 20.7135 79.3243 19.5659 79.0243 17.3357C78.9063 16.4681 78.4601 15.7876 77.728 15.3006C77.1237 14.9008 76.4077 14.704 75.6839 14.7389L75.6814 14.7381Z" fill="black"/>
<path d="M54.7162 24.6896V17.8758H47.1038C47.0955 18.0137 47.0797 18.1492 47.0797 18.2846C47.0797 20.2839 47.0797 22.2832 47.0797 24.2824V24.6896H43.3005C43.2938 24.6845 43.2877 24.6786 43.2823 24.6722C43.275 24.6652 43.2693 24.6567 43.2656 24.6472C43.2569 24.6188 43.2513 24.5896 43.249 24.56C43.249 19.1311 43.249 13.7022 43.249 8.27327C43.2498 8.22347 43.254 8.17377 43.2615 8.12453C43.2726 8.0929 43.2871 8.06254 43.3047 8.03395C44.5303 8.01401 45.7743 8.02814 47.0523 8.02481C47.0631 8.191 47.0806 8.32229 47.0806 8.45691C47.0806 10.3664 47.0806 12.276 47.0806 14.1855V14.5586C47.3406 14.6417 54.3738 14.6492 54.7179 14.5711C54.727 13.8656 54.7179 13.1485 54.7179 12.433C54.7179 11.7023 54.7179 10.9725 54.7179 10.2435V8.09794C54.9497 8.01484 58.0957 7.98659 58.5012 8.05722C58.566 8.27825 58.5752 24.3905 58.5078 24.6929L54.7162 24.6896Z" fill="black"/>
<path d="M95.628 24.6897V24.2742C95.628 22.265 95.628 20.2557 95.628 18.2465C95.628 17.7379 95.6155 17.2302 95.4925 16.7283C95.2632 15.796 94.6101 15.0008 93.3553 14.906C92.8971 14.8596 92.4343 14.8982 91.9901 15.0199C90.8625 15.3589 90.2284 16.1525 90.0116 17.2817C89.9356 17.7046 89.8986 18.1335 89.901 18.5631C89.8894 20.4743 89.8961 22.3813 89.8961 24.2908V24.6897H86.2748C86.2066 24.4653 86.185 7.45238 86.2498 7.06848C86.4734 7.00699 89.5446 6.99702 89.8969 7.06848V13.2084C89.9709 13.1638 90.0424 13.1152 90.1113 13.063C91.1167 12.1822 92.31 11.7858 93.6246 11.7168C94.5104 11.6703 95.3837 11.7567 96.2155 12.0874C97.781 12.7107 98.754 13.8541 99.1122 15.4985C99.2253 15.995 99.2871 16.5018 99.2967 17.0109C99.3166 19.4896 99.3091 21.9692 99.3091 24.4479C99.3091 24.5252 99.2967 24.6025 99.2875 24.6972L95.628 24.6897Z" fill="black"/>
<path d="M134.923 19.3329H125.231C125.263 19.4733 125.279 19.5772 125.31 19.6761C125.603 20.5901 126.205 21.2449 127.083 21.5948C128.559 22.1839 130.016 22.0875 131.403 21.2965C131.661 21.1502 131.885 20.9458 132.159 20.743L134.102 22.8437C133.93 23.0149 133.775 23.1827 133.603 23.334C132.767 24.0777 131.782 24.5189 130.691 24.7225C129.103 25.0183 127.525 24.9859 125.983 24.4732C124.204 23.8791 122.845 22.783 122.064 21.0463C121.547 19.8971 121.417 18.6864 121.559 17.44C121.692 16.1889 122.198 15.0068 123.012 14.0472C123.988 12.8839 125.24 12.1809 126.717 11.8784C128.219 11.5693 129.7 11.6482 131.131 12.2349C133.201 13.085 134.407 14.6488 134.87 16.8151C135.025 17.5447 135.029 18.2834 134.974 19.0238C134.968 19.1102 134.946 19.1975 134.923 19.3329ZM125.19 17.1625C125.569 17.2298 131.281 17.2148 131.506 17.1517C131.513 17.1247 131.517 17.0966 131.516 17.0686C131.329 16.0656 130.805 15.3028 129.89 14.8291C129.225 14.4843 128.512 14.4319 127.788 14.5258C127.121 14.6092 126.502 14.9147 126.03 15.393C125.558 15.8713 125.261 16.4946 125.186 17.1625H125.19Z" fill="black"/>
<path d="M65.9439 24.6888H62.3159V11.8921H65.9264C66.002 12.1414 66.0137 24.3805 65.9439 24.6888Z" fill="black"/>
<path d="M64.1519 5.92676C64.5232 5.93526 64.8896 6.01334 65.2321 6.15693C66.8284 6.85244 66.7104 8.8243 65.6027 9.61869C64.7718 10.2145 63.4256 10.2203 62.6213 9.58878C61.9407 9.05364 61.6972 8.33819 61.9016 7.50723C62.1002 6.69373 62.6728 6.22258 63.4688 6.02066C63.6944 5.97573 63.9225 5.94438 64.1519 5.92676Z" fill="black"/>
<path d="M0.67889 29.7079C1.05383 29.7079 1.35778 29.4039 1.35778 29.029C1.35778 28.654 1.05383 28.3501 0.67889 28.3501C0.303949 28.3501 0 28.654 0 29.029C0 29.4039 0.303949 29.7079 0.67889 29.7079Z" fill="#FF834F"/>
<path d="M0.677998 27.3477C1.02035 27.3477 1.29789 27.0702 1.29789 26.7278C1.29789 26.3854 1.02035 26.1079 0.677998 26.1079C0.335641 26.1079 0.0581055 26.3854 0.0581055 26.7278C0.0581055 27.0702 0.335641 27.3477 0.677998 27.3477Z" fill="#FF834F"/>
<path d="M0.676617 24.988C0.98639 24.988 1.23751 24.7369 1.23751 24.4271C1.23751 24.1173 0.98639 23.8662 0.676617 23.8662C0.366844 23.8662 0.115723 24.1173 0.115723 24.4271C0.115723 24.7369 0.366844 24.988 0.676617 24.988Z" fill="#FF834F"/>
<path d="M0.676701 22.6268C0.953891 22.6268 1.1786 22.4021 1.1786 22.1249C1.1786 21.8478 0.953891 21.623 0.676701 21.623C0.399512 21.623 0.174805 21.8478 0.174805 22.1249C0.174805 22.4021 0.399512 22.6268 0.676701 22.6268Z" fill="#FF834F"/>
<path d="M0.675663 20.2678C0.920729 20.2678 1.11939 20.0692 1.11939 19.8241C1.11939 19.579 0.920729 19.3804 0.675663 19.3804C0.430598 19.3804 0.231934 19.579 0.231934 19.8241C0.231934 20.0692 0.430598 20.2678 0.675663 20.2678Z" fill="#FF834F"/>
<path d="M0.674283 17.9076C0.886764 17.9076 1.05901 17.7354 1.05901 17.5229C1.05901 17.3104 0.886764 17.1382 0.674283 17.1382C0.461801 17.1382 0.289551 17.3104 0.289551 17.5229C0.289551 17.7354 0.461801 17.9076 0.674283 17.9076Z" fill="#FF834F"/>
<path d="M0.67339 15.547C0.853288 15.547 0.999125 15.4011 0.999125 15.2212C0.999125 15.0413 0.853288 14.8955 0.67339 14.8955C0.493492 14.8955 0.347656 15.0413 0.347656 15.2212C0.347656 15.4011 0.493492 15.547 0.67339 15.547Z" fill="#FF834F"/>
<path d="M0.673475 13.1868C0.820789 13.1868 0.940211 13.0674 0.940211 12.9201C0.940211 12.7727 0.820789 12.6533 0.673475 12.6533C0.52616 12.6533 0.406738 12.7727 0.406738 12.9201C0.406738 13.0674 0.52616 13.1868 0.673475 13.1868Z" fill="#FF834F"/>
<path d="M0.672582 10.8271C0.787313 10.8271 0.880321 10.7341 0.880321 10.6194C0.880321 10.5046 0.787313 10.4116 0.672582 10.4116C0.557852 10.4116 0.464844 10.5046 0.464844 10.6194C0.464844 10.7341 0.557852 10.8271 0.672582 10.8271Z" fill="#FF834F"/>
<path d="M0.672033 8.4676C0.754639 8.4676 0.821605 8.40063 0.821605 8.31803C0.821605 8.23542 0.754639 8.16846 0.672033 8.16846C0.589427 8.16846 0.522461 8.23542 0.522461 8.31803C0.522461 8.40063 0.589427 8.4676 0.672033 8.4676Z" fill="#FF834F"/>
<path d="M0.669676 6.10791C0.719698 6.10791 0.76025 6.06735 0.76025 6.01733C0.76025 5.96731 0.719698 5.92676 0.669676 5.92676C0.619653 5.92676 0.579102 5.96731 0.579102 6.01733C0.579102 6.06735 0.619653 6.10791 0.669676 6.10791Z" fill="#FF834F"/>
<path d="M1.82833 28.5317C2.19088 28.5317 2.48478 28.2378 2.48478 27.8752C2.48478 27.5127 2.19088 27.2188 1.82833 27.2188C1.46578 27.2188 1.17188 27.5127 1.17188 27.8752C1.17188 28.2378 1.46578 28.5317 1.82833 28.5317Z" fill="#FF834F"/>
<path d="M1.82885 26.1689C2.15744 26.1689 2.42381 25.9026 2.42381 25.574C2.42381 25.2454 2.15744 24.979 1.82885 24.979C1.50026 24.979 1.23389 25.2454 1.23389 25.574C1.23389 25.9026 1.50026 26.1689 1.82885 26.1689Z" fill="#FF834F"/>
<path d="M1.82825 23.8074C2.12334 23.8074 2.36255 23.5682 2.36255 23.2731C2.36255 22.978 2.12334 22.7388 1.82825 22.7388C1.53316 22.7388 1.29395 22.978 1.29395 23.2731C1.29395 23.5682 1.53316 23.8074 1.82825 23.8074Z" fill="#FF834F"/>
<path d="M1.82828 21.4437C2.08941 21.4437 2.3011 21.232 2.3011 20.9709C2.3011 20.7097 2.08941 20.498 1.82828 20.498C1.56715 20.498 1.35547 20.7097 1.35547 20.9709C1.35547 21.232 1.56715 21.4437 1.82828 21.4437Z" fill="#FF834F"/>
<path d="M1.82817 19.0816C2.0558 19.0816 2.24032 18.8971 2.24032 18.6695C2.24032 18.4419 2.0558 18.2573 1.82817 18.2573C1.60054 18.2573 1.41602 18.4419 1.41602 18.6695C1.41602 18.8971 1.60054 19.0816 1.82817 19.0816Z" fill="#FF834F"/>
<path d="M1.82806 16.7196C2.02218 16.7196 2.17955 16.5622 2.17955 16.3681C2.17955 16.174 2.02218 16.0166 1.82806 16.0166C1.63393 16.0166 1.47656 16.174 1.47656 16.3681C1.47656 16.5622 1.63393 16.7196 1.82806 16.7196Z" fill="#FF834F"/>
<path d="M1.82809 14.3573C1.98825 14.3573 2.11809 14.2275 2.11809 14.0673C2.11809 13.9072 1.98825 13.7773 1.82809 13.7773C1.66792 13.7773 1.53809 13.9072 1.53809 14.0673C1.53809 14.2275 1.66792 14.3573 1.82809 14.3573Z" fill="#FF834F"/>
<path d="M1.82798 11.9958C1.95464 11.9958 2.05732 11.8931 2.05732 11.7665C2.05732 11.6398 1.95464 11.5371 1.82798 11.5371C1.70131 11.5371 1.59863 11.6398 1.59863 11.7665C1.59863 11.8931 1.70131 11.9958 1.82798 11.9958Z" fill="#FF834F"/>
<path d="M1.82801 9.63307C1.92071 9.63307 1.99586 9.55792 1.99586 9.46522C1.99586 9.37251 1.92071 9.29736 1.82801 9.29736C1.73531 9.29736 1.66016 9.37251 1.66016 9.46522C1.66016 9.55792 1.73531 9.63307 1.82801 9.63307Z" fill="#FF834F"/>
<path d="M1.8279 7.27152C1.8871 7.27152 1.93509 7.22352 1.93509 7.16432C1.93509 7.10512 1.8871 7.05713 1.8279 7.05713C1.7687 7.05713 1.7207 7.10512 1.7207 7.16432C1.7207 7.22352 1.7687 7.27152 1.8279 7.27152Z" fill="#FF834F"/>
<path d="M2.97137 29.7079C3.34631 29.7079 3.65026 29.4039 3.65026 29.029C3.65026 28.654 3.34631 28.3501 2.97137 28.3501C2.59643 28.3501 2.29248 28.654 2.29248 29.029C2.29248 29.4039 2.59643 29.7079 2.97137 29.7079Z" fill="#FF834F"/>
<path d="M2.96999 27.3477C3.31235 27.3477 3.58988 27.0702 3.58988 26.7278C3.58988 26.3854 3.31235 26.1079 2.96999 26.1079C2.62763 26.1079 2.3501 26.3854 2.3501 26.7278C2.3501 27.0702 2.62763 27.3477 2.96999 27.3477Z" fill="#FF834F"/>
<path d="M2.97007 24.988C3.27985 24.988 3.53097 24.7369 3.53097 24.4271C3.53097 24.1173 3.27985 23.8662 2.97007 23.8662C2.6603 23.8662 2.40918 24.1173 2.40918 24.4271C2.40918 24.7369 2.6603 24.988 2.97007 24.988Z" fill="#FF834F"/>
<path d="M2.96918 22.6268C3.24637 22.6268 3.47108 22.4021 3.47108 22.1249C3.47108 21.8478 3.24637 21.623 2.96918 21.623C2.69199 21.623 2.46729 21.8478 2.46729 22.1249C2.46729 22.4021 2.69199 22.6268 2.96918 22.6268Z" fill="#FF834F"/>
<path d="M2.96912 20.2678C3.21419 20.2678 3.41285 20.0692 3.41285 19.8241C3.41285 19.579 3.21419 19.3804 2.96912 19.3804C2.72406 19.3804 2.52539 19.579 2.52539 19.8241C2.52539 20.0692 2.72406 20.2678 2.96912 20.2678Z" fill="#FF834F"/>
<path d="M2.96676 17.9076C3.17924 17.9076 3.3515 17.7354 3.3515 17.5229C3.3515 17.3104 3.17924 17.1382 2.96676 17.1382C2.75428 17.1382 2.58203 17.3104 2.58203 17.5229C2.58203 17.7354 2.75428 17.9076 2.96676 17.9076Z" fill="#FF834F"/>
<path d="M2.96685 15.547C3.14675 15.547 3.29258 15.4011 3.29258 15.2212C3.29258 15.0413 3.14675 14.8955 2.96685 14.8955C2.78695 14.8955 2.64111 15.0413 2.64111 15.2212C2.64111 15.4011 2.78695 15.547 2.96685 15.547Z" fill="#FF834F"/>
<path d="M2.96596 13.1868C3.11327 13.1868 3.23269 13.0674 3.23269 12.9201C3.23269 12.7727 3.11327 12.6533 2.96596 12.6533C2.81864 12.6533 2.69922 12.7727 2.69922 12.9201C2.69922 13.0674 2.81864 13.1868 2.96596 13.1868Z" fill="#FF834F"/>
<path d="M2.96457 10.8271C3.07931 10.8271 3.17231 10.7341 3.17231 10.6194C3.17231 10.5046 3.07931 10.4116 2.96457 10.4116C2.84984 10.4116 2.75684 10.5046 2.75684 10.6194C2.75684 10.7341 2.84984 10.8271 2.96457 10.8271Z" fill="#FF834F"/>
<path d="M2.96305 8.4676C3.04565 8.4676 3.11262 8.40063 3.11262 8.31803C3.11262 8.23542 3.04565 8.16846 2.96305 8.16846C2.88044 8.16846 2.81348 8.23542 2.81348 8.31803C2.81348 8.40063 2.88044 8.4676 2.96305 8.4676Z" fill="#FF834F"/>
<path d="M2.96362 6.10791C3.01364 6.10791 3.0542 6.06735 3.0542 6.01733C3.0542 5.96731 3.01364 5.92676 2.96362 5.92676C2.9136 5.92676 2.87305 5.96731 2.87305 6.01733C2.87305 6.06735 2.9136 6.10791 2.96362 6.10791Z" fill="#FF834F"/>
<path d="M4.12081 28.5317C4.48336 28.5317 4.77726 28.2378 4.77726 27.8752C4.77726 27.5127 4.48336 27.2188 4.12081 27.2188C3.75826 27.2188 3.46436 27.5127 3.46436 27.8752C3.46436 28.2378 3.75826 28.5317 4.12081 28.5317Z" fill="#FF834F"/>
<path d="M4.12084 26.1689C4.44943 26.1689 4.71581 25.9026 4.71581 25.574C4.71581 25.2454 4.44943 24.979 4.12084 24.979C3.79225 24.979 3.52588 25.2454 3.52588 25.574C3.52588 25.9026 3.79225 26.1689 4.12084 26.1689Z" fill="#FF834F"/>
<path d="M4.12073 23.8074C4.41582 23.8074 4.65503 23.5682 4.65503 23.2731C4.65503 22.978 4.41582 22.7388 4.12073 22.7388C3.82564 22.7388 3.58643 22.978 3.58643 23.2731C3.58643 23.5682 3.82564 23.8074 4.12073 23.8074Z" fill="#FF834F"/>
<path d="M4.12076 21.4437C4.38189 21.4437 4.59358 21.232 4.59358 20.9709C4.59358 20.7097 4.38189 20.498 4.12076 20.498C3.85963 20.498 3.64795 20.7097 3.64795 20.9709C3.64795 21.232 3.85963 21.4437 4.12076 21.4437Z" fill="#FF834F"/>
<path d="M4.12065 19.0816C4.34828 19.0816 4.5328 18.8971 4.5328 18.6695C4.5328 18.4419 4.34828 18.2573 4.12065 18.2573C3.89302 18.2573 3.7085 18.4419 3.7085 18.6695C3.7085 18.8971 3.89302 19.0816 4.12065 19.0816Z" fill="#FF834F"/>
<path d="M4.12054 16.7196C4.31466 16.7196 4.47203 16.5622 4.47203 16.3681C4.47203 16.174 4.31466 16.0166 4.12054 16.0166C3.92641 16.0166 3.76904 16.174 3.76904 16.3681C3.76904 16.5622 3.92641 16.7196 4.12054 16.7196Z" fill="#FF834F"/>
<path d="M4.12057 14.3573C4.28073 14.3573 4.41057 14.2275 4.41057 14.0673C4.41057 13.9072 4.28073 13.7773 4.12057 13.7773C3.96041 13.7773 3.83057 13.9072 3.83057 14.0673C3.83057 14.2275 3.96041 14.3573 4.12057 14.3573Z" fill="#FF834F"/>
<path d="M4.11997 11.9958C4.24663 11.9958 4.34931 11.8931 4.34931 11.7665C4.34931 11.6398 4.24663 11.5371 4.11997 11.5371C3.99331 11.5371 3.89062 11.6398 3.89062 11.7665C3.89062 11.8931 3.99331 11.9958 4.11997 11.9958Z" fill="#FF834F"/>
<path d="M4.12049 9.63307C4.21319 9.63307 4.28834 9.55792 4.28834 9.46522C4.28834 9.37251 4.21319 9.29736 4.12049 9.29736C4.02779 9.29736 3.95264 9.37251 3.95264 9.46522C3.95264 9.55792 4.02779 9.63307 4.12049 9.63307Z" fill="#FF834F"/>
<path d="M4.11989 7.27152C4.17909 7.27152 4.22708 7.22352 4.22708 7.16432C4.22708 7.10512 4.17909 7.05713 4.11989 7.05713C4.06069 7.05713 4.0127 7.10512 4.0127 7.16432C4.0127 7.22352 4.06069 7.27152 4.11989 7.27152Z" fill="#FF834F"/>
<path d="M5.26336 29.7079C5.6383 29.7079 5.94225 29.4039 5.94225 29.029C5.94225 28.654 5.6383 28.3501 5.26336 28.3501C4.88842 28.3501 4.58447 28.654 4.58447 29.029C4.58447 29.4039 4.88842 29.7079 5.26336 29.7079Z" fill="#FF834F"/>
<path d="M5.26247 27.3477C5.60483 27.3477 5.88236 27.0702 5.88236 26.7278C5.88236 26.3854 5.60483 26.1079 5.26247 26.1079C4.92011 26.1079 4.64258 26.3854 4.64258 26.7278C4.64258 27.0702 4.92011 27.3477 5.26247 27.3477Z" fill="#FF834F"/>
<path d="M5.26158 24.988C5.57135 24.988 5.82247 24.7369 5.82247 24.4271C5.82247 24.1173 5.57135 23.8662 5.26158 23.8662C4.9518 23.8662 4.70068 24.1173 4.70068 24.4271C4.70068 24.7369 4.9518 24.988 5.26158 24.988Z" fill="#FF834F"/>
<path d="M5.26166 22.6268C5.53885 22.6268 5.76356 22.4021 5.76356 22.1249C5.76356 21.8478 5.53885 21.623 5.26166 21.623C4.98447 21.623 4.75977 21.8478 4.75977 22.1249C4.75977 22.4021 4.98447 22.6268 5.26166 22.6268Z" fill="#FF834F"/>
<path d="M5.26014 20.2678C5.5052 20.2678 5.70387 20.0692 5.70387 19.8241C5.70387 19.579 5.5052 19.3804 5.26014 19.3804C5.01507 19.3804 4.81641 19.579 4.81641 19.8241C4.81641 20.0692 5.01507 20.2678 5.26014 20.2678Z" fill="#FF834F"/>
<path d="M5.25924 17.9076C5.47173 17.9076 5.64398 17.7354 5.64398 17.5229C5.64398 17.3104 5.47173 17.1382 5.25924 17.1382C5.04676 17.1382 4.87451 17.3104 4.87451 17.5229C4.87451 17.7354 5.04676 17.9076 5.25924 17.9076Z" fill="#FF834F"/>
<path d="M5.25786 15.547C5.43776 15.547 5.5836 15.4011 5.5836 15.2212C5.5836 15.0413 5.43776 14.8955 5.25786 14.8955C5.07796 14.8955 4.93213 15.0413 4.93213 15.2212C4.93213 15.4011 5.07796 15.547 5.25786 15.547Z" fill="#FF834F"/>
<path d="M5.25795 13.1868C5.40526 13.1868 5.52468 13.0674 5.52468 12.9201C5.52468 12.7727 5.40526 12.6533 5.25795 12.6533C5.11063 12.6533 4.99121 12.7727 4.99121 12.9201C4.99121 13.0674 5.11063 13.1868 5.25795 13.1868Z" fill="#FF834F"/>
<path d="M5.25559 10.8271C5.37032 10.8271 5.46333 10.7341 5.46333 10.6194C5.46333 10.5046 5.37032 10.4116 5.25559 10.4116C5.14086 10.4116 5.04785 10.5046 5.04785 10.6194C5.04785 10.7341 5.14086 10.8271 5.25559 10.8271Z" fill="#FF834F"/>
<path d="M5.25553 8.4676C5.33814 8.4676 5.4051 8.40063 5.4051 8.31803C5.4051 8.23542 5.33814 8.16846 5.25553 8.16846C5.17292 8.16846 5.10596 8.23542 5.10596 8.31803C5.10596 8.40063 5.17292 8.4676 5.25553 8.4676Z" fill="#FF834F"/>
<path d="M5.25464 6.10791C5.30466 6.10791 5.34521 6.06735 5.34521 6.01733C5.34521 5.96731 5.30466 5.92676 5.25464 5.92676C5.20461 5.92676 5.16406 5.96731 5.16406 6.01733C5.16406 6.06735 5.20461 6.10791 5.25464 6.10791Z" fill="#FF834F"/>
<path d="M6.41329 28.5317C6.77584 28.5317 7.06974 28.2378 7.06974 27.8752C7.06974 27.5127 6.77584 27.2188 6.41329 27.2188C6.05074 27.2188 5.75684 27.5127 5.75684 27.8752C5.75684 28.2378 6.05074 28.5317 6.41329 28.5317Z" fill="#FF834F"/>
<path d="M6.41235 26.1689C6.74094 26.1689 7.00731 25.9026 7.00731 25.574C7.00731 25.2454 6.74094 24.979 6.41235 24.979C6.08376 24.979 5.81738 25.2454 5.81738 25.574C5.81738 25.9026 6.08376 26.1689 6.41235 26.1689Z" fill="#FF834F"/>
<path d="M6.41321 23.8074C6.7083 23.8074 6.94751 23.5682 6.94751 23.2731C6.94751 22.978 6.7083 22.7388 6.41321 22.7388C6.11812 22.7388 5.87891 22.978 5.87891 23.2731C5.87891 23.5682 6.11812 23.8074 6.41321 23.8074Z" fill="#FF834F"/>
<path d="M6.41178 21.4437C6.67291 21.4437 6.88459 21.232 6.88459 20.9709C6.88459 20.7097 6.67291 20.498 6.41178 20.498C6.15065 20.498 5.93896 20.7097 5.93896 20.9709C5.93896 21.232 6.15065 21.4437 6.41178 21.4437Z" fill="#FF834F"/>
<path d="M6.41313 19.0816C6.64076 19.0816 6.82528 18.8971 6.82528 18.6695C6.82528 18.4419 6.64076 18.2573 6.41313 18.2573C6.1855 18.2573 6.00098 18.4419 6.00098 18.6695C6.00098 18.8971 6.1855 19.0816 6.41313 19.0816Z" fill="#FF834F"/>
<path d="M6.41253 16.7196C6.60665 16.7196 6.76402 16.5622 6.76402 16.3681C6.76402 16.174 6.60665 16.0166 6.41253 16.0166C6.2184 16.0166 6.06104 16.174 6.06104 16.3681C6.06104 16.5622 6.2184 16.7196 6.41253 16.7196Z" fill="#FF834F"/>
<path d="M6.41256 14.3573C6.57273 14.3573 6.70257 14.2275 6.70257 14.0673C6.70257 13.9072 6.57273 13.7773 6.41256 13.7773C6.2524 13.7773 6.12256 13.9072 6.12256 14.0673C6.12256 14.2275 6.2524 14.3573 6.41256 14.3573Z" fill="#FF834F"/>
<path d="M6.41245 11.9958C6.53911 11.9958 6.64179 11.8931 6.64179 11.7665C6.64179 11.6398 6.53911 11.5371 6.41245 11.5371C6.28579 11.5371 6.18311 11.6398 6.18311 11.7665C6.18311 11.8931 6.28579 11.9958 6.41245 11.9958Z" fill="#FF834F"/>
<path d="M6.41248 9.63307C6.50518 9.63307 6.58033 9.55792 6.58033 9.46522C6.58033 9.37251 6.50518 9.29736 6.41248 9.29736C6.31978 9.29736 6.24463 9.37251 6.24463 9.46522C6.24463 9.55792 6.31978 9.63307 6.41248 9.63307Z" fill="#FF834F"/>
<path d="M6.41237 7.27152C6.47157 7.27152 6.51956 7.22352 6.51956 7.16432C6.51956 7.10512 6.47157 7.05713 6.41237 7.05713C6.35317 7.05713 6.30518 7.10512 6.30518 7.16432C6.30518 7.22352 6.35317 7.27152 6.41237 7.27152Z" fill="#FF834F"/>
<path d="M7.55584 29.7079C7.93078 29.7079 8.23473 29.4039 8.23473 29.029C8.23473 28.654 7.93078 28.3501 7.55584 28.3501C7.1809 28.3501 6.87695 28.654 6.87695 29.029C6.87695 29.4039 7.1809 29.7079 7.55584 29.7079Z" fill="#FF834F"/>
<path d="M7.55495 27.3477C7.89731 27.3477 8.17484 27.0702 8.17484 26.7278C8.17484 26.3854 7.89731 26.1079 7.55495 26.1079C7.21259 26.1079 6.93506 26.3854 6.93506 26.7278C6.93506 27.0702 7.21259 27.3477 7.55495 27.3477Z" fill="#FF834F"/>
<path d="M7.55357 24.988C7.86334 24.988 8.11446 24.7369 8.11446 24.4271C8.11446 24.1173 7.86334 23.8662 7.55357 23.8662C7.2438 23.8662 6.99268 24.1173 6.99268 24.4271C6.99268 24.7369 7.2438 24.988 7.55357 24.988Z" fill="#FF834F"/>
<path d="M7.55414 22.6268C7.83133 22.6268 8.05604 22.4021 8.05604 22.1249C8.05604 21.8478 7.83133 21.623 7.55414 21.623C7.27695 21.623 7.05225 21.8478 7.05225 22.1249C7.05225 22.4021 7.27695 22.6268 7.55414 22.6268Z" fill="#FF834F"/>
<path d="M7.55262 20.2678C7.79768 20.2678 7.99635 20.0692 7.99635 19.8241C7.99635 19.579 7.79768 19.3804 7.55262 19.3804C7.30755 19.3804 7.10889 19.579 7.10889 19.8241C7.10889 20.0692 7.30755 20.2678 7.55262 20.2678Z" fill="#FF834F"/>
<path d="M7.55124 17.9076C7.76372 17.9076 7.93597 17.7354 7.93597 17.5229C7.93597 17.3104 7.76372 17.1382 7.55124 17.1382C7.33875 17.1382 7.1665 17.3104 7.1665 17.5229C7.1665 17.7354 7.33875 17.9076 7.55124 17.9076Z" fill="#FF834F"/>
<path d="M7.55132 15.547C7.73122 15.547 7.87705 15.4011 7.87705 15.2212C7.87705 15.0413 7.73122 14.8955 7.55132 14.8955C7.37142 14.8955 7.22559 15.0413 7.22559 15.2212C7.22559 15.4011 7.37142 15.547 7.55132 15.547Z" fill="#FF834F"/>
<path d="M7.55043 13.1868C7.69774 13.1868 7.81716 13.0674 7.81716 12.9201C7.81716 12.7727 7.69774 12.6533 7.55043 12.6533C7.40311 12.6533 7.28369 12.7727 7.28369 12.9201C7.28369 13.0674 7.40311 13.1868 7.55043 13.1868Z" fill="#FF834F"/>
<path d="M7.54954 10.8271C7.66427 10.8271 7.75727 10.7341 7.75727 10.6194C7.75727 10.5046 7.66427 10.4116 7.54954 10.4116C7.4348 10.4116 7.3418 10.5046 7.3418 10.6194C7.3418 10.7341 7.4348 10.8271 7.54954 10.8271Z" fill="#FF834F"/>
<path d="M7.54801 8.4676C7.63062 8.4676 7.69758 8.40063 7.69758 8.31803C7.69758 8.23542 7.63062 8.16846 7.54801 8.16846C7.4654 8.16846 7.39844 8.23542 7.39844 8.31803C7.39844 8.40063 7.4654 8.4676 7.54801 8.4676Z" fill="#FF834F"/>
<path d="M7.54809 6.10791C7.59812 6.10791 7.63867 6.06735 7.63867 6.01733C7.63867 5.96731 7.59812 5.92676 7.54809 5.92676C7.49807 5.92676 7.45752 5.96731 7.45752 6.01733C7.45752 6.06735 7.49807 6.10791 7.54809 6.10791Z" fill="#FF834F"/>
<path d="M8.70577 28.5317C9.06832 28.5317 9.36222 28.2378 9.36222 27.8752C9.36222 27.5127 9.06832 27.2188 8.70577 27.2188C8.34322 27.2188 8.04932 27.5127 8.04932 27.8752C8.04932 28.2378 8.34322 28.5317 8.70577 28.5317Z" fill="#FF834F"/>
<path d="M8.7058 26.1689C9.03439 26.1689 9.30077 25.9026 9.30077 25.574C9.30077 25.2454 9.03439 24.979 8.7058 24.979C8.37721 24.979 8.11084 25.2454 8.11084 25.574C8.11084 25.9026 8.37721 26.1689 8.7058 26.1689Z" fill="#FF834F"/>
<path d="M8.7052 23.8074C9.00029 23.8074 9.23951 23.5682 9.23951 23.2731C9.23951 22.978 9.00029 22.7388 8.7052 22.7388C8.41011 22.7388 8.1709 22.978 8.1709 23.2731C8.1709 23.5682 8.41011 23.8074 8.7052 23.8074Z" fill="#FF834F"/>
<path d="M8.70572 21.4437C8.96685 21.4437 9.17854 21.232 9.17854 20.9709C9.17854 20.7097 8.96685 20.498 8.70572 20.498C8.4446 20.498 8.23291 20.7097 8.23291 20.9709C8.23291 21.232 8.4446 21.4437 8.70572 21.4437Z" fill="#FF834F"/>
<path d="M8.70512 19.0816C8.93275 19.0816 9.11728 18.8971 9.11728 18.6695C9.11728 18.4419 8.93275 18.2573 8.70512 18.2573C8.4775 18.2573 8.29297 18.4419 8.29297 18.6695C8.29297 18.8971 8.4775 19.0816 8.70512 19.0816Z" fill="#FF834F"/>
<path d="M8.70501 16.7196C8.89913 16.7196 9.0565 16.5622 9.0565 16.3681C9.0565 16.174 8.89913 16.0166 8.70501 16.0166C8.51089 16.0166 8.35352 16.174 8.35352 16.3681C8.35352 16.5622 8.51089 16.7196 8.70501 16.7196Z" fill="#FF834F"/>
<path d="M8.70504 14.3573C8.86521 14.3573 8.99505 14.2275 8.99505 14.0673C8.99505 13.9072 8.86521 13.7773 8.70504 13.7773C8.54488 13.7773 8.41504 13.9072 8.41504 14.0673C8.41504 14.2275 8.54488 14.3573 8.70504 14.3573Z" fill="#FF834F"/>
<path d="M8.70493 11.9958C8.83159 11.9958 8.93427 11.8931 8.93427 11.7665C8.93427 11.6398 8.83159 11.5371 8.70493 11.5371C8.57827 11.5371 8.47559 11.6398 8.47559 11.7665C8.47559 11.8931 8.57827 11.9958 8.70493 11.9958Z" fill="#FF834F"/>
<path d="M8.70496 9.63307C8.79767 9.63307 8.87282 9.55792 8.87282 9.46522C8.87282 9.37251 8.79767 9.29736 8.70496 9.29736C8.61226 9.29736 8.53711 9.37251 8.53711 9.46522C8.53711 9.55792 8.61226 9.63307 8.70496 9.63307Z" fill="#FF834F"/>
<path d="M8.70485 7.27152C8.76405 7.27152 8.81204 7.22352 8.81204 7.16432C8.81204 7.10512 8.76405 7.05713 8.70485 7.05713C8.64565 7.05713 8.59766 7.10512 8.59766 7.16432C8.59766 7.22352 8.64565 7.27152 8.70485 7.27152Z" fill="#FF834F"/>
<path d="M9.84832 29.7079C10.2233 29.7079 10.5272 29.4039 10.5272 29.029C10.5272 28.654 10.2233 28.3501 9.84832 28.3501C9.47338 28.3501 9.16943 28.654 9.16943 29.029C9.16943 29.4039 9.47338 29.7079 9.84832 29.7079Z" fill="#FF834F"/>
<path d="M9.84694 27.3477C10.1893 27.3477 10.4668 27.0702 10.4668 26.7278C10.4668 26.3854 10.1893 26.1079 9.84694 26.1079C9.50459 26.1079 9.22705 26.3854 9.22705 26.7278C9.22705 27.0702 9.50459 27.3477 9.84694 27.3477Z" fill="#FF834F"/>
<path d="M9.84752 24.988C10.1573 24.988 10.4084 24.7369 10.4084 24.4271C10.4084 24.1173 10.1573 23.8662 9.84752 23.8662C9.53774 23.8662 9.28662 24.1173 9.28662 24.4271C9.28662 24.7369 9.53774 24.988 9.84752 24.988Z" fill="#FF834F"/>
<path d="M9.84614 22.6268C10.1233 22.6268 10.348 22.4021 10.348 22.1249C10.348 21.8478 10.1233 21.623 9.84614 21.623C9.56895 21.623 9.34424 21.8478 9.34424 22.1249C9.34424 22.4021 9.56895 22.6268 9.84614 22.6268Z" fill="#FF834F"/>
<path d="M9.84461 20.2678C10.0897 20.2678 10.2883 20.0692 10.2883 19.8241C10.2883 19.579 10.0897 19.3804 9.84461 19.3804C9.59954 19.3804 9.40088 19.579 9.40088 19.8241C9.40088 20.0692 9.59954 20.2678 9.84461 20.2678Z" fill="#FF834F"/>
<path d="M9.84518 17.9076C10.0577 17.9076 10.2299 17.7354 10.2299 17.5229C10.2299 17.3104 10.0577 17.1382 9.84518 17.1382C9.6327 17.1382 9.46045 17.3104 9.46045 17.5229C9.46045 17.7354 9.6327 17.9076 9.84518 17.9076Z" fill="#FF834F"/>
<path d="M9.8438 15.547C10.0237 15.547 10.1695 15.4011 10.1695 15.2212C10.1695 15.0413 10.0237 14.8955 9.8438 14.8955C9.6639 14.8955 9.51807 15.0413 9.51807 15.2212C9.51807 15.4011 9.6639 15.547 9.8438 15.547Z" fill="#FF834F"/>
<path d="M9.84291 13.1868C9.99022 13.1868 10.1096 13.0674 10.1096 12.9201C10.1096 12.7727 9.99022 12.6533 9.84291 12.6533C9.69559 12.6533 9.57617 12.7727 9.57617 12.9201C9.57617 13.0674 9.69559 13.1868 9.84291 13.1868Z" fill="#FF834F"/>
<path d="M9.84153 10.8271C9.95626 10.8271 10.0493 10.7341 10.0493 10.6194C10.0493 10.5046 9.95626 10.4116 9.84153 10.4116C9.7268 10.4116 9.63379 10.5046 9.63379 10.6194C9.63379 10.7341 9.7268 10.8271 9.84153 10.8271Z" fill="#FF834F"/>
<path d="M9.84147 8.4676C9.92407 8.4676 9.99104 8.40063 9.99104 8.31803C9.99104 8.23542 9.92407 8.16846 9.84147 8.16846C9.75886 8.16846 9.69189 8.23542 9.69189 8.31803C9.69189 8.40063 9.75886 8.4676 9.84147 8.4676Z" fill="#FF834F"/>
<path d="M9.84057 6.10791C9.8906 6.10791 9.93115 6.06735 9.93115 6.01733C9.93115 5.96731 9.8906 5.92676 9.84057 5.92676C9.79055 5.92676 9.75 5.96731 9.75 6.01733C9.75 6.06735 9.79055 6.10791 9.84057 6.10791Z" fill="#FF834F"/>
<path d="M10.9978 28.5317C11.3603 28.5317 11.6542 28.2378 11.6542 27.8752C11.6542 27.5127 11.3603 27.2188 10.9978 27.2188C10.6352 27.2188 10.3413 27.5127 10.3413 27.8752C10.3413 28.2378 10.6352 28.5317 10.9978 28.5317Z" fill="#FF834F"/>
<path d="M10.9978 26.1689C11.3264 26.1689 11.5928 25.9026 11.5928 25.574C11.5928 25.2454 11.3264 24.979 10.9978 24.979C10.6692 24.979 10.4028 25.2454 10.4028 25.574C10.4028 25.9026 10.6692 26.1689 10.9978 26.1689Z" fill="#FF834F"/>
<path d="M10.9977 23.8074C11.2928 23.8074 11.532 23.5682 11.532 23.2731C11.532 22.978 11.2928 22.7388 10.9977 22.7388C10.7026 22.7388 10.4634 22.978 10.4634 23.2731C10.4634 23.5682 10.7026 23.8074 10.9977 23.8074Z" fill="#FF834F"/>
<path d="M10.9977 21.4437C11.2588 21.4437 11.4705 21.232 11.4705 20.9709C11.4705 20.7097 11.2588 20.498 10.9977 20.498C10.7366 20.498 10.5249 20.7097 10.5249 20.9709C10.5249 21.232 10.7366 21.4437 10.9977 21.4437Z" fill="#FF834F"/>
<path d="M10.9976 19.0816C11.2252 19.0816 11.4098 18.8971 11.4098 18.6695C11.4098 18.4419 11.2252 18.2573 10.9976 18.2573C10.77 18.2573 10.5854 18.4419 10.5854 18.6695C10.5854 18.8971 10.77 19.0816 10.9976 19.0816Z" fill="#FF834F"/>
<path d="M10.9975 16.7196C11.1916 16.7196 11.349 16.5622 11.349 16.3681C11.349 16.174 11.1916 16.0166 10.9975 16.0166C10.8034 16.0166 10.646 16.174 10.646 16.3681C10.646 16.5622 10.8034 16.7196 10.9975 16.7196Z" fill="#FF834F"/>
<path d="M10.9975 14.3573C11.1577 14.3573 11.2875 14.2275 11.2875 14.0673C11.2875 13.9072 11.1577 13.7773 10.9975 13.7773C10.8374 13.7773 10.7075 13.9072 10.7075 14.0673C10.7075 14.2275 10.8374 14.3573 10.9975 14.3573Z" fill="#FF834F"/>
<path d="M10.9984 11.9958C11.1251 11.9958 11.2277 11.8931 11.2277 11.7665C11.2277 11.6398 11.1251 11.5371 10.9984 11.5371C10.8717 11.5371 10.769 11.6398 10.769 11.7665C10.769 11.8931 10.8717 11.9958 10.9984 11.9958Z" fill="#FF834F"/>
<path d="M10.9974 9.63307C11.0901 9.63307 11.1653 9.55792 11.1653 9.46522C11.1653 9.37251 11.0901 9.29736 10.9974 9.29736C10.9047 9.29736 10.8296 9.37251 10.8296 9.46522C10.8296 9.55792 10.9047 9.63307 10.9974 9.63307Z" fill="#FF834F"/>
<path d="M10.9983 7.27152C11.0575 7.27152 11.1055 7.22352 11.1055 7.16432C11.1055 7.10512 11.0575 7.05713 10.9983 7.05713C10.9391 7.05713 10.8911 7.10512 10.8911 7.16432C10.8911 7.22352 10.9391 7.27152 10.9983 7.27152Z" fill="#FF834F"/>
<path d="M12.1408 29.7079C12.5157 29.7079 12.8197 29.4039 12.8197 29.029C12.8197 28.654 12.5157 28.3501 12.1408 28.3501C11.7659 28.3501 11.4619 28.654 11.4619 29.029C11.4619 29.4039 11.7659 29.7079 12.1408 29.7079Z" fill="#FF834F"/>
<path d="M12.1409 27.3477C12.4832 27.3477 12.7608 27.0702 12.7608 26.7278C12.7608 26.3854 12.4832 26.1079 12.1409 26.1079C11.7985 26.1079 11.521 26.3854 11.521 26.7278C11.521 27.0702 11.7985 27.3477 12.1409 27.3477Z" fill="#FF834F"/>
<path d="M12.1395 24.988C12.4493 24.988 12.7004 24.7369 12.7004 24.4271C12.7004 24.1173 12.4493 23.8662 12.1395 23.8662C11.8297 23.8662 11.5786 24.1173 11.5786 24.4271C11.5786 24.7369 11.8297 24.988 12.1395 24.988Z" fill="#FF834F"/>
<path d="M12.1386 22.6268C12.4158 22.6268 12.6405 22.4021 12.6405 22.1249C12.6405 21.8478 12.4158 21.623 12.1386 21.623C11.8614 21.623 11.6367 21.8478 11.6367 22.1249C11.6367 22.4021 11.8614 22.6268 12.1386 22.6268Z" fill="#FF834F"/>
<path d="M12.1371 20.2678C12.3822 20.2678 12.5808 20.0692 12.5808 19.8241C12.5808 19.579 12.3822 19.3804 12.1371 19.3804C11.892 19.3804 11.6934 19.579 11.6934 19.8241C11.6934 20.0692 11.892 20.2678 12.1371 20.2678Z" fill="#FF834F"/>
<path d="M12.1372 17.9076C12.3497 17.9076 12.5219 17.7354 12.5219 17.5229C12.5219 17.3104 12.3497 17.1382 12.1372 17.1382C11.9247 17.1382 11.7524 17.3104 11.7524 17.5229C11.7524 17.7354 11.9247 17.9076 12.1372 17.9076Z" fill="#FF834F"/>
<path d="M12.1363 15.547C12.3162 15.547 12.462 15.4011 12.462 15.2212C12.462 15.0413 12.3162 14.8955 12.1363 14.8955C11.9564 14.8955 11.8105 15.0413 11.8105 15.2212C11.8105 15.4011 11.9564 15.547 12.1363 15.547Z" fill="#FF834F"/>
<path d="M12.1354 13.1868C12.2827 13.1868 12.4021 13.0674 12.4021 12.9201C12.4021 12.7727 12.2827 12.6533 12.1354 12.6533C11.9881 12.6533 11.8687 12.7727 11.8687 12.9201C11.8687 13.0674 11.9881 13.1868 12.1354 13.1868Z" fill="#FF834F"/>
<path d="M12.134 10.8271C12.2487 10.8271 12.3417 10.7341 12.3417 10.6194C12.3417 10.5046 12.2487 10.4116 12.134 10.4116C12.0193 10.4116 11.9263 10.5046 11.9263 10.6194C11.9263 10.7341 12.0193 10.8271 12.134 10.8271Z" fill="#FF834F"/>
<path d="M12.1339 8.4676C12.2166 8.4676 12.2835 8.40063 12.2835 8.31803C12.2835 8.23542 12.2166 8.16846 12.1339 8.16846C12.0513 8.16846 11.9844 8.23542 11.9844 8.31803C11.9844 8.40063 12.0513 8.4676 12.1339 8.4676Z" fill="#FF834F"/>
<path d="M12.1326 6.10791C12.1826 6.10791 12.2231 6.06735 12.2231 6.01733C12.2231 5.96731 12.1826 5.92676 12.1326 5.92676C12.0825 5.92676 12.042 5.96731 12.042 6.01733C12.042 6.06735 12.0825 6.10791 12.1326 6.10791Z" fill="#FF834F"/>
<path d="M13.2902 28.5317C13.6528 28.5317 13.9467 28.2378 13.9467 27.8752C13.9467 27.5127 13.6528 27.2188 13.2902 27.2188C12.9277 27.2188 12.6338 27.5127 12.6338 27.8752C12.6338 28.2378 12.9277 28.5317 13.2902 28.5317Z" fill="#FF834F"/>
<path d="M13.2903 26.1689C13.6189 26.1689 13.8852 25.9026 13.8852 25.574C13.8852 25.2454 13.6189 24.979 13.2903 24.979C12.9617 24.979 12.6953 25.2454 12.6953 25.574C12.6953 25.9026 12.9617 26.1689 13.2903 26.1689Z" fill="#FF834F"/>
<path d="M13.2902 23.8074C13.5853 23.8074 13.8245 23.5682 13.8245 23.2731C13.8245 22.978 13.5853 22.7388 13.2902 22.7388C12.9951 22.7388 12.7559 22.978 12.7559 23.2731C12.7559 23.5682 12.9951 23.8074 13.2902 23.8074Z" fill="#FF834F"/>
<path d="M13.2902 21.4437C13.5513 21.4437 13.763 21.232 13.763 20.9709C13.763 20.7097 13.5513 20.498 13.2902 20.498C13.0291 20.498 12.8174 20.7097 12.8174 20.9709C12.8174 21.232 13.0291 21.4437 13.2902 21.4437Z" fill="#FF834F"/>
<path d="M13.2901 19.0816C13.5177 19.0816 13.7022 18.8971 13.7022 18.6695C13.7022 18.4419 13.5177 18.2573 13.2901 18.2573C13.0625 18.2573 12.8779 18.4419 12.8779 18.6695C12.8779 18.8971 13.0625 19.0816 13.2901 19.0816Z" fill="#FF834F"/>
<path d="M13.2909 16.7196C13.4851 16.7196 13.6424 16.5622 13.6424 16.3681C13.6424 16.174 13.4851 16.0166 13.2909 16.0166C13.0968 16.0166 12.9395 16.174 12.9395 16.3681C12.9395 16.5622 13.0968 16.7196 13.2909 16.7196Z" fill="#FF834F"/>
<path d="M13.291 14.3573C13.4511 14.3573 13.581 14.2275 13.581 14.0673C13.581 13.9072 13.4511 13.7773 13.291 13.7773C13.1308 13.7773 13.001 13.9072 13.001 14.0673C13.001 14.2275 13.1308 14.3573 13.291 14.3573Z" fill="#FF834F"/>
<path d="M13.2909 11.9958C13.4175 11.9958 13.5202 11.8931 13.5202 11.7665C13.5202 11.6398 13.4175 11.5371 13.2909 11.5371C13.1642 11.5371 13.0615 11.6398 13.0615 11.7665C13.0615 11.8931 13.1642 11.9958 13.2909 11.9958Z" fill="#FF834F"/>
<path d="M13.2909 9.63307C13.3836 9.63307 13.4588 9.55792 13.4588 9.46522C13.4588 9.37251 13.3836 9.29736 13.2909 9.29736C13.1982 9.29736 13.123 9.37251 13.123 9.46522C13.123 9.55792 13.1982 9.63307 13.2909 9.63307Z" fill="#FF834F"/>
<path d="M13.2908 7.27152C13.35 7.27152 13.398 7.22352 13.398 7.16432C13.398 7.10512 13.35 7.05713 13.2908 7.05713C13.2316 7.05713 13.1836 7.10512 13.1836 7.16432C13.1836 7.22352 13.2316 7.27152 13.2908 7.27152Z" fill="#FF834F"/>
<path d="M14.4343 29.7079C14.8092 29.7079 15.1132 29.4039 15.1132 29.029C15.1132 28.654 14.8092 28.3501 14.4343 28.3501C14.0593 28.3501 13.7554 28.654 13.7554 29.029C13.7554 29.4039 14.0593 29.7079 14.4343 29.7079Z" fill="#FF834F"/>
<path d="M14.4329 27.3477C14.7752 27.3477 15.0528 27.0702 15.0528 26.7278C15.0528 26.3854 14.7752 26.1079 14.4329 26.1079C14.0905 26.1079 13.813 26.3854 13.813 26.7278C13.813 27.0702 14.0905 27.3477 14.4329 27.3477Z" fill="#FF834F"/>
<path d="M14.432 24.988C14.7418 24.988 14.9929 24.7369 14.9929 24.4271C14.9929 24.1173 14.7418 23.8662 14.432 23.8662C14.1222 23.8662 13.8711 24.1173 13.8711 24.4271C13.8711 24.7369 14.1222 24.988 14.432 24.988Z" fill="#FF834F"/>
<path d="M14.4311 22.6268C14.7083 22.6268 14.933 22.4021 14.933 22.1249C14.933 21.8478 14.7083 21.623 14.4311 21.623C14.1539 21.623 13.9292 21.8478 13.9292 22.1249C13.9292 22.4021 14.1539 22.6268 14.4311 22.6268Z" fill="#FF834F"/>
<path d="M14.4305 20.2678C14.6756 20.2678 14.8743 20.0692 14.8743 19.8241C14.8743 19.579 14.6756 19.3804 14.4305 19.3804C14.1855 19.3804 13.9868 19.579 13.9868 19.8241C13.9868 20.0692 14.1855 20.2678 14.4305 20.2678Z" fill="#FF834F"/>
<path d="M14.4297 17.9076C14.6421 17.9076 14.8144 17.7354 14.8144 17.5229C14.8144 17.3104 14.6421 17.1382 14.4297 17.1382C14.2172 17.1382 14.0449 17.3104 14.0449 17.5229C14.0449 17.7354 14.2172 17.9076 14.4297 17.9076Z" fill="#FF834F"/>
<path d="M14.4288 15.547C14.6087 15.547 14.7545 15.4011 14.7545 15.2212C14.7545 15.0413 14.6087 14.8955 14.4288 14.8955C14.2489 14.8955 14.103 15.0413 14.103 15.2212C14.103 15.4011 14.2489 15.547 14.4288 15.547Z" fill="#FF834F"/>
<path d="M14.4274 13.1868C14.5747 13.1868 14.6941 13.0674 14.6941 12.9201C14.6941 12.7727 14.5747 12.6533 14.4274 12.6533C14.2801 12.6533 14.1606 12.7727 14.1606 12.9201C14.1606 13.0674 14.2801 13.1868 14.4274 13.1868Z" fill="#FF834F"/>
<path d="M14.4265 10.8271C14.5412 10.8271 14.6342 10.7341 14.6342 10.6194C14.6342 10.5046 14.5412 10.4116 14.4265 10.4116C14.3118 10.4116 14.2188 10.5046 14.2188 10.6194C14.2188 10.7341 14.3118 10.8271 14.4265 10.8271Z" fill="#FF834F"/>
<path d="M14.4259 8.4676C14.5085 8.4676 14.5755 8.40063 14.5755 8.31803C14.5755 8.23542 14.5085 8.16846 14.4259 8.16846C14.3433 8.16846 14.2764 8.23542 14.2764 8.31803C14.2764 8.40063 14.3433 8.4676 14.4259 8.4676Z" fill="#FF834F"/>
<path d="M14.425 6.10791C14.4751 6.10791 14.5156 6.06735 14.5156 6.01733C14.5156 5.96731 14.4751 5.92676 14.425 5.92676C14.375 5.92676 14.3345 5.96731 14.3345 6.01733C14.3345 6.06735 14.375 6.10791 14.425 6.10791Z" fill="#FF834F"/>
<path d="M15.5827 28.5317C15.9453 28.5317 16.2392 28.2378 16.2392 27.8752C16.2392 27.5127 15.9453 27.2188 15.5827 27.2188C15.2202 27.2188 14.9263 27.5127 14.9263 27.8752C14.9263 28.2378 15.2202 28.5317 15.5827 28.5317Z" fill="#FF834F"/>
<path d="M15.5828 26.1689C15.9113 26.1689 16.1777 25.9026 16.1777 25.574C16.1777 25.2454 15.9113 24.979 15.5828 24.979C15.2542 24.979 14.9878 25.2454 14.9878 25.574C14.9878 25.9026 15.2542 26.1689 15.5828 26.1689Z" fill="#FF834F"/>
<path d="M15.5826 23.8074C15.8777 23.8074 16.1169 23.5682 16.1169 23.2731C16.1169 22.978 15.8777 22.7388 15.5826 22.7388C15.2876 22.7388 15.0483 22.978 15.0483 23.2731C15.0483 23.5682 15.2876 23.8074 15.5826 23.8074Z" fill="#FF834F"/>
<path d="M15.5837 21.4437C15.8448 21.4437 16.0565 21.232 16.0565 20.9709C16.0565 20.7097 15.8448 20.498 15.5837 20.498C15.3225 20.498 15.1108 20.7097 15.1108 20.9709C15.1108 21.232 15.3225 21.4437 15.5837 21.4437Z" fill="#FF834F"/>
<path d="M15.5826 19.0816C15.8102 19.0816 15.9947 18.8971 15.9947 18.6695C15.9947 18.4419 15.8102 18.2573 15.5826 18.2573C15.3549 18.2573 15.1704 18.4419 15.1704 18.6695C15.1704 18.8971 15.3549 19.0816 15.5826 19.0816Z" fill="#FF834F"/>
<path d="M15.582 16.7196C15.7761 16.7196 15.9335 16.5622 15.9335 16.3681C15.9335 16.174 15.7761 16.0166 15.582 16.0166C15.3878 16.0166 15.2305 16.174 15.2305 16.3681C15.2305 16.5622 15.3878 16.7196 15.582 16.7196Z" fill="#FF834F"/>
<path d="M15.5835 14.3573C15.7436 14.3573 15.8735 14.2275 15.8735 14.0673C15.8735 13.9072 15.7436 13.7773 15.5835 13.7773C15.4233 13.7773 15.2935 13.9072 15.2935 14.0673C15.2935 14.2275 15.4233 14.3573 15.5835 14.3573Z" fill="#FF834F"/>
<path d="M15.5833 11.9958C15.71 11.9958 15.8127 11.8931 15.8127 11.7665C15.8127 11.6398 15.71 11.5371 15.5833 11.5371C15.4567 11.5371 15.354 11.6398 15.354 11.7665C15.354 11.8931 15.4567 11.9958 15.5833 11.9958Z" fill="#FF834F"/>
<path d="M15.5834 9.63307C15.6761 9.63307 15.7512 9.55792 15.7512 9.46522C15.7512 9.37251 15.6761 9.29736 15.5834 9.29736C15.4907 9.29736 15.4155 9.37251 15.4155 9.46522C15.4155 9.55792 15.4907 9.63307 15.5834 9.63307Z" fill="#FF834F"/>
<path d="M15.5828 7.27152C15.642 7.27152 15.69 7.22352 15.69 7.16432C15.69 7.10512 15.642 7.05713 15.5828 7.05713C15.5236 7.05713 15.4756 7.10512 15.4756 7.16432C15.4756 7.22352 15.5236 7.27152 15.5828 7.27152Z" fill="#FF834F"/>
<path d="M16.7267 29.7079C17.1017 29.7079 17.4056 29.4039 17.4056 29.029C17.4056 28.654 17.1017 28.3501 16.7267 28.3501C16.3518 28.3501 16.0479 28.654 16.0479 29.029C16.0479 29.4039 16.3518 29.7079 16.7267 29.7079Z" fill="#FF834F"/>
<path d="M16.7254 27.3477C17.0677 27.3477 17.3453 27.0702 17.3453 26.7278C17.3453 26.3854 17.0677 26.1079 16.7254 26.1079C16.383 26.1079 16.1055 26.3854 16.1055 26.7278C16.1055 27.0702 16.383 27.3477 16.7254 27.3477Z" fill="#FF834F"/>
<path d="M16.7245 24.988C17.0342 24.988 17.2854 24.7369 17.2854 24.4271C17.2854 24.1173 17.0342 23.8662 16.7245 23.8662C16.4147 23.8662 16.1636 24.1173 16.1636 24.4271C16.1636 24.7369 16.4147 24.988 16.7245 24.988Z" fill="#FF834F"/>
<path d="M16.7231 22.6268C17.0003 22.6268 17.225 22.4021 17.225 22.1249C17.225 21.8478 17.0003 21.623 16.7231 21.623C16.4459 21.623 16.2212 21.8478 16.2212 22.1249C16.2212 22.4021 16.4459 22.6268 16.7231 22.6268Z" fill="#FF834F"/>
<path d="M16.723 20.2678C16.9681 20.2678 17.1668 20.0692 17.1668 19.8241C17.1668 19.579 16.9681 19.3804 16.723 19.3804C16.478 19.3804 16.2793 19.579 16.2793 19.8241C16.2793 20.0692 16.478 20.2678 16.723 20.2678Z" fill="#FF834F"/>
<path d="M16.7221 17.9076C16.9346 17.9076 17.1069 17.7354 17.1069 17.5229C17.1069 17.3104 16.9346 17.1382 16.7221 17.1382C16.5097 17.1382 16.3374 17.3104 16.3374 17.5229C16.3374 17.7354 16.5097 17.9076 16.7221 17.9076Z" fill="#FF834F"/>
<path d="M16.7208 15.547C16.9007 15.547 17.0465 15.4011 17.0465 15.2212C17.0465 15.0413 16.9007 14.8955 16.7208 14.8955C16.5409 14.8955 16.395 15.0413 16.395 15.2212C16.395 15.4011 16.5409 15.547 16.7208 15.547Z" fill="#FF834F"/>
<path d="M16.7199 13.1868C16.8672 13.1868 16.9866 13.0674 16.9866 12.9201C16.9866 12.7727 16.8672 12.6533 16.7199 12.6533C16.5725 12.6533 16.4531 12.7727 16.4531 12.9201C16.4531 13.0674 16.5725 13.1868 16.7199 13.1868Z" fill="#FF834F"/>
<path d="M16.7199 10.8271C16.8347 10.8271 16.9277 10.7341 16.9277 10.6194C16.9277 10.5046 16.8347 10.4116 16.7199 10.4116C16.6052 10.4116 16.5122 10.5046 16.5122 10.6194C16.5122 10.7341 16.6052 10.8271 16.7199 10.8271Z" fill="#FF834F"/>
<path d="M16.7184 8.4676C16.801 8.4676 16.868 8.40063 16.868 8.31803C16.868 8.23542 16.801 8.16846 16.7184 8.16846C16.6358 8.16846 16.5688 8.23542 16.5688 8.31803C16.5688 8.40063 16.6358 8.4676 16.7184 8.4676Z" fill="#FF834F"/>
<path d="M16.7185 6.10791C16.7685 6.10791 16.8091 6.06735 16.8091 6.01733C16.8091 5.96731 16.7685 5.92676 16.7185 5.92676C16.6685 5.92676 16.6279 5.96731 16.6279 6.01733C16.6279 6.06735 16.6685 6.10791 16.7185 6.10791Z" fill="#FF834F"/>
<path d="M17.8747 28.5317C18.2373 28.5317 18.5312 28.2378 18.5312 27.8752C18.5312 27.5127 18.2373 27.2188 17.8747 27.2188C17.5122 27.2188 17.2183 27.5127 17.2183 27.8752C17.2183 28.2378 17.5122 28.5317 17.8747 28.5317Z" fill="#FF834F"/>
<path d="M17.8752 26.1689C18.2038 26.1689 18.4702 25.9026 18.4702 25.574C18.4702 25.2454 18.2038 24.979 17.8752 24.979C17.5466 24.979 17.2803 25.2454 17.2803 25.574C17.2803 25.9026 17.5466 26.1689 17.8752 26.1689Z" fill="#FF834F"/>
<path d="M17.8746 23.8074C18.1697 23.8074 18.4089 23.5682 18.4089 23.2731C18.4089 22.978 18.1697 22.7388 17.8746 22.7388C17.5795 22.7388 17.3403 22.978 17.3403 23.2731C17.3403 23.5682 17.5795 23.8074 17.8746 23.8074Z" fill="#FF834F"/>
<path d="M17.8747 21.4437C18.1358 21.4437 18.3475 21.232 18.3475 20.9709C18.3475 20.7097 18.1358 20.498 17.8747 20.498C17.6135 20.498 17.4019 20.7097 17.4019 20.9709C17.4019 21.232 17.6135 21.4437 17.8747 21.4437Z" fill="#FF834F"/>
<path d="M17.8746 19.0816C18.1022 19.0816 18.2867 18.8971 18.2867 18.6695C18.2867 18.4419 18.1022 18.2573 17.8746 18.2573C17.6469 18.2573 17.4624 18.4419 17.4624 18.6695C17.4624 18.8971 17.6469 19.0816 17.8746 19.0816Z" fill="#FF834F"/>
<path d="M17.8754 16.7196C18.0695 16.7196 18.2269 16.5622 18.2269 16.3681C18.2269 16.174 18.0695 16.0166 17.8754 16.0166C17.6813 16.0166 17.5239 16.174 17.5239 16.3681C17.5239 16.5622 17.6813 16.7196 17.8754 16.7196Z" fill="#FF834F"/>
<path d="M17.8759 14.3573C18.0361 14.3573 18.1659 14.2275 18.1659 14.0673C18.1659 13.9072 18.0361 13.7773 17.8759 13.7773C17.7158 13.7773 17.5859 13.9072 17.5859 14.0673C17.5859 14.2275 17.7158 14.3573 17.8759 14.3573Z" fill="#FF834F"/>
<path d="M17.8753 11.9958C18.002 11.9958 18.1047 11.8931 18.1047 11.7665C18.1047 11.6398 18.002 11.5371 17.8753 11.5371C17.7487 11.5371 17.646 11.6398 17.646 11.7665C17.646 11.8931 17.7487 11.9958 17.8753 11.9958Z" fill="#FF834F"/>
<path d="M17.8754 9.63307C17.9681 9.63307 18.0432 9.55792 18.0432 9.46522C18.0432 9.37251 17.9681 9.29736 17.8754 9.29736C17.7827 9.29736 17.7075 9.37251 17.7075 9.46522C17.7075 9.55792 17.7827 9.63307 17.8754 9.63307Z" fill="#FF834F"/>
<path d="M17.8753 7.27152C17.9345 7.27152 17.9825 7.22352 17.9825 7.16432C17.9825 7.10512 17.9345 7.05713 17.8753 7.05713C17.8161 7.05713 17.7681 7.10512 17.7681 7.16432C17.7681 7.22352 17.8161 7.27152 17.8753 7.27152Z" fill="#FF834F"/>
<path d="M19.0187 29.7079C19.3937 29.7079 19.6976 29.4039 19.6976 29.029C19.6976 28.654 19.3937 28.3501 19.0187 28.3501C18.6438 28.3501 18.3398 28.654 18.3398 29.029C18.3398 29.4039 18.6438 29.7079 19.0187 29.7079Z" fill="#FF834F"/>
<path d="M19.0178 27.3477C19.3602 27.3477 19.6377 27.0702 19.6377 26.7278C19.6377 26.3854 19.3602 26.1079 19.0178 26.1079C18.6755 26.1079 18.3979 26.3854 18.3979 26.7278C18.3979 27.0702 18.6755 27.3477 19.0178 27.3477Z" fill="#FF834F"/>
<path d="M19.0169 24.988C19.3267 24.988 19.5778 24.7369 19.5778 24.4271C19.5778 24.1173 19.3267 23.8662 19.0169 23.8662C18.7072 23.8662 18.4561 24.1173 18.4561 24.4271C18.4561 24.7369 18.7072 24.988 19.0169 24.988Z" fill="#FF834F"/>
<path d="M19.017 22.6268C19.2942 22.6268 19.5189 22.4021 19.5189 22.1249C19.5189 21.8478 19.2942 21.623 19.017 21.623C18.7398 21.623 18.5151 21.8478 18.5151 22.1249C18.5151 22.4021 18.7398 22.6268 19.017 22.6268Z" fill="#FF834F"/>
<path d="M19.0155 20.2678C19.2606 20.2678 19.4592 20.0692 19.4592 19.8241C19.4592 19.579 19.2606 19.3804 19.0155 19.3804C18.7704 19.3804 18.5718 19.579 18.5718 19.8241C18.5718 20.0692 18.7704 20.2678 19.0155 20.2678Z" fill="#FF834F"/>
<path d="M19.0156 17.9076C19.2281 17.9076 19.4003 17.7354 19.4003 17.5229C19.4003 17.3104 19.2281 17.1382 19.0156 17.1382C18.8031 17.1382 18.6309 17.3104 18.6309 17.5229C18.6309 17.7354 18.8031 17.9076 19.0156 17.9076Z" fill="#FF834F"/>
<path d="M19.0132 15.547C19.1931 15.547 19.339 15.4011 19.339 15.2212C19.339 15.0413 19.1931 14.8955 19.0132 14.8955C18.8333 14.8955 18.6875 15.0413 18.6875 15.2212C18.6875 15.4011 18.8333 15.547 19.0132 15.547Z" fill="#FF834F"/>
<path d="M19.0123 13.1868C19.1597 13.1868 19.2791 13.0674 19.2791 12.9201C19.2791 12.7727 19.1597 12.6533 19.0123 12.6533C18.865 12.6533 18.7456 12.7727 18.7456 12.9201C18.7456 13.0674 18.865 13.1868 19.0123 13.1868Z" fill="#FF834F"/>
<path d="M19.011 10.8271C19.1257 10.8271 19.2187 10.7341 19.2187 10.6194C19.2187 10.5046 19.1257 10.4116 19.011 10.4116C18.8962 10.4116 18.8032 10.5046 18.8032 10.6194C18.8032 10.7341 18.8962 10.8271 19.011 10.8271Z" fill="#FF834F"/>
<path d="M19.0109 8.4676C19.0935 8.4676 19.1605 8.40063 19.1605 8.31803C19.1605 8.23542 19.0935 8.16846 19.0109 8.16846C18.9283 8.16846 18.8613 8.23542 18.8613 8.31803C18.8613 8.40063 18.9283 8.4676 19.0109 8.4676Z" fill="#FF834F"/>
<path d="M19.01 6.10791C19.06 6.10791 19.1006 6.06735 19.1006 6.01733C19.1006 5.96731 19.06 5.92676 19.01 5.92676C18.96 5.92676 18.9194 5.96731 18.9194 6.01733C18.9194 6.06735 18.96 6.10791 19.01 6.10791Z" fill="#FF834F"/>
<path d="M20.1672 28.5317C20.5297 28.5317 20.8237 28.2378 20.8237 27.8752C20.8237 27.5127 20.5297 27.2188 20.1672 27.2188C19.8046 27.2188 19.5107 27.5127 19.5107 27.8752C19.5107 28.2378 19.8046 28.5317 20.1672 28.5317Z" fill="#FF834F"/>
<path d="M20.1672 26.1689C20.4958 26.1689 20.7622 25.9026 20.7622 25.574C20.7622 25.2454 20.4958 24.979 20.1672 24.979C19.8386 24.979 19.5723 25.2454 19.5723 25.574C19.5723 25.9026 19.8386 26.1689 20.1672 26.1689Z" fill="#FF834F"/>
<path d="M20.1671 23.8074C20.4622 23.8074 20.7014 23.5682 20.7014 23.2731C20.7014 22.978 20.4622 22.7388 20.1671 22.7388C19.872 22.7388 19.6328 22.978 19.6328 23.2731C19.6328 23.5682 19.872 23.8074 20.1671 23.8074Z" fill="#FF834F"/>
<path d="M20.1671 21.4437C20.4283 21.4437 20.64 21.232 20.64 20.9709C20.64 20.7097 20.4283 20.498 20.1671 20.498C19.906 20.498 19.6943 20.7097 19.6943 20.9709C19.6943 21.232 19.906 21.4437 20.1671 21.4437Z" fill="#FF834F"/>
<path d="M20.167 19.0816C20.3947 19.0816 20.5792 18.8971 20.5792 18.6695C20.5792 18.4419 20.3947 18.2573 20.167 18.2573C19.9394 18.2573 19.7549 18.4419 19.7549 18.6695C19.7549 18.8971 19.9394 19.0816 20.167 19.0816Z" fill="#FF834F"/>
<path d="M20.1669 16.7196C20.361 16.7196 20.5184 16.5622 20.5184 16.3681C20.5184 16.174 20.361 16.0166 20.1669 16.0166C19.9728 16.0166 19.8154 16.174 19.8154 16.3681C19.8154 16.5622 19.9728 16.7196 20.1669 16.7196Z" fill="#FF834F"/>
<path d="M20.167 14.3573C20.3271 14.3573 20.457 14.2275 20.457 14.0673C20.457 13.9072 20.3271 13.7773 20.167 13.7773C20.0068 13.7773 19.877 13.9072 19.877 14.0673C19.877 14.2275 20.0068 14.3573 20.167 14.3573Z" fill="#FF834F"/>
<path d="M20.1664 11.9958C20.293 11.9958 20.3957 11.8931 20.3957 11.7665C20.3957 11.6398 20.293 11.5371 20.1664 11.5371C20.0397 11.5371 19.937 11.6398 19.937 11.7665C19.937 11.8931 20.0397 11.9958 20.1664 11.9958Z" fill="#FF834F"/>
<path d="M20.1669 9.63307C20.2596 9.63307 20.3347 9.55792 20.3347 9.46522C20.3347 9.37251 20.2596 9.29736 20.1669 9.29736C20.0742 9.29736 19.999 9.37251 19.999 9.46522C19.999 9.55792 20.0742 9.63307 20.1669 9.63307Z" fill="#FF834F"/>
<path d="M20.1663 7.27152C20.2255 7.27152 20.2735 7.22352 20.2735 7.16432C20.2735 7.10512 20.2255 7.05713 20.1663 7.05713C20.1071 7.05713 20.0591 7.10512 20.0591 7.16432C20.0591 7.22352 20.1071 7.27152 20.1663 7.27152Z" fill="#FF834F"/>
<path d="M21.3097 29.7079C21.6847 29.7079 21.9886 29.4039 21.9886 29.029C21.9886 28.654 21.6847 28.3501 21.3097 28.3501C20.9348 28.3501 20.6309 28.654 20.6309 29.029C20.6309 29.4039 20.9348 29.7079 21.3097 29.7079Z" fill="#FF834F"/>
<path d="M21.3103 27.3477C21.6527 27.3477 21.9302 27.0702 21.9302 26.7278C21.9302 26.3854 21.6527 26.1079 21.3103 26.1079C20.968 26.1079 20.6904 26.3854 20.6904 26.7278C20.6904 27.0702 20.968 27.3477 21.3103 27.3477Z" fill="#FF834F"/>
<path d="M21.3089 24.988C21.6187 24.988 21.8698 24.7369 21.8698 24.4271C21.8698 24.1173 21.6187 23.8662 21.3089 23.8662C20.9992 23.8662 20.748 24.1173 20.748 24.4271C20.748 24.7369 20.9992 24.988 21.3089 24.988Z" fill="#FF834F"/>
<path d="M21.308 22.6268C21.5852 22.6268 21.8099 22.4021 21.8099 22.1249C21.8099 21.8478 21.5852 21.623 21.308 21.623C21.0309 21.623 20.8062 21.8478 20.8062 22.1249C20.8062 22.4021 21.0309 22.6268 21.308 22.6268Z" fill="#FF834F"/>
<path d="M21.308 20.2678C21.5531 20.2678 21.7517 20.0692 21.7517 19.8241C21.7517 19.579 21.5531 19.3804 21.308 19.3804C21.0629 19.3804 20.8643 19.579 20.8643 19.8241C20.8643 20.0692 21.0629 20.2678 21.308 20.2678Z" fill="#FF834F"/>
<path d="M21.3066 17.9076C21.5191 17.9076 21.6913 17.7354 21.6913 17.5229C21.6913 17.3104 21.5191 17.1382 21.3066 17.1382C21.0941 17.1382 20.9219 17.3104 20.9219 17.5229C20.9219 17.7354 21.0941 17.9076 21.3066 17.9076Z" fill="#FF834F"/>
<path d="M21.3057 15.547C21.4856 15.547 21.6314 15.4011 21.6314 15.2212C21.6314 15.0413 21.4856 14.8955 21.3057 14.8955C21.1258 14.8955 20.98 15.0413 20.98 15.2212C20.98 15.4011 21.1258 15.547 21.3057 15.547Z" fill="#FF834F"/>
<path d="M21.3043 13.1868C21.4517 13.1868 21.5711 13.0674 21.5711 12.9201C21.5711 12.7727 21.4517 12.6533 21.3043 12.6533C21.157 12.6533 21.0376 12.7727 21.0376 12.9201C21.0376 13.0674 21.157 13.1868 21.3043 13.1868Z" fill="#FF834F"/>
<path d="M21.3049 10.8271C21.4196 10.8271 21.5126 10.7341 21.5126 10.6194C21.5126 10.5046 21.4196 10.4116 21.3049 10.4116C21.1902 10.4116 21.0972 10.5046 21.0972 10.6194C21.0972 10.7341 21.1902 10.8271 21.3049 10.8271Z" fill="#FF834F"/>
<path d="M21.3034 8.4676C21.386 8.4676 21.453 8.40063 21.453 8.31803C21.453 8.23542 21.386 8.16846 21.3034 8.16846C21.2208 8.16846 21.1538 8.23542 21.1538 8.31803C21.1538 8.40063 21.2208 8.4676 21.3034 8.4676Z" fill="#FF834F"/>
<path d="M21.302 6.10791C21.352 6.10791 21.3926 6.06735 21.3926 6.01733C21.3926 5.96731 21.352 5.92676 21.302 5.92676C21.252 5.92676 21.2114 5.96731 21.2114 6.01733C21.2114 6.06735 21.252 6.10791 21.302 6.10791Z" fill="#FF834F"/>
<path d="M22.4597 28.5317C22.8222 28.5317 23.1161 28.2378 23.1161 27.8752C23.1161 27.5127 22.8222 27.2188 22.4597 27.2188C22.0971 27.2188 21.8032 27.5127 21.8032 27.8752C21.8032 28.2378 22.0971 28.5317 22.4597 28.5317Z" fill="#FF834F"/>
<path d="M22.4597 26.1689C22.7883 26.1689 23.0547 25.9026 23.0547 25.574C23.0547 25.2454 22.7883 24.979 22.4597 24.979C22.1311 24.979 21.8647 25.2454 21.8647 25.574C21.8647 25.9026 22.1311 26.1689 22.4597 26.1689Z" fill="#FF834F"/>
<path d="M22.4596 23.8074C22.7547 23.8074 22.9939 23.5682 22.9939 23.2731C22.9939 22.978 22.7547 22.7388 22.4596 22.7388C22.1645 22.7388 21.9253 22.978 21.9253 23.2731C21.9253 23.5682 22.1645 23.8074 22.4596 23.8074Z" fill="#FF834F"/>
<path d="M22.4596 21.4437C22.7208 21.4437 22.9324 21.232 22.9324 20.9709C22.9324 20.7097 22.7208 20.498 22.4596 20.498C22.1985 20.498 21.9868 20.7097 21.9868 20.9709C21.9868 21.232 22.1985 21.4437 22.4596 21.4437Z" fill="#FF834F"/>
<path d="M22.4595 19.0816C22.6871 19.0816 22.8717 18.8971 22.8717 18.6695C22.8717 18.4419 22.6871 18.2573 22.4595 18.2573C22.2319 18.2573 22.0474 18.4419 22.0474 18.6695C22.0474 18.8971 22.2319 19.0816 22.4595 19.0816Z" fill="#FF834F"/>
<path d="M22.4604 16.7196C22.6545 16.7196 22.8119 16.5622 22.8119 16.3681C22.8119 16.174 22.6545 16.0166 22.4604 16.0166C22.2663 16.0166 22.1089 16.174 22.1089 16.3681C22.1089 16.5622 22.2663 16.7196 22.4604 16.7196Z" fill="#FF834F"/>
<path d="M22.459 14.3573C22.6191 14.3573 22.749 14.2275 22.749 14.0673C22.749 13.9072 22.6191 13.7773 22.459 13.7773C22.2988 13.7773 22.1689 13.9072 22.1689 14.0673C22.1689 14.2275 22.2988 14.3573 22.459 14.3573Z" fill="#FF834F"/>
<path d="M22.4603 11.9958C22.587 11.9958 22.6896 11.8931 22.6896 11.7665C22.6896 11.6398 22.587 11.5371 22.4603 11.5371C22.3336 11.5371 22.231 11.6398 22.231 11.7665C22.231 11.8931 22.3336 11.9958 22.4603 11.9958Z" fill="#FF834F"/>
<path d="M22.4603 9.63307C22.553 9.63307 22.6282 9.55792 22.6282 9.46522C22.6282 9.37251 22.553 9.29736 22.4603 9.29736C22.3676 9.29736 22.2925 9.37251 22.2925 9.46522C22.2925 9.55792 22.3676 9.63307 22.4603 9.63307Z" fill="#FF834F"/>
<path d="M22.4602 7.27152C22.5194 7.27152 22.5674 7.22352 22.5674 7.16432C22.5674 7.10512 22.5194 7.05713 22.4602 7.05713C22.401 7.05713 22.353 7.10512 22.353 7.16432C22.353 7.22352 22.401 7.27152 22.4602 7.27152Z" fill="#FF834F"/>
<path d="M23.6037 29.7079C23.9786 29.7079 24.2826 29.4039 24.2826 29.029C24.2826 28.654 23.9786 28.3501 23.6037 28.3501C23.2288 28.3501 22.9248 28.654 22.9248 29.029C22.9248 29.4039 23.2288 29.7079 23.6037 29.7079Z" fill="#FF834F"/>
<path d="M23.6023 27.3477C23.9447 27.3477 24.2222 27.0702 24.2222 26.7278C24.2222 26.3854 23.9447 26.1079 23.6023 26.1079C23.26 26.1079 22.9824 26.3854 22.9824 26.7278C22.9824 27.0702 23.26 27.3477 23.6023 27.3477Z" fill="#FF834F"/>
<path d="M23.6014 24.988C23.9112 24.988 24.1623 24.7369 24.1623 24.4271C24.1623 24.1173 23.9112 23.8662 23.6014 23.8662C23.2916 23.8662 23.0405 24.1173 23.0405 24.4271C23.0405 24.7369 23.2916 24.988 23.6014 24.988Z" fill="#FF834F"/>
<path d="M23.6005 22.6268C23.8777 22.6268 24.1024 22.4021 24.1024 22.1249C24.1024 21.8478 23.8777 21.623 23.6005 21.623C23.3233 21.623 23.0986 21.8478 23.0986 22.1249C23.0986 22.4021 23.3233 22.6268 23.6005 22.6268Z" fill="#FF834F"/>
<path d="M23.6 20.2678C23.845 20.2678 24.0437 20.0692 24.0437 19.8241C24.0437 19.579 23.845 19.3804 23.6 19.3804C23.3549 19.3804 23.1562 19.579 23.1562 19.8241C23.1562 20.0692 23.3549 20.2678 23.6 20.2678Z" fill="#FF834F"/>
<path d="M23.5991 17.9076C23.8116 17.9076 23.9838 17.7354 23.9838 17.5229C23.9838 17.3104 23.8116 17.1382 23.5991 17.1382C23.3866 17.1382 23.2144 17.3104 23.2144 17.5229C23.2144 17.7354 23.3866 17.9076 23.5991 17.9076Z" fill="#FF834F"/>
<path d="M23.5982 15.547C23.7781 15.547 23.9239 15.4011 23.9239 15.2212C23.9239 15.0413 23.7781 14.8955 23.5982 14.8955C23.4183 14.8955 23.2725 15.0413 23.2725 15.2212C23.2725 15.4011 23.4183 15.547 23.5982 15.547Z" fill="#FF834F"/>
<path d="M23.5983 13.1868C23.7456 13.1868 23.865 13.0674 23.865 12.9201C23.865 12.7727 23.7456 12.6533 23.5983 12.6533C23.451 12.6533 23.3315 12.7727 23.3315 12.9201C23.3315 13.0674 23.451 13.1868 23.5983 13.1868Z" fill="#FF834F"/>
<path d="M23.5969 10.8271C23.7116 10.8271 23.8046 10.7341 23.8046 10.6194C23.8046 10.5046 23.7116 10.4116 23.5969 10.4116C23.4822 10.4116 23.3892 10.5046 23.3892 10.6194C23.3892 10.7341 23.4822 10.8271 23.5969 10.8271Z" fill="#FF834F"/>
<path d="M23.5954 8.4676C23.678 8.4676 23.7449 8.40063 23.7449 8.31803C23.7449 8.23542 23.678 8.16846 23.5954 8.16846C23.5128 8.16846 23.4458 8.23542 23.4458 8.31803C23.4458 8.40063 23.5128 8.4676 23.5954 8.4676Z" fill="#FF834F"/>
<path d="M23.5945 6.10791C23.6445 6.10791 23.6851 6.06735 23.6851 6.01733C23.6851 5.96731 23.6445 5.92676 23.5945 5.92676C23.5445 5.92676 23.5039 5.96731 23.5039 6.01733C23.5039 6.06735 23.5445 6.10791 23.5945 6.10791Z" fill="#FF834F"/>
</svg>
