<svg width="20" height="20" viewBox="0 0 20 20" fill="none" xmlns="http://www.w3.org/2000/svg">
<g clip-path="url(#clip0_2138_30333)">
<path d="M2.14293 8.57129H3.5715C3.76094 8.57129 3.94262 8.64654 4.07657 8.7805C4.21053 8.91445 4.28578 9.09613 4.28578 9.28557V12.857C4.28578 13.0464 4.21053 13.2281 4.07657 13.3621C3.94262 13.496 3.76094 13.5713 3.5715 13.5713H2.14293C1.76405 13.5713 1.40068 13.4208 1.13277 13.1529C0.864865 12.885 0.714355 12.5216 0.714355 12.1427V9.99986C0.714355 9.62098 0.864865 9.25762 1.13277 8.98971C1.40068 8.7218 1.76405 8.57129 2.14293 8.57129V8.57129Z" stroke="white" stroke-linecap="round" stroke-linejoin="round"/>
<path d="M17.8573 13.5713H16.4287C16.2393 13.5713 16.0576 13.496 15.9237 13.3621C15.7897 13.2281 15.7145 13.0464 15.7145 12.857V9.28557C15.7145 9.09613 15.7897 8.91445 15.9237 8.7805C16.0576 8.64654 16.2393 8.57129 16.4287 8.57129H17.8573C18.2362 8.57129 18.5996 8.7218 18.8675 8.98971C19.1354 9.25762 19.2859 9.62098 19.2859 9.99986V12.1427C19.2859 12.5216 19.1354 12.885 18.8675 13.1529C18.5996 13.4208 18.2362 13.5713 17.8573 13.5713V13.5713Z" stroke="white" stroke-linecap="round" stroke-linejoin="round"/>
<path d="M13.5715 17.4999C14.3293 17.4999 15.056 17.1988 15.5918 16.663C16.1277 16.1272 16.4287 15.4005 16.4287 14.6427V13.5713" stroke="white" stroke-linecap="round" stroke-linejoin="round"/>
<path d="M11.7857 15.7144C12.2593 15.7144 12.7136 15.9025 13.0484 16.2374C13.3833 16.5723 13.5715 17.0265 13.5715 17.5001C13.5715 17.9737 13.3833 18.4279 13.0484 18.7628C12.7136 19.0976 12.2593 19.2858 11.7857 19.2858H9.64289C9.16929 19.2858 8.71509 19.0976 8.3802 18.7628C8.04531 18.4279 7.85718 17.9737 7.85718 17.5001C7.85718 17.0265 8.04531 16.5723 8.3802 16.2374C8.71509 15.9025 9.16929 15.7144 9.64289 15.7144H11.7857Z" stroke="white" stroke-linecap="round" stroke-linejoin="round"/>
<path d="M3.57153 8.5715V7.14293C3.57153 5.43796 4.24883 3.80283 5.45442 2.59724C6.66001 1.39165 8.29514 0.714355 10.0001 0.714355C11.7051 0.714355 13.3402 1.39165 14.5458 2.59724C15.7514 3.80283 16.4287 5.43796 16.4287 7.14293V8.5715" stroke="white" stroke-linecap="round" stroke-linejoin="round"/>
<path d="M7.85718 5.71436V7.85721" stroke="white" stroke-linecap="round" stroke-linejoin="round"/>
<path d="M12.1428 5.71436V7.85721" stroke="white" stroke-linecap="round" stroke-linejoin="round"/>
<path d="M7.85718 10.7144C7.85718 12.6144 12.1429 12.6144 12.1429 10.7144" stroke="white" stroke-linecap="round" stroke-linejoin="round"/>
</g>
<defs>
<clipPath id="clip0_2138_30333">
<rect width="20" height="20" fill="white"/>
</clipPath>
</defs>
</svg>
