<svg width="18" height="18" viewBox="0 0 18 18" fill="none" xmlns="http://www.w3.org/2000/svg">
<path d="M4.50004 9.64314C4.85508 9.64314 5.14289 9.35532 5.14289 9.00028C5.14289 8.64524 4.85508 8.35742 4.50004 8.35742C4.14499 8.35742 3.85718 8.64524 3.85718 9.00028C3.85718 9.35532 4.14499 9.64314 4.50004 9.64314Z" stroke="white" stroke-linecap="round" stroke-linejoin="round"/>
<path d="M8.6785 9.64314C9.03354 9.64314 9.32136 9.35532 9.32136 9.00028C9.32136 8.64524 9.03354 8.35742 8.6785 8.35742C8.32346 8.35742 8.03564 8.64524 8.03564 9.00028C8.03564 9.35532 8.32346 9.64314 8.6785 9.64314Z" stroke="white" stroke-linecap="round" stroke-linejoin="round"/>
<path d="M12.8572 9.64314C13.2123 9.64314 13.5001 9.35532 13.5001 9.00028C13.5001 8.64524 13.2123 8.35742 12.8572 8.35742C12.5022 8.35742 12.2144 8.64524 12.2144 9.00028C12.2144 9.35532 12.5022 9.64314 12.8572 9.64314Z" stroke="white" stroke-linecap="round" stroke-linejoin="round"/>
<path d="M8.99997 0.643068C7.48827 0.643538 6.00502 1.05403 4.70818 1.83083C3.41133 2.60762 2.34948 3.72163 1.6357 5.05419C0.921916 6.38676 0.582948 7.88797 0.654894 9.39795C0.72684 10.9079 1.20701 12.3701 2.04425 13.6288L0.642822 17.3574L5.33568 16.5088C6.4657 17.061 7.70579 17.351 8.96351 17.3572C10.2212 17.3635 11.4641 17.0857 12.5996 16.5448C13.735 16.0038 14.7337 15.2135 15.5212 14.2328C16.3087 13.2521 16.8647 12.1063 17.1477 10.8808C17.4307 9.65536 17.4335 8.38181 17.1558 7.15512C16.8781 5.92842 16.3272 4.78022 15.5439 3.79611C14.7607 2.812 13.7655 2.01735 12.6324 1.47141C11.4994 0.925477 10.2577 0.642325 8.99997 0.643068V0.643068Z" stroke="white" stroke-linecap="round" stroke-linejoin="round"/>
</svg>
