<svg width="18" height="18" viewBox="0 0 18 18" fill="none" xmlns="http://www.w3.org/2000/svg">
<g clip-path="url(#clip0_2138_30343)">
<path d="M11.2627 16.714C12.0545 17.2248 12.998 17.4474 13.9346 17.3444C14.8712 17.2414 15.7438 16.819 16.4056 16.1483L16.9842 15.5826C17.2378 15.3232 17.3798 14.9747 17.3798 14.6119C17.3798 14.2491 17.2378 13.9006 16.9842 13.6412L14.5285 11.2112C14.2712 10.9583 13.9249 10.8167 13.5642 10.8167C13.2034 10.8167 12.8572 10.9583 12.5999 11.2112V11.2112C12.3404 11.4648 11.992 11.6069 11.6292 11.6069C11.2663 11.6069 10.9179 11.4648 10.6585 11.2112L6.80131 7.35404C6.67264 7.22724 6.57046 7.07612 6.50072 6.90947C6.43097 6.74283 6.39506 6.56398 6.39506 6.38333C6.39506 6.20267 6.43097 6.02382 6.50072 5.85718C6.57046 5.69053 6.67264 5.53941 6.80131 5.41261V5.41261C7.05415 5.15534 7.19583 4.80905 7.19583 4.44833C7.19583 4.0876 7.05415 3.74132 6.80131 3.48404L4.35845 1.04118C4.099 0.787531 3.75058 0.645508 3.38774 0.645508C3.0249 0.645508 2.67647 0.787531 2.41702 1.04118L1.85131 1.61975C1.18061 2.28157 0.758238 3.15413 0.655213 4.09073C0.552187 5.02732 0.774791 5.97084 1.28559 6.76261C3.94708 10.685 7.33351 14.0627 11.2627 16.714V16.714Z" stroke="white" stroke-linecap="round" stroke-linejoin="round"/>
</g>
<defs>
<clipPath id="clip0_2138_30343">
<rect width="18" height="18" fill="white"/>
</clipPath>
</defs>
</svg>
