<svg width="19" height="20" viewBox="0 0 19 20" fill="none" xmlns="http://www.w3.org/2000/svg">
<path d="M9.24546 3.83643L3.85254 6.14768L9.24546 8.45893L14.6384 6.14768L9.24546 3.83643Z" stroke="white" stroke-width="1.5" stroke-linejoin="round"/>
<path fill-rule="evenodd" clip-rule="evenodd" d="M4.85607 8.75391L3.5571 9.31061C3.28134 9.42879 3.10254 9.69995 3.10254 9.99997C3.10254 10.3 3.28134 10.5711 3.5571 10.6893L8.95002 13.0006C9.13868 13.0814 9.35223 13.0814 9.54089 13.0006L14.9338 10.6893C15.2096 10.5711 15.3884 10.3 15.3884 9.99997C15.3884 9.69995 15.2096 9.42879 14.9338 9.31061L13.6348 8.75391L11.7309 9.56988L12.7344 9.99997L9.24546 11.4952L5.75648 9.99997L6.76002 9.56988L4.85607 8.75391Z" fill="white"/>
<path fill-rule="evenodd" clip-rule="evenodd" d="M4.85607 12.606L3.5571 13.1627C3.28134 13.2808 3.10254 13.552 3.10254 13.852C3.10254 14.152 3.28134 14.4232 3.5571 14.5414L8.95002 16.8526C9.13868 16.9335 9.35223 16.9335 9.54089 16.8526L14.9338 14.5414C15.2096 14.4232 15.3884 14.152 15.3884 13.852C15.3884 13.552 15.2096 13.2808 14.9338 13.1627L13.6348 12.606L11.7309 13.4219L12.7344 13.852L9.24546 15.3473L5.75648 13.852L6.76002 13.4219L4.85607 12.606Z" fill="white"/>
</svg>
