<svg width="19" height="20" viewBox="0 0 19 20" fill="none" xmlns="http://www.w3.org/2000/svg">
<path d="M8.49527 13.6569C8.49527 14.0711 8.83106 14.4069 9.24527 14.4069C9.65949 14.4069 9.99527 14.0711 9.99527 13.6569H8.49527ZM9.99527 13.6514C9.99527 13.2372 9.65949 12.9014 9.24527 12.9014C8.83106 12.9014 8.49527 13.2372 8.49527 13.6514H9.99527ZM8.49526 12.006C8.49526 12.4202 8.83105 12.756 9.24526 12.756C9.65948 12.756 9.99526 12.4202 9.99526 12.006H8.49526ZM6.32756 7.2587C6.19783 7.65207 6.41155 8.07613 6.80493 8.20586C7.1983 8.33559 7.62236 8.12186 7.75209 7.72849L6.32756 7.2587ZM9.99527 13.6569V13.6514H8.49527V13.6569H9.99527ZM10.8065 8.15395C10.8065 8.46023 10.7235 8.61586 10.6211 8.73776C10.4816 8.90387 10.2958 9.02703 9.96496 9.26333C9.66739 9.47588 9.2795 9.76619 8.98135 10.2158C8.67214 10.6821 8.49526 11.2608 8.49526 12.006H9.99526C9.99526 11.5131 10.1073 11.232 10.2314 11.0448C10.3667 10.8409 10.5566 10.6841 10.8368 10.4839C11.0838 10.3075 11.4758 10.0523 11.7697 9.70255C12.1006 9.30854 12.3065 8.81069 12.3065 8.15395H10.8065ZM9.24526 6.70276C10.1424 6.70276 10.8065 7.38654 10.8065 8.15395H12.3065C12.3065 6.48999 10.901 5.20276 9.24526 5.20276V6.70276ZM7.75209 7.72849C7.94194 7.15282 8.52346 6.70276 9.24526 6.70276V5.20276C7.89727 5.20276 6.72674 6.04827 6.32756 7.2587L7.75209 7.72849ZM15.429 9.80484C15.429 13.22 12.6605 15.9886 9.24527 15.9886V17.4886C13.4889 17.4886 16.929 14.0485 16.929 9.80484H15.429ZM9.24527 15.9886C5.83008 15.9886 3.06152 13.22 3.06152 9.80484H1.56152C1.56152 14.0485 5.00166 17.4886 9.24527 17.4886V15.9886ZM3.06152 9.80484C3.06152 6.38965 5.83008 3.62109 9.24527 3.62109V2.12109C5.00166 2.12109 1.56152 5.56123 1.56152 9.80484H3.06152ZM9.24527 3.62109C12.6605 3.62109 15.429 6.38965 15.429 9.80484H16.929C16.929 5.56123 13.4889 2.12109 9.24527 2.12109V3.62109Z" fill="white"/>
</svg>
