<svg width="19" height="20" viewBox="0 0 19 20" fill="none" xmlns="http://www.w3.org/2000/svg">
<g clip-path="url(#clip0_2266_5421)">
<path d="M14.6405 3.06504H13.8699V1.52393H12.3288V3.06504H6.16432V1.52393H4.6232V3.06504H3.85264C3.00503 3.06504 2.31152 3.75855 2.31152 4.60616V15.394C2.31152 16.2416 3.00503 16.9351 3.85264 16.9351H14.6405C15.4881 16.9351 16.1816 16.2416 16.1816 15.394V4.60616C16.1816 3.75855 15.4881 3.06504 14.6405 3.06504ZM14.6405 15.394H3.85264V7.6884H14.6405V15.394ZM3.85264 6.14728V4.60616H14.6405V6.14728H3.85264ZM8.13695 14.2073L12.7064 9.63791L11.8896 8.82112L8.13695 12.5737L6.51107 10.9479L5.69428 11.7647L8.13695 14.2073Z" fill="white"/>
</g>
<defs>
<clipPath id="clip0_2266_5421">
<rect width="18.4934" height="18.4934" fill="white" transform="translate(0 0.753418)"/>
</clipPath>
</defs>
</svg>
