<svg width="19" height="20" viewBox="0 0 19 20" fill="none" xmlns="http://www.w3.org/2000/svg">
<path d="M3.08203 6.9102C3.08203 5.72531 3.08203 5.13286 3.32512 4.68595C3.50938 4.3472 3.78763 4.06895 4.12638 3.88469C4.57329 3.6416 5.16574 3.6416 6.35063 3.6416V3.6416C6.86787 3.6416 7.12649 3.6416 7.36915 3.70333C7.55504 3.75061 7.73316 3.82439 7.89804 3.9224C8.11327 4.05034 8.29614 4.23321 8.66188 4.59895L8.89887 4.83594C9.4226 5.35967 9.68446 5.62153 10.0117 5.77133C10.0561 5.79167 10.1013 5.81038 10.1471 5.82741C10.4843 5.95285 10.8547 5.95285 11.5953 5.95285V5.95285C13.3001 5.95285 14.1525 5.95285 14.7156 6.43888C14.7896 6.50276 14.8588 6.57198 14.9227 6.64599C15.4087 7.20904 15.4087 8.06143 15.4087 9.76622V11.1978C15.4087 13.0835 15.4087 14.0263 14.8229 14.6121C14.2371 15.1979 13.2943 15.1979 11.4087 15.1979H7.08203C5.19641 15.1979 4.2536 15.1979 3.66782 14.6121C3.08203 14.0263 3.08203 13.0835 3.08203 11.1979V6.9102Z" stroke="white" stroke-width="1.5"/>
<path d="M3 9.40234L16 9.40234" stroke="white" stroke-width="1.5" stroke-miterlimit="1.41421"/>
</svg>
